<?xml version="1.0" encoding="utf-8"?>
<!-- Generator: Adobe Illustrator 25.0.1, SVG Export Plug-In . SVG Version: 6.00 Build 0)  -->
<svg version="1.1" id="Layer_1" xmlns="http://www.w3.org/2000/svg" xmlns:xlink="http://www.w3.org/1999/xlink" x="0px" y="0px"
	 viewBox="0 0 800 800" style="enable-background:new 0 0 800 800;" xml:space="preserve">
<style type="text/css">
	.st0{fill:#FFFFFF;}
</style>
<g>
	<path class="st0" d="M621.91,277.73c-1.47,4.41-4.42,7.91-7.14,11.53c-9.55,12.7-20.98,23.51-33.21,33.61
		c-9.67,7.99-19.42,15.85-29.41,23.44c-0.91,0.69-1.84,1.37-2.85,1.88c-1.27,0.65-1.81,1.55-2.12,2.97
		c-1.19,5.46-1.25,5.46,4.15,4.28c3.49-0.76,3.49-0.76,7.17,1.63c-2.04,3.27-5.26,5.22-8.21,7.45c-1.81,1.37-3.78,2.54-5.67,3.81
		c-0.54,0.37-1.04,0.91-0.6,1.54c0.19,0.28,0.94,0.39,1.34,0.26c2.47-0.8,4.91-1.69,7.36-2.55c0.6-0.21,1.2-0.42,1.95-0.37
		c-1.43,1.93-3.59,2.96-5.78,3.37c-5.09,0.95-6.81,4.06-7.79,8.9c-2.35,11.64-4,23.45-7.45,34.83c-2.27,7.49-3.33,15.26-5.48,22.76
		c-0.27,0.93-0.34,1.92-0.46,2.89c-0.24,1.91,0.21,3.49,1.98,4.6c1.24,0.77,2.3,1.82,3.51,2.64c7.2,4.82,12.26,11.2,13.78,19.86
		c0.51,2.9,1.99,4.15,4.53,4.94c4.65,1.46,9.28,3.01,13.86,4.68c2.28,0.83,4.59,1.77,6.63,3.05c11.03,6.91,20.52,15.47,27.87,26.3
		c7.5,11.05,14.86,22.17,21.37,33.86c3.32,5.96,6.89,11.91,11.22,17.15c3.8,4.6,6.38,9.75,9.28,14.8
		c6.81,11.86,14.31,23.31,20.66,35.45c2.26,4.32,5.81,7.83,7.99,12.22c0.41,0.83,1.42,1.59,0.44,2.53c-0.82,0.8-1.81,0.31-2.73-0.05
		c-3.09-1.21-5.63-3.23-8.07-5.41c-6.09-5.48-11.11-11.88-15.96-18.44c-4.65-6.29-9.23-12.63-14.13-18.72
		c-6.27-7.79-14.07-13.98-21.94-20.06c-7.65-5.91-16.14-10.39-24.77-14.64c-5.18-2.55-10.66-4.07-16.42-4.25
		c-4.05-0.13-7.99-1.04-12.15-0.66c-6.49,0.6-12.12,3.4-18.51,5.7c2.51,1.91,5.16,1.89,7.53,2.57c9.44,2.7,16.94,7.94,21.97,16.47
		c2.31,3.91,5.3,7.43,6.77,11.82c0.46,1.39,1.09,2.74,1.41,4.16c0.58,2.61-0.73,4.63-3.42,4.68c-1.95,0.04-3.38,0.85-4.99,1.6
		c-4.28,1.98-8.56,4-12.97,5.66c-6.77,2.55-12.93,6.09-18.41,10.77c-10.64,9.08-21.13,18.35-31.08,28.2
		c-5.58,5.52-10.1,11.86-14.43,18.36c-7.37,11.07-15.01,21.96-22.11,33.2c-5.11,8.08-10.24,16.18-14.64,24.7
		c-1.51,2.91-2.27,6.09-3.13,9.23c-0.31,1.15-0.31,2.65-2.32,2.28c-0.78-0.15-0.75,0.92-1.02,1.45
		c-4.07,7.81-7.34,15.95-10.22,24.26c-0.85,2.46-1.73,4.91-2.49,7.39c-0.58,1.89-1.73,2.91-3.91,3.31
		c0.44-9.65,2.58-18.55,6.22-27.16c5.52-13.03,11.52-25.84,18.81-37.96c6.85-11.41,14.18-22.54,21.25-33.82
		c5.08-8.11,10.34-16.08,16.56-23.4c5.18-6.09,11.08-11.41,17.13-16.58c9.27-7.93,18.79-15.58,28.78-22.57
		c8.26-5.78,16.67-11.41,26.7-13.86c2.05-0.5,2.5-1.34,1.41-3.15c-2.95-4.87-6.01-9.68-9.21-14.39c-0.78-1.15-2.15-2-3.42-2.69
		c-6.44-3.51-13.11-6.52-20.02-8.99c-1.85-0.66-3.77-1.23-5.73-1.01c-2.02,0.22-3.78-0.65-6.11-0.69c0.85-1.93,2.29-2.57,3.65-3.27
		c3.33-1.7,6.69-3.36,10-5.1c2.32-1.22,4.7-2.2,7.26-2.81c3.16-0.76,6.35-1.5,9.42-2.55c9.98-3.41,19.82-2.28,29.81,0.18
		c16.39,4.03,28.83,13.83,39.84,26.04c8.32,9.22,15.48,19.3,22.48,29.51c1.19,1.74,2.41,3.46,3.67,5.27
		c1.16-1.17,0.03-1.89-0.35-2.5c-8.22-13.12-15.33-26.84-22.43-40.59c-8.74-16.92-18.49-33.29-30.34-48.33
		c-6.76-8.59-14.34-15.94-24.41-20.54c-4.57-2.09-8.74-5.04-13.79-6.09c-2.4-0.5-4.8-1.19-7.2-0.45c-1.95,0.6-2.78-0.3-3.22-1.89
		c-0.56-2.04-0.92-4.13-1.45-6.18c-1.36-5.25-4.41-9.38-8.61-12.7c-2.02-1.6-3.82-3.52-6.35-4.68c-1.5,3.37-1.37,6.86-2.09,10.17
		c-1.79,8.25-3.51,16.52-5.31,24.77c-0.49,2.23-1.46,4.31-2.57,6.31c-1.19,2.15-2.1,4.38-2.39,6.86c-0.91,7.57-2.31,15.05-3.81,22.6
		c1.14-2.25,2.12-4.58,3.44-6.72c3.93-6.38,6.87-13.18,9.34-20.22c0.75-2.14,1.85-4.15,2.78-6.23c0.5-1.12,1.41-1.15,2.44-1.01
		c1.39,0.19,1.44,1.24,1.27,2.19c-1.74,9.22-2.67,18.67-8.07,26.83c-2.05,3.1-3.75,6.47-5.33,9.85
		c-3.93,8.41-9.23,16.02-13.78,24.06c-2.72,4.81-5.45,9.63-8.7,14.12c-0.47,0.65-0.82,1.4-1.15,2.14
		c-6.09,13.76-13.99,26.5-22.24,39c-11.87,17.98-22.18,36.85-31.92,56c-9.69,19.05-14.79,39.55-15.97,60.98
		c-0.41,7.49-0.66,14.95-0.03,22.44c0.2,2.45,0.35,4.87,1.22,7.17c2.63,6.95,2.53,14.38,3.8,21.56c0.98,5.55,2.24,11.1,2.3,16.82
		c-1.36,0.02-1.2-0.99-1.35-1.66c-0.72-3.34-1.34-6.7-2.09-10.03c-0.67-2.95-0.69-6.12-3.24-8.44c-0.73-0.67-0.91-2.06-1.13-3.17
		c-0.8-4.15-1.85-8.3-2.15-12.49c-0.3-4.18-2.01-7.41-4.65-10.46c-6.38-7.34-13.84-13.29-22.39-17.91
		c-15.21-8.21-30.83-15.4-47.35-20.68c-18.28-5.85-36.42-12.13-54.59-18.32c-9.73-3.32-19.8-5.28-29.72-7.86
		c-1.77-0.46-3.75-1.25-5.63,0.19c-1.32,1.02-2.33,0.24-3.33-0.83c-1.11-1.19-1.65-2.25-0.82-3.88c2.58-5.06,5.17-10.12,7.54-15.28
		c6.64-14.51,15.21-27.91,23.39-41.54c3.67-6.12,6.72-12.61,10.84-18.5c-1.19-1.07-2.11,0.07-3.07,0.34
		c-4.39,1.2-8.76,2.47-13.13,3.76c-6.29,1.85-11.89,5.22-17.65,8.2c-7.2,3.74-14.3,7.66-21.87,10.65
		c-8.36,3.31-16.04,7.88-23.58,12.72c-8.33,5.35-16.7,10.66-24.95,16.13c-13.27,8.8-26.37,17.86-38.18,28.62
		c-0.6,0.55-1.24,1.06-1.93,1.49c-1.22,0.76-2.54,1.96-3.98,0.95c-1.78-1.24-3.97-2.24-3.71-5.19c0.32-3.74,0.47-7.48,1.56-11.1
		c4.24-14.19,8.52-28.35,13.3-42.37c2.88-8.45,5.19-17.1,8.47-25.42c1.07-2.72,2.02-5.52,3.36-8.11c3.45-6.67,5.39-13.91,8.02-20.88
		c3.53-9.37,8.42-17.95,13.95-26.2c2.9-4.33,5.74-8.66,8.22-13.25c2.78-5.15,6.29-9.85,9.7-14.61c2.33-3.25,4.44-6.59,7.38-9.34
		c1.68-1.57,3.47-2.97,5.45-4.09c6.08-3.45,12.13-6.95,18.33-10.18c13.69-7.13,27.52-13.99,41.17-21.19
		c5.31-2.8,10.24-6.32,14.42-10.74c3.73-3.95,8.37-6.74,12.87-9.61c3.16-2.01,7.07-1.97,11.05-0.66
		c-0.03-5.74-1.29-10.97-2.78-16.03c-4.01-13.57-6.19-27.51-9.09-41.31c-0.25-1.2-0.54-2.16-1.61-2.81
		c-0.27-0.17-0.61-0.39-0.7-0.66c-1.6-4.52-5.52-4.3-9.21-4.5c-22.51-1.25-43.98-6.61-64.45-16.1c-7.41-3.44-14.57-7.2-21-12.31
		c-3.41-2.71-6.02-6.42-10.24-8.13c-0.55-0.22-0.96-0.88-1.33-1.4c-5.17-7.29-11.2-13.93-15.96-21.56
		c-5.4-8.66-7.59-17.79-6.26-27.94c2.41-18.47,8.97-35.23,20.14-50.15c5.17-6.91,10.08-14.02,16.19-20.19
		c6.57-6.64,13.97-12.24,21.73-17.35c2.9-1.91,4.07-4.11,4.24-7.53c0.92-18.08,3.42-35.97,7.62-53.57
		c2.11-8.85,4.99-17.52,7.62-26.24c1.81-6.01,5.08-11.31,8.85-16.22c12.16-15.9,23.53-32.42,37.12-47.21
		c10.62-11.57,22.55-21.05,37.38-26.73c12.45-4.77,24.49-10.63,37.3-14.45c11.84-3.54,23.71-6.99,35.75-9.87
		c9.43-2.26,18.72-1.83,28,0.67c7.54,2.03,15.14,3.85,22.65,5.99c12.29,3.5,23.78,8.9,34.64,15.54
		c15.55,9.5,29.25,21.17,40.78,35.37c4.04,4.97,7.47,10.26,10.14,16.06c1.31,2.83,2.92,5.41,4.92,7.81
		c5.53,6.62,9.03,14.31,11.11,22.61c2.33,9.31,5.89,18.35,6.92,27.92c0.56,5.2,2.99,9.91,3.16,15.13c0.03,0.81,0.72,0.97,1.29,1.2
		c1.2,0.5,2.41,0.98,3.63,1.44c6.42,2.4,12.49,5.52,18.41,8.97c14.21,8.29,24.66,20.14,32.35,34.48c5.64,10.51,7.26,21.8,5.53,33.61
		c-1.13,7.72-1.91,15.49-4.16,23c-0.28,0.95-0.54,1.86-1.23,2.59c0-1.02,0-2.03,0-4.2c-2.21,4.76-3.79,8.45-5.63,12.01
		c-1.79,3.47-3.84,6.8-5.78,10.19c0.17,0.1,0.35,0.2,0.52,0.3C620.24,279.11,621.08,278.42,621.91,277.73z M599.11,217.79
		c-2.81-2.95-6.67-3.8-10.28-5.13c2.83,2.97,6.53,4.13,10.35,5.05c4.67,3.81,9.34,7.63,14.01,11.44
		C609.79,223.68,605.41,219.49,599.11,217.79z M513.14,366.12c1.64,0.01,3.21,0.32,4.77,0.84c4.24,1.42,8.63,1.41,13.03,1.27
		c1.34-0.04,2.64-0.14,3.54-1.26c0.38-0.47,0.74-1.12,0.75-1.69c0-0.93-0.91-0.75-1.48-0.75c-6.51-0.04-13.01-0.05-19.52-0.07
		c-0.87,0-1.58,0.28-1.98,1.12c-0.45-1.13-0.01-2.72-1.63-3.25c-3.03-0.99-5.9-2.56-9.34-2.71c3.27,7.16,12.89,11.94,21.23,10.26
		C519.01,368.57,515.76,368.05,513.14,366.12z M630.84,211.35c-0.45,1.61-0.43,3.26,0.01,4.82c0.89,3.21,0.47,6.46,0.44,9.69
		c-0.01,1.97-1.19,3.95,0.94,5.72c0.69,0.57,0.29,2.14,0,3.28c-1.41,5.49-2.79,10.98-4.16,16.48c-0.5,2-0.95,4.01-1.42,6.02
		c2.81-5.76,4.29-11.87,5.55-18.03c1.21-5.92,1.63-11.9,0.6-17.9c-0.57-3.35-1.33-6.67-2-10c-8.47-20.61-25.68-37.89-41.41-43.55
		c2.35,1.83,4.68,3.6,6.95,5.43c5.07,4.1,9.35,9.03,14.11,13.44c7.34,6.8,13.37,14.6,18.69,23
		C629.6,210.44,629.92,211.2,630.84,211.35z M367.33,24.99c-1.35-0.02-2.52,0.54-3.73,1.04c-8.72,3.59-17.44,7.21-26.19,10.75
		c-13.12,5.3-23.81,13.85-33.26,24.23c-5.81,6.38-10.93,13.27-16.08,20.16c-5.56,7.43-11.48,14.57-16.1,22.68
		c-5.41,9.5-9.91,19.42-14.04,29.52c-1.51,3.71-2.08,7.66-2.36,11.66c2.31-5.7,4.29-11.47,6.85-17.09
		c10.14-22.26,22.59-42.9,39.48-60.74c5.38-5.69,10.58-11.51,17.37-15.62c6.68-4.05,13.31-8.18,19.95-12.3
		c7.22-4.47,14.8-8.19,22.67-11.35c1.93-0.77,4.08-1.13,5.67-2.64c3.7-0.58,7.01-2.31,10.45-3.66
		C374.18,21.83,370.61,22.96,367.33,24.99z M432.95,383.94c2.47-2.54,4.94-5.09,7.41-7.63c1.4-0.44,2.56-1.28,3.74-2.15
		c0.99-0.73,1.65-2.21,3.67-2.07c-1.91,4.31-5.77,6.58-8.47,10.68c3-1.23,4.69-2.66,6.07-4.5c0.95-1.27,1.77-2.69,3.37-3.3
		c0.05,1.29,0.03,2.59,0.18,3.87c0.21,1.83,0.82,2.1,2.64,1.41c0.93-0.35,1.61-0.8,2.16-1.76c2.16-3.81,5.22-7.02,7.21-11.41
		c2.3,9.24,3.43,11.71,6.37,13.99c0.19-2.94-1.06-5.85,0.07-8.67c1.4,0.02,0.97,1.19,1.4,1.77c0.4,0.53,0.81,1.18,1.49,1.11
		c0.78-0.08,0.8-0.87,0.83-1.51c0.07-1.63,0.08-3.26,0.2-4.88c0.1-1.32-0.14-2.78,1.68-4.53c-1.38,7.4-1.65,13.88,2.49,19.93
		c-1.33-0.08-1.65-0.71-2.12-1.14c-0.59-0.54-1.18-1.1-1.84-1.54c-1.33-0.88-1.63-0.68-1.79,1.09c-0.22,2.58-1.2,3.23-3.33,2.15
		c-1.94-0.98-3.41-2.49-4.59-4.29c-0.71-1.09-1.32-2.25-2.06-3.51c-1.37,2.2-0.71,4.13-0.54,6.05c0.04,0.41-0.29,0.57-0.62,0.46
		c-1.34-0.37-0.99-2.15-2.18-3.2c-1.95,4.12-5.52,5.29-8.88,6.87c-1.49,0.7-2.57,0.66-3.27-0.72c-1.02-2.03-2.35-1.59-4.05-1.05
		c-3.69,1.17-7.51,1.74-11.37,1.98c-4.14,0.25-4.14,0.23-5.01-4c-1.68,0.67-3.31,1.36-4.98,1.96c-1.22,0.43-2.46,0.92-3.73,1.05
		c-2.13,0.22-2.84-0.73-2.31-2.86c0.18-0.75,0.84-1.43,0.02-2.44c-1.2,0.65-2.47,1.28-3.68,2c-3.58,2.11-7.54,3.02-11.59,3.57
		c-2.59,0.35-3.14-0.43-2.36-3.06c0.17-0.59,0.74-1.08,0.24-2.05c-6.1,3.38-12.76,4.41-19.62,3.97c-9.95-0.64-17.7-4.97-22.38-14.07
		c-0.38-0.74-0.93-1.55,0.07-2.61c1.46,3.21,3.47,5.74,6,7.85c0.74,0.62,1.72,1.63,2.55,1.1c2-1.28,3.79-0.07,5.66,0.05
		c5.12,0.34,10.05-0.07,14.5-3.08c1.46-0.99,3.19-1.64,4.86-2.24c2.17-0.78,4.18-1.82,6-3.21c8.45-6.43,16.47-13.3,22.71-22.02
		c0.49-0.68,0.81-1.89,2.13-1.27c-0.46,3.4-2.97,5.81-4.19,8.84c2.29-1.45,4.3-3.1,6.38-4.66c3.81-2.85,6.85-6.04,5.8-11.39
		c-0.15-0.76,0.07-1.63,0.28-2.41c0.67-2.5,0.66-5.77,2.72-7.12c2.5-1.64,3.4-4.12,5.12-6.13c0.7-0.82,1.1-2.02,2.56-2.07
		c0.67,1.63-0.56,2.76-1.17,3.98c-1.66,3.35-3.51,6.62-5.19,9.96c-0.88,1.75-1.55,3.6-1.27,5.64c0.18,1.31,0.56,2.13,2.03,2.86
		c2.94,1.48,5.91,2.28,9.15,2.36c3.73,0.1,7.47,0.47,11.2,0.39c3.28-0.06,5.67,1.36,7.49,3.8c1.34,1.8,3.04,2.91,5.02,3.69
		c2.27,0.9,4.53,1.83,6.85,2.55c8.38,2.6,15.72,1.04,21.82-5.54c3.12-3.36,6.64-6.24,10.92-8.05c1.08-0.46,2-1.07,2.76-1.95
		c0.95-1.1,1.14-2.15,0.28-3.51c-1.73-2.76-3.15-5.8-5.84-7.74c-4.76-3.45-7.54-8.49-10.85-13.08c-1.55-2.15-2.96-4.53-3.27-7.61
		c0.68,0.35,1.05,0.42,1.21,0.64c0.48,0.65,0.9,1.36,1.31,2.06c3.48,5.92,7.34,11.51,12.73,15.94c2.25,1.85,4.16,4.13,6.19,6.24
		c1.86,1.94,2.38,4.23,1.39,6.74c-1.11,2.82-2.37,5.57-4.36,8.02c1.75,1.8,3.92,2.91,6.02,4.14c3.4,1.98,7.21,2.98,10.78,4.57
		c4.93,2.2,10.03,2.54,15.3,1.71c4.18-0.66,4.25-0.58,4.98-4.52c0.81-4.32,1.43-8.67,2.25-12.99c0.84-4.4,0.45-8.95,1.85-13.28
		c0.28-0.88,0.01-1.93-0.01-2.9c0.58,0.1,0.86-0.24,1.03-0.72c3.67-10.53,5.02-21.34,3.78-32.45c-0.05-0.47-0.18-0.96-0.4-1.36
		c-0.11-0.2-0.53-0.27-0.82-0.33c-0.07-0.02-0.21,0.21-0.3,0.34c-0.66,1.05-0.36,2.22-0.25,3.3c0.49,5.16,0.1,10.31,0.03,15.47
		c-0.02,1.62,0.04,3.25-1.02,4.64c0.05-1.95,0.13-3.9,0.14-5.85c0.02-4.23,0.46-8.52-0.12-12.67c-1.04-7.44-2.1-14.77,0.8-22.03
		c0.06-0.15-0.15-0.4-0.33-0.84c-0.42,1.35-0.91,2.43-2.35,3.2c-0.13-2.56,0.94-4.47,1.4-6.5c0.56-2.43,0.61-2.42-1.77-3.22
		c-0.31-0.1-0.64-0.16-0.93-0.29c-0.57-0.26-1.32-0.53-0.94-1.33c0.13-0.29,0.86-0.53,1.22-0.44c1.12,0.28,2.54,0.87,3.27,0.13
		c0.82-0.83,1.09-2.31,1.37-3.55c0.36-1.57,0.76-3.22,0.66-4.8c-0.4-6.65-1.09-13.27-2.45-19.82c-0.79-3.83-2.59-7.01-5.34-9.64
		c-1.76-1.68-3.65-3.26-5.67-4.6c-6.82-4.54-14.15-7.95-22.25-9.59c-1.9-0.39-3.95-0.73-5.55-1.71c-2.39-1.45-4.86-1.66-7.48-1.67
		c-9.76-0.03-19.52-0.22-29.28-0.09c-8.77,0.12-17.58-0.62-26.31,0.8c-18.93,3.07-37.88,6.02-56.77,9.33
		c-11.04,1.93-21.96,4.56-32.97,6.67c-3.9,0.75-7.19,2.77-9.54,5.46c-2.78,3.19-5.62,6.64-6.95,10.89c-1.5-0.08-2.32,0.83-3.07,1.98
		c-1.75,2.68-3.82,5.18-5.3,8c-1.33,2.55-2.08,5.41-3.02,8.15c-0.21,0.61-0.04,1.28,0.76,1.5c-0.61,3.54-2.75,6.55-3.32,10.17
		c-1.01,6.4-2.51,12.73-3.6,19.12c-0.55,3.23-0.2,6.32,1.74,9.31c3.29,5.05,6.49,10.15,10.01,15.05c3.03,4.22,6,8.48,8.99,12.72
		c0.34,0.49,0.81,1.08,0.1,1.54c-0.16,0.1-0.75-0.52-1.18-0.74c-0.23-0.12-0.53-0.08-0.8-0.12c-0.02,0.31-0.17,0.7-0.03,0.92
		c0.61,0.96,1.28,1.88,1.95,2.8c6.48,8.77,12.98,17.53,19.45,26.32c0.87,1.18,2.1,2.23,1.97,3.96c-2.13-2.08-3.98-4.33-5.81-6.59
		c-1.95-2.4-3.88-4.82-5.82-7.23c-1.83-2.29-3.68-4.57-5.49-6.87c-1.91-2.43-3.35-5.55-5.8-7.16c-2.46-1.62-2.28-5.2-5.48-6.22
		c-0.1,0.91-0.23,1.53-0.22,2.15c0.1,6.84,0.12,13.68-0.75,20.49c-0.13,1.02,0.33,2.72-1.21,2.7c-1.13-0.01-1.44-1.6-1.66-2.69
		c-0.2-0.95-0.22-1.95-0.19-2.92c0.13-3.58,0.33-7.16,0.47-10.73c0.16-4.07,0.31-8.14,0.4-12.2c0.02-0.9,0.23-2.27-1.13-2.23
		c-0.94,0.03-0.67,1.26-0.68,1.98c-0.04,4.5-0.02,9-0.02,13.5c-0.16,0-0.32,0-0.48,0c-0.25-4.87-0.49-9.73-0.74-14.6
		c-0.1,0-0.2,0-0.29,0.01c-0.62,6.25-1.24,12.5-1.91,19.16c-0.72-8.45,1.17-16.45-0.12-24.54c-1.17,7.8-2.34,15.59-3.5,23.39
		c-0.51-2.36-0.57-4.63-0.48-6.89c0.06-1.46,0.4-2.9,0.5-4.36c0.03-0.49,0.18-1.38-0.94-1.05c-2.08,0.61-2.1-0.84-2.1-2.2
		c0-5.21,0.05-10.42,0.05-15.64c0-1.8-0.06-3.61-1.03-5.2c-0.23-0.37-0.76-0.76-1.17-0.78c-0.72-0.03-1.23,0.57-1.14,1.26
		c0.49,3.72-0.19,7.19-1.94,10.51c-0.35,0.67-0.29,1.59-0.33,2.4c-0.11,2.58-0.17,5.17-0.25,7.75c-1.47,3.28-0.4,6.42,0.34,10.32
		c1.83-4.09-0.07-7.21-0.41-10.42c1.98,1.77,3.22,4.23,3.73,6.56c0.41,1.89,2.94,2.03,2.45,4.18c-0.38,1.67,0.45,3.15,1.05,4.67
		c1.11,2.8,2.07,5.67,3.1,8.51c-2.6-1.89-2.72-5.21-5.2-7.64c-1.82,5.48,2.36,9.29,2.61,14.06c-2.71-0.9-1.97-4.12-4.7-5.47
		c1.8,5.22,3.5,9.92,5.02,14.67c0.37,1.14,1.83,2.98,0.63,3.45c-1.72,0.68-1.76-1.73-2.41-2.83c-1.36-2.32-1.69-5.17-3.64-7.88
		c-0.43,2.82-0.92,5.01-1.06,7.22c-0.16,2.59-0.22,5.22,1.03,7.65c2.61,5.05,5.07,10.18,8.22,14.94c3.96,5.97,8.16,11.69,13.1,16.92
		c7.37,7.79,14.48,15.82,21.74,23.71c3.64,3.95,7.41,7.77,11.06,11.71c1.12,1.21,2.58,2.36,2.46,4.87
		c-2.57-1.38-4.06-3.57-6.42-4.27c-2.44-0.72-4.23-2.37-6.07-3.96c-2.09-1.81-4.09-3.73-6.23-5.48c-8.07-6.63-15.33-14-21.48-22.47
		c-1.45-1.99-3.43-3.58-5.17-5.36c-0.04,2.4,1.44,3.88,2.45,5.61c0.31,0.54,1.03,1.36,0.42,1.69c-2.24,1.24-0.67,2.23,0.09,3.22
		c11.04,14.31,22.12,28.58,34.91,41.43c3.48,3.5,7.87,6.31,9.61,11.32c5.28,5.28,9.95,11.24,16.61,15.01
		c0.95,0.54,2.24,0.92,2.87,2.75c-5.35-2.08-9.65-4.61-13.2-8.3c-6.32-6.57-12.37-13.43-19.01-19.67
		c-11.9-11.17-23.13-22.92-33.13-35.83c-0.57-0.73-0.82-2.02-2.61-1.67c10.73,17.96,25.54,32.16,40.43,46.32
		c-4.19-2.27-7.46-5.63-10.9-8.75c-3.37-3.06-6.63-6.26-9.79-9.55c-3.26-3.41-6.45-6.9-9.45-10.53c-2.95-3.56-5.63-7.34-8.92-11.66
		c-0.12,4.88,1.29,8.59,1.79,12.43c1.01,7.89,2.57,15.67,4.2,23.45c1.16,5.56,2.6,11.08,2.86,16.8c0.07,1.6,0,3.29,0.49,4.77
		c1.95,5.83,2.86,11.93,4.21,17.88c1.19,5.22,2.99,9.8,6.02,14.07c1.7,2.39,3.2,4.91,4.86,7.32c0.92,1.33,1.77,2.85,3.02,3.8
		c6.74,5.1,13.03,10.81,20.66,14.69c8.31,4.23,17.19,6.91,25.89,10.11c13.83,5.09,27.94,5.74,42.33,3.08
		c3.22-0.6,6.36-1.37,9.33-2.74c10.14-4.66,19.36-10.68,27.58-18.25c1.59-1.47,2.96-3.09,3.53-5.17c1.27-4.61,3.63-8.7,5.81-12.88
		c4.59-8.81,9.58-17.39,14.68-25.92c1.46-2.44,2.99-4.9,3.11-8.15c-2.22,1.16-3.78,2.55-5.21,4.13c-1.53,1.7-3.2,3.25-5.15,4.47
		c-0.52,0.32-1.6,0.9-1.63,0.32c-0.09-1.62-0.86-1.82-2.07-1.5c-3.94,1.05-8.02,0.92-12.02,1.38c-7.42,0.86-14.85,1.58-22.25,2.55
		c-8.54,1.11-17.09,2.16-25.55,3.72c-8.62,1.59-17.42,2.18-25.86,4.71c-0.75,0.23-1.7,0.57-2.18-0.32
		c-0.59-1.09,0.22-1.94,1.01-2.46c1.62-1.07,3.29-2.12,5.06-2.89c7.68-3.35,15.87-4.65,24.06-5.98c1.18-0.19,2.73,0.38,3.41-1.46
		c-10.85-0.98-21.39-3.05-31.96-7.89c3.25-0.66,5.63,0.26,7.87,0.96c10.39,3.22,21.14,3.78,31.84,4.43
		c5.81,0.36,11.67,1.06,17.54,0.19c5.3-0.79,10.64-1.74,15.98-1.79c5.41-0.05,9.78-1.86,13.79-5.22c4.36-3.65,8.66-7.37,13.21-10.82
		c3.12-2.37,5.46-5.75,6.95-9.29c3.71-8.77,4.83-17.83,1.11-27c-0.55-1.35-1.09-2.68-0.99-4.22c0.17-2.76,0.26-5.52,0.24-8.29
		c-0.06-9.65,2.42-19,3.24-28.55c0.17-1.97,1.05-4.1,2.73-5.58c0.81,1.58,0.49,3.12-0.02,4.72c-3.92,12.24-4.57,24.83-4.11,37.56
		c0.08,2.27,0.36,4.42,2.03,7.2c0-5.07,0.26-9.29-0.06-13.47c-0.48-6.2,0.26-12.25,1.5-18.27c1.63-7.9,5.7-14.8,9.43-21.81
		c1.22-2.29,2.68-4.42,3.19-7.04c-3.71-0.37-3.71-0.37-6.26,1.45c-0.24-1.81-1.61-1.86-2.93-1.73c-2.1,0.2-4.18,0.59-6.28,0.81
		c-6.74,0.69-12.1-2.94-17.7-5.76c-0.41-0.21-0.87-0.6-1.02-1.01c-1.92-5.05-7.5-5.75-10.84-9.2c1.64,2.06,2.69,4.39,3.99,6.57
		c1.98,3.33,4.75,5.71,8.25,7.28c1.95,0.87,3.94,1.63,6.11,2.53c-1.44,0.79-2.49,0.14-3.57-0.08c-0.4-0.08-1.26-0.11-1.08,0.22
		c1.49,2.79-2.38,2.56-2.43,4.52c-0.05,1.72-1.35,1.69-2.45,1.06c-3.74-2.12-7.57-1.13-11.39-0.47c-1.34,0.23-2.43,0.84-2.58,2.47
		c-0.08,0.85,0.26,2.26-1.14,2.2c-1.16-0.04-0.78-1.64-1.51-2.26c-0.19-0.16-0.53-0.15-0.94-0.26c-0.06,0.99-0.09,1.95-0.17,2.91
		c-0.04,0.49-0.27,1.03-0.78,1c-0.41-0.02-0.8-0.42-1.18-0.68c-0.12-0.08-0.16-0.27-0.24-0.42c-1.9-3.4-3.82-6.79-5.69-10.2
		c-0.42-0.77-0.33-1.7,0.46-2.14c0.63-0.35,1.11,0.26,1.52,0.82c0.93,1.27,1.61,2.83,3.36,3.35c1.02-1.57-0.18-3.66,1.41-5.01
		c1.87-1.59,1.12-3.34,0.25-5.11c-0.79-1.6-1.51-3.24-2.27-4.85c-0.68-1.44-1.65-2.21-3.42-2.03c-3.11,0.31-6.08-0.19-9-1.54
		c-1.72-0.8-3.76-0.92-5.66-1.32c-0.71-0.15-1.22,0.17-1.56,0.82c-1.24,2.4-2.49,4.8-3.79,7.3c2.12,0.46,2.39-2.22,4.53-1.83
		c-3.56,3.84-6.34,8-10.37,11.02c0.14-2.81,1.12-5.3,2.7-7.62c0.91-1.34,1.54-2.87,2.42-4.24c1.34-2.09,0.8-4.01-0.3-5.94
		c-0.8-1.41-1.71-1.9-3.04-0.55c-0.26,0.27-0.91,0.43-1.24,0.3c-0.51-0.21-0.39-0.79-0.24-1.27c0.3-1.01,1.39-1.82,0.8-3.06
		c-2.07-0.76-4.16-0.89-6.28-0.96c-1.83-0.06-3.07,0.35-3.75,2.27c-0.94,2.64-2.75,4.8-4.48,6.95c-1.42,1.76-3.07,3.53-5.62,3.23
		c-1.28-0.15-1.79,0.49-2.33,1.29c-0.74,1.1-1.68,1.98-2.77,2.71c-4.87,3.29-9.91,6.24-15.59,7.96c-2.02,0.61-3.98,1.42-5.99,2.07
		c-3.03,0.98-4.99,2.91-5.65,6.07c0.78,0.54,1.55,0.17,2.34,0.02c5.22-1.03,9.67-3.76,14.17-6.39c0.95-0.55,2.05-1.66,3.02-0.55
		c0.65,0.75-0.67,1.68-0.77,2.62c-0.02,0.18,0.32,0.41,0.5,0.61c7.54-2.85,11.93-6.49,18.88-15.61c0.98-1.29,2.1-2.65,2.51-4.15
		c0.67-2.43,2.66-0.34,3.59-1.37c0.8-0.89,1.37-2.05,2.97-2.53c-0.42,1.77-1.7,2.62-2.4,3.83c-0.4,0.7-1.33,1.77-1.14,2.03
		c1.72,2.38-0.61,3.04-1.74,3.53c-2.37,1.04-3.89,2.8-5.44,4.7c-1.96,2.4-4.17,4.56-6.62,6.48c-1.36,1.06-2.62,2.26-4.12,3.56
		c2.71,0.39,4.36-0.6,5.81-2.33c1.78-2.12,3.69-4.13,5.65-6.08c0.53-0.53,1.05-1.91,2.31-0.69c-1.75,3-4.32,5.26-6.7,7.7
		c-0.91,0.93-1.89,1.8-2.66,2.83c-0.32,0.43-0.4,1.67-0.2,1.77c1.13,0.57,2.34,1.03,3.58,1.27
		C431.92,385.75,432.52,384.86,432.95,383.94z M447.51,563.88c0.89-3.26,4.22-4.23,6.96-7.03c-4.68,0.93-8.47,1.68-12.83,2.54
		c1.98,2.18,3.12,4.39,5.98,4.4c0.23,1.16,0.86,2.1,1.63,2.94c2.37,2.58,3.76,5.67,4.75,8.97c0.84,2.8,1.68,5.6,2.44,8.42
		c1.53,5.7,2.97,11.42,3.41,17.38c1.36-0.33,1.65-1.17,2.1-1.8c9.37-13.2,18.28-26.74,28.83-39.07c0.63-0.73,1.22-1.51,1.76-2.31
		c5.42-8,9.15-16.8,12.23-25.9c0.26-0.76,0.63-1.51,0.02-2.6c-3.03,5.53-6.89,10.17-11.61,14.14c-5.62,4.72-11.33,9.46-18.24,11.93
		C465.99,559.1,456.94,562.19,447.51,563.88z M586.5,205.04c-0.89,0.1-2.21-0.18-1.71,1.42c0.39,1.24,1.14,2.29,2.46,2.83
		c5.24,2.13,10.4,4.45,15.4,7.11c0.29,0.15,1.01,0.45,0.9-0.41c-0.06-0.46-0.37-0.88-0.56-1.32c9.04,6.1,16.5,13.46,19.56,24.37
		c0.41,1.46,0.33,3.29,2.2,3.99c-1,4.21-1.2,8.44-0.28,12.74c2.88-6.41,3.35-13.33,5.01-20.97c-1.39,2.14-2.25,3.45-3.11,4.76
		c0.32-1.25,0.5-2.56,0.98-3.75c2.1-5.26,2.47-10.73,2.13-16.29c-0.39-6.3-2.55-11.82-7.49-16.08c1.45,5.14,4.27,9.84,4.84,15.26
		c-2-2.44-2.91-5.39-4.09-8.19c-3.15-7.46-7.45-14.07-13.87-19.13c-3.32-2.61-6.64-5.24-10.11-7.63
		c-11.81-8.16-24.75-14.26-37.67-20.39c-0.8-0.38-1.71-0.96-2.27-0.59c-2.71,3.89-1.35,6.4,1.64,8.93
		c5.51,4.65,9.79,10.39,13.47,16.58c1.99,3.35,4.2,6.59,6.05,10.02C581.54,201.22,583.51,203.59,586.5,205.04z M299.95,74.79
		c-2.08,0.12-2.95,1.88-4.08,3.16c-5.69,6.45-10.56,13.51-15.21,20.75c-3.7,5.76-5.6,12.21-7.83,18.74c1.4-0.43,2.17-1.2,2.67-2.25
		c-1.02,2.74-1.94,5.52-3.06,8.21c-3.09,7.37-5.67,14.88-6.91,22.82c-0.23,1.48-0.89,2.89-0.25,5.07c1.24-4.21,2.25-7.79,3.34-11.35
		c4.69-15.35,11.13-29.88,20.49-43c1.01-1.41,1.59-3.34,4.18-4c-0.89,1.39-1.47,2.33-2.09,3.25c-7.95,11.81-14.29,24.41-18.78,37.95
		c-2.57,7.73-4.28,15.7-6.82,23.41c-3.67,11.17-2.28,22.56-2.45,33.91c-0.02,1.35,0.75,1.74,1.88,1.14
		c3.57-1.87,6.31-4.46,7.14-8.63c0.79-3.99,1.49-7.99,2.44-11.94c1.89-7.91,3.85-15.8,5.94-23.66c0.61-2.31,1.03-4.89,3.03-6.52
		c1.4-1.15,1.77-2.67,2.16-4.23c0.56-2.21,1.03-4.43,1.55-6.65c0.18-0.77,0.03-1.84,0.91-2.12c2.27-0.71,2.52-2.82,3.31-4.52
		c2.15-4.57,4.51-9.02,7.1-13.36c9.51-15.97,21.88-29.52,35.46-42.06c7.54-6.96,15.22-13.76,23.88-19.34c0.61-0.39,1.31-1.6,2.5-0.2
		c-11.31,7.62-21.19,16.83-30.81,26.32c-9.18,9.06-17.57,18.77-24.77,29.51c-7.76,11.58-13.38,24.15-18.02,37.25
		c-3.85,10.87-3.7,22.28-5.18,33.48c-0.08,0.64-0.1,1.3-0.08,1.95c0.05,1.72,0.63,2.16,2.04,1.47c8.75-4.26,17.48-8.55,26.23-12.8
		c6-2.91,12.22-5.29,18.62-7.15c8.58-2.49,17.28-4.59,25.79-7.28c12.78-4.04,25.97-5.84,39.13-7.76c9.01-1.32,18.14-1.83,27.11-3.33
		c12.77-2.13,25.55-1.76,38.37-1.17c4.51,0.21,9,0.87,13.76,0.27c-1.59-8.74-3.22-17.21-4.67-25.7
		c-2.86-16.77-7.86-32.89-14.6-48.48c-6.65-15.38-14.79-29.73-27.72-40.84c-0.37-0.32-0.36-0.55,0.14-0.75
		c1.07-0.21,1.69,0.68,2.37,1.29c8.35,7.4,15.58,15.67,20.51,25.82c6.98,14.36,13.55,28.88,18.13,44.21
		c3.92,13.12,6.63,26.5,8.23,40.1c0.62,5.27,0.43,5.37,5.98,5.55c5.04,0.16,10.14-0.28,15.13,0.26c11.16,1.21,22.28,2.75,33.39,4.37
		c8.21,1.2,16.34,2.92,24.4,4.92c2.83,0.7,3.15,0.43,3.21-2.38c0.08-3.26,0-6.52,0.04-9.77c0.01-0.8,0.2-1.59,0.33-2.39
		c0.02-0.11,0.21-0.3,0.28-0.28c0.28,0.06,0.74,0.14,0.78,0.3c0.2,0.77,0.39,1.57,0.4,2.36c0.04,3.58,0.11,7.17,0,10.75
		c-0.06,1.98,0.74,2.94,2.6,3.44c3.14,0.84,6.22,1.87,9.34,2.78c0.55,0.16,1.31,0.6,1.53-0.35c0.08-0.35-0.38-1.18-0.58-1.17
		c-2.34,0.07-2.34-1.79-2.62-3.24c-1.99-10.23-4.84-20.25-7.54-30.3c-3.96-14.71-9.56-28.72-20.74-39.74
		c-0.35-0.34-0.63-0.75-0.93-1.13c-11.14-14.48-24.66-26.34-39.82-36.44c-10.87-7.25-21.97-14.03-34.56-17.89
		c-10.9-3.35-21.98-5.73-33.43-6.59c-13.71-1.04-27.33-0.97-40.77,2.08c-19.68,4.47-38.16,11.92-55.1,23.01
		c-3.81,2.5-7.63,5-11.56,7.3c-5.1,2.99-9.42,6.97-13.65,10.95C307.08,66.06,303.66,70.58,299.95,74.79z M420.9,742.58
		c0-2.67,0.08-5.1-0.02-7.52c-0.26-6.68-0.19-13.38,0.57-20.01c1.61-13.96,4.86-27.56,9.86-40.71c1.16-3.04,2.43-6.04,3.6-9.08
		c0.52-1.36,1.44-2.97,0.79-4.21c-0.99-1.89-0.48-3.76-0.83-5.54c-0.35-1.82-3.06-2.12-4.39-3.56c-1.77-1.91-3.61-3.76-5.45-5.6
		c-1.61-1.6-3.07-3.46-4.94-4.68c-5.62-3.66-10.3-8.41-15.22-12.84c-8.33-7.5-16.12-15.56-23.44-24.09
		c-5.83-6.79-11.64-13.62-18.06-19.87c-5.34-5.2-11.31-9.68-16.21-15.39c-5.17-6.02-11.07-11.41-15.36-18.17
		c-2.87-4.53-5.66-9.12-8.45-13.71c-5.89-9.69-11.82-19.38-16.6-29.67c-2.74-5.9-3.6-12.21-0.17-18.3c1.58-2.82,3.65-5.29,6.26-7.26
		c1.94-1.47,3.89-2.93,5.68-4.56c1.41-1.29,3-2.56,2.97-4.81c-0.03-3.42,0.08-6.85-0.06-10.26c-0.09-2.34-0.98-3.29-3.15-3.64
		c-4-0.65-7.8-0.39-10.84,2.82c-1.57,1.65-3.26,3.18-4.85,4.82c-2.06,2.12-4.38,3.91-7.04,5.2c-7.74,3.75-15.27,7.89-22.85,11.95
		c-9.72,5.21-20.01,9.32-29.69,14.68c-5.71,3.16-11.37,6.25-16.13,10.83c-4.1,3.95-8.39,7.72-12.68,11.48
		c-3.96,3.47-7.25,7.45-9.87,12.01c-9.49,16.53-17.83,33.65-25.48,51.09c-3.78,8.61-7.25,17.38-9.86,26.43
		c-4.36,15.14-9.6,29.98-14.99,44.78c-1.89,5.2-3.82,10.38-5.7,15.58c-0.63,1.75-1.27,3.53-0.44,5.87c1.03-0.93,1.75-1.54,2.43-2.21
		c9.32-9.19,19.7-17.01,30.78-23.95c8.69-5.44,17.32-10.97,25.98-16.45c6.31-3.99,12.4-8.38,18.99-11.83
		c9.8-5.12,19.52-10.42,29.77-14.66c2.4-0.99,4.74-2.19,6.92-3.59c5.11-3.29,10.56-5.75,16.47-7.11c5.06-1.17,9.93-3.16,15.12-3.78
		c3.63-0.44,7.34,0.33,10.9-1.52c1.95-1.01,3.17,0.52,2.84,2.93c-0.41,3.02-2.01,5.54-3.72,7.85c-3.51,4.71-6.54,9.69-9.38,14.8
		c-1.42,2.56-2.87,5.1-4.46,7.56c-3.53,5.47-6.94,11.01-9.89,16.82c-5.6,11.04-11.49,21.91-17.7,32.62
		c-0.25,0.42-0.52,0.83-0.73,1.27c-0.92,1.84-0.74,2.27,1.11,2.74c0.47,0.12,0.98,0.11,1.44,0.24c9.4,2.62,19.09,4.07,28.4,7.1
		c18.56,6.05,37.09,12.2,55.75,17.91c16.43,5.02,31.97,12.01,47.07,20.07c8.38,4.48,16.11,9.85,22.33,17.18
		C418.91,741.32,419.43,742.2,420.9,742.58z M551.24,168.07c-0.15-1.65-1.17-2.01-1.92-2.51c-3.53-2.33-7.17-4.5-10.65-6.91
		c-4.16-2.88-8.87-3.81-13.73-4.39c-7.58-0.91-15.19-1.58-22.65-3.31c-1.28-0.3-2.53-0.48-3.84-0.54
		c-6.49-0.27-12.99-0.39-19.47-0.93c-6.77-0.56-13.59-0.75-20.39-0.76c-6.33-0.01-12.69-0.71-19,0.04
		c-8.73,1.04-17.39,2.54-25.68,5.61c-1.54,0.57-3.11,1.05-4.76,0.95c-4.8-0.29-9.39,0.87-13.95,2.03c-3.77,0.96-7.8,1.36-11.15,3.44
		c-5.44,3.38-11.37,5.6-17.23,8.02c-11,4.56-21.53,10-31.49,16.56c-12.36,8.14-21.65,19.13-29.38,31.57
		c-0.45,0.72-1.48,1.33-0.78,2.5c7.31-2.74,14.54-5.61,21.88-8.15c12.89-4.46,25.79-8.95,39.41-10.8c1.42-0.19,2.8-0.61,5.06,0.12
		c-5.86,1.15-10.84,1.9-15.7,3.13c-17.68,4.49-34.78,10.69-51.51,17.92c-0.88,0.38-1.76,0.85-2.5,1.46
		c-1.09,0.89-6.08,9.04-6.72,10.71c5.19-1.8,10.42-3.52,15.57-5.43c12.94-4.8,25.98-9.31,38.94-14.04
		c12.21-4.46,24.99-7.12,37.69-9.91c2.86-0.63,5.7-1.42,8.59-1.84c16.39-2.38,33.01-2.67,49.35-5.45
		c7.12-1.21,14.29-0.36,21.44-0.65c5.02-0.2,10.09-0.19,15.09,0.2c7.64,0.6,15.28,0.57,22.92,0.73c19.25,0.4,38.37,1.79,56.96,7.27
		c0.76,0.22,1.57,0.5,2.42-0.02c-1.38-1.53-3.42-1.53-5.12-2.25c-2.39-1.02-4.85-1.85-7.26-2.81c-0.42-0.17-0.99-0.46-0.86-1.04
		c0.19-0.86,0.94-0.69,1.52-0.58c0.8,0.15,1.57,0.41,2.36,0.61c7.57,1.92,15,4.3,22.37,6.86c1.3,0.45,2.57,1.44,4.14,0.84
		c-1.32-2.57-1.31-2.57-3.76-4.18c-0.32-0.21-1.21-0.47-0.55-0.8c2.28-1.14,0.43-2.19-0.06-3.03c-2.7-4.64-5.49-9.24-8.3-13.81
		c-3.1-5.05-7.34-9.11-11.66-13.09c-1.06-0.98-2.13-1.99-3.82-1.85c-5.71,0.49-11.31-0.91-17-1.08c-2.01-0.06-4.27-0.18-6.02-2.18
		C537.24,167.04,544.19,167.73,551.24,168.07z M266.51,239.34c-0.23-0.28-0.45-0.55-0.68-0.83c2.97-1.64,5.84-3.52,8.94-4.87
		c4.96-2.15,8.51-5.49,11.34-10.15c6.21-10.2,13.89-19.38,22.84-27.24c10.65-9.35,22.1-17.72,34.73-24.32
		c0.9-0.47,2.04-0.7,2.2-2.15c-2.85-0.22-5.34,0.52-7.79,1.3c-5.74,1.82-11.55,3.36-17.4,4.79c-2.21,0.54-4.43,1.15-6.5,2.06
		c-23.71,10.48-47,21.7-66.97,38.67c-5.05,4.29-10.29,8.31-14.29,13.74c-2.7,3.66-5.79,7.05-8.85,10.42
		c-3.28,3.62-6.71,7.1-10.12,10.6c-1.02,1.04-2.25,2.35-3.78,1.25c-1.57-1.14-2.32-0.29-3.21,0.72c-3.22,3.68-6.24,7.51-8.9,11.63
		c-1.52,2.37-2.57,4.84-3.13,7.6c-2.63,13.01-3.09,26.14-2.18,39.35c0.08,1.13,0.68,2.27,0.54,3.34c-0.23,1.76,2.49,1.31,2.04,3.2
		c-0.33,1.39-0.21,2.88-0.23,4.33c0,0.13,0.5,0.27,0.96,0.49c0.7-2.68,1.75-5.29,2.01-7.97c0.58-6.01,3.24-11.18,6.29-16.12
		c3.76-6.08,8.24-11.65,12.88-17.11c5.54-6.53,12-11.84,19.24-16.33c3.99-2.48,7.92-5.07,11.82-7.69
		c6.19-4.17,12.37-8.42,19.47-10.9c6.52-2.27,9.32-7.42,11.95-14.34C274.56,234.92,270.75,237.62,266.51,239.34z M452.46,599.84
		c-0.13-3.25-0.03-8.5-2.16-13.4c-2.79-6.42-5.95-12.65-9.43-18.73c-1.36-2.37-3.25-3.54-5.84-3.78c-1.45-0.13-2.93-0.22-4.38-0.13
		c-10.5,0.62-20.79-0.12-30.65-4.26c-2.83-1.19-3.01-1.03-4.67,1.69c-4.36,7.13-7.48,14.78-9.37,22.92
		c-0.52,2.23-0.87,4.46-0.9,6.75c-0.06,3.74,1.01,6.95,3.74,9.68c4.47,4.47,9,8.89,13.41,13.4c3.15,3.22,6.6,5.04,10.95,5.67
		c3.86,0.55,7.72,1.21,11.51,2.09c5.25,1.21,10.56,1.91,15.92,2.29c7.12,0.5,8.87-0.78,10.67-7.72c0.12-0.47,0.14-0.97,0.27-1.44
		C452.63,610.57,452.6,606.18,452.46,599.84z M278.74,356.01c1.84,0.27,2.78,1.65,3.97,2.72c2.07,1.86,4.27,3.51,6.76,4.78
		c2.36,1.2,4.66,1.1,7.06,0.12c1.75-0.72,2.7-1.89,2.3-3.77c-1.51-7.18-0.73-14.57-1.95-21.78c-0.37-2.22-0.73-4.45-0.81-6.75
		c-0.19-6.31-0.76-12.62-1.22-18.92c-0.19-2.63-1.05-4.98-2.61-7.19c-4.23-5.98-8.26-12.1-11.85-18.5
		c-0.86-1.53-1.78-2.99-2.04-4.89c-0.32-2.38-4.21-6.9-5.92-7.18c-3.55-0.59-7.17-0.96-10.62,0.39
		c-6.15,2.42-10.51,7.14-14.24,12.28c-2.43,3.36-1.05,7.58-1.03,11.43c0,0.64,0.2,1.28,0.3,1.92c1.95,13.08,7.04,24.96,13.62,36.33
		c7.41,12.8,17.54,22.98,29.46,31.52c2.23,1.6,2.24,1.59,4.14-0.75c0.29-0.36,0.48-0.79,0.17-1.17
		C287.24,365.66,282.77,361.14,278.74,356.01z M322.16,482.59c-2.24,2.48-3.83,4.28-5.45,6.04c-2.84,3.07-3.8,6.85-3.41,10.81
		c0.42,4.37,1.55,8.68,3.71,12.56c3.79,6.81,7.31,13.82,11.68,20.24c11.24,16.54,22.77,32.88,37.92,46.24
		c4.85,4.28,9.53,8.76,14.23,13.1c0.85-0.41,0.91-1.09,0.96-1.72c0.82-10.49,4.97-19.8,10.33-28.63c2.32-3.82,2.47-3.65-1.62-5.22
		c-16.04-6.15-30.3-14.89-41.37-28.35c-4.44-5.4-9.1-10.63-13.81-15.8c-1.89-2.08-3.84-3.88-5.37-6.44
		C325.86,498.59,323.38,491.34,322.16,482.59z M540.81,76.12c0.16-0.18,0.33-0.36,0.49-0.54c-0.43-0.68-0.83-1.38-1.3-2.03
		c-0.65-0.93-1.33-1.85-2.03-2.74c-11.55-14.77-25.31-27.08-41.3-36.85c-10.59-6.47-21.8-11.66-33.66-15.3
		c-8.23-2.52-16.61-4.55-24.93-6.77c-7.99-2.13-16.04-2.32-24.15-0.66c-8.77,1.79-17.25,4.64-25.87,6.98
		c-0.42,0.11-0.79,0.4-1.25,0.63c1.07,0.64,1.99,0.15,2.93-0.03c5.58-1.09,11.18-2.08,16.86-2.56c8.13-0.68,16.23-0.57,24.37-0.02
		c14.72,0.99,29.12,3.65,42.67,9.41c21.49,9.13,40.25,22.5,56.74,39.01C534.03,68.31,537.34,72.29,540.81,76.12z M445.17,628.19
		c-11.03,0.22-20.89-3.19-31.18-4.38c2.74,2.92,5.38,5.83,8.54,7.95c5.95,3.99,11.32,8.55,16.05,14.15c0.56-0.74,1.3-1.31,1.46-2.01
		C441.26,638.73,443.09,633.76,445.17,628.19z M605.53,185.16c-5.92-7.11-12.38-13.66-20.61-18.12c-2.12-1.15-4.32-2.13-6.03-3.85
		c-1.18-1.18-2.63-1.59-3.98-1.03c-2.17,0.9-4.15,0.32-6.21-0.1c-2.84-0.58-5.68-1.17-8.52-1.76
		C575.58,168.08,591.21,175.28,605.53,185.16z M303.32,210.7c-2.02,4.21-5.98,7.34-7.19,12.72c2.34-1.67,3.22-3.64,4.43-5.32
		c1.32-1.85,2.55-3.76,3.84-5.64c1.19-1.74,2.37-3.49,3.6-5.21c1.32-1.85,2.64-3.7,4.04-5.49c1.3-1.66,2.66-3.28,4.08-4.84
		c1.53-1.68,3.22-3.22,4.71-4.93c1.22-1.39,3.37-2.02,3.94-4.88c-14.31,11.29-27.04,23.06-36.16,38.95c4.17-1.13,4.22-1.1,5.65-3.77
		C296.6,217.91,299.31,213.82,303.32,210.7z M264.74,140.67c-0.18-0.04-0.36-0.08-0.54-0.12c-0.43,1.34-0.89,2.68-1.28,4.04
		c-2.78,9.85-4.48,19.91-5.57,30.05c-0.69,6.42-1.55,12.88-1.12,19.39c0.14,2.15,0.73,2.37,2.79,1.48c1.67-0.72,2.09-1.84,1.76-3.48
		c-0.29-1.43-0.71-2.86-0.74-4.3c-0.29-12.01-0.21-24,2.29-35.83C263.13,148.14,263.94,144.41,264.74,140.67z M254.58,195.24
		c0.15-11.7,1.24-23.33,3.18-34.89c1.92-11.49,5.36-22.59,8.7-33.73c-3.66,6.23-6.06,12.96-8.31,19.73
		c-2.22,6.68-3.24,13.58-3.18,20.63c0.01,1.46,0.1,2.96-0.17,4.37C253.27,179.29,254.15,187.24,254.58,195.24z M191.5,283.07
		c-5.68,14.31-4.94,32.76,1.77,44.16C189.82,312.93,189.62,298.5,191.5,283.07z M311.5,351.65c0.12-1.91,0.24-3.82,0.39-6.2
		c1.72,2.27-0.02,5.18,2.32,6.94c0.53-2.54,0.38-4.69-0.26-6.96c-1.95-6.84-3.48-13.76-3.59-20.94c-0.04-2.54-0.48-5.08-0.74-7.63
		c-1.78,5.84,1.25,11.37,0.69,17.12C309.72,339.99,311.32,345.89,311.5,351.65z M411.02,363.4c-9.29,5.77-19.39,9.86-28.72,15.39
		C393.74,377.15,402.8,370.96,411.02,363.4z M409.85,369.4c-2.97,0.03-4.28,1.92-6.02,2.87c-1.84,1.01-3.54,2.28-5.38,3.29
		c-1.84,1.01-3.74,1.93-5.69,2.7c-1.95,0.78-3.97,1.39-5.98,1.97c-2.02,0.58-4.1,0.95-6.1,1.58c-1.82,0.57-3.91-0.41-6.08,1.19
		c8.29,0.78,15.65-0.24,22.29-4.68c1.22-0.82,2.44-1.57,3.86-1.98C404.47,375.28,406.84,372.49,409.85,369.4z M436.35,353.31
		c-6.76,6.28-15.54,10.12-21.38,17.65c2.88-0.54,5.21-2.07,7.48-3.85c2.51-1.98,4.78-4.21,7.42-6.08
		C432.46,359.18,435.44,357.1,436.35,353.31z M542.18,157.66c3.98,2.81,7.76,5.48,11.55,8.15c1.32,0.93,2,0.44,2.39-0.98
		c0.72-2.58,0.59-2.94-1.88-3.89c-2.4-0.92-4.78-1.92-7.25-2.6C545.56,157.95,544.18,156.76,542.18,157.66z M486.67,368.49
		c-0.55-1.62-1.3-3.07-1.51-4.6c-0.22-1.66-1.64-2.31-2.37-3.5c-0.84-1.37-2.12-0.4-2.97,0.12c-1.02,0.62-0.05,1.43,0.33,1.98
		C481.78,364.89,482.62,368.14,486.67,368.49z M494.62,369.97c-1.96-3.29-3.5-6.36-5.8-8.97c-0.3-0.34-0.75-0.76-1.2-0.35
		c-0.3,0.27-0.62,0.86-0.52,1.18c0.47,1.52,1.09,2.99,1.63,4.5C489.64,368.9,491.51,369.94,494.62,369.97z M284.76,286.9
		c1.91,5.99,5.03,11.37,8.95,16.97C293.28,300.24,288.86,291.74,284.76,286.9z M275.49,177.28c0.33,0.13,0.67,0.26,1,0.39
		c2.5-6.07,2.48-12.66,3.28-19.09C278.35,164.82,276.92,171.05,275.49,177.28z M466.5,550.22c0.16,0.33,0.33,0.67,0.49,1
		c4.07-1.45,7.62-3.97,11.33-6.15c0.4-0.23,0.81-0.71,0.36-1.12c-0.28-0.25-1-0.35-1.32-0.16
		C473.73,545.89,470.12,548.06,466.5,550.22z M330.88,315.04c-2.46-5.07-4.66-8.1-7.65-10.45
		C325.19,308.72,327.7,311.74,330.88,315.04z M614.58,287.2c-5.85,4.47-6.42,5.25-6.84,8.37
		C610.12,292.65,612.35,289.92,614.58,287.2z M315.18,365.76c0.19-3.77,0.86-7.57,1.04-11.4
		C314.34,358.02,314.98,361.88,315.18,365.76z M320.49,265.07c-2.77,3.61-2.05,6.86-2.28,9.94
		C319.57,272.2,320.1,269.22,320.49,265.07z M325.34,440.45c0.25-4.08-0.89-7.1-1.4-10.2C323.73,433.47,323.07,436.73,325.34,440.45
		z M347.87,168.62c3.63,0,6.77-1.56,9.84-3.33C354.26,165.86,350.92,166.77,347.87,168.62z"/>
	<path class="st0" d="M432.95,383.94c-1.49-0.43-2.48-1.09-1.07-2.66c3.95-4.4,6.71-9.96,12.56-12.58c0.17,3.22-3.25,4.79-4.08,7.61
		C437.89,378.86,435.42,381.4,432.95,383.94z"/>
	<path class="st0" d="M414.36,250.03c-2.66-2.16-5.49-2.24-8.54-0.85c-2.06,0.94-4.12,1.97-6.47,2.06
		c-0.64,0.02-1.45,0.09-1.54-0.75c-0.08-0.77,0.82-0.84,1.27-1.23c0.24-0.2,0.4-0.49,0.91-1.15c-4.46,1.66-8.51,3.16-12.48,4.64
		c-0.7-1.09,0.64-1.75,0.19-2.39c-0.48-0.69-1.42-0.67-2.22-0.37c-4.7,1.79-9.81,1.96-14.5,4.11c-2.28,1.04-5.03,1.28-7.54,2.31
		c-1.98,0.81-0.34,3.03-1.92,3.2c-1.2,0.13-2.28-1.15-3.72-0.66c-1.04,0.35-2.04,1.08-3.53,0.66c0.12-2.02,3.7-1.77,2.92-4.22
		c0.16-0.02,0.34-0.09,0.48-0.05c3.73,1.08,5.97-1.86,8.71-3.32c2.57-1.37,5.07-2.98,7.34-4.81c3.9-3.14,8.43-3.89,13.18-4
		c4.71-0.11,9.41-0.89,14.12-0.42c2.69,0.27,4.65-1.12,6.67-2.5c0.41-0.28,0.96-0.37,1.33,0.05c0.12,0.13-0.02,0.63-0.19,0.85
		c-1.14,1.55-0.36,2.2,1.12,1.9c6.28-1.3,12.16,0.72,18.13,2c1.11,0.24,2.2,0.58,3.3,0.86c3.38,0.85,4.05,0.6,6-2.41
		c1.23-1.91,2.12-4.04,3.79-5.65c1.09,1.15,1.8,2.2,0.4,3.69c-1.62,1.72-3.76,3.13-4.18,6.18c2.53-0.53,2.88-3.63,5.4-3.95
		c0.59,1.98-1.92,2.91-1.61,4.94c4.54-1.45,8.76-3.85,13.98-4.53c-1.17,2.33-3.25,2.88-4.56,4.26c-0.78,0.82-1.75,1.46-2.58,2.24
		c-2.53,2.38-2.56,2.41-0.47,5.32c0.32,0.45,0.49,0.73,0.23,1.17c-0.29,0.5-0.69,0.58-1.19,0.26c-0.4-0.26-0.88-0.41-1.25-0.71
		c-1.55-1.26-2.32-0.31-2.95,1.01c-0.49,1.03-0.93,2.08-1.38,3.12c-0.8,1.88-1.36,3.63,0.97,5.01c1.57,0.93,1.89,2.46,1.4,4.27
		c-0.47,1.71-0.64,3.51-1.05,5.24c-0.22,0.95-0.71,1.91,0.32,2.62c1.09,0.76,0.45,1.43-0.1,1.95c-4.52,4.22-8.97,8.53-14.17,11.93
		c-0.67,0.44-1.42,0.8-2.18,1.06c-0.77,0.26-1.7,0.47-2.28-0.26c-0.67-0.86,0.21-1.41,0.67-2.01c2.47-3.23,4.87-6.52,7.44-9.67
		c1.11-1.36,2.19-2.76,3.84-3.66c2.05-1.11,2.52-3.28,2.88-5.39c0.08-0.5,0.03-1.49-0.97-0.99c-1.52,0.75-2.11,0.27-2.03-1.32
		c0.1-1.88-0.99-2.36-2.47-1.79c-1.27,0.48-2.23,0.1-3.19-0.52c-2.32-1.47-4.57-3.07-6.94-4.47c-5.76-3.43-11.77-5.96-18.69-6.17
		c-10.59-0.31-20.67,1.79-30.51,5.49c-3.34,1.26-6.75,2.35-10.13,3.51c-0.61,0.21-1.24,0.39-1.97-0.36
		c0.79-1.44,2.19-2.22,3.61-2.94c9.81-4.96,20.26-7.89,31.05-9.7c1.95-0.33,3.89-0.23,5.84-0.01c2.66,0.29,5.13,1.09,8.06,0.44
		c2.41-0.53,5.28,1,8.88,1.83c-2.7-2.46-5.91-2.35-7.91-4.62c1.17-0.15,2.11-0.27,3.04-0.39c2.81,1.96,6.22,2.44,9.28,3.78
		c0.2,0.09,0.66-0.12,0.82-0.33c0.33-0.44,0.22-0.92-0.31-1.13C421.03,251.02,417.84,249.86,414.36,250.03z M418.24,257.22
		c3.43,2.45,7.25,4.21,10.59,6.74c0.49,0.37,1.09,0.83,1.63,0.1c0.41-0.56,0.37-1.27,0.02-1.81c-0.34-0.51-0.83-1.04-1.37-1.29
		C425.6,259.4,422.1,257.86,418.24,257.22z"/>
	<path class="st0" d="M497.08,249.17c-3.71-1.77-6.86-2.98-9.35-5.73c2.13-0.73,3.23,0.54,4.45,1.14c3.9,1.9,7.91,2.62,12.27,2.38
		c6-0.32,12.03-0.23,18.05-0.18c1.6,0.01,3.19,0.51,4.78,0.83c1.49,0.29,2.53,0.91,3.15,2.57c0.61,1.62,1.93,2.97,2.97,4.41
		c0.28,0.39,0.72,0.65,1.25,0.46c0.7-0.25,0.95-0.81,1.01-1.5c0.14-1.44-0.82-2.42-1.45-3.54c-0.33-0.59-0.59-1.26,0.1-1.68
		c0.3-0.18,0.99-0.05,1.32,0.19c0.93,0.65,1.74,1.46,2.64,2.17c1.4,1.11,2.87,2.13,4.23,3.28c0.88,0.75,3.15,0.81,2.33,2.4
		c-0.61,1.2-2.35,0.12-3.57-0.24c-0.43-0.13-0.91-0.09-1.28-0.13c-0.45,0.56-0.28,0.98-0.09,1.42c0.41,0.95,2.28,1.56,1.27,2.75
		c-1.01,1.19-2.24,3.13-4.37,1.38c-3.12,0.94-5.06-1.15-7.19-2.78c-1.02-0.78-1.99-1.61-3.49-1.32c-1.18,0.23-2.16-0.57-3.19-1.01
		c-7.2-3.11-14.32-3.35-21.75-0.41c-5.63,2.23-10.97,4.82-16.02,8.16c-2.01,1.33-2.81,2.95-3.05,5.18
		c-0.8,7.41-0.3,14.59,3.31,21.34c0.95,1.78,1.98,3.64,2.1,6.81c-2.01-3.32-3.51-5.79-5.17-8.52c-0.64,1.56,0.47,2.56,0.58,3.71
		c0.11,1.22,1.32,2.3,0.34,4.1c-3.02-6.48-5.09-12.83-6.49-19.51c-1.13-5.4-0.04-9.85,3.42-14.04c2.28-2.76,4.41-5.63,7.69-7.92
		c-1.8-1.4-3.33-2.54-4.79-3.77c-0.61-0.51-1.09-1.19-1.55-1.84c-0.3-0.42-0.28-0.94,0.12-1.33c0.39-0.38,0.86-0.43,1.27-0.06
		c1.22,1.08,2.4,2.2,3.63,3.26c2.85,2.47,2.87,2.47,6.24,0.38C494.04,251.23,495.23,250.4,497.08,249.17z M488.42,257.93
		c5.66-0.97,10.63-3.58,15.68-5.97c0.78-0.37,2.11-0.52,1.62-1.82c-0.37-0.97-1.44-1.25-2.47-1.11c-0.62,0.09-1.3,0.22-1.82,0.55
		C497.08,252.34,492.76,255.14,488.42,257.93z M528.24,250.11c-2.54-1.41-5.37-0.87-8.05-1.22c-0.46-0.06-1.02,0.04-1.12,0.59
		c-0.13,0.78,0.5,1.18,1.09,1.37c1.16,0.37,2.39-1.29,3.57,0.1C525.64,253.19,526.98,252.02,528.24,250.11z"/>
	<path class="st0" d="M431.83,276.87c-2.5,2.53-4.99,5.08-7.5,7.6c-0.36,0.36-0.91,0.37-1.31,0.04c-0.83-0.68-0.25-0.99,0.38-1.33
		c2.23-1.19,3.23-3.54,5.35-5.41c-2.3-0.83-3.76,0.29-5.17,1.07c-6.99,3.87-14.64,4.98-22.42,5.44c-3.72,0.22-7.47,0.03-11.21,0.01
		c-9.01-0.05-16.16-4.16-22.34-10.32c-2-1.99-1.38-4.64,1.36-5.69c3.4-1.3,6.84-2.48,10.31-3.57c1.81-0.57,3.68-0.92,5.25-2.08
		c0.26-0.19,0.6-0.55,0.8-0.49c3.86,1.07,7.64-1.03,11.51-0.23c2.21,0.46,4.49,0.65,6.75,0.8c1.02,0.06,1.89,0.03,2.44,1.08
		c0.42,0.79,1.31,0.93,2.08,1.12c6.1,1.52,11.45,4.82,17.19,7.19C427.9,273.15,430.15,274.57,431.83,276.87z M396.24,281.65
		c1.41,0.11,2.05,0.24,2.68,0.2c6.67-0.41,13.18-1.71,19.56-3.66c0.62-0.19,1.24-0.42,1.8-0.74c0.83-0.49,1.79-1.02,1.69-2.17
		c-0.08-0.92-0.99-1.22-1.69-1.58c-5.25-2.68-10.86-4.32-16.55-5.72c-0.78-0.19-1.61-0.19-2.43-0.22c-0.75-0.03-1.35,0.39-1.19,1.14
		C401.11,273.56,399.52,277.48,396.24,281.65z M387.06,279.92c0.73,0,1.05,0.01,1.38,0c5.87-0.28,9.19-4.45,8.11-10.16
		c-0.35-1.83-1.34-2.8-3.28-2.91c-4.64-0.26-8.88,1.34-13.18,2.71c-1.44,0.46-1.92,1.57-1.98,2.99c-0.11,2.94,1.39,5.29,4.15,6.46
		C383.93,279.72,385.66,280.03,387.06,279.92z"/>
	<path class="st0" d="M504.31,286.18c-4.42,0.63-8.58-0.62-12.69-2.27c-2.09-0.84-4.29-1.43-6.37-2.29
		c-1.76-0.73-1.92-1.74-0.87-3.44c0.78-1.26,1.82-2.13,3.13-2.91c2.91-1.75,6.16-2.93,8.77-5.17c0.35-0.3,0.86-0.67,1.25-0.62
		c3.85,0.52,7.29-1.43,10.98-1.75c2.9-0.25,5.81-0.27,8.57,0.99c0.87,0.4,1.86,0.92,2.74,0.82c1.94-0.21,3.2,0.43,4.16,2.09
		c0.27,0.47,1.14,0.57,1.66,0.94c1.05,0.77,2.37-0.97,3.12,0.18c0.58,0.89,0.73,1.85,1.86,2.56c2.03,1.28,1.88,3.21-0.15,4.39
		c-4.08,2.38-8.39,4.37-13.03,5.2C513.13,285.68,508.83,286.76,504.31,286.18z M500.51,283.59c3.62,0.04,7.2-3.08,7.3-7.7
		c0.06-2.73-0.95-4.14-3.62-4.05c-4.95,0.16-9.39,2.08-13.43,4.88c-0.88,0.61-1.15,1.73-0.23,2.5
		C493.01,281.3,495.51,283.4,500.51,283.59z M527.15,278.1c-3.88-2.22-7.03-4.12-10.28-5.82c-1.1-0.58-2.45-0.75-3.72-0.94
		c-1.43-0.22-2.23,0.56-1.89,1.96c0.59,2.4,0.59,4.77,0.14,7.17c-0.21,1.15,0.3,1.95,1.53,1.85
		C517.6,281.95,522.12,281.03,527.15,278.1z"/>
	<path class="st0" d="M515.63,381.52c-11.18,4.59-22.45,8.15-34.35,9.37c-15.58,1.6-31.27,0.53-46.84,2.16
		c-1.6,0.17-3.27-0.01-4.86-0.29c-5.96-1.06-11.97-1.21-18.01-1.25c-1.91-0.01-3.85-0.08-6.02-0.85c0.83-1.22,1.84-1,2.64-0.99
		c6.02,0.03,12.06-0.22,18.05,0.68c5.25,0.78,10.4-0.17,15.57-0.76c11.37-1.31,22.76-0.96,34.15-0.71c4.6,0.1,9.08-0.74,13.54-1.66
		c7.01-1.45,13.96-3.16,20.95-4.73C512.16,382.1,513.9,381.84,515.63,381.52z"/>
	<path class="st0" d="M505.67,432.25c-3.33-4.95-7.35-7.85-11.75-10.31c-3.04-1.7-6.2-2.72-9.73-2.67
		c-9.93,0.14-19.73,1.19-29.39,3.56c-3.05,0.75-6.07,2.1-9.31,0.25c-0.81-0.46-2.22,0.1-3.35,0.22c-1.05,0.11-2.1,0.77-3.18,0.06
		c0.49-0.79,1.28-1.07,2.07-1.21c8.46-1.53,16.89-3.21,25.45-4.22c5.15-0.61,10.24-1.55,15.48-1.57c4.89-0.01,9.32,1.05,13.46,3.52
		c1.67,1,3.26,2.15,4.98,3.05C503.8,424.72,505.36,427.54,505.67,432.25z"/>
	<path class="st0" d="M485.19,271.36c-0.79-1.1-0.19-1.56,0.29-1.91c8.12-5.96,16.78-10.56,27.24-10.35
		c1.13,0.02,2.39-0.03,3.36,0.43c6.99,3.37,14.47,5.94,20.08,11.69c0.34,0.35,0.65,0.72,0.97,1.09c0.36,0.42,0.43,0.89-0.04,1.24
		c-0.2,0.15-0.63,0.19-0.87,0.08c-0.59-0.26-1.2-0.55-1.66-0.99c-3.77-3.54-8.51-5.34-13.1-7.42c-5.85-2.65-11.85-3.08-18.06-1.33
		C497.03,265.72,490.46,266.97,485.19,271.36z"/>
	<path class="st0" d="M344.39,356.46c0.37-0.34,0.71-0.67,1.07-0.96c0.24-0.2,0.51-0.48,0.78-0.49c0.66-0.02,0.65,0.55,0.69,1.01
		c0.02,0.16,0.02,0.33-0.03,0.48c-1.8,6-3.62,12-5.62,18.65c-0.76-2.96-0.75-2.96,0.21-6.87c0.36-1.48,1.43-3.08-0.74-4.17
		c-0.75-0.38-0.33-1.17-0.17-1.75c0.4-1.54,0.86-3.07,1.33-4.7c-1.48,0.26-1.53,1.42-1.99,2.27c-0.38,0.69-0.72,1.65-1.63,1.58
		c-1.43-0.11-0.86-1.4-1.11-2.25c-1.4-4.95-1.28-5.55,1.96-7.98c0.9-0.67,1.75-0.91,2.2,0.5c0.15,0.48,0.39,0.95,0.96,0.69
		c1.73-0.77,1.92,0.17,1.83,1.54C344.08,354.8,343.86,355.62,344.39,356.46z"/>
	<path class="st0" d="M379.46,286.37c-4.47-0.08-8.32-2.11-11.91-4.48c-2.67-1.76-5.25-2.93-8.51-2.59
		c-1.35,0.14-2.75-0.21-4.13-0.63c1.44-0.12,2.87-0.23,4.31-0.35c0.64-0.05,1.7,0.13,1.86-0.17c1.41-2.61,3.43-1.19,4.39-0.18
		c3.47,3.64,7.98,5.35,12.32,7.44C378.38,285.7,378.91,286.05,379.46,286.37z"/>
	<path class="st0" d="M345.37,375.66c0.92-5.85,2.7-11.3,6.36-16.13c-0.99,4.54-1.99,9.07-2.98,13.61
		C348.38,374.84,345.95,374.07,345.37,375.66z"/>
	<path class="st0" d="M533.41,349.28c2.6-3.68,5.43-7.14,7.29-11.26c0.21-0.47,0.66-0.67,1.12-0.31c0.43,0.35,0.44,0.9,0.2,1.32
		c-0.87,1.54-1.76,3.08-2.72,4.56C537.79,345.91,535.78,347.75,533.41,349.28z"/>
	<path class="st0" d="M536.98,279.44c-0.57,3.78-3.72,5.29-6.23,7.31c-0.69,0.56-2.1,1.27-2.57,0.48c-0.86-1.43,0.89-1.76,1.72-2.18
		C532.64,283.66,534.56,281.27,536.98,279.44z"/>
	<path class="st0" d="M547.62,305.13c-1.44,1.77-2.28,1.61-3.04,1.62c-3.69,0.02-7.37,0.01-11.06-0.49
		C537.94,305.18,542.4,305.33,547.62,305.13z"/>
	<path class="st0" d="M257.56,308.87c-0.82-0.58-1.23-1.27-1.45-2.07c-1.65-5.96-1.45-11.91,0.47-17.75
		c1.53-4.63,3.74-5.44,8.21-3.29c2.68,1.29,4.89,3.18,6.85,5.39c3.45,3.91,6.72,7.96,9.44,12.4c1.68,2.75,3.42,5.11,7.08,4.95
		c0.56-0.02,1.3,0.16,1.35,1.14c-1.11,1.16-2.69,0.57-4.04,0.9c-4.2,1.01-6.43,3.38-7.02,7.66c-0.97,7.05,4.28,15.99,10.87,18.56
		c1.34,0.52,2.77,0.31,4.57,0.48c-1.95,2.05-3.83,1.69-5.69,1.01c-10.07-3.73-14.77-11.94-12.66-22.15c0.36-1.74,1.07-3.4,1.62-5.1
		c0.65-2,0.51-3.69-1.33-5.18c-1.92-1.56-2.69-3.96-3.73-6.13c-2.2-4.63-5.07-8.67-9.76-11.15c-2.2-1.16-2.55-1.13-3.51,1.31
		c-2.07,5.28-2.37,10.75-1.41,16.3C257.56,306.94,258.05,307.67,257.56,308.87z"/>
</g>
</svg>
