<?xml version="1.0" encoding="utf-8"?>
<!-- Generator: Adobe Illustrator 25.0.1, SVG Export Plug-In . SVG Version: 6.00 Build 0)  -->
<svg version="1.1" id="Layer_1" xmlns="http://www.w3.org/2000/svg" xmlns:xlink="http://www.w3.org/1999/xlink" x="0px" y="0px"
	 viewBox="0 0 800 800" style="enable-background:new 0 0 800 800;" xml:space="preserve">
<style type="text/css">
	.st0{fill:#FFFFFF;}
</style>
<g>
	<path class="st0" d="M450.42,210.35c-0.19-1.83-0.24-3.1-0.45-4.35c-0.99-5.66-2.06-11.31-3.02-16.98c-0.39-2.31-0.67-4.66-0.84-7
		c-0.66-8.97,0.2-17.74,4.5-25.8c3.01-5.64,5.83-11.53,9.74-16.52c4.64-5.92,9.28-12.12,16.27-15.76c2.16-1.12,4.31-2.3,6.29-3.71
		c0.75-0.54,1.23-1.74,1.43-2.72c2.22-11,3.15-22.1,3.07-33.33c-0.08-10.75,0.12-21.51,0.38-32.26c0.07-2.75,0.55-5.58,1.39-8.2
		c1.27-3.99,3.71-5.23,7.87-4.58c4.18,0.66,7.22,3.26,9.97,6.16c9.88,10.42,17.76,22.19,23.5,35.37
		c4.49,10.31,9.28,20.5,13.45,30.94c5.78,14.47,10.05,29.45,13.79,44.58c1.72,6.98,3.87,13.86,5.99,20.74
		c4.08,13.27,4.38,26.83,3.45,40.52c-0.62,9.07-1.63,18.08-4.9,26.64c-1.41,3.69-3.3,7.21-5.08,10.75c-1.53,3.05-1.4,3.33,1.23,5.38
		c5.63,4.39,11.66,7.96,18.08,11.14c9.73,4.82,15.15,13.23,17.99,23.68c2.78,10.21,0.78,19.41-4.27,28.29
		c-1.55,2.72-1.32,3.78,1.1,5.9c14.19,12.43,28.43,24.78,42.53,37.31c10.34,9.19,21.74,16.96,32.71,25.31
		c7.39,5.62,14.57,11.65,21.04,18.28c6.53,6.68,6.88,17.38,0.05,26.1c-4.57,5.83-7.47,12.43-11.14,18.67
		c-2.65,4.51-4.96,9.22-9.13,12.71c-2.85,2.38-5.93,3.71-9.57,4.25c-1.31,0.19-2.77,1.14-3.64,2.18c-1.9,2.26-3.53,4.75-5.14,7.23
		c-2.63,4.04-6.17,6.89-10.57,8.8c-9.8,4.26-19.9,4.35-30.14,2.22c-5.06-1.05-10.06-2.38-15.09-3.58c0.07-0.29,0.14-0.59,0.21-0.88
		c1.24,0.28,2.49,0.56,3.73,0.84c0.05-0.24,0.11-0.48,0.16-0.72c-5.34-1.43-10.68-2.86-16.28-4.36c0.82,3.31,1.6,6.5,2.41,9.69
		c0.16,0.66,0.51,1.29,0.57,1.95c0.85,9.48,4.88,18.1,7.38,27.13c3.14,11.34,6.29,22.67,9.43,34.01c0.2,0.73,0.41,1.46,0.62,2.19
		c0.18-0.14,0.36-0.28,0.54-0.41c0.29,0.34,0.75,0.64,0.84,1.02c4.52,19.27,9,38.54,13.51,57.81c0.52,2.22,1.2,4.39,1.84,6.7
		c0.82-0.21,1.5-0.38,2.17-0.55c-2.41,2.35-0.79,4.64-0.28,6.99c2.04,9.31,4.22,18.6,5.81,27.99c1.01,5.92-0.97,11.5-3.76,16.78
		c-0.62,1.17-1.19,2.82-0.86,3.99c2.34,8.4,3.03,16.97,3.03,25.63c0,0.88,0.19,1.75,0.29,2.63c0.29,0.01,0.58,0.02,0.88,0.03
		c0.35-3.17,0.7-6.33,1.05-9.5c0.17-0.01,0.33-0.01,0.5-0.02c0,2.17,0.26,4.39-0.06,6.52c-0.6,4-1.44,7.97-2.37,11.91
		c-0.32,1.36-0.9,2.96-1.91,3.8c-3.56,2.98-4.79,6.28-6.94,10.48c1.36-1.64,2.72-3.29,4.09-4.93c0.21,0.12,0.41,0.23,0.62,0.35
		c-1.84,3.14-3.19,6.75-5.62,9.33c-11.2,11.92-25.32,18.28-41.29,21.14c-15.73,2.81-31.56,5.29-47.02,9.22
		c-17.79,4.52-35.18,10.57-52.8,15.74c-12.23,3.59-24.82,5.45-37.45,7.12c-17.71,2.34-35.45,3.98-53.32,3.52
		c-12.66-0.33-25.34-0.63-37.95-1.72c-10.02-0.87-19.39-4.69-28.56-8.88c1.13,0.26,2.26,0.53,3.39,0.79
		c0.04-0.09,0.07-0.18,0.11-0.27c-4.36-2.3-8.68-4.69-13.1-6.88c-17.81-8.84-33.77-20.17-48.07-34.08
		c-16.62-16.18-33.88-31.71-50.63-47.77c-3.51-3.36-6.66-5.86-11.88-6.15c-5.25-0.29-10.44-2.06-15.6-3.36
		c-9.67-2.45-19.5-3.28-29.44-3.51c-4.05-0.09-8.11-0.58-12.15-1c-4.89-0.51-8.78-2.87-10.98-7.25c-5.27-10.51-8.93-21.49-9.67-33.4
		c-0.54-8.67,2.76-15.86,6.65-23.25c8.75-16.65,22.64-27.99,37.71-38.3c1.53-1.04,2.89-2.33,4.41-3.38
		c0.69-0.47,1.57-0.67,2.37-0.97c0.61-0.23,1.26-0.38,1.82-0.69c3.03-1.66,5.96-3.54,9.09-5c3.67-1.71,6.19-4.36,7.66-8.05
		c2.6-6.51,5.16-13.03,7.77-19.65c-3.47-1.21-2.78-3.76-1.95-5.95c3.31-8.69,6.73-17.33,10.28-25.93c1.32-3.21,2.92-6.01,3.1-9.86
		c0.32-7.07,2.25-14.03,5.78-20.35c2.48-4.43,5.18-8.74,7.51-13.24c0.82-1.58,0.92-3.55,1.23-5.36
		c1.95-11.69,6.85-22.27,12.09-32.75c0.63-1.26,0.63-2.85,0.84-4.3c0.34-2.32,0.26-4.77,0.96-6.97c2.4-7.54,5.76-14.64,10.53-21.02
		c0.64-0.85,1.02-1.94,1.33-2.98c2.69-8.95,6.04-17.62,10.76-25.71c0.99-1.7,1.52-3.17-0.11-5.04c-0.66-0.76-0.5-2.89,0.08-3.97
		c3.08-5.72,6.29-11.38,9.7-16.91c2.04-3.31,4.45-6.39,6.79-9.51c3.95-5.27,6.98-10.85,7.9-17.56c0.3-2.24,1.92-4.43,3.33-6.35
		c2.84-3.89,6-7.55,8.9-11.4c0.6-0.8,0.75-2.01,0.93-3.07c0.82-4.56,1.62-9.13,2.31-13.72c0.12-0.76-0.04-2-0.54-2.35
		c-12.95-9.01-17.42-22.67-20.26-37.12c-2.09-10.63-3.62-21.35-3.95-32.24c-0.17-5.73-1.21-11.44-1.89-17.16
		c-1.51-12.74-0.52-25.34,1.87-37.9c1.87-9.81,3.3-19.7,5.16-29.52c2.17-11.44,6.3-22.3,10.78-32.99
		c5.2-12.41,10.58-24.76,16.32-36.93c5.91-12.54,13.84-23.89,22.31-34.8c2.58-3.32,6.26-5.92,9.78-8.34
		c3.51-2.41,7.45-0.18,7.92,4.08c0.1,0.92,0.22,1.87,0.16,2.79c-0.57,9,2.79,17.28,4.63,25.85c2.02,9.4,3.74,18.86,5.72,28.27
		c1.09,5.19,2.51,10.31,3.7,15.49c2.08,9.05,4,18.14,6.17,27.18c1.2,4.99,2.76,9.88,4.17,14.82c1.61,5.66,3.3,11.31,4.85,16.99
		c3.98,14.61,8.92,28.88,15.06,42.71c3.11,7,6.69,13.79,10.04,20.69c0.61,1.26,1.31,1.72,2.8,1.17c8.03-3,16.18-3.27,24.72-2.21
		C435.46,206.57,443.11,207.5,450.42,210.35z M594.15,688.54c0.7,0.46,1.51,0.82,2.07,1.41c0.91,0.97,1.8,1.24,2.83,0.32
		c3.62-3.25,7.22-6.52,10.83-9.79c-0.15-0.22-0.3-0.43-0.46-0.65c-5.48,2.01-10.96,4.03-16.59,6.09c0.55,1.07,0.97,1.86,1.38,2.66
		c-2.68,0.2-0.2,2.4-1.49,3.39c-0.29-1.45-0.46-2.83-0.88-4.14c-0.14-0.44-0.89-0.7-1.35-1.04c-0.25,0.54-0.74,1.09-0.7,1.61
		c0.05,0.77,0.48,1.52,0.74,2.28c-0.26,0.14-0.52,0.28-0.79,0.43c-0.72-1.3-1.45-2.6-2.14-3.86c-1.13,0.58-2.12,1.09-3.27,1.68
		c0.75,2.62,1.5,5.24,2.28,7.95c3.53-1.87,6.68-3.54,9.92-5.26C595.67,690.51,594.91,689.53,594.15,688.54z M240.16,462.77
		c1.21,3.93,5.17,1.32,7.33,3.07c0.34,0.28,0.94,0.39,1.4,0.36c2.47-0.15,4.94-0.37,7.25-0.56c0.93-2.18,2.15-4.63,3.01-7.19
		c0.77-2.31,1.11-4.76,1.71-7.14c3.29-13.01,6.66-26,9.86-39.03c1.05-4.27,3.29-8.35,2.36-13.01c-0.07-0.35,0.54-0.84,1.16-1.72
		c0.18,1.75,0.3,2.91,0.48,4.72c1.35-2.76,2.39-4.89,3.75-7.68c-2.49,1.23-4.41,2.06-6.2,3.12c-0.74,0.43-1.55,1.27-1.72,2.04
		c-0.58,2.82-0.9,5.7-1.36,8.8c0.51-0.79,0.91-1.41,1.3-2.02c-1.16,5.49-2.73,10.8-4.05,16.17c-0.88,3.57-1.95,6.33-6.09,7.72
		c-5.13,1.72-10.03,3.25-15.27,1.08c-1.85-0.76-2.95-0.35-3.53,1.46c-3.13,9.63-6.27,19.25-9.31,28.91c-0.63,2,0.2,2.64,2.28,2.11
		c0.53-0.13,1.04-0.32,1.69-0.52c-0.29,1-0.51,1.76-0.82,2.81c1.8-0.39,3.25-0.7,4.82-1.04c0-0.88,0-1.71,0-2.54L240.16,462.77z
		 M333.66,613.77c-0.28,0.47-0.57,0.93-0.95,1.56c5.39-1.34,10.65-2.65,15.91-3.96c-0.05-0.23-0.1-0.45-0.15-0.68
		c-1.36,0.3-2.71,0.61-4.07,0.9c-3.6,0.76-7.2,1.5-10.8,2.25c0.96-0.49,1.86-1.17,2.88-1.45c3.18-0.85,6.38-1.67,9.62-2.29
		c12.68-2.42,24.98-6.16,36.85-11.15c5.58-2.35,11.74-2.66,17.14-5.56c2.24-1.2,4.97-1.45,7.42-2.28c5.8-1.96,11.57-4,17.62-6.11
		c-0.58-1.56-1.19-3.03-1.66-4.53c-0.48-1.57-1.24-1.81-2.83-1.32c-3.46,1.07-6.98,2.03-10.54,2.71
		c-22.39,4.28-44.76,8.67-66.62,15.29c-10.83,3.28-21.65,6.58-32.45,9.94c-0.93,0.29-1.69,1.15-2.36,1.63
		c-0.8,0.06-1.55,0.11-2.78,0.2c2.41,2.89,4.36,5.22,6.29,7.57c0.08,0.1,0.01,0.33,0.01,0.5c-2.21-2.21-4.39-4.46-6.66-6.61
		c-0.33-0.31-1.09-0.37-1.6-0.26c-1,0.21-1.96,0.62-3.64,1.18c2.76,1.67,5.15,2.77,7.12,4.39c4.01,3.3,4.98,4,6.78,3.49
		c-0.74-0.8-1.4-1.52-2.07-2.23c1.46,0.63,2.92,1.25,4.92,2.11c-0.46-1.29-0.66-1.83-0.63-1.75c1.91-0.25,3.76-0.35,5.55-0.74
		C325.88,615.69,329.77,614.7,333.66,613.77z M473.78,141.13l-0.06-0.06c-0.36,1.79-1.72,2.52-3.09,3.59
		c-7.22,5.6-11.57,13-12.9,22.12c-0.11,0.73-0.58,1.41-0.88,2.11l0.03,0.04c-0.89-0.14-0.94-0.16-1.29,0.91
		c-3.37,10.11-3.11,20.28-0.32,30.45c0.67,2.44,1.49,4.87,2.52,7.18c1.45,3.26,3.17,6.41,4.84,9.74c0.94-0.7,1.58-1.17,2.57-1.91
		c0.11,2.2,0.21,4.01,0.3,5.76c-3.79,1.71-6.06,8.74-3.88,12.02c0.58,0.87,1.74,1.52,2.77,1.88c2.12,0.74,4.39,1.09,6.5,1.86
		c2.85,1.04,3.99,0.38,3.76-2.54c-0.1-1.26-0.5-2.51-0.52-3.77c-0.23-15.75-5.08-30.84-6.6-46.4c-1.29-13.14,0.07-25.42,10.2-35.16
		c1.11-1.07,2.61-1.73,4.13-2.72c0.21-0.45,0.42-1.51,1.05-2.16c1.28-1.31,1.54-2.45,0.37-3.99c-0.58-0.76-0.8-1.8-1.19-2.71
		c0.28-0.2,0.55-0.4,0.83-0.6c1.89,1.83,3.79,3.65,5.68,5.48c1.27,1.23,2.4,2.67,3.83,3.67c1.25,0.87,2.83,1.24,4.41,1.89
		c0,0.04-0.2,0.67,0.03,0.99c1.62,2.29,7.26,4,9.95,2.94c0.63-0.25,1.32-1.06,1.46-1.73c0.33-1.56,0.44-3.18,0.47-4.79
		c0.03-1.78-0.78-2.49-2.6-1.74c-0.91,0.37-1.91,0.52-2.86,0.77c-0.07-0.28-0.14-0.56-0.21-0.84c1.15-0.31,2.39-0.45,3.42-0.99
		c0.91-0.48,2.28-1.42,2.25-2.12c-0.19-5.57-2.24-10.48-7.39-13.02c-4.28-2.11-8.89-3.65-13.4,0.3c-5.01,4.38-10.3,8.45-15.44,12.68
		c-0.39,0.32-0.62,0.83-1.07,1.46C472.48,141.45,473.13,141.29,473.78,141.13z M381.37,728.66c3.58,4.35,7.14,8.71,10.78,13.01
		c0.26,0.31,1.12,0.31,1.63,0.17c3.25-0.89,6.54-1.69,9.72-2.82c18.69-6.66,37.36-13.39,56.03-20.11c3.25-1.17,6.51-2.32,9.71-3.62
		c0.61-0.25,1.48-1.3,1.35-1.69c-1.49-4.62-3.15-9.19-4.65-13.44c-1.81,0.34-3.16,0.59-4.59,0.85c0.06,0.2,0.24,0.75,0.37,1.16
		c-8.04,3.6-15.81,7.22-23.71,10.56c-8.75,3.7-17.53,7.33-26.44,10.62c-6.06,2.24-12.35,3.87-18.55,5.74
		c-0.88,0.27-1.81,0.53-2.72,0.51c-3.01-0.04-6.22,1.7-8.97-0.89c1.81-1.04,3.52-2.44,5.46-3.05c5.03-1.56,10.19-2.72,15.26-4.16
		c2.4-0.68,4.72-1.65,7.08-2.48c6.42-2.25,12.98-4.17,19.24-6.82c8.66-3.66,17.08-7.88,25.63-11.81c1.25-0.57,2.62-0.87,3.93-1.3
		c-2.25-0.02-4.47,0.04-6.5,0.71c-12.9,4.25-25.81,8.5-38.62,13.03c-7.96,2.82-15.71,6.22-23.63,9.16
		c-2.82,1.05-5.84,1.52-8.77,2.26c27.64-10.4,54.69-22.37,83.81-28.62c-2.58-7.16-4.87-13.62-7.23-20.05
		c-2-5.44-0.81-4.84-6.45-3.35c-11.57,3.04-22.85,6.89-33.9,11.58c-10,4.24-20.43,7.47-30.68,11.14c-0.14,0.05-0.32-0.03-0.55-0.05
		c0.03-0.33,0.06-0.64,0.07-0.68c-2.17,0.97-4.37,2.18-6.72,2.94c-2.25,0.73-4.86,0.54-6.25,3.15c1.02,1.39,2.09,2.83,3.15,4.27
		c-0.25,0.19-0.49,0.39-0.74,0.58c-1.17-1.36-2.35-2.72-3.52-4.08c-0.09,0.1-0.19,0.21-0.28,0.31c1.22,2.43,2.43,4.87,3.65,7.3
		c-0.22,0.16-0.43,0.32-0.65,0.48c-1.76-1.85-3.52-3.71-5.64-5.94c0.21,0.87,0.23,1.21,0.37,1.49c3.12,6.37,6.21,12.75,9.42,19.08
		C379.1,725.52,380.31,727.05,381.37,728.66z M279.24,589.91c-1.25,0-2.49,0-3.94,0c0.68,1.56-1.34,3.3,0.7,4.3
		c1.45,0.71,3.08,1.04,4.61,1.53c0.01-0.01-0.43,0.67-0.37,0.71c1.11,0.86,2.19,2.07,3.46,2.33c1.03,0.21,2.29-0.72,3.45-1.15
		c-0.29-0.58-0.46-1.53-0.89-1.66c-1.14-0.35-2.4-0.35-3.6-0.49c0.01-0.28,0.03-0.55,0.04-0.83c2.66,0,5.31,0,7.97,0
		c0,0.13,0,0.26,0.01,0.39c-0.74,0.12-1.49,0.23-2.23,0.35c0,0.31-0.01,0.61-0.01,0.92c0.83,0.07,1.74,0.39,2.48,0.16
		c2.32-0.7,4.56-1.66,6.87-2.41c0.76-0.25,1.63-0.17,2.97-0.29c-0.99,1.41-1.58,2.26-2.07,2.95c0.96,1.07,1.77,1.98,2.73,3.06
		c-1.99,0.91-5.82,0.71-2.47,4.16c0.05,0.05,0.03,0.16,0.05,0.25c1.02,3.47,2.27,4.15,5.76,2.73c17.92-7.29,36.69-11.83,55.36-16.51
		c16.04-4.02,32.41-6.76,48.61-10.17c4.42-0.93,8.76-2.22,13.17-3.35c-2.37-6.46-4.58-12.49-6.83-18.63
		c-0.43,0.07-0.84,0.1-1.23,0.19c-19.04,4.52-38.06,9.15-57.13,13.54c-17.83,4.11-35.71,8.01-53.59,11.89
		c-7.5,1.63-15.05,3.02-22.59,4.46c-1.04,0.2-1.79,0.32-1.36,1.61L279.24,589.91z M207.57,604.99c0.66,0.35,1.46,0.57,1.94,1.08
		c2.91,3.06,5.92,6.05,8.57,9.33c5.37,6.64,10.58,13.41,15.75,20.21c11.77,15.49,23.37,31.11,35.23,46.52
		c17.86,23.22,37.68,44.56,59.99,63.66c14.38,12.31,30.63,20.6,48.64,25.34c12.71,3.35,25.89,3.85,39.05,2.99
		c1.51-0.1,3.04-0.01,4.56-0.01c-7.41,2.61-15.06,1.73-22.61,2.23c13.66,3.28,27.65,2.71,41.52,3.72
		c-5.47,0.71-10.93,1.36-16.41,1.55c-16.52,0.59-32.39-3.31-48.25-7.27c-9.62-2.4-19.05-5.25-27.69-10.29
		c-1.86-1.09-3.92-1.96-6-2.53c-8.3-2.27-15.17-7.12-21.64-12.42c-7.46-6.11-14.45-12.79-21.66-19.21
		c-9.69-8.62-19.4-17.25-26.9-27.93c-11.77-16.77-23.25-33.74-35.03-50.5c-12.68-18.03-25.9-35.65-42.67-50.2
		c-7.47-6.48-14.66-13.36-23.95-17.39c-1.73-0.75-2.86-0.59-4.35,0.45c-8.56,5.94-15,13.9-21.2,22.08
		c-1.87,2.47-3.61,5.04-5.24,7.31c4.19,2.34,8.59,3.93,11.86,6.81c8.26,7.24,16.37,14.72,23.86,22.75
		c7.38,7.92,13.78,16.73,20.84,24.96c21.64,25.2,46.63,47.01,71.13,69.26c9.52,8.64,21.11,14.62,32.8,20.09
		c0.83,0.39,1.65,0.79,2.47,1.19c-9.12-1.99-16.64-7.29-24.73-11.42c0.64,0.87,1.34,1.62,2.17,2.18
		c12.57,8.6,25.03,17.37,37.79,25.68c6.22,4.06,12.99,7.28,19.53,10.83c1.16,0.63,2.41,1.4,3.67,1.51
		c10.85,0.94,21.71,2.43,32.57,2.42c17.99-0.02,36.03-0.02,53.91-2.77c10.25-1.58,20.67-2.35,30.76-4.59
		c14.87-3.31,29.54-7.56,44.27-11.5c6.96-1.86,13.86-3.93,20.78-5.91c-8.18,0.03-16.3,0.32-24.41,0.6
		c-11.86,0.42-23.69,0.12-35.49-1.29c-3.58-0.43-7.48-1.31-10.79-0.39c-10.84,3-21.75,2.87-32.48,0.8
		c-7.64-1.48-14.93-4.8-22.37-7.31c-0.39-0.13-0.98-0.36-1.05-0.64c-0.79-3.38-4.04-4.32-6.23-6.25
		c-7.75-6.82-14.8-14.18-19.49-23.51c-4.52-9-8.98-18.04-13.57-27.01c-0.98-1.92-2.12-3.98-3.73-5.32
		c-12.73-10.53-24.56-21.83-33.03-36.23c-5.8-9.87-11.66-19.69-17.53-29.52c-0.46-0.78-1.08-1.53-1.79-2.08
		c-2.91-2.27-6.02-4.29-8.79-6.71c-8.66-7.57-18.45-13.48-28.41-19.07c-2.46-1.38-5.37-3.66-8.8-1.37
		c-0.41,0.28-1.95-0.65-2.62-1.34c-0.91-0.94-1.5-2.2-2.22-3.33c-0.13,0.23-0.26,0.46-0.39,0.68c-1.4-0.48-2.85-0.86-4.19-1.48
		c-1.37-0.64-2.56-1.73-3.96-2.24c-7.11-2.56-13.15-6.9-19.26-11.19c-6.69-4.69-13.64-8.74-22.26-8.99
		c-3.66-0.1-7.27-1.36-10.92-2.01c-0.55-0.1-1.27,0.14-1.75,0.45c-3.67,2.41-7.3,4.88-10.94,7.34c-0.49,0.33-0.95,0.7-1.73,1.28
		c8.94,1.25,14.64,6.9,20.26,12.55c3.8,3.81,7.34,7.88,11,11.83c-0.39-0.13-0.77-0.25-1-0.33c2.49,2.47,5.01,4.97,7.53,7.47
		c0.02-0.02,0.05-0.04,0.07-0.06C210.87,608.69,209.22,606.84,207.57,604.99z M393.02,449.63c-0.47-0.64-0.93-1.28-1.4-1.92
		c0.43,4.44,1.2,8.51,2.26,12.51c1.69,6.38,3.6,12.7,5.36,19.05c0.6,2.19,0.87,4.48,1.6,6.61c0.83,2.41,2.29,4.62,2.99,7.05
		c3.12,10.89,5.83,21.9,9.17,32.71c2.22,7.18,5.25,14.12,7.92,21.16c0.12,0.31,0.17,0.76,0.4,0.91c2.66,1.69,2.81,4.69,3.8,7.24
		c1.46,3.79,2.67,7.68,4.32,11.39c0.57,1.28,1.95,2.57,3.26,3.08c10.08,3.91,20.56,3.61,31.08,2.54c0.35-0.04,0.69-0.31,1.14-0.53
		c-2.42-2.82-4.7-5.49-6.99-8.15c0.26-0.24,0.52-0.48,0.77-0.72c1.59,1.31,3.29,2.5,4.75,3.94c3.91,3.84,8.47,5.12,13.73,3.72
		c5.88-1.56,11.73-3.25,17.61-4.82c8.68-2.32,15.31-7.74,21.42-13.99c1.21-1.24,1.65-2.37,0.64-4.01c-0.92-1.5-1.69-3.16-2.19-4.85
		c-4.32-14.6-8.61-29.2-12.77-43.84c-1.02-3.58-1.52-7.31-2.26-10.98c-0.26,0.02-0.51,0.04-0.77,0.06
		c-3.75,23.62-2.41,47.19,1.29,70.76c-0.9,0.4-1.79,0.79-2.75,1.22c-0.53-1.79-0.66-3.64-1.55-4.99c-3-4.51-3.56-9.67-4.21-14.76
		c-2.87-22.54-1.92-44.95,2.72-67.2c1.06-5.11,2.41-10.18,1.7-15.54c-0.46-3.49-0.22-3.49-3.67-3.54c-4.15-0.06-8.37,0.3-12.43-0.34
		c-13.79-2.17-27.54-4.63-41.27-7.14c-8.49-1.55-14.29-7.37-19.97-13.26c-0.23-0.24-0.53-0.56-0.53-0.84
		c0.01-0.87-0.11-1.92,0.33-2.53c0.27-0.38,1.58-0.32,2.24-0.04c1.23,0.53,2.32,1.38,3.48,2.09c5.19,3.21,10.33,6.45,16.38,7.94
		c20.61,5.08,41.51,8.1,62.7,9.32c4.93,0.28,9.79-0.82,14.82,0.48c6.67,1.73,13.15,3.8,19.24,6.99c5.69,2.98,11.14,6.46,16.94,9.22
		c11.68,5.55,23.16,11.68,35.75,15c9.21,2.43,18.52,4.5,27.82,6.6c1.52,0.34,3.27,0.29,4.79-0.07c5.24-1.24,10.47-2.57,15.62-4.13
		c1.77-0.54,3.65-1.53,4.18-4.39c-1.7,0.52-2.87,0.93-4.07,1.23c-3.19,0.79-6.36,2.02-9.6,2.21c-12.06,0.7-23.74-1.22-34.92-5.95
		c-13.13-5.55-25.62-12.38-37.73-19.81c-9.37-5.75-19.22-10.35-29.27-14.62c-2.17-0.92-4.54-1.35-6.79-2.1
		c-3.2-1.07-6.44-2.06-9.53-3.37c-4.82-2.05-9.52-4.4-14.33-6.46c-0.68-0.29-2.02,0.04-2.53,0.57c-0.44,0.47-0.34,1.7-0.12,2.49
		c0.4,1.48,1.05,2.89,1.62,4.38c-2.72-0.48-5.52-3.85-6.22-7.22c-0.3-1.44-0.07-2.29,1.4-3.01c3.12-1.51,6.18-0.92,9.13,0.14
		c5.41,1.95,10.71,4.2,16.09,6.25c16.74,6.37,32.69,14.27,48.15,23.35c8.35,4.9,17.35,8.93,26.45,12.28
		c7.98,2.94,16.49,4.44,24.79,6.51c8.08,2.01,15.86,1.8,23.86-1.33c10.45-4.09,17.58-11.02,21.95-21.18
		c1.58-3.68,0.88-6.73-1.71-9.54c-0.63-0.68-1.44-1.23-1.96-1.98c-1.7-2.49-3.79-4.87-4.82-7.63c-1.28-3.39-3-7.25-0.76-10.78
		c3.96-6.22,9.66-10.27,17.17-10.85c4.98-0.38,10.02-0.07,15.25-0.07c-0.27-0.38-0.41-0.66-0.62-0.87
		c-2.84-2.85-5.69-5.69-8.56-8.51c-0.47-0.47-1.06-0.83-1.64-1.17c-5.2-3.13-10.52-6.06-15.57-9.4c-5.5-3.64-10.71-7.7-16.13-11.47
		c-2.36-1.64-5.11-2.73-7.34-4.5c-6.43-5.11-12.77-10.34-18.98-15.72c-6.59-5.71-12.65-12.07-19.55-17.37
		c-13.04-10.02-24.9-21.22-35.08-34.06c-5.01-6.33-8.96-13.52-13.15-20.47c-1.59-2.63-1.06-3.44,1.3-3.7
		c-0.61-1.54-1.21-3.07-2.05-5.19c1.07,0.4,1.48,0.43,1.63,0.64c2.18,2.9,4.45,5.74,6.44,8.76c3.51,5.33,5.63,11.74,12.05,14.75
		c3.23,1.51,6.29,3.39,8.93,4.83c1.2-1.34,2.09-3.02,2.72-2.92c2.45,0.37,2.65-1.41,3.16-2.81c0.6-1.67,0.93-3.45,1.37-5.18
		c0.06,0.01,0.13,0.02,0.19,0.03c0,1.84,0,3.67,0,5.51c1.54-2.56,2.57-5.28,3.55-8.01c0.46-1.28,1.09-2.57,1.17-3.88
		c0.21-3.3-1.9-5.42-4.19-7.43c-6.75-5.93-15.31-8.16-23.35-11.42c-3.59-1.46-7.31-2.73-11.08-3.58c-4.04-0.91-7.75-2.26-11.14-4.67
		c-4.83-3.42-9.75-6.72-14.68-10c-4.87-3.23-9.91-6.2-14.66-9.58c-2.54-1.8-4.65-4.22-7.39-6.76c-6.05,5.06-14.24,5.78-22.33,6.57
		c-8.46,0.83-15.98-2.63-24.04-5.72c0.91-0.35,1.37-0.53,1.65-0.64c-0.48-1.01-1.16-1.85-1.24-2.74c-0.18-1.85-0.99-1.89-2.56-1.61
		c-2.64,0.48-5.39,1.09-8.01,0.83c-6.65-0.66-12.34-3.94-17.84-7.5c-0.22-0.14-0.33-0.43-0.69-0.93c3.71,1.74,7,3.48,10.43,4.85
		c6.79,2.7,13.56,3.34,20.4-1.19c-0.96,1.97-0.38,2.95,2.04,3.09c-0.4-1.48-0.72-2.64-1.1-4.05c0.76,0.24,1.3,0.41,2.19,0.69
		c-0.26-1.22-0.81-2.21-0.58-2.95c0.87-2.72-0.87-2.99-2.74-3.28c-8.45-1.3-16.89-2.69-25.36-3.9c-8.45-1.21-16.82-1.22-25.07,1.62
		c-3.18,1.09-6.58,1.56-9.9,2.22c-0.77,0.15-1.62-0.08-2.43-0.14c-0.05-0.34-0.09-0.68-0.14-1.02c4.21-1.05,8.41-2.1,12.62-3.15
		c-0.39-0.62-0.68-0.73-0.97-0.71c-1.43,0.11-2.88,0.15-4.29,0.41c-4.11,0.76-6.04,0.09-8.06-3.55c-4.64-8.37-9.7-16.56-13.58-25.28
		c-10.02-22.48-17.74-45.83-23.54-69.72c-4.41-18.16-7.91-36.56-11.35-54.94c-2.44-13.06-4.42-26.22-4.3-39.6
		c0.01-1.46-0.74-3.17-1.67-4.36c-1.98-2.55-4.09-2.28-5.77,0.3C320.46,41,311.51,62.25,302.8,83.58
		c-5.91,14.46-9.87,29.53-12.69,44.91c-3.43,18.74-7.7,37.36-7.51,56.57c0.13,12.61-0.02,25.24,0.81,37.81
		c0.83,12.54,4.91,24.37,10.35,35.67c2.21,4.58,5.73,8.21,9.71,12.1c1.56-1.96,2.91-3.54,4.1-5.24c0.3-0.43,0.31-1.34,0.06-1.84
		c-1.05-2.11-2.27-4.14-3.4-6.21c-4.97-9.11-8.93-18.58-10.27-28.99c-0.41-3.19-1.11-6.34-1.5-9.53c-0.07-0.6,0.7-1.3,1.08-1.95
		c0.53,0.47,1.34,0.84,1.52,1.42c0.56,1.77,0.88,3.61,1.31,5.42c2.43,10.4,5.39,20.62,10.41,30.12c0.54,1.02,1.32,1.92,1.99,2.88
		c-2.3-5.64-4.73-11.13-6.26-16.86c-3.45-12.88-5.5-26.04-5.41-39.38c0.06-9.12,0.91-18.24,1.59-27.35
		c0.35-4.59,1.11-9.16,1.69-13.73c0.37,0.32,0.39,0.62,0.37,0.92c-0.69,9.36-1.55,18.72-2.03,28.09
		c-0.75,14.82,1.5,29.39,4.47,43.83c1.68,8.19,3.46,16.42,8.22,23.6c3.09,4.66,3.1,4.91,8.36,3.31c3.14-0.95,5.71-0.16,8.08,1.65
		c2.75,2.1,3.1,5.24,3.28,8.44c0.15,2.6-1.97,2.81-3.49,3.72c-0.17,0.1-0.21,0.42-0.59,1.28c1.6,0.24,3,0.67,4.38,0.61
		c1.93-0.09,3.84-0.58,5.77-0.84c2.72-0.37,4.9,0.71,5.95,3.27c0.6,1.45,0.58,3.13,1.07,4.64c0.37,1.14,0.84,2.67,1.73,3.13
		c1.88,0.99,3.63,1.77,4.52,3.96c0.52,1.28,1.74,2.27,2.65,3.39c0.17-0.11,0.34-0.22,0.5-0.33c-0.18-1.11-0.36-2.21-0.64-3.97
		c2.98,4.35,3.63,9.33,8.22,12.03c1.7,1,1.51,4.77,4.75,5.03c0.18,0.01,0.32,0.37,0.5,0.55c7.83,8.17,12.65,18.02,15.23,28.88
		c5.01,21.09,9.71,42.26,14.48,63.4c0.27,1.2,0.03,2.51,0.03,4.31c-3.03-1.44-3.53-3.67-4.09-5.7c-3.31-12-6.55-24.02-9.76-36.05
		c-1.28-4.8-2.42-9.63-3.63-14.45c-0.18,0.04-0.37,0.09-0.55,0.13c3.12,14.99,6.24,29.98,9.36,44.97c-0.21,0.06-0.43,0.11-0.64,0.17
		c-4.03-10.1-8.3-20.11-10.21-30.94c-1.34-7.59-2.66-15.18-4.17-22.73c-1.49-7.44-6.27-13.26-10.27-19.4
		c-1.42-2.18-3.65-3.98-6.92-2.95c-0.78,0.24-2.04-0.44-2.84-1.02c-1.43-1.04-2.63-2.38-4.01-3.51c-0.55-0.45-1.29-0.67-1.94-0.99
		c-0.14,0.83-0.02,1.24,0.25,1.51c5.14,5.28,8.25,11.72,10.71,18.55c9.65,26.84,17.77,54.13,24.41,81.86
		c0.22,0.9,0.2,2.18,0.79,2.62c2.63,1.98,2.57,5.02,3.19,7.7c1.52,6.5,2.62,13.1,4.15,19.6c0.64,2.75,1.93,5.34,2.93,8
		C392.97,449.68,393.02,449.63,393.02,449.63z M459.43,761.43c35.56,3.01,70.92,3.3,105.5-7.42c-1.14,0.42-2.28,0.83-3.39,1.23
		c11.93-0.58,22.76-5.11,33.36-9.84c9.82-4.39,17.03-12.19,22.9-21.24c3.44-5.31,5.32-10.81,4.69-17.19
		c-0.48-4.88-0.46-9.8-0.95-14.68c-0.4-3.96-1.22-7.87-1.94-12.35c-7.26,10.65-16.91,17.91-25.95,25.78
		c-1.2,1.05-2.61,1.88-4.02,2.64c-4.73,2.56-5.91,2.29-9.31-1.93c-0.05-0.06-0.12-0.12-0.2-0.16c-3.66-2.16-4.5-5.96-5.56-9.62
		c-0.8-2.78-1.52-5.58-2.38-8.76c-2.24,2.4-4.15,4.41-6.02,6.46c-9.05,9.92-20.02,17.08-32.18,22.54
		c-16.66,7.48-33.79,8.51-51.34,3.74c-1.34-0.36-2.67-0.77-4.28-1.24c1.98,6.15,3.8,11.95,5.72,17.71c1.36,4.09,0.71,7.89-2.33,10.8
		c-3.03,2.89-6.34,5.62-9.92,7.75C467.92,757.99,463.57,759.54,459.43,761.43z M496.06,49.42c0,3.75-0.16,6.91,0.03,10.05
		c1.01,17.25,1.52,34.5,0.35,51.76c-0.1,1.51,0.45,2.04,1.86,1.87c5.96-0.74,11.29,0.38,15.5,5.05c0.38,0.42,1.04,0.57,1.51,0.92
		c7.31,5.51,9.62,8.92,6.18,18.06c-0.86,2.29-1.93,4.5-2.85,6.77c-3.82,9.41-5.47,19.13-4.57,29.32c0.86,9.78,1.4,19.58,2.11,29.38
		c0.15,2.1,0.51,4.19,0.69,6.29c0.47,5.61,1.2,11.25-2.15,16.38c-0.85,1.31-1.38,2.83-2.12,4.36c2.97,1.85,5.74,3.62,8.57,5.31
		c0.52,0.31,1.38,0.55,1.88,0.34c2.63-1.13,5.46-2.06,7.74-3.72c4.64-3.4,8.84-7.34,11.53-12.6c0.76-1.49,1.69-2.53,3.58-1.34
		c1.83,1.16,0.77,2.37,0.12,3.45c-4.28,7.14-9.89,12.77-17.92,15.64c-0.61,0.22-1.1,0.74-1.65,1.12c0.09,0.22,0.18,0.43,0.27,0.65
		c0.61-0.06,1.24-0.01,1.81-0.2c1.44-0.47,2.82-1.19,4.28-1.54c5.01-1.2,10.19-2.07,11.66-8.25c0.04-0.15,0.2-0.27,0.27-0.42
		c2.79-5.28,5.67-10.53,8.33-15.88c0.84-1.69,1.44-3.63,1.58-5.5c0.39-5.23,0.53-10.48,0.68-15.73c0.33-11.57-0.39-22.88-4.72-33.93
		c-5.12-13.06-8.93-26.65-14.11-39.69c-4.42-11.13-9.18-22.28-15.26-32.56c-7-11.83-15.6-22.71-23.53-33.99
		C497.44,50.42,497,50.19,496.06,49.42z M270.35,448.21c4.56-0.76,8.8-1.36,13-2.2c6.13-1.24,12.17-2.98,18.33-3.94
		c11.27-1.75,22.59-3.23,33.92-4.56c9.14-1.07,18.33-1.75,27.5-2.61c4.6-0.43,9.2-0.86,13.8-1.34c1.7-0.18,2.06-1.71,1.85-2.87
		c-0.48-2.63-1.35-5.19-2.06-7.79c-0.14,0.03-0.28,0.06-0.42,0.09c0.51,2.31,1.02,4.62,1.53,6.93c-0.25,0.07-0.5,0.14-0.75,0.21
		c-0.24-0.46-0.58-0.89-0.7-1.37c-0.4-1.64-0.85-3.29-1.02-4.96c-0.16-1.52-0.96-1.88-2.28-2.15c-1.34-0.28-2.26,0.74-3.21,0.81
		c-6.06,0.46-12.14,0.49-18.21,0.82c-10.37,0.57-20.73,1.25-31.1,1.87c-1.34,0.08-2.68,0.01-4.02,0.01
		c-0.02-0.38-0.03-0.75-0.05-1.13c3.21-0.44,6.42-0.93,9.65-1.3c2.17-0.25,4.37-0.26,6.55-0.49c7.9-0.85,15.79-1.79,23.7-2.63
		c3.53-0.37,7.14-0.24,10.59-0.94c5.08-1.02,6.68-2.53,6.19-5.8c-0.77-5.16-1.66-10.32-2.74-15.42c-0.18-0.82-1.66-1.96-2.51-1.94
		c-3.82,0.09-7.63,0.54-11.45,0.86c0.74,0.4,1.47,0.4,2.2,0.4c2.79-0.01,5.59-0.07,8.38,0c0.55,0.01,1.09,0.5,1.64,0.77
		c-0.53,0.43-1.01,0.97-1.61,1.27c-0.42,0.21-1,0.09-1.5,0.1c-3.05,0.03-6.09,0.06-9.14,0.08c-13.26,0.09-26.54-0.12-39.79,0.36
		c-8,0.29-15.95,1.7-23.94,2.46c-2.87,0.27-5.79,0.25-8.68,0.09c-2.46-0.14-4.8,1.18-5.28,3.56c-0.9,4.47-1.72,8.95-2.52,13.44
		c-0.44,2.44-0.79,4.89-1.17,7.26c4.97-0.41,9.49-0.88,14.02-1.12c4.46-0.23,8.94-0.34,13.41-0.26c4.37,0.07,8.73-1.13,13.57-0.58
		c-0.57,0.7-0.65,0.91-0.77,0.94c-0.57,0.12-1.16,0.18-1.74,0.26c-7.73,1.17-15.65-0.03-23.33,2.47
		c-5.01,1.63-10.41,2.05-15.94,3.06C272.98,436.37,271.69,442.17,270.35,448.21z M453.23,630.28c2.21,0.34,4.42,0.92,6.64,0.96
		c5.51,0.11,11.03,0.05,16.54-0.09c6.02-0.16,12.12,0.04,18.04-0.87c7.22-1.12,14.3-3.18,21.41-4.94
		c5.59-1.39,10.69-3.88,15.22-7.44c6.93-5.44,14.39-10.38,18.63-18.52c0.83-1.59,1.95-3.29,1.97-4.95c0.02-1.7-1.14-3.42-1.82-5.24
		c-2.87,3.29-5.61,6.37-8.27,9.52c-0.64,0.76-1.02,1.74-1.49,2.56c-0.87,0.38-2.02,0.65-2.86,1.3c-1.93,1.5-3.56,3.43-5.59,4.76
		c-10.26,6.7-21.03,11.98-33.36,14.08c-15.28,2.61-30.38,3.78-45.46-0.88c-1.7-0.52-3.51-0.68-5.31-1.01c0,0.55-0.05,0.74,0.01,0.89
		c3.67,10.45,7.34,20.91,11.04,31.35c0.17,0.49,0.62,1.1,1.07,1.22c2.35,0.67,4.72,1.65,7.11,1.72c13.94,0.46,27.86,1.13,41.76-1.2
		c20.15-3.39,36.19-13.07,47.94-29.86c1.18-1.69,1.5-3.28,1.06-5.22c-1.39-6.11-2.71-12.23-4.07-18.35
		c-0.16-0.74-0.46-1.45-0.88-2.77c-0.61,1.26-0.86,1.87-1.19,2.44c-1.67,2.9-2.93,6.19-5.16,8.58c-3.47,3.74-7.48,7.03-11.49,10.22
		c-4.89,3.89-10.38,6.78-16.41,8.52c-3.98,1.15-8,2.29-12.07,2.99c-6.93,1.2-13.9,2.53-20.9,2.91c-7.99,0.44-16.03-0.01-24.04-0.23
		C458.48,632.66,455.49,632.87,453.23,630.28z M408.63,539.22c-0.2-1.07-0.24-1.57-0.38-2.03c-1.7-5.41-3.42-10.81-5.13-16.21
		c-0.7-2.22-2.51-3.08-4.05-1.44c-2.28,2.44-5.2,2.62-7.99,3.03c-14.31,2.11-28.63,4.24-42.99,5.95
		c-18.58,2.21-37.1,4.62-55.31,9.08c-10.33,2.53-20.76,4.63-31.19,6.93c0,7.02,0,13.97,0,21.03c4.3-0.82,8.5-1.38,12.57-2.44
		c12.68-3.28,25.44-6.36,37.95-10.23c22.32-6.91,45.25-9.74,68.42-11.38C389.77,540.86,399.01,540.01,408.63,539.22z M261.28,518.53
		c10.14-4.52,20.37-6.51,30.85-7.59c6.42-0.66,12.83-1.52,19.17-2.71c17.17-3.2,34.32-6.4,51.93-5.34c2.68,0.16,5.4-0.16,8.09-0.4
		c7.32-0.65,14.64-1.37,21.95-2.08c0.4-0.04,1.09-0.11,1.15-0.31c0.72-2.41,1.64-0.48,2.33-0.19c-2.46-7.28-4.94-14.65-7.48-22.18
		c-2.65,0.47-5.28,1.01-7.93,1.38c-21.27,2.99-42.56,5.88-63.82,8.95c-17.38,2.52-34.73,5.26-52.1,7.86
		c-1.42,0.21-2.1,0.83-2.22,2.21c-0.14,1.68-0.31,3.36-0.47,5.04C262.26,508.15,261.79,513.1,261.28,518.53z M282.7,584.68
		c8.91,0.35,130.24-29.25,130.61-31.68c-0.4-0.24-0.86-0.53-0.96-0.59c0-1.11,0.14-2.01-0.03-2.84c-0.29-1.4-0.85-2.75-1.15-4.15
		c-0.43-2.03-1.38-2.42-3.45-1.94c-9.2,2.14-18.38,4.57-27.7,5.97c-20.81,3.14-41.57,6.47-62.12,11.03
		c-14.91,3.31-29.79,6.79-44.72,9.99c-5.44,1.16-10.98,1.9-16.52,2.45c-1.59,0.16-2.22,0.44-2.14,1.87
		c0.21,3.62,0.52,7.23,0.78,10.85c0.15,2.16,1.31,2.51,3.26,2.13c8.39-1.61,16.83-3,25.21-4.7c5.03-1.02,9.98-2.47,14.96-3.73
		c5.04-1.28,10.07-2.57,15.64-4c-1.38,0.93-2.28,1.94-3.37,2.21c-8.18,2.07-16.4,3.99-24.6,5.98
		C285.15,583.85,283.94,584.3,282.7,584.68z M359.36,682.11c19.43-7.67,38.61-15.23,58.02-22.89c-0.4,0.53-0.64,0.84-1.05,1.39
		c6.43-2.31,12.61-4.5,18.75-6.79c0.82-0.3,1.4-1.2,2.18-1.68c0.48-0.29,1.12-0.32,1.69-0.43c3.33-0.62,6.67-1.23,10.31-1.9
		c-2.62-6.8-5.1-13.23-7.58-19.64c-9.25,2.31-18.33,4.31-27.25,6.87c-14.67,4.22-29.26,8.71-43.82,13.31
		c-6.83,2.16-13.54,4.75-20.24,7.29c-3.02,1.15-3.25,2.51-1.62,5.22c2.44,4.06,4.92,8.12,7.04,12.34c1.17,2.33,2.52,3.24,4.91,2.24
		c5.84-2.44,11.66-4.93,17.49-7.4c0.7-0.3,1.58-1.03,2.06-0.82c2.49,1.09,4.32-0.5,6.37-1.26c2.26-0.84,4.54-1.61,6.82-2.41
		c0.08,0.25,0.16,0.5,0.23,0.75c-4.22,1.61-8.48,3.14-12.65,4.87c-2.08,0.86-3.95,2.25-6.03,3.13c-4.5,1.89-9.06,3.64-13.62,5.36
		c-0.47,0.18-1.16-0.22-1.75-0.34c-0.41-0.08-0.81-0.16-1.47-0.28C358.65,680.34,359.04,681.33,359.36,682.11z M197.09,682.39
		c0.13-0.16,0.26-0.31,0.39-0.47c-0.4-0.52-0.8-1.04-1.22-1.55c-6.05-7.4-12.37-14.6-18.09-22.25
		c-8.94-11.97-18.25-23.57-29.73-33.21c-3.39-2.84-7.28-5.08-11.19-7.77c-3.91,7.39-6.77,14.49-7.99,22.16
		c-0.8,5.01-1.69,10.09,0.04,15.08c1.41,4.07,3.06,8.06,4.59,12.1c1.19,3.13,3.48,4.66,6.79,4.77c5.75,0.21,11.5,0.59,17.25,0.61
		c7.82,0.02,15.26,1.56,22.52,4.41C185.95,678.44,191.54,680.36,197.09,682.39z M394.17,503.67c-6.16,0.83-12.16,1.8-18.19,2.42
		c-12.85,1.31-25.75,2.23-38.58,3.7c-10.22,1.17-20.38,2.91-30.57,4.44c-4.43,0.67-8.84,1.98-13.27,2.05
		c-9.14,0.12-17.9,2.55-26.87,3.64c-4.81,0.58-7.35,2.65-7.29,7.69c0.02,1.56-0.64,3.13-0.94,4.7c-0.46,2.45-0.88,4.91-1.38,7.72
		c3.69-0.83,6.96-1.42,10.15-2.3c15.57-4.31,30.83-9.72,47.11-11.2c11.18-1.02,22.3-2.77,33.44-4.18
		c10.81-1.37,21.62-2.7,32.42-4.14c2.61-0.35,5.17-1.09,7.75-1.64c-0.01-0.14-0.01-0.27-0.02-0.41c-2.29-0.41-4.59-0.82-6.88-1.23
		c0.03-0.22,0.05-0.45,0.08-0.67c2.15,0,4.29,0.06,6.44-0.02c1.91-0.06,3.83-0.2,5.72-0.47c0.5-0.07,1.32-0.77,1.3-1.14
		c-0.14-2.12,1.45-4.23-0.04-6.39C394.15,505.62,394.3,504.62,394.17,503.67z M434.03,608.9c-2.27-6-4.57-12.07-6.98-18.43
		c-0.91,0.49-1.65,0.82-2.31,1.26c-0.8,0.54-1.45,1.45-2.32,1.74c-4.89,1.6-9.89,2.86-14.73,4.61
		c-15.33,5.54-30.75,10.61-46.69,14.33c-12.81,2.99-25.24,7.57-37.84,11.45c-1.26,0.39-2.51,0.83-4.25,1.41
		c4.26,3.56,8.16,6.84,12.07,10.11c0.11-0.11,0.22-0.23,0.33-0.34c-0.96-1.32-1.92-2.64-2.88-3.96c-0.13,0.18-0.25,0.35-0.38,0.53
		c2.54,1.81,5.08,3.63,8.17,5.84C368.03,628.17,400.85,618.59,434.03,608.9z M278.12,449.61c-2.34,0.12-4.25,0.27-6.16,0.3
		c-1.47,0.02-2.27,0.48-2.58,2.09c-1.1,5.72-2.38,11.42-3.54,17.13c-0.36,1.75,0.79,2.95,2.53,2.61c4.45-0.87,8.86-1.9,13.32-2.71
		c6.21-1.13,12.43-2.23,18.68-3.13c3.31-0.48,6.7-0.38,10.02-0.8c5.02-0.63,9.99-1.66,15.01-2.22c15.76-1.76,31.54-3.4,47.32-5.04
		c1.41-0.15,2.86,0.01,4.29,0.1c3.37,0.21,6.73,0.47,10.56,0.75c-2.11-6.38-3.86-12.1-5.92-17.71c-1.17-3.19-1.35-2.95-4.7-1.84
		c-5.53,1.82-11.03,4.16-16.73,4.97c-20.02,2.85-40.1,5.25-60.18,7.6c-6.36,0.74-12.8,0.8-19.2,1.11
		C278.82,452.91,277.46,452.17,278.12,449.61z M247.04,548.85c1.81-12.62,3.67-25.6,5.53-38.58c-0.2-0.17-0.41-0.33-0.61-0.5
		c-3.27,1.79-6.32,0.99-8.93-0.88c-2.99-2.14-6.05-2.29-9.58-2.08c-2.59,0.15-5.61-0.66-7.75-2.07c-1.16-0.76-2.09-1.45-3.47-1.62
		c-2.06-0.24-4.14-0.4-6.15-0.87c-2.79-0.64-4.36-0.11-5.51,2.45c-1.92,4.24-3.72,8.53-5.62,12.78c-0.29,0.65-0.79,1.22-1.26,1.77
		c-0.47,0.55-1.28,0.94-1.51,1.56c-1.47,3.96-2.78,7.98-4.23,11.95c-0.58,1.58-0.18,2.33,1.45,2.73c1.19,0.29,2.3,0.89,3.5,1.37
		c0.01-0.03,0.15-0.34,0.26-0.66c3.7-10.08,7.39-20.17,11.13-30.24c0.42-1.12,1.17-2.12,1.76-3.18c0.33,0.15,0.66,0.3,1,0.44
		c-0.37,1.58-0.62,3.21-1.14,4.75c-3.17,9.37-6.4,18.73-9.6,28.09c-1.2,3.51-1.19,3.51,2.37,3.99c0.25,0.03,0.55,0.03,0.74,0.17
		c2.97,2.13,6.43,2.18,9.86,2.54c1.25,0.13,2.98,0.72,3.52,1.66c2.51,4.36,7.14,4.31,11.05,5.69c1.19,0.42,2.67,0.14,4-0.01
		C240.74,549.78,243.62,549.32,247.04,548.85z M387.96,460.74c0.08-0.16,0.16-0.33,0.24-0.49c-0.78-0.23-1.56-0.62-2.35-0.65
		c-3.46-0.12-6.94-0.41-10.38-0.14c-9.34,0.73-18.68,1.63-27.99,2.65c-3.92,0.43-7.81,1.25-11.68,2.07
		c-6.67,1.41-13.28,3.13-19.98,4.38c-6.02,1.12-12.16,1.6-18.18,2.7c-6.22,1.14-12.35,2.74-18.54,4.05
		c-3.04,0.64-6.11,1.28-9.2,1.53c-1.63,0.13-3.32-0.59-5.47-1.02c-0.4,5.29-0.79,10.34-1.16,15.19c2.2,0,4.16-0.59,5.26,0.13
		c1.88,1.23,3.51,0.94,5.27,0.41c2.83-0.84,5.7-1.64,8.41-2.79c7.29-3.07,14.82-4.48,22.73-4.56c5.74-0.06,11.51-0.53,17.19-1.35
		c11.29-1.63,22.51-3.74,33.79-5.44c10.69-1.62,21.42-2.97,32.02-4.42c-0.36-2.84-0.77-6.01-1.18-9.23
		c-1.66,0.65-3.01,1.47-4.46,1.71c-4.81,0.81-9.63,1.68-14.48,2.03c-9.25,0.67-18.53,0.99-27.79,1.49c-3.36,0.18-6.6,0.51-9.8,2.06
		c-2.14,1.04-4.92,0.84-7.42,0.99c-0.53,0.03-1.11-0.8-1.66-1.24c0.51-0.51,0.93-1.28,1.54-1.47c2.55-0.78,5.12-1.64,7.74-2.01
		c5.56-0.79,11.15-1.37,16.75-1.9c10.66-1.01,21.33-1.85,31.98-2.93C382.15,462.21,385.04,461.34,387.96,460.74z M472.4,718.33
		c-23.4,14.94-49.68,20.37-75.31,27.48c4.4,5.49,13.15,9.7,22.07,11.36c14.94,2.78,29.46,1.09,43.3-5.62
		c4.88-2.36,10.04-4.22,13.92-8.16c0.97-0.98,1.84-2.92,1.55-4.14C476.3,732.28,474.31,725.38,472.4,718.33z M192.19,565.34
		c3.33,0.54,6.38,1.35,9.44,1.45c5.93,0.19,11.35,1.82,16.27,5.02c5.67,3.68,11.06,7.8,16.89,11.2c3.55,2.07,7.68,3.14,11.95,4.82
		c1.12-10.51,2.16-20.34,3.2-30.18c-1.39,0.51-2.25,0.83-3.11,1.14c-0.28-0.92-0.79-1.85-0.78-2.76c0.03-1.75,0.36-3.49,0.61-5.54
		c-1.98,0-3.88-0.47-5.4,0.09c-3.54,1.31-6.96,1.87-10.64,0.1c-0.02,2.98-1.77,3.72-4.03,3.72c-3.12,0-5.72-1.13-7.82-3.54
		c-0.7-0.8-1.84-1.3-2.86-1.73c-2.71-1.12-5.49-2.09-8.21-3.2c-1.29-0.53-2.52-1.22-3.9-1.91c-0.27,0.94-0.43,1.26-0.44,1.58
		c-0.04,1.19,0.55,2.84-1.35,2.84c-0.39,0-1.29-2.12-1.07-3.05c0.58-2.38-0.82-3.37-2.87-4.84c-2.3,5.85-4.61,11.53-6.69,17.29
		c-0.25,0.71,0.52,2.15,1.23,2.76c1.15,0.98,1.35,1.83,0.58,3.03C192.91,564.14,192.63,564.62,192.19,565.34z M360.92,373.47
		c0.09-0.32,0.19-0.65,0.28-0.97c-0.46-0.65-0.91-1.3-1.37-1.95c-0.7-1.01-1.73-1.93-2.03-3.04c-0.71-2.69-1.3-5.45-1.49-8.21
		c-0.12-1.75-0.79-1.93-2.18-1.81c-2.69,0.25-5.38,0.39-8.07,0.64c-7.91,0.73-15.81,1.48-23.72,2.25c-3.28,0.32-6.55,0.75-9.83,1.02
		c-0.86,0.07-1.76-0.27-2.65-0.42c0.03-0.17,0.06-0.34,0.09-0.51c3.05-0.26,6.09-0.52,9.14-0.78c-0.52-0.6-1.07-0.89-1.62-0.9
		c-7.01-0.22-14.01-0.63-20.98,0.75c-1.42,0.28-2.98-0.13-5.09-0.26c-3.22,6.36-3.64,14.27-5.92,21.3
		c5.39-0.51,10.63-0.85,15.82-1.54c4.98-0.66,9.89-1.89,14.88-2.49c4.64-0.55,9.33-0.6,14-0.84c5.96-0.3,11.93-0.47,17.88-0.88
		C352.36,374.54,356.64,373.93,360.92,373.47z M226.59,478.76c-0.15-0.15-0.3-0.3-0.45-0.44c-1.66,4.29-3.33,8.58-4.99,12.88
		c-0.08,0.21-0.13,0.51-0.05,0.71c0.68,1.84,1.39,3.66,1.98,5.22c1.94,0.53,4.1,1.03,6.2,1.72c1.19,0.39,2.22,1.25,3.41,1.65
		c1.67,0.57,2.54,1.3,0.98,2.97c6.48,1.65,12.68,3.22,19.25,4.9c0.13-1.59,0.66-3.65,0.24-3.86c-1.99-1.02-1.06-2.67-1.2-4.01
		c-0.18-1.67-0.04-3.36-0.04-5.05c-0.19-0.03-0.37-0.05-0.56-0.08c-1.69,2.65-3.39,5.3-5.08,7.95c-0.21-0.13-0.43-0.27-0.64-0.4
		c1.73-2.93,3.42-5.89,5.22-8.78c0.29-0.46,1.09-0.61,1.66-0.9c0.25,0.58,0.73,1.18,0.71,1.75c-0.06,1.75-0.31,3.5-0.48,5.25
		c1.03-1.79,1.89-3.64,2.28-5.58c4.46-22.54,8.85-45.1,13.26-67.66c-1.86,6.64-3.89,13.25-5.18,20.01
		c-1.35,7.13-4.53,13.91-4.15,21.38c0.02,0.31-0.2,0.64-0.33,0.95c-0.63,1.52-1.29,3.03-1.87,4.57c-0.33,0.86-0.52,1.78-0.78,2.67
		c-0.26-0.05-0.51-0.11-0.77-0.16c0.16-1.85,0.31-3.69,0.47-5.51c-4.86-1.33-9.63-2.67-14.42-3.94c-1.9-0.51-6.28,0.68-6.68,1.81
		c-0.78,2.21-1.45,4.46-2.11,6.52c0.85-0.1,1.64-0.2,2.29-0.28c-1.62,2.61-2.97,4.78-4.32,6.94c-0.27-0.1-0.53-0.2-0.8-0.3
		c0.12-4.72,2.6-8.93,3.8-13.96c-5.03,4.14-4.21,10.25-6.23,15.11c-0.27-0.07-0.54-0.14-0.82-0.21
		C226.46,481.31,226.52,480.04,226.59,478.76z M477.27,237.44c5-0.86,9.39-2.15,13.08-4.78c1.16-0.83,2.05-4.2,1.37-5.06
		c-1.93-2.42-0.67-4.81-0.94-7.16c-0.13-1.16,0.21-2.37,0.08-3.53c-0.71-6.21-1.76-12.4-2.16-18.64c-0.16-2.49-2.52-5.48,0.76-7.74
		c0.17-0.12,0.11-0.65,0.08-0.98c-0.29-2.86-0.85-5.71-0.85-8.56c0.01-5.18-2.49-10.41,0.29-15.55c0.29-0.53,0.04-1.34,0.14-2
		c0.07-0.48,0.3-0.94,0.45-1.41c0.16,0.03,0.33,0.06,0.49,0.09c0,3.84,0,7.67,0,10.51c1.71-5.54,3.71-11.9,5.62-18.29
		c0.23-0.78-0.06-1.71-0.1-2.57c-0.32-0.12-0.65-0.24-0.97-0.36c-1.2,1.83-2.41,3.66-3.61,5.49c0.3-1.64,0.87-3.2,1.29-4.8
		c0.17-0.64,0.29-1.65-0.06-2.01c-2.03-2.07-4.21-4.01-6.47-6.11c-0.28,0.32-0.86,0.73-1.12,1.29c-1.1,2.43-2.09,4.9-3.15,7.35
		c-4.16,9.61-3.96,19.8-3.52,29.9c0.43,9.87,2.03,19.7,2.12,29.56c0.06,6.85-1.57,13.7-2.42,20.56
		C477.5,234.12,477.43,235.59,477.27,237.44z M587.18,537.64c-1.15-3.76-2.37-7.7-3.56-11.65c-0.16-0.52-0.52-1.32-0.31-1.56
		c0.91-1,1.58-2.16,0.32-3c-1.05-0.7-2.76-1.28-3.85-0.92c-7.89,2.64-15.95,4.21-24.25,4.71c-2.9,0.18-5.76,0.99-8.63,1.51
		c0.01,0.12,0.03,0.24,0.04,0.35c1.03,0.12,2.05,0.25,3.08,0.37c-3.92,0.81-7.83,1.32-11.7,1.98c-2.05,0.35-4.05,1.01-6.09,1.44
		c-1.79,0.38-3.61,0.61-5.39,1.01c-0.22,0.05-0.41,0.69-0.43,1.06c-0.05,0.77,0.01,1.55,0.06,2.32c0.04,0.64,0.07,1.29,0.21,1.91
		c0.24,1.03,0.46,2.08,0.89,3.04c0.51,1.14,1.14,2.26,1.9,3.25c0.59,0.77,1.46,1.34,2.39,2.16
		C550,543.01,568.49,540.34,587.18,537.64z M282.12,399.21c5.01-0.52,9.45-0.88,13.86-1.46c11.06-1.45,22.07-3.27,33.16-4.43
		c9.9-1.03,19.88-1.31,29.81-2.07c2.96-0.23,5.88-0.98,8.91-1.51c-0.54-2.84-0.98-5.2-1.4-7.42c-2.52,0.22-4.83,1.06-6.63,0.44
		c-4.35-1.5-8.76-1.6-13.22-1.63c-2.37-0.02-4.76-0.06-7.12,0.16c-1.87,0.18-3.68,0.91-5.54,1.09c-6.38,0.62-12.77,1.22-19.18,1.6
		c-6.63,0.4-13.29,0.44-19.92,0.82c-3.25,0.19-6.49,0.74-9.71,1.31c-0.59,0.1-1.38,1.02-1.48,1.65
		C283.08,391.32,282.68,394.89,282.12,399.21z M358.85,649.59c0.07,0.14,0.14,0.27,0.22,0.41c0.48-0.08,0.96-0.15,1.44-0.24
		c9.09-1.64,17.24-6.31,26.5-7.71c8.85-1.34,16.68-6.82,25.97-7.31c3.2-0.17,6.35-1.68,9.49-2.68c5.92-1.89,11.82-3.85,18.05-5.89
		c-1.52-4.07-2.96-7.9-4.45-11.9c-2.16,0.73-4.05,1.22-5.81,2.01c-5.99,2.66-11.83,5.67-17.91,8.1c-6.94,2.77-14.05,5.14-21.15,7.52
		c-5.22,1.75-10.51,3.3-15.81,4.81c-3.39,0.97-6.86,1.69-10.29,2.52c-2.36,0.57-4.69,1.31-7.08,1.65c-2.47,0.35-4.99,0.29-7.68,0.42
		c1.33,2.15,2.52,4.25,3.92,6.2c0.31,0.43,1.49,0.61,2.07,0.39c1.23-0.48,2.3-1.36,3.5-1.96c2.31-1.16,4.67-2.23,7-3.33
		c0.17,0.3,0.35,0.61,0.52,0.91C364.52,645.53,361.69,647.56,358.85,649.59z M451.23,655.35c-0.67,0.09-1.19,0.07-1.65,0.24
		c-6.23,2.31-12.48,4.56-18.66,7c-4.22,1.66-8.27,3.73-12.5,5.37c-5.32,2.06-10.75,3.87-16.13,5.79c-3.71,1.33-7.37,2.83-11.14,3.94
		c-4.01,1.19-8.23,1.73-12.17,3.08c-5.99,2.04-11.97,3.75-18.79,2.98c1.33,3.45,3.72,5.77,6.06,8.1c0.25,0.25,0.97,0.14,1.43,0.03
		c2.52-0.6,5.04-1.23,7.54-1.89c5.51-1.45,11.03-2.86,16.52-4.39c4.68-1.31,9.41-2.52,13.95-4.23c5.14-1.93,10.06-4.43,15.12-6.56
		c10.48-4.42,20.99-8.76,31.59-13.17C452.02,659.54,451.63,657.49,451.23,655.35z M354.01,341.56c-10.56,0.63-20.99,1.41-31.43,1.8
		c-7.38,0.28-14.79-1.68-22.18,0.21c-0.39,0.1-0.88,0.07-1.25-0.08c-1.75-0.7-2.37,0.19-2.88,1.71c-0.88,2.64-2,5.2-2.93,7.82
		c-0.42,1.19-0.64,2.45-0.91,3.5c11.03-0.68,21.74-1.38,32.45-1.99c9.44-0.54,18.89-0.97,28.32-1.54c0.64-0.04,1.77-0.96,1.74-1.42
		C354.76,348.14,354.33,344.72,354.01,341.56z M607.47,612.68c-0.82-3.82-1.56-7.37-2.34-10.92c-1-4.52-1.02-4.52-5.69-4.95
		c0.79-0.29,1.24-0.39,1.61-0.61c0.75-0.45,1.47-0.96,2.2-1.45c-0.89-0.16-1.86-0.63-2.65-0.42c-4.95,1.32-9.88,2.75-14.79,4.23
		c-1.31,0.39-2.47,1.36-3.79,1.6c-5.25,0.95-10.54,1.73-16.08,2.61c1.03,5.96,2.03,11.81,3.08,17.89
		C581.89,617.99,594.51,615.37,607.47,612.68z M574.09,658.41c2.59,3.44,5.57,1.67,8.45,0.83c3.47-1.02,6.97-1.94,10.37-3.14
		c6.13-2.15,12.24-4.39,18.3-6.76c5.86-2.29,5.82-2.38,3.84-8.42c-2.1-6.4-2.14-6.57-8.71-4.87c-11.26,2.91-22.47,6.04-33.67,9.17
		c-0.53,0.15-1.19,1.36-1.08,1.95c0.48,2.48,1.14,4.94,1.91,7.35c0.26,0.81,1.02,1.46,1.7,2.38
		C575,657.19,574.52,657.84,574.09,658.41z M298.81,337.22c15.4-0.29,30.27-0.58,45.14-0.86c0-0.13,0-0.26,0.01-0.39
		c-1.79-0.08-3.57-0.16-5.36-0.24c-0.01-0.09-0.01-0.17-0.02-0.26c2.9-0.75,5.8-1.51,9.03-2.35c-1.14-0.33-1.86-0.54-2.59-0.75
		c-0.01-0.27-0.03-0.55-0.04-0.82c1.12,0.22,1.51-1.56,3.12-0.49c0.32,0.21,2.47-1.4,2.37-1.67c-0.72-2.05-1.61-4.11-2.85-5.88
		c-0.44-0.62-2.04-0.36-3.08-0.61c-7.42-1.82-14.7-0.78-22.05,0.68c-6.58,1.3-13.28,1.97-20.48,2.99
		C301.05,329.76,299.9,333.6,298.81,337.22z M595.55,574.61c-1.83-3.65-3.61-6.97-5.18-10.4c-1.62-3.54-1.53-3.58-5.3-2.75
		c-0.25,0.05-0.51,0.03-0.76,0.08c-5.02,0.9-10.05,1.77-15.06,2.73c-2.17,0.42-4.29,1.16-6.47,1.5c-3.15,0.48-6.33,0.74-9.51,1.05
		c-2.08,0.21-2.7,1.06-1.54,2.97c0.77,1.28,2.23,2.9,1.92,3.92c-0.73,2.39,0.69,3.99,1.17,5.91c0.57,2.27,2.1,2.72,4.21,2.3
		C571.17,579.47,583.32,577.05,595.55,574.61z M292.55,327.59c-4.57,0.9-7.8,2.91-9.04,7.28c-0.83,2.92-1.79,5.81-2.75,8.69
		c-1.39,4.15-3.01,8.23-4.13,12.44c-0.36,1.34,0.23,3.2,0.98,4.47c0.67,1.13,2.17,1.78,3.3,2.64c-0.33,0.36-0.65,0.72-0.98,1.08
		c-0.42-1.02-0.84-2.03-1.43-3.44c-1.88,1.63-3.67,2.45-4.2,3.77c-2.06,5.17-3.71,10.5-5.53,15.76c-0.22,0.63-0.4,1.61-0.83,1.76
		c-3.77,1.35-2.94,5.4-4.92,7.78c3.49-0.35,2.14-4.13,4.51-6.04c-0.71,2.58-1.27,4.58-1.93,6.97c4.28,0.15,8.3,0.22,12.32,0.48
		c1.85,0.12,2.54-0.62,2.79-2.35c0.75-4.97,1.63-9.92,2.41-14.88c0.37-2.38,2.08-4.8-0.14-7.16c-0.15-0.16-0.07-0.69,0.06-0.97
		c1.38-2.93,1.74-5.94,1.8-9.22c0.1-5.3,3.19-10.28,2.07-15.77c-0.81-0.45-1.59-0.9-2.62-1.47c1.68-0.59,3.54-0.68,3.95-1.49
		C289.92,334.6,291.15,331.05,292.55,327.59z M520.92,502.99c-0.41,1-0.74,1.81-1.06,2.63c-1.04,2.62-0.2,4.82,2.03,4.84
		c3.1,0.03,6.23-0.02,9.3-0.43c3.92-0.52,7.78-1.46,11.67-2.18c2.54-0.47,5.1-0.83,7.63-1.34c3.03-0.61,6.05-1.28,9.06-2.02
		c1.66-0.41,3.24-1.23,4.92-1.49c3.17-0.49,6.4-0.61,9.56-1.11c0.94-0.15,2.04-0.89,2.53-1.69c0.25-0.41-0.6-1.63-1.14-2.34
		c-0.65-0.86-2.21-1.64-2.14-2.32c0.24-2.27-1.02-1.91-2.32-1.76c-13.44,1.49-26.87,3.02-40.31,4.47
		c-3.86,0.41-7.75,0.53-11.62,0.93c-0.66,0.07-1.74,0.82-1.75,1.28c-0.01,0.64,0.68,1.44,1.28,1.92
		C519.01,502.73,519.79,502.71,520.92,502.99z M567.35,625.81c1.24,6.34,2.42,12.43,3.73,19.13c9.79-2.68,19.13-5.25,28.47-7.81
		c-7.89,1.16-15.67,2.59-23.45,4.04c-2.11,0.39-3.87-0.2-5.62-1.88c0.79-0.42,1.32-0.87,1.92-1.01c6.26-1.42,12.49-2.99,18.81-4.1
		c6.27-1.11,12.47-2.3,18.12-5.39c0.64-0.35,1.59-1.21,1.5-1.64c-0.78-3.67-1.76-7.29-2.72-11.06
		C595.04,622.23,581.34,623.83,567.35,625.81z M517.58,482.15c-0.02,8.51,0.27,9.44,6.55,8.4c0.68-0.11,1.81,0.03,2.1,0.46
		c1.26,1.95,3.09,1.44,4.8,1.34c1.77-0.1,3.52-0.45,5.29-0.6c11.31-0.96,22.63-1.84,33.93-2.85c4.32-0.39,4.3-0.51,3.22-4.61
		c-0.17-0.65-0.23-1.33-0.38-1.99c-0.6-2.8-1.6-3.67-4.51-3.65c-3.38,0.03-6.78,0.03-10.14,0.34c-7.05,0.65-14.08,1.46-21.12,2.25
		C530.83,481.97,524.44,484.17,517.58,482.15z M585.52,674.16c1.27,0,2.61,0.18,3.88-0.03c8.46-1.35,16.91-2.75,25.35-4.25
		c0.98-0.17,2.3-0.85,2.66-1.65c2.45-5.38,2.44-10.9,0.44-16.73c-13,6.81-26.35,12.29-41.59,14c1.31,1.82,2.06,2.87,2.82,3.93
		c-0.86,0.06-1.66,0.12-2.95,0.21c1.07,0.86,1.97,1.3,2.41,2.02c0.6,0.98,0.76,2.21,1.3,3.25c0.24,0.46,0.93,0.97,1.4,0.96
		c1.17-0.04,2.35-0.3,3.48-0.64C585.09,675.12,585.3,674.47,585.52,674.16z M461.79,662.42c4.84,0.21,9.93,0.95,14.93,0.55
		c10.77-0.85,21.55-1.9,32.21-3.54c20.94-3.23,36.94-14.54,49.18-31.5c0.61-0.84,0.57-2.14,0.83-3.22c-2.5,2.09-4.35,4.37-6.24,6.63
		c-8.36,9.99-18.74,17-31.18,20.88c-17.78,5.56-36.03,4.93-54.28,3.88c-2.46-0.14-4.88-0.94-7.55-1.48
		C460.42,657.31,461.1,659.86,461.79,662.42z M557.69,473.53c-3.61-2.11-6.64-3.73-9.52-5.59c-5.81-3.77-11.8-5.48-18.91-4.07
		c-6.67,1.32-13.58,1.48-20.38,2.14c0,0.14,0.01,0.29,0.01,0.43c0.96,0.26,1.92,0.52,3.45,0.93c-0.67,0.89-1.08,1.72-1.73,2.24
		c-1.17,0.92-1.44,1.87-0.47,3c0.99,1.14,1.94,2.41,3.17,3.23c1.33,0.88,2.97,1.83,4.47,1.83c3.26-0.01,6.51-0.72,9.77-0.94
		c3.27-0.22,6.25-1.7,9.59-1.72c3.44-0.02,6.88-0.72,10.32-0.99C550.63,473.76,553.79,473.7,557.69,473.53z M580.47,515.92
		c-0.79-2.32-1.62-4.74-2.38-6.97c-12.6,1.88-24.9,3.82-37.23,5.49c-4.23,0.57-8.55,0.52-12.83,0.66c-2.75,0.09-4.31,1.44-4.51,4.12
		c-0.16,2.2-0.03,4.43-0.03,6.91C542.47,520.25,561.57,519.51,580.47,515.92z M562.28,600.8c13.24-4.12,27.06-4.82,40.07-9.44
		c-0.94-3.16-1.8-6.05-2.65-8.91c-13.15,5.72-27.29,3.75-40.86,6.49C559.93,592.72,561.05,596.57,562.28,600.8z M477.48,673.4
		c0.12,0.78,0.21,1.6,0.39,2.39c0.68,2.96,1.43,5.9,2.08,8.87c1.93,8.82,3.81,17.65,5.77,26.47c0.12,0.54,0.72,0.97,1.1,1.46
		c0.42-0.46,1.08-0.86,1.22-1.39c1.38-5.1,3.04-10.17,3.9-15.37c1.19-7.23,1.77-14.56,2.57-21.85c0.07-0.68-0.12-1.38-0.12-1.35
		C488.56,672.89,483.12,673.14,477.48,673.4z M436.71,580.72c0.28,0.08,0.55,0.16,0.83,0.25c-0.06,0.8-0.05,1.62-0.2,2.4
		c-0.8,4.22-0.82,8.29,0.93,12.4c2.09,4.89,3.99,9.9,5.51,15c1.08,3.62,3.57,4.2,6.42,4.44c0.41-5.4,0.55-10.72,1.3-15.94
		c0.73-5.07,0.85-10.33,3.06-14.8c-7.03-1.74-14.35-3.55-22-5.43c0.8,2.23,1.52,4.26,2.39,6.71
		C435.64,583.78,436.18,582.25,436.71,580.72z M256.41,394.89c-1.81,9.65-6.43,18.34-6.1,28.24c0.1,3.02-0.06,3.03,3,2.19
		c0.23-0.06,0.49-0.1,0.72-0.05c3.32,0.71,6.1-0.39,7.6-3.4c3.3-6.6,5.93-13.47,7.19-20.78c0.78-4.53,0.73-4.54-3.88-5.17
		c-0.24-0.03-0.49,0.06-0.89,0.12c-0.38,1.18-0.77,2.39-1.16,3.6c-0.16-0.04-0.31-0.08-0.47-0.12c0.09-1.12,0.18-2.24,0.29-3.53
		C260.76,395.66,258.95,395.34,256.41,394.89z M667.87,439.86c-0.53-2.75-1.05-3.47-3.69-5.22c-1.8-1.19-2.47-4.42-1.25-6.06
		c1.13-1.52,2.46-1.3,4.7,0.66c3.13,2.75,6.25,5.47,6.7,10.59c3.46-3.72,4.74-7.61,5.11-11.9c0.24-2.8-2.27-3.73-3.69-5.4
		c-0.22-0.26-0.5-0.45-0.75-0.68c-5.6-4.95-6.83-5.09-13.46-1.5c-5.52,2.99-6.62,5.41-5.14,11.35
		C657.76,437.18,661.95,440.21,667.87,439.86z M299.65,289.31c0.88,3.2,1.44,6.32,4.24,8.29c1.04,0.73,2.15,1.28,2.63-0.65
		c0.95-3.82,1.68-7.71,2.94-11.42c2.02-5.93,5.74-10.59,11.38-13.62c1.98-1.06,3.91-2.3,5.61-3.75c0.58-0.49,0.88-2.2,0.48-2.78
		c-0.66-0.95-2.23-2.22-3-1.99c-3.67,1.1-7.67,2.02-10.69,4.2c-5.07,3.67-8.85,8.77-11.44,14.54
		C300.79,284.43,300.34,286.97,299.65,289.31z M497.38,677.5c-0.23,0.03-0.46,0.07-0.69,0.1c-0.83,4.62-1.61,9.25-2.5,13.85
		c-1.36,6.97-0.77,14.43-5.58,21.38c7.31-0.59,14.05-1.13,21.57-1.74C503.4,700.21,498.79,689.45,497.38,677.5z M514.26,673.12
		c0.46,12.38,0.91,24.28,1.37,36.51c4.82-1.08,9.66-2.17,14.69-3.3C525.63,694.66,521.98,683.08,514.26,673.12z M284.65,564.07
		c0.04,0.21,0.09,0.41,0.13,0.62c10.39-2.6,20.78-5.2,31.16-7.81c0.08,0.29,0.17,0.57,0.25,0.86c-1.17,0.47-2.35,0.94-3.52,1.41
		c0.03,0.06,0.05,0.11,0.08,0.17c29.51-5.25,59.02-10.51,88.53-15.76C361.47,545.28,322.68,552.6,284.65,564.07z M499.59,209.42
		c0.32-0.02,0.65-0.05,0.97-0.07c0.12-0.83,0.38-1.67,0.34-2.5c-0.55-13.66,0.36-27.21,2.48-40.71c0.72-4.57-1.95-8.23-4.65-12.32
		c-3.3,11.72-5.95,22.87-3.66,34.51C496.46,195.38,498.08,202.39,499.59,209.42z M313.6,302.45c-0.1,4.25,1.62,5.51,4.4,4.79
		c2.01-0.52,3.39-1.58,4.4-3.45c1.04-1.91,2.52-3.58,3.72-5.42c3.45-5.3,6.89-10.59,10.21-15.97c0.49-0.8,0.72-2.37,0.27-2.97
		c-0.48-0.64-2.11-1.02-2.92-0.71c-2.54,0.99-5.27,1.96-7.28,3.69c-2.59,2.23-4.7,5.07-6.73,7.86
		C316.7,294.35,313.38,298.34,313.6,302.45z M511.86,707.02c0.32-0.09,0.64-0.18,0.96-0.27c-1.02-12.26,1.23-24.69-1.94-36.87
		c-4.56,0.79-8.75,1.51-13.23,2.29C502.45,683.93,507.16,695.48,511.86,707.02z M528.29,560.94c-1.25,1.57-2.48,3.29-3.91,4.84
		c-0.98,1.07-0.85,1.83,0.05,2.79c6,6.4,11.98,12.83,17.95,19.26c0.18,0.19,0.21,0.52,0.43,1.12c-1.13-0.28-1.92-0.48-3.17-0.8
		c1.03,1.39,1.76,2.37,2.51,3.38c4.07-4.08,5.08-9.47,2.82-14.27c-0.94-1.99-1.77-4.03-2.86-5.93c-1.08-1.88-2.42-3.6-3.65-5.39
		c-0.18,0.13-0.35,0.26-0.53,0.39c1.43,2.4,2.85,4.8,4.28,7.19c-0.14,0.11-0.28,0.21-0.42,0.32
		C537.29,569.54,532.81,565.26,528.29,560.94z M513.15,612.3c-4.53-10.03-8.89-19.69-13.29-29.44c-2.51,0.97-4.76,1.84-7.53,2.91
		c4.37,9.83,8.64,19.42,12.99,29.22C508.01,614.07,510.63,613.17,513.15,612.3z M531.35,701.56c1.65-9.31-0.79-33.83-3.63-37.98
		c-4.13,1.64-8.31,3.3-13.09,5.2C523.49,678.45,527.88,689.74,531.35,701.56z M463.41,666.28c1.09,0.31,2.16,0.73,3.27,0.91
		c12.65,2.08,25.3,1.15,37.92-0.32c6.31-0.73,12.29-2.68,18.13-5.25c5.6-2.47,11.44-4.37,17.18-6.52c1.8-0.67,3.8-1.03,5.36-2.06
		c6.35-4.19,11.52-9.66,16.08-15.72c1.76-2.33,1.4-3.85-1.58-5.58c-1.62,2.1-3.12,4.37-4.93,6.35c-3.94,4.29-7.49,9.24-12.21,12.44
		c-8.82,5.98-18.43,10.72-29.19,12.47C496.88,665.7,480.34,668.4,463.41,666.28z M268.67,358.05c3.32,1.05,4.58,0.48,5.98-2.8
		c1.32-3.1,2.67-6.19,3.8-9.36c1.83-5.15,3.5-10.36,5.26-15.62c-1-0.42-1.65-0.7-2-0.85c-8.08,8.56-15.65,17.21-19.33,28.19
		c1.32,0.45,3.1,0.7,3.15,1.13c0.19,1.88-0.13,3.81-0.27,5.95C266.4,362.46,267.54,360.24,268.67,358.05z M550.08,698.96
		c-5.94-9.07-11.5-17.57-17.06-26.08c-0.1,0.02-0.2,0.04-0.3,0.06c0.65,3.12,1.31,6.24,1.96,9.37c-0.31,0.05-0.62,0.1-0.94,0.15
		c-0.14-1-0.29-2-0.38-2.65c0,5.19,0,10.67,0,16.15c0.26-0.01,0.51-0.01,0.77-0.02c0-4.09,0-8.17,0-12.26
		c2.37,6.95,1.69,13.99,0.23,21.04c0.25,0.14,0.51,0.28,0.76,0.43C539.99,703.14,544.86,701.12,550.08,698.96z M564.58,679.98
		c-1.67-11.16-7.07-21.02-10.02-31.77c-3.28,2.63-6.36,5.1-9.54,7.65C550.37,664.82,555.94,673.56,564.58,679.98z M531.13,662.71
		c6.36,10.3,12.58,20.36,18.79,30.42c0.23-0.09,0.46-0.19,0.69-0.28c-3.38-11.57-4.27-23.75-8.83-35.18
		C538.23,659.36,534.89,660.94,531.13,662.71z M490.59,583.78c9.21-2.73,21.34-9.21,27.98-15.64c0.83-0.81,1.57-1.71,2.34-2.59
		c2.61-2.96,5.34-5.83,7.7-8.97c0.43-0.57-0.54-2.35-1.13-3.42c-0.12-0.22-1.73-0.04-2.18,0.42c-3.01,3.14-5.89,6.41-9.13,9.97
		c1.03-0.13,1.5-0.2,1.97-0.26c0.08,0.26,0.16,0.51,0.24,0.77c-15.18,15.08-33.75,21.51-55.27,20.84c0.63,0.85,1.21,1.36,1.82,1.41
		c5.95,0.4,11.93,1.17,17.75-0.96c1.9-0.69,3.82-1.36,5.77-1.87C489.1,583.32,489.88,583.67,490.59,583.78z M256.38,389.22
		c1.06,0.07,2,0,2.86,0.23c1.89,0.5,2.93-0.06,3.71-1.93c1.41-3.43,3.2-6.7,4.65-10.12c1.81-4.24,3.45-8.56,5.05-12.55
		c-1.26,0.16-2.35,0.51-3.38,0.38c-3.52-0.43-5.8,0.57-7.43,3.76c-2.16,4.21-4.27,8.45-6.27,12.74c-1.12,2.4-1.96,4.94-2.93,7.41
		c0.23,0.12,0.47,0.24,0.7,0.36c1.19-1.75,2.38-3.49,3.57-5.24c0.14,0.05,0.29,0.11,0.43,0.16
		C257.03,385.98,256.72,387.56,256.38,389.22z M538.05,552.19c2.68,4.06,6.85,3.06,10.57,2.86c3.6-0.19,7.14-1.16,10.73-1.63
		c4.33-0.57,8.7-0.85,13.02-1.49c5.91-0.88,11.79-1.97,17.92-3.02c-0.32-1.27-0.72-2.86-1.07-4.24
		C571.99,547.21,555.1,549.69,538.05,552.19z M309.02,634.04c3.13,4.56,5.86,8.57,8.62,12.55c2.74,3.95,5.39,7.97,8.31,11.77
		c2.97,3.86,6.15,7.57,9.39,11.2c3.17,3.56,6.54,6.95,9.82,10.42C336.47,664.09,319.67,640.6,309.02,634.04z M251.05,412.19
		c-0.22-0.08-0.45-0.16-0.67-0.25c-0.98,2.1-1.95,4.2-2.93,6.29c-0.19-0.09-0.38-0.17-0.58-0.26c2.68-7.05,5.36-14.11,8.1-21.33
		c-1.41,0.1-2.46,0.44-3.32,0.18c-1.72-0.53-2.43,0.19-3.09,1.63c-0.98,2.15-2.32,4.14-3.22,6.31c-1.65,3.96-3.16,7.98-4.57,12.03
		c-0.27,0.78,0.06,1.83,0.31,2.7c0.17,0.6,0.92,1.08,0.99,1.66c0.22,1.96,1.09,2.45,2.42,1.71c0.71,0.87,1.36,1.67,2.51,3.09
		C248.5,420.78,249.77,416.49,251.05,412.19z M535.62,598.25c-6.2-8.76-12.18-17.22-18.27-25.82c-1.4,1.05-2.99,2.26-4.71,3.55
		c6.19,8.58,12.33,17.09,18.57,25.72C532.65,600.57,534.16,599.39,535.62,598.25z M304.88,320.93c9.87-2.08,19.26-5.14,29.56-3.76
		c-1.85-3.42-3.44-6.36-4.99-9.23c-2.25,0.81-4.74,1.49-7.03,2.57c-3.71,1.75-7.26,2.99-10.23-0.58
		C309.73,313.63,307.44,317.09,304.88,320.93z M343.69,288.71c-1.15,1.02-2.04,1.75-2.86,2.57c-0.46,0.46-0.9,1.01-1.16,1.6
		c-1.43,3.24-3.26,6.41-4.06,9.81c-0.71,2.99-0.47,6.28-0.17,9.39c0.1,1.03,1.68,1.92,2.58,2.88c0.9-0.93,2.23-1.72,2.62-2.83
		c2.05-5.88,4.05-11.8,5.68-17.81C347.26,290.9,346.4,289.9,343.69,288.71z M464.2,617.97c0-1.12,0.04-1.86-0.01-2.6
		c-0.57-8.25-1.27-16.49-1.66-24.75c-0.13-2.78-1.17-3.77-3.88-3.46c-0.69,9.9-1.38,19.81-2.09,29.94
		C459.13,617.39,461.46,617.66,464.2,617.97z M500.8,154.31c0.25,0.57,0.43,1.11,0.72,1.58c2.58,4.17,5.65,8.2,3.46,13.58
		c-0.03,0.07,0,0.17,0,0.25c-0.18,6.72-0.42,13.43-0.53,20.15c-0.11,6.5-0.13,13-0.12,19.5c0,1.61,0.31,3.21,0.47,4.82
		c0.25,0.01,0.51,0.02,0.76,0.03c0.52-2.5,1.19-4.99,1.55-7.51c1.04-7.46,1.71-14.94,1.12-22.51c-0.66-8.49-1.08-17-1.48-25.51
		c-0.08-1.62,0.43-3.28,0.68-4.93C505.11,153.95,503.04,154.13,500.8,154.31z M257.47,676.49c14.67,26.31,36,46.59,58.71,65.63
		C295.36,721.37,274.89,700.31,257.47,676.49z M482.18,712.74c-2.43-10.72-4.79-21.13-7.17-31.63c-0.91,4.32-1.9,8.63-2.68,12.98
		c-0.31,1.72-0.52,3.59-0.16,5.26c0.79,3.7,1.96,7.33,3.02,10.98c0.15,0.53,0.46,1.37,0.82,1.44
		C478.17,712.21,480.37,712.48,482.18,712.74z M223.49,465.68c-5.79,9.25-10.72,24.46-9.41,29.19c2.53-1.46,4.55-3.08,5.55-6.13
		c1.94-5.92,4.39-11.67,6.82-17.99c0.31,0.99,0.45,1.42,0.65,2.06c1.11-1.77,2.06-3.29,3.13-5.01
		C227.74,467.02,225.61,466.35,223.49,465.68z M474.71,155.22c-0.61,0.95-1.26,1.79-1.71,2.72c-4.65,9.7-4.81,19.91-3.25,30.26
		c0.86,5.67,1.99,11.3,3.09,16.93c0.86,4.45,1.86,8.88,2.79,13.31c0.69-6.23-0.07-12.3-1.35-18.34c-1.88-8.88-3.07-17.85-2.03-26.94
		C472.93,167.23,473.87,161.34,474.71,155.22z M238.52,428.45c-3.02,7.2-6.15,14.03-8.71,21.06c-1.34,3.68-1.75,7.71-2.42,11.61
		c-0.15,0.9,0.37,1.92,0.55,2.74c2.42-0.13,3.07-1.2,3.57-3.01c2.2-7.89,4.63-15.72,7.02-23.55
		C239.37,434.57,241.63,431.99,238.52,428.45z M480,618.59c1.66,0,3.53,0,5.25,0c-2-10.15-3.95-20.06-5.9-29.92
		c-1.15,0-2.36,0-3.45,0C477.29,598.77,478.65,608.69,480,618.59z M531.73,708.73c0-0.23-0.01-0.46-0.01-0.69
		c-0.92,0.06-1.86,0-2.75,0.19c-3.72,0.77-7.45,1.52-11.12,2.48c-1.52,0.4-2.92,1.3-4.37,1.97c-1.09,0.19-2.43-0.29-3.73-0.2
		c-6.92,0.44-13.83,1.01-20.74,1.59c-0.56,0.05-1.08,0.55-1.62,0.84c0.09,0.23,0.17,0.47,0.26,0.7
		C503.08,718.27,517.75,715.8,531.73,708.73z M299.57,302.13c-0.22-0.12-0.45-0.24-0.67-0.35c-0.52,0.81-1.15,1.57-1.53,2.44
		c-2.03,4.66-4.13,9.3-5.86,14.07c-0.28,0.78,1.06,2.27,1.9,3.2c0.14,0.16,2.2-0.75,2.33-1.39c0.35-1.66,0.12-3.44,0.12-5.33
		c1.13,0.2,2.15,0.39,3.09,0.55c1.2-1.36,1.32-4.08,4.14-2.8c0.1,0.05,0.51-0.4,0.67-0.68c0.96-1.71,1.89-3.44,2.71-4.94
		c-2.4-1.43-4.38-2.62-6.46-3.87c-0.63,0.83-1.28,1.68-2.28,3C298.51,304.37,299.04,303.25,299.57,302.13z M466.67,618.64
		c0.49-0.43,1.31-0.83,1.3-1.21c-0.06-5.31-0.45-10.62-0.29-15.92c0.12-3.91-0.41-8.14,2.76-11.34c0.52-0.53,1.48-1.22,1.95-1.05
		c0.6,0.21,1.19,1.2,1.29,1.91c0.67,5.18,1.19,10.39,1.81,15.58c0.22,1.87,0.57,3.72,0.86,5.58c0.19-0.03,0.39-0.06,0.58-0.09
		c-0.91-7.82-1.82-15.64-2.73-23.49c-3.38-0.18-6.88-0.37-10.01-0.55C465,598.18,465.81,608.1,466.67,618.64z M503.34,616.03
		c-4.42-10.4-8.5-19.98-12.66-29.74c-0.79,0.21-1.87,0.48-3.34,0.86c4.36,9.48,8.53,18.62,12.84,27.69
		C500.48,615.45,501.93,615.52,503.34,616.03z M550.03,671.39c2.09,8.08,3.98,15.41,5.94,23c2.37-1.76,4.53-3.36,6.6-4.9
		C558.46,683.55,554.45,677.77,550.03,671.39z M508.23,578.41c7.29,8.19,11.49,18.15,18.28,26.49c0.7-0.47,1.58-1.06,2.49-1.68
		c-6.2-8.8-12.25-17.4-18.39-26.12C509.8,577.55,508.93,578.03,508.23,578.41z M591.64,303.47c-1.36,2.2-2.21,3.86-3.32,5.32
		c-2.25,2.96-4.68,5.77-6.95,8.71c-1.84,2.39-1.34,4.37,1.6,6.07C588.45,318.27,591.95,312.09,591.64,303.47z M470.21,689.56
		c0.24-0.01,0.47-0.02,0.71-0.02c0.69-5.83,1.37-11.66,2.04-17.33c-2.89-0.89-5.39-1.65-8.13-2.5
		C466.67,676.48,468.44,683.02,470.21,689.56z M381.25,627.59c-5.1-0.61-11.32,2.26-15.53,6.51c4.55-0.12,37.79-10.98,39.95-13.06
		c-0.07-0.22-0.14-0.43-0.21-0.65c-10.71,3.59-21.41,7.17-32.12,10.76c-0.07-0.22-0.15-0.44-0.22-0.66
		C375.83,629.53,378.54,628.56,381.25,627.59z M501.35,582.22c4.78,9.77,9.41,19.22,14.12,28.85c0.97-0.57,1.65-0.97,2.08-1.23
		c-4.82-9.74-9.51-19.23-14.24-28.77C502.68,581.45,501.97,581.86,501.35,582.22z M659.93,467.41c5.87-0.91,15.75-12.47,16.1-18.26
		C667.04,452.02,666.21,462.05,659.93,467.41z M587.94,558.38c-0.14-0.22-0.28-0.43-0.42-0.65c-6.67,1.28-13.31,2.78-20.03,3.76
		c-6.81,0.99-13.7,1.47-20.55,2.17c-0.11,0.27-0.22,0.54-0.33,0.81c0.98,0.57,1.99,1.67,2.95,1.62c3.03-0.15,6.06-0.59,9.04-1.16
		c9.13-1.77,18.23-3.64,27.34-5.51C586.65,559.26,587.28,558.73,587.94,558.38z M286.79,319.31c0.3,0.18,0.6,0.35,0.9,0.53
		c1.16-1.67,2.61-3.22,3.41-5.05c2.1-4.83,3.92-9.78,5.85-14.69c0.23,0.06,0.46,0.12,0.7,0.18c-0.43-0.6-0.86-1.19-1.5-2.08
		C291.88,304.95,285.86,310.59,286.79,319.31z M494.51,230.18c1.91-0.22,2.77-1.47,2.72-3.08c-0.19-5.79-0.45-11.58-0.9-17.35
		c-0.16-1.99-0.96-3.92-1.47-5.88c-0.11,0.04-0.23,0.08-0.34,0.12C494.51,212.66,494.51,221.33,494.51,230.18z M175.34,583.51
		c10.61,6.76,19.48,15.32,28.83,23.88c-3.98-6.79-16.53-18.85-22.89-21.92C179.41,584.58,177.32,584.16,175.34,583.51z
		 M295.25,323.24c-1.24-0.26-1.93-0.28-2.49-0.56c-0.57-0.28-1-0.86-1.53-1.24c-1.36-0.98-5.67-0.96-6.39,0.08
		c-0.9,1.31-1.67,2.7-2.57,4.16c0.59,0.45,1.09,0.84,1.72,1.32c-0.69,0.18-1.22,0.32-1.97,0.52c2.33,2.87,4.48,0.33,6.2-0.28
		C290.51,326.41,293.29,325.78,295.25,323.24z M350.46,687.84c-8.6-9.23-17.21-18.45-25.78-27.64
		C328.45,667.82,343.2,684.13,350.46,687.84z M561.59,640.16c-1.95,2.27-3.57,4.17-5.41,6.31c2.73,3.38,5.45,6.77,8.18,10.16
		c0.12-0.06,0.25-0.12,0.37-0.18C563.72,651.18,562.7,645.92,561.59,640.16z M258.87,541.65c-1.26-0.48-2.18,0.3-2.45,1.91
		c-1.32,7.86-2.59,15.73-3.88,23.6c0.31,0.14,0.63,0.29,0.94,0.43c0.6-0.66,1.57-1.24,1.73-1.98c0.6-2.85,1.05-5.75,1.33-8.66
		c0.35-3.69,0.34-7.41,0.75-11.09C257.43,544.45,258.29,543.11,258.87,541.65z M501.46,123.53c2.26,2.1,4.93,3.86,6.58,6.32
		c1.66,2.46,2.3,5.61,3.56,8.91c0.12-2.26,0.53-4.2,0.25-6.04c-0.35-2.35-1.22-4.62-1.95-6.9c-0.71-2.22-2.61-0.41-3.89-1.02
		C504.59,124.09,502.92,123.91,501.46,123.53z M522.17,574.44c-0.14,0.14-0.29,0.29-0.43,0.43c5.14,7.28,10.29,14.56,15.59,22.06
		c0.69-0.83,1.14-1.37,1.56-1.88C533.22,588.05,527.69,581.25,522.17,574.44z M568.28,675.32c0.2-0.1,0.41-0.21,0.61-0.31
		c-2.39-7.03-1.16-15.52-8.96-21.08C562.87,661.46,565.57,668.39,568.28,675.32z M283.58,491.16c10.55-1.8,20.81-3.54,31.08-5.29
		C304.14,486.16,293.58,486.21,283.58,491.16z M516.94,236.96c-0.3-0.41-0.41-0.65-0.59-0.81c-1.21-1.05-2.35-2.2-3.68-3.06
		c-0.65-0.42-1.65-0.3-2.49-0.43c-0.02,1.04-0.44,2.33,0.03,3.06c0.84,1.31,2.15,2.35,3.36,3.38c1.73,1.48,6.04,2.08,8.2,0.82
		c-2.58-0.56-4.68-1.02-6.79-1.48c0.01-0.21,0.02-0.42,0.03-0.63C515.59,237.56,516.17,237.3,516.94,236.96z M379.18,676.26
		c0.12,0.34,0.23,0.67,0.35,1.01c10.1-3.54,20.2-7.09,30.3-10.63c-0.1-0.29-0.2-0.59-0.31-0.88
		C399.41,669.26,389.29,672.76,379.18,676.26z M584.34,682.86c5.38,1.27,10.32-1.35,15.52-1.74
		C597.37,679.73,586.96,680.78,584.34,682.86z M455.14,670.6c-0.4-1.29-0.78-2.54-1.3-4.2c-1.91,1.13-3.48,2.22-5.17,3.02
		c-1.68,0.8-3.5,1.32-5.31,1.97c0.13,0.14,0.31,0.47,0.44,0.46C447.43,671.48,451.05,671.06,455.14,670.6z M258.97,521.6
		c-2.35,0.46-4.3,10.53-3.6,17.75C256.56,533.48,257.75,527.62,258.97,521.6z M346.16,340.46c-0.01-0.34-0.02-0.68-0.03-1.01
		c-7.7,0.56-15.4,1.12-23.1,1.68c0.01,0.23,0.03,0.47,0.04,0.7C330.77,341.38,338.46,340.92,346.16,340.46z M510.13,65.3
		c2.6,3.84,5.21,7.67,7.81,11.51C517.73,71.35,513.98,68.28,510.13,65.3z M529.88,240.94c1.64,0.32,2.99,1.02,3.93,0.66
		c1.68-0.65,3.15-1.89,4.61-3.01c0.27-0.21,0.24-1.1,0.03-1.52c-0.14-0.27-0.97-0.51-1.27-0.35
		C534.96,237.93,532.79,239.24,529.88,240.94z M320.24,337.96c-7.86-0.15-15.01,0.69-22.13,1.72c0.02,0.23,0.05,0.47,0.07,0.7
		C305.34,339.6,312.49,338.81,320.24,337.96z M250.91,586.85c0.42-2.23,0.78-4.46,1.28-6.67c0.5-2.17,1.14-4.31,1.72-6.47
		c-0.42-0.09-0.84-0.18-1.26-0.26C251.14,577.77,250.53,582.26,250.91,586.85z M583.52,698.22c0.28,0.01,0.56,0.02,0.83,0.03
		c0.16-0.65,0.59-1.37,0.43-1.93c-0.67-2.24-1.49-4.43-2.32-6.61c-0.13-0.34-0.6-0.56-0.91-0.83c-0.15,0.09-0.3,0.17-0.46,0.26
		C581.89,692.16,582.71,695.19,583.52,698.22z M570.54,683.24c-1.24-2.27-2.32-4.25-3.4-6.23c-0.24,0.6-0.14,1.08-0.11,1.57
		c0.12,1.93,2.48,4.09-0.59,5.75c-0.2,0.11,0.06,1.05,0.13,1.99C568.08,685.14,569.33,684.18,570.54,683.24z M121.06,639.34
		c0.42-4.48,0.83-8.96,1.25-13.43C120.63,630.25,120.02,634.71,121.06,639.34z M612.43,634.07c0.1-0.27,0.2-0.54,0.29-0.8
		c-0.61-0.29-1.34-0.94-1.82-0.8c-2.78,0.85-5.5,1.89-8.24,2.86c0.03,0.14,0.07,0.28,0.1,0.42
		C605.98,635.19,609.21,634.63,612.43,634.07z M565,610.93c0.16-0.05,0.32-0.1,0.47-0.16c-0.11-2.22-0.11-4.45-0.42-6.64
		c-0.08-0.59-1.1-1.04-1.68-1.56c-0.21,0.21-0.41,0.43-0.62,0.64C563.5,605.79,564.25,608.36,565,610.93z M366.96,697.07
		c2.38-0.74,4.69-1.46,7.01-2.19C368.86,693.91,368.86,693.91,366.96,697.07z M403.18,559.46c3.82-0.83,7.64-1.67,11.57-2.53
		C413.64,555.46,412.45,555.72,403.18,559.46z M269.81,361.14c-0.92,1.1-1.84,2.2-3.1,3.72c2.47-0.1,4.67,0.89,5.13-2.09
		C271.21,362.27,270.6,361.78,269.81,361.14z M376.15,606.84c0.08,0.23,0.16,0.46,0.24,0.69c4.43-1.41,8.85-2.83,13.28-4.24
		c-0.06-0.2-0.12-0.39-0.18-0.59C385.04,604.08,380.6,605.46,376.15,606.84z M382.03,518.74c0.09,0.28,0.17,0.56,0.26,0.84
		c3.51-0.55,7.02-1.1,10.53-1.66c-0.06-0.34-0.11-0.68-0.17-1.01C389.11,517.52,385.57,518.13,382.03,518.74z M358.79,357.54
		c-0.39,0.11-0.77,0.23-1.16,0.34c0.99,2.95,1.97,5.9,2.96,8.86c0.21-0.07,0.43-0.14,0.64-0.21
		C360.41,363.54,359.6,360.54,358.79,357.54z M366.24,630.78c-0.05-0.4-0.1-0.8-0.14-1.2c-0.66,0.1-1.41,0.03-1.97,0.33
		c-1.16,0.62-2.16,1.53-3.32,2.14c-1,0.53-2.14,0.8-3.22,1.19c0.07,0.18,0.14,0.35,0.21,0.53
		C360.61,632.78,363.42,631.78,366.24,630.78z M564.21,685.28c1.59-3.81-1.62-4.22-3.58-5.44
		C561.78,681.59,562.93,683.34,564.21,685.28z M491.07,204.06c0.34-0.03,0.69-0.06,1.03-0.09c-0.41-3.05-0.82-6.1-1.23-9.15
		c-0.17,0.02-0.35,0.05-0.52,0.07C490.58,197.95,490.83,201,491.07,204.06z M457.47,587.42c-0.17-0.01-0.33-0.03-0.5-0.04
		c-0.39,4.32-0.78,8.65-1.17,12.97c0.19,0.02,0.39,0.03,0.58,0.05C456.74,596.07,457.1,591.74,457.47,587.42z M492.52,113.52
		c0.33,0.05,0.66,0.11,0.98,0.16c1.4-2.37,0.81-5.06,0.58-7.68C493.56,108.51,493.04,111.01,492.52,113.52z M257.71,554.38
		c0.16,0,0.33,0,0.49,0c0.53-3.14,1.06-6.28,1.59-9.43c-0.32-0.04-0.63-0.08-0.95-0.12C258.46,548.02,258.08,551.2,257.71,554.38z
		 M316.96,357.45c0,0.07-0.01,0.14-0.01,0.21c3.17,0.15,6.34,0.3,9.5,0.45c0.01-0.22,0.01-0.44,0.02-0.66
		C323.3,357.45,320.13,357.45,316.96,357.45z M354.95,394.96c-0.04-0.15-0.08-0.29-0.12-0.44c-3.61,0.35-7.23,0.71-10.84,1.06
		c0.03,0.24,0.05,0.47,0.08,0.71C347.69,395.85,351.32,395.41,354.95,394.96z M253.5,581.62c-0.25,0.03-0.5,0.05-0.75,0.08
		c0.21,2.06,0.43,4.11,0.64,6.17c0.36-0.04,0.73-0.08,1.09-0.13C254.15,585.7,253.82,583.66,253.5,581.62z M258.18,514.54
		c-0.24,1.5-0.48,3-0.79,4.98C261.22,518.21,258.45,516.09,258.18,514.54z M364.95,391.96c1.39,0.87,2.31,1.44,3.24,2.02
		c0-0.88,0-1.77,0-2.86C367.06,391.41,366.35,391.6,364.95,391.96z M290.61,600.5c-1.99-2.32-3.28-0.8-4.88-0.27
		C287.38,602.48,288.74,600.55,290.61,600.5z M407.61,618.6c2.1,0.13,3.37,0.21,4.83,0.3c0.37-0.44,0.97-1.14,1.87-2.19
		C412.04,617.35,410.13,617.89,407.61,618.6z M593.76,564.45c-0.5-4.46-0.5-4.46-2.39-4.79
		C592.23,561.39,592.99,562.92,593.76,564.45z M501.72,689.75c-0.25,0.12-0.51,0.24-0.76,0.35c0.92,2.34,1.85,4.68,2.77,7.01
		c0.2-0.08,0.39-0.15,0.59-0.23C503.45,694.51,502.59,692.13,501.72,689.75z"/>
	<path class="st0" d="M624.06,676.83c2.11,6.19,3.47,12.5,2.75,19.15C625.9,689.59,624.98,683.21,624.06,676.83z"/>
	<path class="st0" d="M534.2,345.01c-10.78-1.67-20.45-0.22-30.24,1.19c-7.89,1.14-16.05,1.45-23.99,0.81
		c-9.72-0.78-17.77-6.25-25.34-12.04c-2.97-2.27-6-3.98-9.64-4.81c-5.53-1.26-11.01-2.7-16.51-4.1
		c-8.91-2.26-16.52-7.32-24.53-11.49c-2.58-1.34-5.37-2.4-5.33-6.22c0.01-1.16-1.4-2.3-2.05-3.51c-0.32-0.6-0.74-1.51-0.5-1.97
		c0.25-0.48,1.24-0.85,1.88-0.8c5.73,0.37,11,2.4,16.32,4.38c8.32,3.1,16.7,6.07,25.16,8.75c5.4,1.71,10.6,0.92,15.45-2.44
		c8.23-5.71,17.58-9.02,27.06-11.96c5.66-1.76,11.42-1.28,17.1-0.29c3.38,0.59,6.81,1.42,9.95,2.77c4.78,2.06,7.16,6.47,9.38,10.92
		c2.6,5.22,5.31,10.39,7.96,15.58c0.23,0.45,0.61,0.93,0.59,1.39c-0.18,4.68,3.29,6.98,6.11,9.8
		C533.76,341.72,533.72,343.27,534.2,345.01z M459.18,322.26c0.84,1.13,1.34,2.14,2.14,2.81c7.59,6.46,16.21,10.66,26.07,12.61
		c6.28,1.24,12.43,2.1,18.78,0.83c2.56-0.51,5.2-0.95,7.8-0.92c2.41,0.03,4.21-0.63,5.52-2.51c-1.42-1.93-2.91-3.76-4.16-5.74
		c-2.58-4.07-4.81-8.38-7.61-12.28c-1.51-2.12-3.63-4.23-5.95-5.23c-2.79-1.21-6.06-1.49-9.16-1.71c-2.83-0.2-6.01-0.54-8.49,0.5
		C475.84,314.12,467.8,318.19,459.18,322.26z"/>
	<path class="st0" d="M333.07,41.78c-0.24,2.69-0.32,5.4-0.76,8.05c-0.74,4.48-1.96,8.9-2.52,13.4c-0.61,4.86-0.62,9.79-1.03,14.68
		c-0.7,8.34,1.4,16.3,3.19,24.29c3.36,14.93,6.75,29.86,10.41,44.71c0.92,3.72,2.9,7.18,4.48,10.72c3.61,8.11,7.3,16.18,10.9,24.3
		c0.82,1.85,1.27,3.88,2.22,5.65c0.78,1.44,2,2.67,3.15,3.86c0.3,0.31,1.09,0.15,1.92,0.24c0.76,4.12,1.44,8.43,2.37,12.69
		c0.83,3.79,1.42,7.76,3.04,11.21c4.29,9.16,5.18,18.47,2.82,28.22c-2.69,11.1-5.29,22.23-8.07,33.31
		c-0.29,1.18-1.48,2.13-2.25,3.19c-0.18-1.22-0.29-2.46-0.55-3.66c-0.34-1.55-0.8-3.08-1.23-4.62c-0.71-2.5-1.71-4.95-2.07-7.5
		c-0.34-2.4-0.15-4.91,0.03-7.35c1.22-16.96,0.1-33.83-1.66-50.69c-0.21-1.98-0.9-3.95-1.6-5.84c-4.06-11.03-8.2-22.04-12.3-33.06
		c-1.3-3.49-2.77-6.92-3.87-10.47c-4.78-15.3-12.09-29.76-15.16-45.64c-0.21-1.1-1.2-2.04-1.73-3.11c-0.28-0.57-0.48-1.23-0.51-1.86
		c-0.46-10.46-1.31-20.93-1.17-31.39c0.11-8.1,1.62-16.18,5.32-23.55c1.71-3.4,3.99-6.51,6.02-9.75
		C332.68,41.81,332.88,41.79,333.07,41.78z M325.43,93.6c-1.21,5.32,0.88,18.93,3.1,21.99C327.48,108.15,326.45,100.88,325.43,93.6z
		 M360.3,198.51c0.28-0.1,0.57-0.19,0.85-0.29c-1.63-4.74-3.25-9.47-4.88-14.21c-0.36,0.12-0.72,0.25-1.08,0.37
		C356.89,189.09,358.59,193.8,360.3,198.51z M364.02,263.99c0.29,0.02,0.58,0.04,0.88,0.06c0.28-4.69,0.57-9.38,0.85-14.07
		c-0.25-0.02-0.49-0.03-0.74-0.05C364.68,254.62,364.35,259.31,364.02,263.99z M369.16,233.44c-0.29-0.02-0.59-0.05-0.88-0.07
		c0,2.27,0,4.55,0,6.82c0.1-0.01,0.19-0.02,0.29-0.03C368.76,237.92,368.96,235.68,369.16,233.44z"/>
	<path class="st0" d="M394.93,285.68c6.59,0.09,12.02,2.62,17.63,4.61c8.58,3.06,17.34,3.99,26.37,1.93
		c5.98-1.36,12.09-2.1,18.06-3.5c6.49-1.51,12.92-3.35,19.31-5.24c10.49-3.09,21.02-3.08,31.62-0.8
		c7.51,1.62,12.64,6.57,17.59,12.09c4.19,4.68,6.54,10.15,8.65,15.83c0.3,0.81-0.18,1.92-0.3,2.89c-0.83-0.36-1.87-0.52-2.44-1.12
		c-4.11-4.36-8.22-8.73-12.15-13.25c-5.62-6.46-13.15-8.74-21.18-9.46c-6.68-0.59-13.25-0.35-19.99,1.54
		c-9.23,2.58-17.58,6.7-25.88,11.19c-4.73,2.55-9.9,2.92-15.21,2.5c-5.61-0.45-10.34-3.37-15.51-5.06
		c-5.69-1.86-11.63-3.08-17.11-5.41c-3.36-1.42-6.09-4.36-9.03-6.72C394.98,287.42,395.09,286.52,394.93,285.68z"/>
	<path class="st0" d="M457.73,545.45c-8-24.7-16-49.41-24-74.11c0.14-0.11,0.28-0.22,0.42-0.34c1.39,2.2,3.13,4.26,4.1,6.63
		c2.98,7.3,5.98,14.63,8.39,22.13c3.21,10,5.94,20.15,8.7,30.29c0.54,2,0.25,4.22,0.42,6.33c0.05,0.55,0.46,1.06,0.6,1.62
		c0.61,2.46,1.19,4.94,1.78,7.41C458,545.42,457.86,545.43,457.73,545.45z"/>
	<path class="st0" d="M317.63,162.93c-2.07-11.08-2.81-23.64-1.51-36.3C316.64,139.2,317.16,151.76,317.63,162.93z"/>
	<path class="st0" d="M319.9,172.64c0.98,4.13,1.95,8.26,2.93,12.39c-0.21,0.05-0.41,0.1-0.62,0.15c-1.01-4.16-2.02-8.32-3.03-12.48
		C319.42,172.68,319.66,172.66,319.9,172.64z"/>
	<path class="st0" d="M392.97,449.68c1.29,1.84,2.54,3.7,3.87,5.5c1.14,1.55,2.36,3.04,3.32,4.72c-3.31-2.75-5.4-6.39-7.13-10.27
		C393.02,449.63,392.97,449.68,392.97,449.68z"/>
	<path class="st0" d="M374.58,760.26c-3.16-1.18-5.7-1.99-8.13-3.06c-14.21-6.3-26.97-14.75-38.11-25.63
		c-13.93-13.6-28.06-27.02-39.86-42.59c-5.43-7.18-10.51-14.63-15.74-21.96c0.33-0.26,0.66-0.52,1-0.78
		c1.53,1.86,3.24,3.6,4.58,5.58c11.04,16.33,23.76,31.25,38.02,44.83c8.63,8.22,17.24,16.52,26.44,24.08
		c8.9,7.31,18.88,13.11,29.57,17.57c0.47,0.19,0.92,0.43,1.34,0.7C373.88,759.11,373.97,759.37,374.58,760.26z"/>
	<path class="st0" d="M235.51,612.82c13.55,14.22,25.24,29.74,34.52,46.96c-0.3,0.22-0.6,0.45-0.91,0.67
		c-0.68-0.95-1.41-1.87-2.04-2.85c-5.06-7.9-9.96-15.9-15.21-23.67c-2.13-3.16-5.18-5.68-7.52-8.72
		C241.27,621.2,238.45,616.96,235.51,612.82z"/>
	<path class="st0" d="M198.07,575.98c2.47,1.47,4.95,2.95,7.42,4.42c-0.13,0.21-0.25,0.42-0.38,0.64c-2.46-1.47-4.93-2.93-7.39-4.4
		C197.83,576.42,197.95,576.2,198.07,575.98z"/>
	<path class="st0" d="M279.18,589.97c0.83-0.09,1.66-0.19,2.28-0.26c0.27,1.27,0.55,2.57,0.83,3.87c-0.86-1.31-3.82-0.84-3.06-3.66
		C279.24,589.91,279.18,589.97,279.18,589.97z"/>
	<path class="st0" d="M391.07,499.51c-5.51,0.59-11.03,1.18-16.54,1.78c-0.03-0.24-0.05-0.49-0.08-0.73
		c5.51-0.59,11.03-1.18,16.54-1.76C391.02,499.03,391.05,499.27,391.07,499.51z"/>
	<path class="st0" d="M378.47,559.37c-3.52,1.1-7.04,2.2-10.56,3.3c-0.07-0.22-0.14-0.43-0.21-0.65c3.51-1.1,7.03-2.2,10.54-3.3
		C378.32,558.94,378.39,559.16,378.47,559.37z"/>
	<path class="st0" d="M396.39,554.45c3.18-0.62,6.36-1.23,9.53-1.85c0.05,0.24,0.09,0.47,0.14,0.71c-3.2,0.65-6.39,1.31-9.59,1.96
		C396.45,555,396.42,554.73,396.39,554.45z"/>
	<path class="st0" d="M456.85,168.88c0.25,2.25,0.47,4.5,0.74,6.74c0.54,4.49,1.13,8.98,1.66,13.48c0.09,0.79,0.01,1.61-0.45,2.42
		c-2.86-7.37-3.34-14.9-1.92-22.59C456.88,168.93,456.85,168.88,456.85,168.88z"/>
	<path class="st0" d="M460.01,193.17c1.83,4.83,3.53,9.32,5.23,13.81c-0.25,0.1-0.5,0.2-0.75,0.3c-2.68-3.89-3.8-8.49-5.34-12.89
		C459.05,194.15,459.65,193.66,460.01,193.17z"/>
	<path class="st0" d="M496.99,135.12c1.72,2.08,3.47,4.13,5.09,6.28c0.1,0.14-0.75,1.43-1.21,1.46c-1.28,0.09-2.58-0.21-3.89-0.72
		c0.94-0.26,1.88-0.53,3.23-0.91c-1.38-1.91-2.66-3.68-3.94-5.46C496.52,135.57,496.75,135.35,496.99,135.12z"/>
	<path class="st0" d="M473.78,141.13c0.81-2.6,3.2-2.74,5.07-3.7c0.15,0.26,0.31,0.51,0.46,0.77c-1.86,0.96-3.72,1.92-5.59,2.87
		C473.72,141.07,473.78,141.13,473.78,141.13z"/>
	<path class="st0" d="M240.22,462.71c-0.64,0.36-1.29,0.73-2.12,1.19c0.95-8.41,1.58-16.69,4.59-24.54
		c-1.13,6.8-2.32,13.59-3.34,20.4c-0.14,0.94,0.52,2.01,0.81,3.01C240.16,462.77,240.22,462.71,240.22,462.71z"/>
</g>
</svg>
