<?xml version="1.0" encoding="utf-8"?>
<!-- Generator: Adobe Illustrator 25.0.1, SVG Export Plug-In . SVG Version: 6.00 Build 0)  -->
<svg version="1.1" id="Layer_1" xmlns="http://www.w3.org/2000/svg" xmlns:xlink="http://www.w3.org/1999/xlink" x="0px" y="0px"
	 viewBox="0 0 800 800" style="enable-background:new 0 0 800 800;" xml:space="preserve">
<style type="text/css">
	.st0{fill:#FFFFFF;}
</style>
<g>
	<path class="st0" d="M317.03,71.11c0-4.81-0.24-9.39,0.05-13.94c0.51-7.94,0.4-15.93,4.38-23.36c1.83-3.42,3.38-6.19,6.87-8.59
		c8.86-6.08,16.36-6.66,24.15,1.27c6.52,6.63,13.88,12.29,20.29,18.98c1.25,1.31,2.44,2.68,3.92,4.31c0.49-2.79,0.79-5.37,1.42-7.86
		c3.87-15.46,13.8-25.5,28.54-30.75c5.66-2.02,11.62-1.12,17.11,1.28c13.34,5.83,22.87,15.88,29.54,28.51
		c3.98,7.55,3.24,15.97,1.95,24.2c-0.39,2.53-0.87,5.05-1.39,8.01c7.59,0.93,14.49,4.12,22,5.2c8.96,1.29,17.84,3.22,26.73,4.99
		c1.56,0.31,3.08,1.04,4.51,1.77c1.79,0.92,3.5,1.88,5.63,1.83c1.27-0.03,2.61,0.45,3.07,1.73c0.47,1.29,1.49,1.62,2.5,2.14
		c8.41,4.31,16.84,8.6,25.23,12.97c3.39,1.77,6.6,3.87,9.58,6.27c1.15,0.93,2.35,1.87,2.72,3.53c-3.63-2.66-7.08-5.57-11.26-7.4
		c1.07,1.95,2.84,3.19,4.64,4.29c2.64,1.61,4.88,3.64,7.03,5.84c5.68,5.79,12.49,10.36,17.7,16.7c3.71,4.52,7.24,9.12,10.14,14.21
		c4.5,7.91,10.19,15.01,15.33,22.49c12.49,18.18,20.23,38.29,24.37,59.83c1.19,6.17,4.14,11.69,5.82,17.67
		c7.98,28.43,15.99,56.85,20.65,86.08c1.09,6.81,1.62,13.67,1.88,20.55c0.47,12.07,2.51,23.96,4.91,35.75
		c4.49,22.08,5.69,44.32,4.18,66.75c-0.52,7.72-0.9,15.45-1.39,23.18c-0.26,4.11-2.17,7.47-5.03,10.33
		c-2.47,2.47-4.54,2.88-7.8,1.51c-2.36-1-5.47-1.25-5.03-5.08c0.04-0.34-0.49-0.79-0.81-1.13c-0.46-0.49-0.92-0.99-1.46-1.37
		c-5.42-3.77-10.99-7.22-18.21-8.49c3.5,3.45,5.75,7.24,9.7,9.69c4.47,2.77,7.39,7.29,9.68,11.89c3.82,7.65,7.74,15.43,9.78,23.72
		c4.86,19.78,7.37,40.08,4.15,60.19c-3.83,23.98-12.78,46.18-28.33,65.47c-10.98,13.63-23.59,25.27-38.04,35
		c-10.18,6.85-21.86,10.33-33.15,14.71c-23.4,9.07-47.72,13.95-72.52,17.12c-14.49,1.85-28.92,4.08-43.48,5.42
		c-29.08,2.7-58.17,4.16-87.32,1.21c-5.31-0.54-10.62-1.21-15.76-2.78c-0.91-0.28-1.78-0.26-2.76-0.18
		c-6.3,0.48-12.58,0.34-18.81-1.63c-2.48,2.33-4.07,5.41-5.96,8.25c-1.05,1.58-0.12,3.36,0.2,4.99c1.43,7.48,3.62,14.81,4.58,22.39
		c0.64,5.06,1.12,10.08-0.92,14.96c-4.64,11.08-14.73,12.71-23.95,8.15c-0.93-0.46-1.78-1.09-2.65-1.62
		c-2.08,4.87-5.46,8.03-10.71,9.04c-2.99,0.58-5.96,1.28-8.98,1.75c-5.45,0.84-9.98-0.73-13.85-4.55c-0.52-0.51-0.93-1.24-1.5-1.29
		c-2.94,4.95-7.28,7.54-12.45,9.39c-5.51,1.97-10.59,0.9-15.74-1.37c-0.74-0.08-0.16-0.92-0.64-1.59
		c-5.49-7.86-7.73-17.07-9.18-26.2c-2.47-15.54-5.45-31.01-7.33-46.66c-1.01-8.45-1.43-16.95-2.57-25.38
		c-0.32-2.37-0.66-4.24-3.4-5.14c-1.93-0.63-3.7-2-5.29-3.35c-5.68-4.82-11.31-9.7-16.84-14.7c-4.71-4.27-8.49-9.32-11.56-14.89
		c-11.21-20.31-19.72-41.59-25.02-64.29c-5.31-22.74-6.91-45.63-6.14-68.83c0.32-9.72,2.57-19.06,5.45-28.29
		c1.13-3.61,2.12-7.26,3.25-11.17c-3.21,0.39-5.54,2.25-8.3,2.84c-5.66,1.21-8.73-0.36-10.78-5.75c-3.54-9.31-6.14-18.85-7.41-28.77
		c-2.66-20.83-3.83-41.71-2.33-62.67c1.08-15.08,3.59-29.97,6.14-44.87c3.25-18.96,7.19-37.74,12.81-56.13
		c6.2-20.28,11.77-40.81,20.29-60.28c10.53-24.06,20.85-48.26,34.35-70.9c4.4-7.37,9.56-14.06,15.63-20.09
		c8.62-8.57,17.26-17.15,26.91-24.53c12.39-9.48,26.09-16.56,41.19-20.83c8.54-2.42,16.98-5.23,25.49-7.75
		C303.89,73.15,310.36,71.54,317.03,71.11z M405.59,251.57c2.74-3.51,5.48-7.02,8.26-10.58c-1.33-1.51-2.02-3.44-4.15-4.48
		c-0.16,1.88,1.66,2.8,1.47,4.46c-1.32-0.37-1.54-1.94-2.5-2.3c-2.93,1.5-0.25,3.32-0.45,5.27c-0.93-0.83-1.62-1.43-2.25-1.99
		c-3.7,1.9,0.49,3.98-0.1,5.98c-1.42-0.4-1.53-2.16-3.39-2.31c0.74,2.35,2.09,4.13,3.18,6.04c-1.98-0.14-2.51-2.3-4.35-3.4
		c0.11,3.49-0.85,6.54,0.39,10.03C404.22,256.41,404.82,253.93,405.59,251.57z M503.83,691.24c2.08-0.28,4.18-0.44,6.22-0.87
		c1.57-0.33,3.02-0.73,4.12,0.85c1.09,1.57-0.23,2.61-1.3,3.8c13.7-2.34,26.45-6.52,39.2-10.8c7.28-2.44,13.87-5.67,19.5-10.92
		c5.05-4.71,10.26-9.25,15.4-13.87c-0.14-0.2-0.28-0.39-0.42-0.59c-1.59,0.96-3.21,1.89-4.78,2.88
		c-11.63,7.4-23.61,14.06-36.8,18.35c-10.89,3.54-21.65,7.49-33.06,9.16c-2.73,0.4-5.61,0.38-8.04,2.06
		c-5.1-0.35-9.92,1.33-14.9,1.88C494.09,693.71,498.93,692.29,503.83,691.24z M264.92,462.42c-10.28-1.84-20.46,1.15-31.09,0.21
		c1.48,4.38,2.03,8.54,3.7,12.12c15.07-3.03,30.1-1.86,45.25-2.7c-3.69-3.35-6.01-8.15-11.55-8.88c0.87,0.15,1.74,0.29,2.67-0.11
		c-2-2.57-6.9-3.27-9.07-1.44C264.72,461.73,264.89,462.15,264.92,462.42z M507.38,219.96c2.53-3.27,6.71-3.51,10.43-5.51
		c-2.61-0.49-4.45,0.35-6.22,1.41c-1.71,1.02-3.46,1.94-5.31,2.69c-0.67,0.27-1.57,0.9-1.17,1.94c0.17,0.44,0.64,0.15,0.97,0
		c-1.19,0.95-1.41,3.38-3.44,2.92c-2-0.46-1.78-2.67-2.4-4.23c-3.07-7.7-6.11-15.43-11.43-21.95c-0.72-0.88-1.55-1.72-2.48-2.38
		c-4.5-3.23-8.94-6.57-13.98-8.94c-11.33-5.34-23.4-8.15-35.68-10.23c-8.23-1.4-16.54-1.05-24.85-1.26
		c-20.17-0.51-40.35-0.88-60.48,0.11c-9.66,0.47-19.38,0.8-28.88,4.46c-18.63,7.18-34.3,17.78-46.01,34.11
		c-2.6,3.63-4.66,7.3-5.87,11.64c-1.17,4.18-0.4,8.12,0.12,12.18c0.74,5.81,1.8,11.56,3.51,17.24c0.44-4.5,0.44-8.97,0.44-13.44
		c0-3.21,0.23-3.43,3.14-2.16c0.9,0.39,1.18-0.14,1.7-0.43c-2.78,4.04-0.44,8.15-0.46,12.27c0.61-0.22,0.91-0.46,1.09-0.76
		c7.38-12.3,15.52-24.07,24.52-35.25c1.57-1.94,3.25-3.23,5.81-3.73c4.94-0.96,9.76-2.36,14.88-2.57c7.84-0.31,15.64-0.7,23.45,0.51
		c2.88,0.45,5.62,2.03,8.76,1.02c1,2.7,3.82,4.06,4.65,6.82c0.33,1.08,1.06,2.77-0.15,3.02c-2.01,0.42-1.55,2.06-2.07,2.97
		c-2.1,0.61-4,0.59-5.88,0.1c-10.06-2.64-20.28-3.18-30.65-3.35c-5.38-0.09-8.67,2.04-12.18,5.39
		c-9.71,9.24-18.07,19.75-27.76,28.99c-0.84,0.8-1.1,1.5-0.97,2.71c0.33,3.02,1.08,6.19-1.43,8.79c-0.03,0.03,0.16,0.28,0.3,0.53
		c6.06-5.46,12.36-10.57,19.21-14.96c1.8-1.16,3.31-2.48,4.58-4.21c6.07-8.24,14.54-12.13,24.5-11.94
		c6.21,0.12,12.38,1.8,18.58,2.66c3.66,0.51,6.49,2.44,8.62,5.19c1.82,2.35,3.96,4.39,5.75,6.73c2.68,3.51,5.13,7.18,6.11,11.57
		c0.84,3.75-0.34,4.65-4.01,4c-2.56-0.45-5.27-2.09-7.53-1.47c-3.5,0.96-6.91,2.51-10.43,3.64c2.52,0.35,4.76-1.13,7.26-0.91
		c-4.04,2.47-8.5,3.73-13.05,4.68c-9.36,1.96-18.28-1.21-27.28-2.75c-3.99-0.69-7.97-1.74-12.01-2.41
		c-2.23-0.37-3.93,0.16-5.88,1.25c-4.53,2.54-7.65,7.15-12.87,8.68c-0.76,0.22-1.11,1.26-1.18,2.17c-0.13,1.71-0.45,3.43-0.37,5.13
		c0.58,12.52,1.56,24.98,4.52,37.22c1.18,4.87,2.83,9.63,3.47,14.21c-0.73,1.31-1.29-0.21-2.09,0.62
		c1.32,5.93,2.44,12.04,4.09,18.01c1.5,5.45,3.8,10.68,7.88,14.78c8.73,8.76,18.57,16.18,28.65,23.29c1.63,1.15,3.42,2.19,5.59,2.32
		c-0.27-1.02-1.61-1.38-0.85-3.13c3.73,2.72,8.08,4.04,11.9,6.35c4.12,2.48,9.29,1.83,13.34,4.24c-1.65,1.59-1.59,3.06-1.04,4.51
		c0.72,1.88,0.45,4.21,2.31,5.6c4.45-2.23,8.98-3.48,13.87-3.98c10.21-1.05,20.4-1.87,30.51,0.41c3.81,0.86,8.14,1.35,9.89,6.46
		c0.52-3.67,0.97-6.91,1.48-10.53c-2.94,0-5.49,0-8.05,0c0.9-0.62,1.91-0.1,2.89-0.85c-7.09-2.83-14.3-2.79-21.71-2.71
		c-7.49,0.08-14.53,2.56-22.12,3.16c1.67-1.88,1.89-1.86,4.42-2.77c8.14-2.93,16.62-3.41,25.13-3.51c7.13-0.08,14.1,1.02,20.49,4.44
		c1.22,0.65,1.92,0.2,2.76-0.52c7.59-6.41,15.24-12.76,21.65-20.42c1.31-1.57,2.7-3.07,4.06-4.6c-5.69,8.22-13.1,14.84-20.35,21.75
		c1.25,0.81,1.88,0.3,2.48-0.16c4.62-3.53,9.34-6.9,13.51-11.02c5.29-5.22,10.42-10.59,15.68-15.84c9.2-9.18,19.42-17.3,28.14-26.97
		c0.86-0.96,1.27-1.82,1.33-2.97c0.26-4.58,0.54-9.16,0.19-13.75c-0.65-8.48-1.35-16.95-1.77-25.44
		c-0.59-11.93-1.14-23.88-0.46-35.83c0.08-1.38-0.51-1.9-1.59-2.29c-3.41-1.25-6.81-2.5-10.49-2.76c-1.77-0.13-3.32,0.12-4.83,1.24
		c-14.27,10.63-29.96,10.45-46.19,5.95c-0.47-0.13-0.88-0.4-0.71-1.25c4.44-0.66,8.8,0.59,13.2,1.01
		c5.15,0.48,10.37,0.13,13.08-0.88c-13.76-1.35-27.58-4.66-41.73-2.99c1.56,5.13,2.98,10.08,4.59,14.97
		c1.95,5.92,4.69,11.45,8.21,16.63c3.36,4.95,2.89,8.97-1.35,12.07c-6.37,4.66-13.39,5.1-20.72,2.64c-1.14-0.38-2.51-1.26-2.15-2.34
		c0.77-2.31-0.59-4.2-0.66-6.3c-0.04-1.44,0.31-2.75,1.47-3.83c-0.94,2.65-0.54,5.06,0.96,7.31c5.82-1.29,8.5-0.08,11.16,5
		c0.79-0.31,1.6-0.6,2.39-0.93c5.82-2.49,6.57-4.84,3.21-10.31c-2.98-4.86-6.74-9.07-11.35-12.41c-3.17-2.3-3.94-5.6-4.6-9.07
		c-0.66-3.47,0.26-6.93-0.1-10.42c-0.66-6.41-0.43-12.83,1.3-19.06c0.74-2.66,1.67-5.09,0.02-7.68c-0.16-0.25,0.1-0.73,0.59-0.77
		c1.21,0.08,1.12,1.71,2.35,1.96c0.66-1.83-2.02-3.02-1.05-4.9c1.51,0.23,1.48,1.81,2.51,2.37c1.61-0.71,1.1-1.73,0.31-2.7
		c-1.35-1.65-1.59-3.09,0.69-4.26c0.77,0.86,1.56,1.75,2.35,2.63c-0.15-3.17-1.14-6.07-1.58-9.06c-0.44-2.93-1.59-6.04-2.26-9.33
		c2.69-0.4,3.82-3.02,6.31-3.79c10.73-3.32,20.97-7.69,32.71-8c9.78-0.26,17.81,1.93,25.17,7.9c1.26,1.02,2.7,2.85,3.89,2.73
		c3.6-0.38,3.79,2.99,5.71,4.35c0.23,0.16,0.36,0.45,0.57,0.64c2.03,1.83,4.07,3.65,6.1,5.47c-5.05-6.38-10.82-12.03-15.75-18.33
		c-4.06-5.19-9.32-7.31-15.3-8.58c-8.32-1.77-16.76-2.81-25.19-3.91c-7.04-0.92-14.08-1.45-21.19-0.24
		c13.9,2.95,28.13,3.51,42.86,5.23c-2.42,1.38-2.42,1.41-5.27,1.28c-16.93-0.78-33.66-3.22-50.32-6.2
		c-20.93-3.74-41.82-3.81-62.61,0.77c-7.3,1.61-14.72,3.02-20.8,8.12c-8.82,7.4-17.3,14.96-23.06,25.22
		c-1.88,3.35-3.31,6.77-4.68,10.3c0.06-3.23,0.99-6.13,2.81-8.86c1.98-2.96,3.67-6.11,5.49-9.18c-2.38,1.46-3.79,3.89-6.15,5.28
		c1.96-3.4,4.7-6.16,7.21-9.11c15.79-18.54,36.16-27.62,60.2-28.86c13.94-0.72,27.9,0.05,41.85-0.01c6.97-0.03,13.98,0.1,20.91,0.73
		c11.31,1.04,22.58,2.56,33.88,3.86c9.24,1.06,18,3.34,25.51,9.25c5.83,4.58,10.95,9.81,15.49,15.64
		c4.05,5.2,7.63,10.76,12.32,15.46c0.65,0.65,1.38,1.37,1.24,2.47c-0.16,0.96-1.18,0.09-1.6,0.82c-1.25,2.14-2.84,2.26-4.89,0.83
		c-2.54-1.78-5.24-3.31-7.88-4.95c0.96,1.48,2.2,2.61,3.41,3.75c1.48,1.39,2.24,2.72-0.36,3.4c0.09,1.79,1.1,2.86,1.93,4.01
		c1.31,1.82,2.24,3.78,2.32,6.06c0.28,8.72,0.88,17.44,0.68,26.15c-0.1,4.32,1.35,8.17,1.91,12.26c1.54,11.1,4.47,21.61,12.12,30.38
		c4.21,4.83,9.42,7.43,13.93,5.59c1.82-0.74,3.64-1.68,5.16-2.9c2.15-1.73,3.58-4.14,3-6.99c-0.54-2.65-0.39-5.18,0.46-7.62
		c2.33-6.66,4.6-13.37,7.37-19.86c2.44-5.73,4.03-11.63,5.66-18.46c-3.04,3.69-5.54,6.73-8.04,9.76c0.22-1.39,0.81-2.55,1.35-3.74
		c2.43-5.35,6.25-10.11,6.89-16.24c0.54-5.2-0.12-10.14-2.88-15.52c-0.34,15.71-10.35,26.27-16.76,38.45
		c0.76-5.08,2.86-9.63,5.18-14.12c2.81-5.42,6.16-10.6,7.88-16.53c2.56-8.81,1.55-13.23-4.66-18.44c-1.89-1.58-3.8-2.38-6.25-2.19
		c-6.61,0.51-13.09,1.45-19.01,4.69c-0.69,0.38-1.41,0.66-2.1-0.09c-0.36-1.47,0.72-2.27,1.59-3.11c3.83-3.69,8.43-6.07,13.62-6.85
		c8.6-1.29,14.46,1.15,18.43,8.18c3.81,6.76,8.55,13.22,8.35,21.61c0.38-3.02,0.52-5.97,1.22-8.87
		c4.82-19.94-14.71-31.15-27.79-29.42C515.83,215.61,511.38,217.4,507.38,219.96z M485.85,523.87c-1.67,0.34-2.11,1.39-2.22,2.38
		c-0.23,2.15-1.46,3.69-2.77,5.22c-1.49,1.74-2.97,3.5-4.54,5.17c-0.98,1.04-1.34,2.18-1.42,3.6c-0.79,14.22-1.81,28.43-2.46,42.66
		c-1.17,25.66-5.2,51.17-3.61,76.97c0.45,7.23,0.06,7.28,7.34,9.08c16.85,4.17,33.6,5.01,50.02-1.85
		c11.03-4.61,20.08-11.17,23.89-23.39c3.82-12.27,6.24-24.8,8.18-37.45c1.25-8.12,1.96-16.32,3.32-24.41
		c2.34-13.93,6.39-27.53,6.91-41.81c0.39-10.72,2.61-21.3,6.23-31.38c5.58-15.5,15.55-27.95,28.56-37.98c2.9-2.23,6.19-3.8,9.6-5.09
		c6.26-2.36,12.24-1.71,18.28,1.21c5.3,2.56,8.84,6.87,12.62,11.03c0.96,1.06,1.78,2.29,3.09,2.95c0.79,0.4,1.57,1.3,2.59,0.53
		c0.82-0.62,0.62-1.55,0.51-2.39c-0.32-2.38-0.53-4.76-0.18-7.15c0.55-3.74-0.53-7.36-0.47-10.93c-0.45-0.19-0.61-0.33-0.78-0.34
		c-14.6-0.8-29.2-1.59-43.69-3.61c-1.2-0.17-1.66,0.25-2.2,1.2c-6.01,10.69-15.42,17.52-26.13,22.82
		c-4.51,2.23-9.29,3.84-14.75,5.56c4.15,0.98,7.68,0.94,11.13,1.4c2.07,0.27,5.09-0.18,4.82,3.02c-0.26,2.97-3.16,2.19-5.12,2.14
		c-7.96-0.18-15.75-1.92-23.54-3.26c-7.84-1.35-14.91-0.66-21.72,4c1.24,0.12,2.27,0.22,3.3,0.31c10.27,0.97,20.62,1.05,30.85,2.5
		c3.23,0.46,6.42,1.03,9.44,2.3c1.17,0.49,2.35,1.19,2.17,2.69c-0.19,1.58-1.57,1.8-2.83,1.83c-4.2,0.1-8.42,0.4-12.6,0.13
		c-12.21-0.78-24.49-1.25-36.54-3.26c-6.13-1.02-9.9,1.57-14.05,5.43c2.32,0.58,4.33,1.17,6.38,1.57
		c14.28,2.73,28.71,4.33,43.14,5.99c3.32,0.38,6.65,0.77,9.95,1.27c1.59,0.24,3.07,0.93,2.99,2.87c-0.09,1.97-1.65,2.43-3.26,2.5
		c-1.43,0.06-2.86-0.1-4.29-0.19c-18.71-1.09-37.25-3.96-55.96-5.06c-5.31-0.31-10.2-0.46-14.01,3.99
		c-0.54,0.64-1.41,0.99-2.07,1.54c-0.67,0.56-1.82,0.81-1.47,2.56c2.67,0,5.42-0.18,8.14,0.03c14.3,1.08,28.36,4.1,42.68,5.12
		c8.48,0.6,16.92,1.73,25.39,2.46c3.03,0.26,3.71,0.8,3.32,3.77c-0.38,2.89-2.27,3.78-4.86,3.75c-9.37-0.12-18.71-0.84-28.06-1.43
		c-10.04-0.63-19.74-3.61-29.8-4.03c-5.68-0.24-11.36-0.6-17.06-2.31c-0.05,3.73-0.27,7.03,0.16,10.47c6.75,0.34,13.32,0.63,19.89,1
		c7.25,0.41,14.42,1.33,21.59,2.64c6.64,1.21,13.51,1.14,20.27,1.68c4.1,0.32,8.19,0.67,12.27,1.12c1.69,0.19,2.88,1.2,2.82,3.04
		c-0.06,2.03-1.48,2.73-3.29,2.87c-0.48,0.04-0.96,0.06-1.43,0.04c-17.77-0.74-35.53-1.67-53.23-3.36
		c-6.32-0.6-12.66-1.06-18.93-2.71c0,3.95,0,7.63,0,11.17c2.21,0,4.22-0.03,6.22,0c20.1,0.3,40.1,2.01,60.08,4.03
		c0.84,0.09,1.71,0.3,2.49,0.63c1.13,0.47,1.87,1.33,1.78,2.66c-0.09,1.33-0.88,2.14-2.11,2.39c-1.21,0.24-2.47,0.4-3.69,0.34
		c-20.43-1.07-40.88-1.93-61.16-4.86c-1.37-0.2-2.81-0.41-4.2,0.25c0.1,2.83-0.92,5.52-0.44,8.45c1.65,0.3,3.24,0.82,4.83,0.84
		c15.43,0.21,30.67,2.48,45.97,4.12c5.98,0.64,11.95,1.48,17.92,2.26c1.57,0.21,2.84,0.93,2.61,2.76c-0.21,1.71-1.61,1.93-3.03,1.92
		c-0.86-0.01-1.72,0.01-2.58-0.05c-5.63-0.39-11.25-0.76-16.88-1.2c-12.48-0.98-24.99-1.67-37.39-3.5
		c-3.85-0.57-7.67-1.39-11.77-1.34c-0.66,3.68-0.46,7.24-0.53,10.81c10.09-0.37,19.68,0.95,29.31,1.53
		c12.59,0.77,25.18,1.69,37.68,3.5c1.96,0.28,4.38,0.53,4.12,3.33c-0.27,2.84-2.68,2.54-4.67,2.43c-5.06-0.28-10.12-0.59-15.16-1.01
		c-15.98-1.34-31.81-4.31-47.91-4.33c-1.19,0-2.38-0.14-3.86-0.24c0,2.89,0,5.51,0,8.25c14.86,0.11,29.55,1.81,44.17,4.2
		c5.19,0.85,10.38,1.64,15.56,2.55c1.81,0.32,3.27,1.32,3.29,3.4c0.01,1.92-1.28,2.87-2.99,3.35c-1.89,0.53-3.8,0.39-5.69,0.09
		c-18.2-2.84-36.4-5.7-54.78-8.58c-0.12,3.29-0.93,6.71-0.49,10.42c1.25,0,2.38-0.02,3.51,0c12.62,0.27,24.75,3.49,36.96,6.22
		c6.05,1.36,11.99,3.24,18.17,4.06c1.44,0.19,2.99,0.81,2.88,2.63c-0.11,1.86-1.66,2.51-3.26,2.61c-1.61,0.1-3.28,0.11-4.85-0.22
		c-6.63-1.41-13.29-2.76-19.84-4.5c-11.08-2.94-22.36-4.76-33.92-6.74c0,1.75-0.03,3.36,0.01,4.97c0.04,1.59-0.29,3.2,0.21,4.74
		c19.18,1.02,37.99,3.65,56.7,7.01c2.05,0.37,2.5,1.45,1.95,3.25c-0.78,2.57-2.51,4.06-5.19,4.19c-1.51,0.07-3.07-0.02-4.56-0.31
		c-10.52-2.02-21.13-3.4-31.78-4.54c-5.86-0.63-11.64-1.79-17.8-3.25c0.38,3.99-0.62,7.61-0.53,11.17
		c12.87,0.37,25.37,0.7,37.87,1.11c2.67,0.09,5.34,0.45,7.92,1.23c1.27,0.39,2.68,0.84,2.77,2.51c0.09,1.56-0.75,2.76-1.97,3.62
		c-1.21,0.85-2.64,1.11-4.1,1.03c-4.96-0.25-9.99-0.13-14.87-0.9c-9.2-1.44-18.68-0.92-27.79-4.32c-0.58,4.52-1.03,8.68-1.72,12.79
		c-0.16,0.97-0.08,2.9-1.99,2.45c-1.61-0.38-1.02-1.81-0.79-2.89c1.95-8.91,2.57-18.01,2.73-27.04c0.41-23.32,1.07-46.63,2.77-69.89
		C485.59,553.69,485.29,538.89,485.85,523.87z M463.92,692.67c2.97-0.53,5.67-1.15,8.4-1.48c11.18-1.36,22.36-2.62,33.47-4.64
		c14.91-2.7,29.51-6.46,43.62-11.84c15.26-5.81,29.05-14.4,42.19-24.07c6.62-4.87,13.56-9.32,18.48-16.14
		c1.73-2.4,3.58-4.72,5.44-7.03c16.09-19.89,24.27-42.83,26.41-68.14c0.86-10.18-0.47-20.24-1.49-30.32
		c-1.4-13.82-5-26.57-14.79-37.31c-5.66-6.21-12.62-7.99-20.38-9.76c1.7,2.67,2.97,5.19,3.6,8.03c1.06,4.75,1.74,9.56,2.5,14.36
		c1.96,12.4,1.92,24.84-0.63,37.06c-5.42,25.99-17.18,48.46-38.27,65.38c-0.95,0.77-1.93,1.49-2.2,2.88
		c-1.32,6.78-3.84,13.19-5.88,19.76c-5.43,17.53-16.05,30.82-32.11,39.73c-5.46,3.03-11.16,5.83-17.41,6.29
		c-11.42,0.84-22.9,1.66-34.19-1.45c-1.19-0.33-2.25-0.2-3.53,0.31c-6.15,2.49-12.54,4.06-19.26,3.83
		c-1.58-0.05-3.17-0.16-4.96,0.61C456.51,683.73,460.95,687.73,463.92,692.67z M360.2,570.72c0.25-1.03,0.39-1.3,0.36-1.55
		c-1.04-10.56-1.61-21.15-1.35-31.77c0.02-0.93-0.45-1.62-0.94-2.34c-6.64-9.7-12.9-19.65-19.6-29.31
		c-10.81-15.59-23.1-29.97-35.59-44.18c-4.11-4.67-8.45-9.07-11.68-14.43c-0.34-0.57-0.76-1.11-1.24-1.56
		c-7.22-6.66-14.3-13.44-22.29-19.27c-10.18-7.42-19.93-15.44-29.72-23.39c-10.96-8.9-23.51-14.49-36.98-18.15
		c-5.25-1.43-9.91,2.42-10.21,7.84c-0.19,3.44-0.41,6.87-0.43,10.31c-0.11,16.16,1.61,32.27,1.22,48.43
		c-0.11,4.46-0.02,8.93-0.02,13.46c3.37-0.4,6.21-0.65,8.87-1.88c-0.11-5.67-2.44-11.19-0.87-17.24c0.45,0.55,0.73,0.74,0.78,0.97
		c1.6,7.56,3.5,15.06,4.37,22.75c1.08,9.59,1.92,19.2,3.12,28.77c1.42,11.37,3.75,22.61,5.61,33.91c1.69,10.25,3,20.57,4.45,30.68
		c2.43,0.83,4.58,1.62,6.77,2.3c6.46,2.01,11.47-2.4,10.47-9.03c-1.03-6.8-2.38-13.54-3.72-20.28c-2.27-11.42-4.42-22.86-6.73-34.27
		c-3.67-18.14-9.45-35.75-13.26-53.86c-0.64-3.07-1.59-6.12-1.14-9.36c5.92,9.77,5.84,21.32,9.61,31.74
		c3.84,10.6,6.69,21.54,9.07,32.99c2.05-1.86,4.04-2.52,6.12-2.88c2.01-0.35,4.04-0.55,6.19-0.83c-3.52-12.09-6.99-24-10.59-36.37
		c-0.54,1.9,0.96,3.23-0.02,4.66c-1.19,0.17-2.39,0.34-3.99,0.57c-2.93-22.77-12.2-43.95-15.65-66.41c1.3-0.68,2.15-0.49,2.44,0.51
		c0.58,1.96,2.24,2.45,3.79,3.18c3.18,1.49,6.56,2.49,9.3,4.94c5.63,5.02,11.28,10.02,16.91,15.05
		c9.63,8.59,19.49,16.93,28.11,26.56c5.8,6.48,12.36,12.24,17.83,19.03c6.54,8.1,12.94,16.32,19.65,24.28
		c7.5,8.92,15.21,17.74,21.14,27.77c5.3,8.96,10.46,17.99,16.24,26.66C351.1,556.47,355.42,563.33,360.2,570.72z M395.55,33.32
		c-0.12-1.75-0.21-3.02-0.33-4.87c-3.74,4.04-6.76,7.78-8.53,12.4c-2.08,5.42-2.71,11.1-3.11,16.85c-0.24,3.46-0.26,6.78,0.94,10.14
		c1.98,5.55,2.41,11.43,0.43,16.91c-2.09,5.79-1.47,11.62-1.87,17.45c-0.17,2.48-0.29,4.97-0.65,7.41
		c-0.95,6.34-1.86,12.64-0.53,19.07c1.42,6.85,1,13.6-1.1,20.37c-1.37,4.42-0.5,8.89,1.9,12.96c0.9,1.52,2.13,2.1,3.94,2.32
		c12.92,1.52,25.94,1.67,38.89,2.77c1.05,0.09,2.21,0.49,3.45-0.44c-2.44-1.65-3.1-4.12-2.78-6.46c0.99-7.28,2.15-14.54,1.76-21.91
		c-0.7-12.95,0.44-25.71,5.32-37.75c3.39-8.34,5.84-16.95,8.71-25.44c2.32-6.85,2.47-13.65-1.46-20.15
		c-4.69-7.76-8.99-15.77-14.33-23.13c-0.59-0.81-1.14-1.79-3.03-1.63c-1.17,28.47-7.72,56.11-14.32,83.76
		c2.03-22.92,9.25-45.1,10.45-68.34c-1.4,1.23-1.53,3.17-3.31,3.89c-3.24-2.57,1.37-4.44,0.52-6.88c-1.92-1.17-4.98-0.8-6.19-3.67
		c1.06-0.25,1.54,0.51,2.22,0.75c3.37,1.2,7.92-2.36,7-5.88c-0.6-2.29-0.6-4.52-0.74-6.78c-0.17-2.8-2.7-4.13-3.91-6.29
		c-0.39-0.69-1.85-1.02-2.91-0.57c-4.24,1.78-8.32,3.84-11.42,7.4c-0.78,0.89-1.47,1.77-1.29,3.04c0.52,3.88,0.76,7.8,2.01,11.55
		c0.35,1.05,1.29,1.97,0.57,3.57c-4.72-4.67-3.81-10.93-5.22-16.46C395.62,30.36,396.11,31.73,395.55,33.32z M328.65,41.04
		c-0.52,1.6-0.98,2.96-1.39,4.32c-3.02,9.89-4.32,19.78-0.13,29.73c4.98,11.81,6.33,24.32,6.83,36.97
		c0.31,7.96-0.46,15.9-1.49,23.73c-1.07,8.1,1.2,14.64,6.49,20.51c1.01,1.12,1.95,1.5,3.46,1.34c9.4-0.98,18.78-2.18,28.25-2.25
		c1.16-0.01,2.4-0.29,3.89,0.73c-8.31,3.31-16.95,2.87-25.69,5.16c9.61,2.61,18.81-0.35,27.77,1.04c0.24,0.99-1.31,0.87-0.85,2.03
		c1.28-0.5,2.78,0.33,4.2-0.84c-2.77-3.85-3.99-8.01-3.23-12.66c0.15-0.93,0.09-1.93-0.42-2.79c-1.5-2.59-1.62-5.46-1.74-8.33
		c-0.15-3.57,0.29-6.82-3.29-9.8c-4.1-3.41-5.1-9.03-5.77-14.33c-1.04-8.16-0.46-15.9,6.01-22.02c0.49-0.47,0.73-1.09,0.75-1.8
		c0.23-7,0.39-14-2.54-20.59c-4.33-9.72-9.73-18.83-15.87-27.51c-1.56-2.21-3.54-3.99-5.9-5.35c-0.84-0.48-1.57-0.71-2.32-0.01
		C340.68,42.87,334.83,42.26,328.65,41.04z M290.82,178c-2.36,2.26-2.89,2.19-4.31-0.47c-0.49-0.92-0.87-1.91-1.32-2.86
		c-6.21-13.19-12.99-26.02-23.84-36.12c-8.7-8.1-18.54-14.35-29.87-18.14c-1.44-0.48-2.53-0.28-3.64,0.79
		c-3.09,2.99-6.36,5.81-9.34,8.9c-2.87,2.97-5.47,6.19-8.22,9.33c1.3,0.97,2.37,0.66,3.4,0.63c4.01-0.12,8.03-0.2,12.04-0.39
		c15.72-0.77,27.3,6.79,36.51,18.59c7.18,9.2,13.36,19.04,17.89,29.9c1.06,2.55,0.6,4.01-1.07,5.66c-1.45,1.43-2.72,0.89-3.98-0.29
		c-0.15-0.14-0.56-0.25-0.68-0.16c-2.69,2-2.91-0.8-3.36-1.99c-3.51-9.19-9.05-17.04-15.93-23.91c-3.69-3.69-7.51-7.55-12.88-8.74
		c-4.66-1.03-9.41-1.51-14.22-1.47c-9.84,0.08-19.67,1.04-29.51,0.16c-1.49-0.13-2.25,0.48-2.98,1.65c-2.72,4.4-5.01,9.02-7.2,13.69
		c-0.66,1.41-1.79,2.67-1.83,4.58c2.62-0.12,5.08-0.24,7.55-0.36c12.8-0.63,25.61-0.16,38.41-0.32c6.66-0.09,13.09,0.68,18.38,5.67
		c4.48,4.24,8.18,9.05,11.9,13.91c3.96,5.18,5.96,10.8,5.58,17.36c0.2-0.38,0.47-0.76,0.63-1.19c5.11-13.82,14.63-23.92,27.25-30.93
		c10.98-6.1,23.01-9.69,35.37-11.95c4.02-0.74,8.12-1.08,12.64-1.66c-6.11-5.26-6.11-5.26-13.22-3.39c-0.37,0.1-0.74,0.21-1.11,0.3
		c-10.35,2.65-20.2,6.4-28.77,12.98c-0.52,0.4-1.06,0.94-1.79,0.52c-0.73-0.43-0.91-1.17-0.91-1.98c0-1.5,0.91-2.47,1.93-3.37
		c2.02-1.78,4.37-3.09,6.72-4.37c0.75-0.41,1.25-0.86,0.98-1.8c-0.2-0.71-0.44-1.17-1.37-1c-1.19,0.22-1.63-0.79-2.09-1.61
		c-1.31-2.33-2.73-4.61-3.85-7.03c-3.05-6.58-5.49-13.5-9.05-19.79c-5.35-9.46-11.55-18.44-17.19-27.73
		c-2.6-4.28-6.63-6.77-10.55-9.48c-1-0.69-1.79-0.23-2.66,0.15c-5.69,2.5-11.23,5.3-16.61,8.41c-0.63,0.36-1.45,0.57-1.65,1.64
		c5.85,0.85,11.19,2.91,16.12,6.24c5.74,3.88,10.22,8.99,14.07,14.55c9.49,13.7,17.44,28.26,23.09,44c0.75,2.1,0.59,3.87-1.58,5.14
		C292.19,181.7,291.86,179.46,290.82,178z M246.35,738.61c-0.43,0.98-0.17,1.73-0.04,2.47c1.51,9.03,3.6,17.93,5.83,26.79
		c1.24,4.9,5.17,7.43,9.48,8.6c6.66,1.81,15.64-2.75,19.11-8.81c0.62-1.08,0.61-1.89,0.03-2.89c-4.22-7.17-5.85-15.19-7.85-23.14
		c-1.54-6.08-0.33-12.38-2.13-18.4c-0.85-2.82-1.18-5.79-1.77-8.68c-3.91-19.3-6.75-38.85-14.32-57.24
		c-2.08-5.05-3.76-10.27-5.62-15.41c0.22-0.1,0.45-0.21,0.67-0.31c3.85,4.99,5.13,11.34,8.18,16.76c0.08-0.73-0.01-1.39-0.16-2.03
		c-1.6-6.58-3.3-13.15-4.79-19.75c-1.93-8.56-2.82-17.32-4.76-25.89c-0.55-2.44-1.64-3.24-4.02-3.34
		c-5.84-0.24-10.97,1.74-15.47,5.13c-3.82,2.88-6.12,6.66-4.77,11.95c0.85,3.31,0.97,6.8,1.49,10.2c0.5,3.3,0.99,6.62,1.67,9.89
		c0.67,3.24,0.77,6.61,2.12,9.98c3.35-15.53,12-17.3,18.57-15.64c-0.05,0.08-0.07,0.2-0.14,0.22c-0.34,0.14-0.69,0.32-1.05,0.36
		c-7.23,0.91-11.62,5.34-14.37,11.69c-1.01,2.34-2.8,4.72-2.17,7.28c1.29,5.28,1.56,10.74,3.16,15.96
		c1.36,4.44,2.44,8.98,3.65,13.47c0.15-0.04,0.3-0.08,0.45-0.12c-0.48-3.86-0.96-7.72-1.44-11.59c7.37,27.88,9.61,56.79,17.25,84.62
		C249.54,753.84,249.13,745.96,246.35,738.61z M257.36,234.1c-2.16-1.65-3.81-3.1-5.63-4.28c-4.09-2.65-6.84-1.96-9.23,2.23
		c-1.64,2.87-2.24,6.05-2.78,9.28c-1.74,10.53,0.98,20.79,2.24,31.08c1.1,9.02,2.17,17.99,2.41,27.08c0.04,1.61-1.46,2.75-0.76,4.53
		c1.06,2.68,1.17,5.59,1.37,8.45c0.16,2.38,0.5,4.76,0.62,7.14c0.38,7.88,9.21,9.6,14.13,7.1c2.97-1.51,5.13-3.92,7.11-6.54
		c1.76-2.33,2.07-5.69,5.15-7.12c0.45-0.21,0.72-1.14,0.79-1.77c0.54-4.47,0.97-8.97,0-13.41c-1.5-6.91-2.88-13.84-3.78-20.86
		c-1.57-12.33-2.35-24.73-3.49-37.1c-0.28-3.03,0.07-6.46-1.25-9c-3.34-6.44-7.59-12.37-13-17.35c-3.2-2.95-6.87-4.27-11.26-4
		c-1.96,0.12-3.15,0.79-4.1,2.46c-2.94,5.15-4.35,10.79-5.42,16.52c-0.95,5.05-2.45,10.11-1.1,15.31c3.59,13.86,6.07,28,10.09,41.75
		c0.79,2.7,0.96,5.58,2.46,8.08c-1.55-9.13-2.81-18.36-5.36-27.22c-3.33-11.6-2.84-22.8,0.86-34.06c1.6-4.87,6.05-7.8,10.97-7.25
		C252.67,225.62,256.8,229.5,257.36,234.1z M246.8,767.42c-0.32-2.29,0-4.86-0.49-7.44c-1.19-6.27-2.17-12.59-3.21-18.9
		c-1.16-7.02-0.43-14.33-3.26-21.11c-0.58-1.4-0.9-2.92-1.19-4.42c-3.53-17.91-8.09-35.54-14.54-52.65
		c-1.26-3.33-3.25-6.25-5.64-8.91c-1.3-1.45-2.38-1.31-3.88-0.31c-3.76,2.52-5.39,6.04-5.28,10.46c0.07,2.84-0.08,5.66,0.21,8.55
		c0.32,3.2-0.78,6.59-0.51,10c1.13,13.81,2.82,27.54,5.54,41.14c2.79,13.95,3.01,28.31,6.42,42.17c1.73,7.03,4.83,13.06,12.83,14.92
		c6.89,1.6,12.89-2.8,13-9.79C246.81,769.99,246.8,768.84,246.8,767.42z M263.71,652.02c0.58,9.61,0.91,19.25,3.28,28.66
		c5.53,22.01,11.57,43.9,14.78,66.45c0.98,6.85,3.74,13.28,9.09,18.1c1.97,1.78,3.63,4.1,7.21,3.14c6.68-1.78,9.73-5.45,8.98-12.36
		c-1.41-13.08-3.51-26-7.4-38.67c-6.23-20.27-10.36-41.07-14.67-61.82c-1.17-5.61-1.25-11.74-6.82-16.06
		c-4.97-3.85-8.58-2.1-11.41,0.78C263.33,643.72,263.68,647.83,263.71,652.02z M130.88,354.57c1.55-0.09,2.59-0.13,3.62-0.2
		c8.87-0.66,17.77-1.23,26.63-0.29c19.99,2.12,40.06,2,60.11,2.56c7.16,0.2,14.33,0.33,21.48,0.76c12.36,0.74,24.72,1.25,37.15,0.92
		c0.21-2.72-1.95-4.43-2.34-6.8c-0.54-3.29-1.36-6.54-1.85-9.84c-0.28-1.85-0.81-2.56-2.9-2.38c-3.71,0.31-7.33,1.28-11.09,1.29
		c-16.26,0.04-32.53-0.62-48.69-2.13c-23.16-2.16-46.33-3.16-69.56-3.55c-3.12-0.05-6.25-0.01-9.46-0.01
		C132.97,341.4,131.96,347.78,130.88,354.57z M196.52,631.75c0.73-0.61,0.42-1.21,0.36-1.73c-0.63-5.41-1.19-10.82-1.95-16.21
		c-1.55-10.98-1.77-22.08-2.99-33.1c-0.43-3.89-1.25-7.18-4.6-9.62c-1.34-0.98-2.31-2.54-3.23-3.98
		c-6.82-10.69-11.85-22.19-14.86-34.49c-2.27-9.27-3.9-18.66-2.41-28.32c0.99-6.45,2.65-12.81,2.85-19.39
		c0.03-0.8,0.22-1.45-0.49-2.03c-2.1-1.71-4.16-3.5-6.84-4.58c-0.38,1.49-0.69,2.79-1.03,4.07c-1.98,7.46-4.75,14.78-5.29,22.54
		c-1.57,22.86-0.66,45.66,3.61,68.19c3.72,19.59,12.44,36.79,26.78,50.93C189.51,627.04,192.89,629.58,196.52,631.75z
		 M289.96,393.58c-0.5-6.71-3.78-12.85-5.74-19.38c-0.37-1.23-1.47-1.25-2.36-0.86c-2.28,1-4.67,0.94-7.04,0.96
		c-7.93,0.06-15.86,0.03-23.8,0.1c-36.98,0.35-73.96,0.72-110.94,1.08c-4.08,0.04-8.15,0.01-12.43,0.01
		c-1.06,6.37-1.78,13.04-2.43,19.87c19.27-1.34,38.17-0.61,57.07-0.46c1.76,0.01,2.29-0.51,2.49-2.18c0.35-2.85,1.16-5.65,2.64-8.12
		c1.9-3.15,4.09-6.27,8.25-6.26c8.25,0,16.05,1.98,23.21,6.19c4.11,2.42,8.21,4.88,12.28,7.38c0.86,0.53,1.67,0.82,2.68,0.76
		c2.58-0.13,5.15-0.2,7.73-0.29C257.7,391.8,273.77,393.3,289.96,393.58z M371.06,585.77c6.52,9.4,11.98,19.15,16.95,29.13
		c9.92,19.92,20.25,39.6,32.27,58.35c0.87,1.36,2.35,2.13,3.04,3.47c2.31,4.46,4.17,9.18,6.71,13.5c1.99,3.36,4.33,6.53,6.02,10.07
		c0.75,1.58,1.81,1.97,3.43,1.71c2.92-0.46,5.88-0.68,8.78-1.22c3.84-0.71,7.83-0.65,11.94-1.89c-2.53-2.2-4.2-4.5-5.78-6.9
		c-12.56-19.07-24.38-38.6-36.4-58.01c-8.95-14.44-16.25-29.88-26.24-43.7c-0.59-0.82-0.82-2-2.18-1.98
		C383.39,588.39,377.32,587.33,371.06,585.77z M502.55,329.99c-1.1,5.74-2.2,11.49-3.37,17.64c3.14-0.24,5.69-0.53,8.24-0.6
		c6.4-0.17,12.65-1.93,19.11-1.68c2.92,0.11,4.82,0.94,4.83,4.7c30.4-2.1,60.69,1.35,91.15-1.56c0.76-5.82,1.55-11.8,2.4-18.3
		C583.94,330.22,543.46,328.34,502.55,329.99z M329.89,471c-0.59,2.6,0.19,4.52,1.16,6.35c6.05,11.35,13.81,21.52,21.83,31.51
		c0.71,0.89,1.93,1.9,1.87,2.78c-0.26,3.57,2.57,5.62,3.61,8.56c0.27-0.6,0.31-1.14,0.27-1.66c-0.57-7.14-1.13-14.28-1.74-21.42
		c-1.22-14.13-0.48-28.29-0.72-42.43c-0.12-7.23,0.2-14.47-0.42-21.7c-0.05-0.64,0.27-1.57-0.54-1.76
		c-3.72-0.87-3.96-3.88-4.11-6.71c-3.19-1.34-6.5-0.51-9.51-1.82c0.43-0.13,0.75-0.22,1.07-0.31c-0.78-0.22-1.52-0.07-2.24-0.14
		c-2.02-0.19-3.66,1.44-5.52,1.33c-4.09-0.24-8.18-0.7-12.14-1.94c-0.98-0.31-2.01-1.08-3.17-0.53c-0.07,1.16,0.8,1.61,1.32,2.24
		c1.77,2.13,3.7,4.14,4.92,6.67c0.5,1.04,1.06,2.24-0.15,3.11c-1.26,0.91-2.13-0.1-2.89-0.98c-0.81-0.94-1.55-1.94-2.84-3.56
		c1.77,4.41,3.4,7.95,4.64,11.63c2.52,7.48,3.06,15.35,3.87,23.13c0.35,3.3,1.56,5.96,3.54,8.55c3.05,3.97,6.46,7.71,8.39,12.51
		C336.98,480.03,333.55,475.66,329.89,471z M140.81,298.96c-1.63,7.08-3.24,14.09-4.83,21.04c34.54,2.29,68.73,0.33,103.32,2.38
		c-3.12-6.73-1.77-13.46-2.6-20.11C204.72,301.29,172.93,301.03,140.81,298.96z M414.04,518.83c4.77-1.66,8.78-4.01,12.21-7.53
		c10.6-10.85,17.98-23.62,23.06-37.83c0.37-1.03,0.54-1.71-0.5-2.42c-3.63-2.48-5.8-6.3-8.52-9.6c-5.15-6.23-6.85-13.51-3.84-20.91
		c1.85-4.55,1.29-7.63-1.86-10.81c-0.13-0.13-0.23-0.31-0.32-0.47c-0.8-1.51-1.95-1.86-3.58-1.35c-1.84,0.58-3.7,0.77-5.56-0.2
		c-1.97-1.03-4.24-0.75-6.12-0.18c-1.33,0.4-0.72,2.57-1,3.94c-0.31,1.49-0.44,3.02-0.58,4.54c-0.81,8.47-0.72,16.99-1.31,25.47
		C414.78,480.45,414.35,499.43,414.04,518.83z M201.94,474.46c-3,0.49-5.32,1.94-7.87,2.69c-1.83,0.54-2.24,1.51-2.27,3.28
		c-0.19,9.55,0.06,19.1,0.45,28.64c0.43,10.4,0.14,20.82,1.36,31.2c1.57,13.36,2.94,26.73,4.32,40.11
		c0.69,6.7,1.22,13.42,1.81,19.99c6.16-2.42,11.99-6.63,18.04-0.1c0.49-1.21,0.12-2.33,0.03-3.42c-0.5-6.28-1.32-12.54-1.55-18.82
		c-0.56-15.41-3.2-30.55-5.67-45.71c-2.38-14.6-5.6-29.05-7.12-43.8C203,483.89,203.01,479.19,201.94,474.46z M534.85,313.47
		c1.29,0.76,2.47,0.54,3.59,0.57c11.47,0.31,22.95-0.12,34.42-0.11c13.18,0.01,26.36,0.2,39.52,0.8c7.68,0.35,15.2-0.11,23.01-1.38
		c-1.68-7.23-2.45-14.5-4.39-21.56c-1.87,0.65-3.37,1.59-5.12,1.71c-5.43,0.37-10.87,0.97-16.3,1.04
		c-20.26,0.26-40.53-0.25-60.79,0.68c-3.31,0.15-6.42,0.68-9.5,1.74c-1.17,0.4-1.95,1-2.33,2.25
		C535.53,303.91,535.18,308.73,534.85,313.47z M125.62,437.94c-0.05,0.72-0.11,1.18-0.1,1.63c0.16,8.26,1.54,16.25,4.89,23.87
		c2.53,5.77,2.44,5.82,8.95,4.8c0.13-0.02,0.3,0.16,0.63,0.36c-0.96,0.83-1.87,1.62-2.94,2.55c1.28,0.31,1.85-0.31,2.36-0.8
		c3.94-3.79,8.63-4.13,13.63-3c2.23,0.5,4.41,1.25,6.66,1.63c3.29,0.56,6.37,1.67,8.82,3.86c6.18,5.56,12.18,11.33,16.39,18.64
		c0.29,0.5,0.26,1.42,1.02,1.26c0-11.79,0-23.5,0-35.37c-1.09-0.05-1.84-0.11-2.58-0.11c-16.25-0.07-32.5-0.13-48.75-0.21
		c-1.07-0.01-2.39,0.37-2.81-1.2c1.68-1.74,2.42-1.91,6.76-2.23c14.71-1.08,29.44-0.39,44.15-0.62c1.01-0.02,2.1,0.31,2.87-0.31
		c0-4.71,0-9.27,0-13.97C165.44,438.37,145.61,438.84,125.62,437.94z M149.75,264.16c-2.38,6.55-4.71,13.05-6.18,19.98
		c29.65,0.59,59.03,2.66,88.76,4.13c-2.32-5.73-4.7-11.08-5.53-16.87c-0.33-2.33-1.38-3.01-3.47-3.11
		c-14.97-0.75-29.92-1.67-44.89-2.28C169.01,265.62,159.53,266,149.75,264.16z M301.92,712.17c0.6-0.48,0.97-0.75,1.31-1.05
		c11.91-10.49,22.82-21.99,33.89-33.33c0.95-0.97,2.28-1.74,1.38-3.56c-0.4-0.82,0.37-2.13,1.19-1.74c2.17,1.03,2.63-0.73,3.51-1.76
		c2.28-2.7,4.42-5.51,6.75-8.17c1.04-1.19,1.15-2.09,0.4-3.53c-3-5.78-7.4-10.06-13.01-13.31c-2.21-1.28-3.62-1.23-5.39,0.71
		c-11.86,13.08-23.03,26.78-35.22,39.57c-0.68,0.71-1.2,1.36-0.95,2.5C297.47,696.38,299.52,704.18,301.92,712.17z M285.32,506.9
		c-1.5,7.81-4.11,14.79-5.21,22.2c-1.49,10.05-2.63,20.08-2.16,30.25c0.71,15.12-0.42,30.15-2.06,45.16
		c-0.14,1.25-0.01,2.44,0.33,3.67c2.49,9.02,4.95,18.04,7.34,27.09c1.57,5.97,3,11.97,4.49,17.96c1.15-6.59,0.97-13.13,0.71-19.67
		c-0.12,1.25-0.23,2.51-0.35,3.76c-1.07-2.73-2.16-5.38-2.03-8.31c0.37-8.6,0.55-17.2,1.15-25.78c0.93-13.15,2.56-26.27,3.14-39.44
		c0.95-21.68,1.21-43.39,1.95-65.09c0.12-3.56-1.47-6.15-3.46-8.95c-0.84,7.2-1.68,14.41-2.59,22.24
		C285.43,510.09,286.08,508.65,285.32,506.9z M261.18,209.38c-0.38-1.69-1.45-2.75-2.53-3.83c-6.43-6.41-14.02-10.1-23.22-10.19
		c-1.04-0.01-2.09-0.21-3.12-0.41c-16.76-3.27-33.66-4.81-50.74-4.08c-1.04,0.04-2.05-0.11-2.69,1.11
		c-3.74,7.09-6.56,14.58-9.99,21.94c0.62,0.14,0.89,0.26,1.15,0.24c17.47-1.06,34.94-1.78,52.31,1.18c1.39,0.24,2.11-0.18,2.56-1.51
		c1.19-3.54,3.89-5.53,7.2-6.9c1.94-0.8,4.03-1.2,5.83-2.35c3.26-2.09,6.77-2.22,10.48-1.43
		C253.21,204.16,257.42,206.24,261.18,209.38z M426.78,698.86c-1.91-3.29-3.96-6.2-5.36-9.39c-1.27-2.91-3.05-3.25-5.84-2.8
		c-12.93,2.11-25.89,1.2-38.86,0.22c-10.13-0.76-20.04-2.81-29.95-4.78c-4.75-0.94-8.01,0.11-10.97,3.93
		c-2.71,3.5-6.06,6.49-9.24,9.84C344.96,702.04,400.72,703.67,426.78,698.86z M522.68,104.52c-5.13-3.53-10.81-5.96-16.4-8.55
		c-0.6-0.28-1.04-0.11-1.56,0.26c-3.73,2.64-7.5,5.14-10.68,8.55c-10.27,11.02-17.22,23.94-22.5,37.9
		c-2.49,6.6-5.22,13.12-7.03,19.95c-0.32,1.2-1.19,2.65,0.34,3.64c3.98,2.58,8.01,5.07,12.14,7.67c0.38-1.66,0.63-3.15,1.05-4.59
		c4.56-15.57,11.67-30,19.78-43.99c5.34-9.22,12.93-15.67,22.85-19.45C521.35,105.67,522.12,105.51,522.68,104.52z M546.51,221.87
		c2.73,3.36,4.62,6.81,5.45,10.66c0.83,3.89,1.26,7.86,1.86,11.73c1.21,0.33,2.05-0.23,2.94-0.5c6.98-2.07,14.06-3.84,21.33-4.03
		c11.73-0.3,23.43,0.42,35.04,2.26c1.24,0.2,2.61,0.4,3.92-0.49c-2.18-6.24-4.91-12.12-7.56-18.03c-0.54-1.2-1.63-1.23-2.61-1.46
		c-6.91-1.6-13.94-2.5-21-2.53c-9.93-0.05-19.86,0.29-29.78,0.69C553.01,220.31,549.8,220.24,546.51,221.87z M155.58,248.44
		c23.01,1.19,45.3,4.32,67.92,5.02c0.49-7.4,0.23-14.75-1.88-22.09c-3.47,0.22-6.88,0.55-10.29,0.65
		c-15.58,0.43-31.11-0.56-46.62-1.87c-0.87-0.07-1.95-0.67-2.45,0.66C160.1,236.5,157.94,242.19,155.58,248.44z M331.68,159.46
		c-1.86-1.03-2.28-2.76-3.83-3.29c-1.76-0.6-2.33-1.89-2.74-3.63c-2.45-10.47-3.65-21.21-6.59-31.57
		c-2.84-10.03-5.9-19.98-13.71-27.56c-0.94-0.91-1.67-2.11-2.29-3.28c-1.34-2.55-3.93-2.91-6.03-2.5
		c-5.39,1.04-10.5,3.13-15.82,5.26c9.05,6.38,14.82,14.85,18.65,24.74c4.48,11.56,8.31,23.37,13.78,34.53
		c0.25,0.51,0.54,1.09,0.51,1.62c-0.18,3.75,2.34,6.44,3.39,9.73C321.91,162.16,326.48,160.9,331.68,159.46z M413.89,676.16
		c-4.97-8.1-8.62-16.38-13.04-24.27c-0.36-0.64-0.92-0.9-1.67-0.88c-9.14,0.26-18.04-1.73-27.01-3.03
		c-1.22-0.18-1.88,0.23-2.65,1.12c-6.66,7.64-13.39,15.21-20.08,22.82c-0.47,0.53-1.3,0.88-1.08,1.84
		C370.02,674.64,391.62,676.22,413.89,676.16z M601.2,203.45c-2.39-6.37-5.33-11.94-8.35-17.47c-0.48-0.89-1.09-1.13-2.07-1.11
		c-11.36,0.27-22.7,0.08-34.07,1.07c-16.7,1.46-28.86,10.41-40.24,22.5c6.41-2.1,11.55,0.28,16.69,2.6
		c0.35,0.16,0.74,0.24,1.06,0.43c0.74,0.44,1.34,0.4,2.06-0.17c9.97-7.9,21.58-9.99,33.94-9.87
		C580.46,201.52,590.63,202.12,601.2,203.45z M622.27,258.39c-23.28,0.92-46.23,0.43-69.37,2.45c-0.77,6.16-2.58,12.12-4.88,18.36
		c26.32-4.27,52.42-3.5,78.74-5.01C625.31,269.07,623.81,263.79,622.27,258.39z M572.65,593.11c5.81-4.92,10.3-10.83,13.17-17.6
		c4.7-11.05,9.15-22.24,12.14-33.91c3.89-15.17,3.76-30.64,3.31-46.13c-0.07-2.5,0.11-5.07-0.99-7.73c-0.46,0.53-0.8,0.84-1.05,1.21
		c-3.87,5.86-7.21,12.04-8.78,18.87c-4.69,20.47-10.27,40.73-15.03,61.18C573.59,576.91,572.96,584.96,572.65,593.11z
		 M504.88,208.37c0.7-0.79,1.17-1.25,1.56-1.78c8.68-11.86,18.6-22.57,30.12-31.7c6.39-5.06,13.7-8.29,21.98-8.95
		c7.51-0.59,15-1.5,23.51-0.32c-5.11-6.41-9.66-12.14-14.22-17.86c-0.7-0.88-1.48-0.46-2.32-0.2c-5.65,1.76-11.32,3.47-16.98,5.21
		c-6.56,2.01-13.52,3.31-18.58,8.45c-11.49,11.67-20.52,25.1-27.78,39.74c-0.41,0.83-0.23,1.66,0.2,2.47
		C503.16,204.95,503.91,206.47,504.88,208.37z M560.89,364.23c9.7,3.48,17.63,9.8,25.91,15.55c1.83,1.27,4,2.02,6.42,1.99
		c16.52-0.18,33.05-0.92,49.57-0.1c0.69,0.03,1.58,0.29,1.94-0.75c-0.4-5.33-0.52-10.71-2.93-16.01c-3.01-0.72-6.52-1.36-10.03-1.18
		c-12.21,0.61-24.41,1.18-36.65,0.89c-5.15-0.12-10.31-0.01-15.47,0.31c-1.4,0.09-2.22,1.84-3.53,1.07
		C571.33,363.18,566.04,364.76,560.89,364.23z M485.43,243.73c-7.95-7.62-15.08-16-23.06-23.56c-4.76-4.51-10.21-6.52-16.56-6.57
		c-11.45-0.09-21.93,3.74-32.23,8.19c-0.22,0.1-0.36,0.4-0.54,0.62c0.4,0.88,0.53,1.91,1.58,2.02c1.05-0.18,0.3-1.02,0.84-1.51
		c0.41,0.5,0.83,1.13,1.59,0.89c7.55-2.34,15.49-2.07,23.17-3.57c5.05-0.98,9.86-1.3,14.66,1.55c8.87,5.28,16.71,11.74,23.79,19.2
		c0.74,0.78,1.62,1.56,1.59,2.94c-1.49-0.53-2.41-1.53-3.4-2.41c-5.94-5.29-12.5-9.71-19.09-14.14c-6.37-4.29-12.92-6.03-20.51-4.55
		c-7.09,1.39-14.32,2.02-21.09,4.17c-0.51,0.96,0.69,1.51,0.15,2.28c-1.04-0.16-1.21-2.61-3-0.97c0.94,1.58,1.88,3.17,2.78,4.7
		c-0.76,0.76-1.16-0.76-1.89,0.13c1.5,1.49,0.84,3.16,0.36,4.86c-1.17-0.95-1.56-2.57-3.47-3.63c1.03,2.59,2.27,4.25,3.98,6.02
		c2.45-3.51,6.36-2.86,9.66-3.97c14.66-4.94,28.34-3.52,40.55,6.23c5.94,4.74,13.45,6.61,19.19,11.67
		C485.58,250.82,482.82,247.25,485.43,243.73z M447.95,163.29c0.36-3.23,0.45-6.31,1.09-9.27c3.11-14.32,7.48-28.32,14.54-41.14
		c4.99-9.08,9.17-19.22,19.99-24.37c-4.24-0.88-7.98-1.57-11.66-2.44c-8.76-2.08-8.62-2.03-13.6,5.51
		c-7.57,11.47-12.32,24.05-15.58,37.32c-2.59,10.52-3.8,21.17-3.85,32.06C441.95,161.74,444.86,162.49,447.95,163.29z M363.1,564.32
		c0.12,1.95,0.5,4.34,0.34,6.7c-0.27,4.01,2.04,5.99,5.12,7.8c6.46,3.82,13.5,4.2,20.72,4.18c4-0.01,7.54-1.66,10.6-3.58
		c5.62-3.53,5.98-16.32,1.09-20.33c-2.28-1.87-4.45-3.95-7.12-5.25c-8.91-4.35-17.76-3.09-26.54,0.52c-3.26,1.34-5.05,3.5-4.24,7.25
		C363.23,562.33,363.1,563.12,363.1,564.32z M263.54,577.69c0-0.56,0.04-0.75-0.01-0.91c-5.65-20.01-11.32-40.02-16.97-60.03
		c-0.86-3.06-3.46-4.05-6.04-4.53c-2.42-0.45-4.05,1.36-5.2,3.35c-2.47,4.3-2.26,8.68-1.07,13.45c2.93,11.84,6.36,23.57,8.12,35.68
		c0.81,5.57,1.63,11.13,2.57,16.68c0.22,1.33,0.05,3.16,1.96,3.4C251.67,580.44,255.11,573.67,263.54,577.69z M492.28,442.56
		c10.7,0.82,20.78,1.6,30.87,2.35c9.24,0.69,18.51,1.14,27.73,2.06c8.01,0.8,14.64-5.42,13.89-13.6c-0.44-0.11-0.89-0.28-1.36-0.32
		c-20.96-1.65-41.93-3.28-62.89-4.96c-1.39-0.11-2.02,0.5-2.77,1.49C494.91,433.36,494.84,438.21,492.28,442.56z M497.57,196.71
		c0.51-0.65,0.45-1.16,0.13-1.52c-2.92-3.34-1.9-7.03-0.73-10.56c6.19-18.73,17.4-33.62,34.43-43.77
		c6.16-3.67,12.01-8.06,19.65-9.64c-4.32-4.74-8.2-9.27-12.4-13.11c-10.41,4.21-17.48,11.86-24.22,20.05
		c-10.35,12.59-17.52,27.03-24.68,41.49c-0.45,0.9-1.05,1.82-0.87,3.02c1.77,1.1,3.55,2.18,5.31,3.31c0.59,0.38,1.01,0.95,0.81,1.69
		c-0.22,0.82-0.94,0.8-1.63,0.81c-0.52,0.01-1.11-0.4-1.71,0.38C493.6,191.43,495.56,194.04,497.57,196.71z M185.25,425.18
		c0.27-5.25-0.28-10.36-0.59-15.48c-0.08-1.37-1.02-1.41-2.03-1.39c-2.48,0.04-4.97-0.04-7.45,0.12
		c-6.95,0.45-13.92,1.54-20.85,1.34c-7.23-0.2-14.51-0.27-21.72-1.34c-2.61-0.39-5.32-0.42-8.07,0.69c-0.37,5.35-0.5,10.73,0,16.1
		C144.83,423.2,164.84,424.57,185.25,425.18z M334.14,415.59c-3.57-2.71-6.31-5.11-6.1-9.29c0.05-0.96,0.08-1.92,0.95-2.59
		c3.38-2.61,6.61-5.56,11.3-4.71c-18.61-9.84-34.67-22.54-47.75-38.71c0.87,4.52,3.09,9.24,2.04,14.45
		c-1.39-0.62-1.27-2.31-2.29-3.1c-2.01,3.46-0.5,6.5,1.49,9.11c4.5,5.9,9.48,11.42,13.28,17.84c1.3,2.2,2.7,4.43,4.99,5.76
		c2.03,1.18,3.53,2.83,5.04,4.58c3.85,4.46,8.76,7.41,14.34,9.9c-0.3-1.38-1.61-1.64-1.57-2.78
		C330.97,415.43,332.21,415.63,334.14,415.59z M226.15,652.03c-3.09-14.8-4.73-29.12-6.88-43.36c-0.84-5.55-6.38-8.79-11.61-6.76
		c-1.51,0.58-2.85,1.69-4.39,2.05c-2.62,0.61-2.95,2.25-2.73,4.48c0.47,4.66,0.8,9.33,1.29,13.98c0.32,2.98-0.27,6.28,2.77,8.4
		c0.33,0.23,0.48,0.84,0.56,1.3c0.52,3,1.33,5.93,1.25,9.04c-0.08,3.13,0.01,6.29,0.61,9.72
		C213.8,643.53,218.03,643.78,226.15,652.03z M274.56,623.43c0.09,0.23,0.17,0.45,0.26,0.68c-0.68,0.43-1.36,0.85-1.66,1.04
		c-0.52,2.35,2.08,1.23,2.48,2.71c-5.45,0.66-11.73,5.96-11.21,9.34c7.88-4.83,8.07-4.82,15.92,0.57c0.37-0.54,0.17-1.11,0.03-1.64
		c-4.02-14.63-8.05-29.25-12.09-43.88c-0.23-0.83-0.52-1.62-1.55-1.85c-6.05-1.37-15.79,2.56-15.53,10.68
		c0.1,3.15,0.92,6.14,1.3,9.21c0.77,6.42,2.64,12.69,2.9,19.22c0.06,1.52,0.41,3.11,1.37,4.6c0.44-4.6,1.01-5.88,3.76-7.35
		C264.92,624.42,269.76,623.98,274.56,623.43z M651.24,448.62c-0.08-1.27-0.17-2.62-0.26-3.93c-1.02,0.13-0.43,1.23-1.32,1.24
		c-0.58-1.97-1.16-3.95-1.8-6.15c-2.01,1.05-3.78,0.07-5.61-0.08c-10.37-0.83-20.74-1.66-31.11-2.56c-1.44-0.12-2.13,0.23-2.32,1.7
		c-0.55,4.38-2.13,8.49-3.41,12.68c-0.28,0.93-1.02,1.87-0.42,3.01c14.78-0.12,29.46,1.7,44.32,2.23c0.65-2.89,0.08-5.74,0.36-8.4
		C650.43,448.17,650.52,449.14,651.24,448.62z M565.89,420.06c-0.25-2.62,0.65-4.96-1.28-6.63c-2.42-2.09-4.32-4.57-5.98-7.26
		c-0.84-1.35-1.87-1.96-3.5-1.95c-10.88,0.12-21.73-0.87-32.6-1.27c-1.92-0.07-3.03,0.38-3.85,2.08c-0.57,1.17-1.05,2.88-2.45,2.97
		c-4.86,0.29-6.06,4.55-8.67,7.66C526.97,417.34,546.33,418.11,565.89,420.06z M340.06,552.34c-5.05-8.21-9.73-15.84-14.42-23.47
		c-0.46-0.75-1.05-1.33-1.87-1.71c-7.28-3.36-13.56-8.12-19.18-13.81c-1.31-1.32-2.68-2.58-4.31-4.14
		c-0.15,0.89-0.26,1.23-0.26,1.58c0.01,6.97,0.27,13.94-0.33,20.9c-0.1,1.17,0.51,1.72,1.34,2.28c3.4,2.3,6.74,4.68,10.17,6.93
		C319.84,546.55,329.33,550.08,340.06,552.34z M608.68,419.81c13.37-1.63,26.52-0.19,39.95,1.32c-0.7-6.25-1.35-12.07-2.01-17.98
		c-14.49-0.13-28.61,0.21-43.28-0.77C605.99,408.05,607.03,413.76,608.68,419.81z M447.08,444.55c-0.36,2.82,1.17,5.64,3.46,8.28
		c2.4,2.76,5.23,5,8.18,7.06c3.5,2.44,9.25,1.7,12.51-0.84c2.98-2.32,3.81-4.69,2.77-8.45c-2.01-7.33-5.15-13.47-12.57-16.63
		C454.08,430.82,446.66,435.81,447.08,444.55z M299.52,554.64c-0.52,3.04,0.04,5.61-0.12,8.16c-0.18,3.01,1.07,4.52,3.93,5.6
		c12.23,4.65,24.99,7.02,37.83,8.99c5.02,0.77,10.13,0.91,15.66,1.37c-2.51-3.86-4.8-7.14-6.8-10.58c-0.99-1.7-2.06-2.1-3.93-1.88
		c-7.19,0.84-14.32,0.16-21.35-1.36C315.91,563.01,307.59,559.73,299.52,554.64z M198.78,651.93c-0.3-3.6-0.63-7.09-0.86-10.59
		c-0.07-1.11-0.9-1.31-1.58-1.8c-4.52-3.2-9.42-5.97-13.21-10.06c-9.61-10.38-19-20.77-23.48-34.83
		c-4.55-14.26-8.51-28.5-9.43-43.52c-0.7-11.4-1.55-22.8-2.1-34.22c-0.27,6.59-0.26,13.18-0.28,19.77c0,0.83,0.4,2.04-0.4,2.42
		c-2.07,0.98-1.43,2.7-1.39,4.2c0.19,8.45,1.96,16.69,3.39,24.97c1.26,7.28,2.91,14.49,3.79,21.84c0.59,4.87,3.96,8.55,5.81,12.89
		c6.36,14.88,18.01,25.99,27.6,38.55c2.01,2.64,4.61,4.84,7.05,7.13C195.13,650.03,196.7,651.3,198.78,651.93z M359.52,257.61
		c-0.3-1.66-0.97-2.55-2.09-3.25c-1.29-0.8-2.59-1.64-3.73-2.63c-5.47-4.78-12.05-6.91-19.06-7.81c-3.03-0.39-6.19-0.07-8.79,1.82
		c-3.88,2.82-7.68,5.72-12,7.87c-0.65,0.32-1.32,1.04-1.22,2.3c3.33,0.91,5.62,4.11,9.12,4.7c9.45,1.59,18.93,3.03,28.04-1.69
		C352.77,257.37,355.85,256.06,359.52,257.61z M455.31,253.07c1.18-0.55,2.37,0.8,3.57-0.11c-2.94-4.01-6.01-7.39-11.28-8.57
		c-9.87-2.21-19-0.11-27.79,4.03c-2.69,1.27-5.45,3.1-6.58,5.78c15.41,5.87,30.82,9.39,46.28,0.92
		C458.52,253.87,456.52,254.3,455.31,253.07z M417.42,616.49c2.59,4.13,4.9,7.81,7.19,11.51c0.7,1.14,1.78,0.95,2.81,0.84
		c12.11-1.37,23.75-4.55,35.03-9.12c0.82-0.33,1.61-0.65,1.61-1.74c0-3.28,0-6.56,0-9.99C448.63,612.27,433.66,616.71,417.42,616.49
		z M364.12,590.07c-0.08-0.29-0.09-0.59-0.23-0.81c-1.42-2.26-2.92-4.48-4.28-6.78c-0.75-1.27-1.57-1.49-3.04-1.24
		c-2.34,0.39-4.77,0.55-7.14,0.41c-16.68-1.01-32.98-3.71-48.17-11.19c-0.32-0.16-0.67-0.36-1.13,0.12c0.12,1.3,0.46,2.74,0.32,4.13
		c-0.24,2.55,0.97,3.69,3.21,4.56c10.06,3.93,20.25,7.23,31.03,8.78c8.69,1.25,17.54,0.78,26.14,2.73
		C361.9,591.01,363.12,590.87,364.12,590.07z M464.68,576.19c-0.42,0-0.64-0.07-0.78,0.01c-10.87,5.85-22.26,9.98-34.72,10.61
		c-0.61,0.03-1.32,0.39-1.78,0.82c-4.41,4.04-8.38,8.48-12.01,13.32c1.09,0.59,1.93,0.2,2.72,0.03c7.36-1.6,14.76-2.98,21.91-5.46
		c7.47-2.6,15.19-4.5,22.35-7.97c1.12-0.54,2.33-0.96,2.32-2.55C464.67,582.07,464.68,579.14,464.68,576.19z M291.46,413.63
		c1.06-1.16,3.15-0.61,2.2-2.31c-0.84-1.49-1.65-3.06-4.03-3.03c-9.84,0.11-19.69,0-29.54-0.03c-1.47,0-2.83,0.07-3.54,1.77
		c-0.71,1.7,0.42,2.58,1.42,3.37c3.95,3.16,7.96,6.25,11.99,9.31c1.17,0.89,2.63,0.67,3.88,0.37c4.34-1.03,8.74-0.85,13.06-0.46
		c6.83,0.62,6.8,0.87,6.85-6.09C293.75,415.12,294.06,413.57,291.46,413.63z M494.7,506.52c1.15-0.1,1.67-1,2.38-1.58
		c3.48-2.83,7-5.61,10.81-7.99c3.68-2.29,4.01-3.2,2.37-7.3c-0.46-1.14-1.07-2.23-1.69-3.3c-0.31-0.52-0.62-1.39-1.47-0.98
		c-1.45,0.71-1.82-0.52-2.46-1.25c-2.21-2.51-4.4-5.04-7.45-6.6c-0.94-0.48-1.84-1.01-2.91-0.24c-4.73,3.39-8.99,7.3-13.34,11.48
		C489.32,491.99,493.31,498.28,494.7,506.52z M301.32,584.74c-0.22,3.55,0.83,6.16,3.91,7.79c1.85,0.98,3.53,2.36,5.46,3.13
		c15.33,6.1,31.17,7.65,47.54,5.83c4.46-0.49,7.03-2.7,9.42-5.76c-0.57-2.47-2.04-2.84-4.07-1.97c-5.15,2.21-10.57,2.36-16.04,2.1
		c-7.09-0.33-14.03-1.59-20.92-3.21C318.05,590.64,309.93,587.2,301.32,584.74z M350.31,626.24c7.49,3.7,14.11,8.45,16.86,17.28
		c4.63-5.73,9.21-10.84,14.08-15.66c-5.26-7.42-8.33-10.17-13.47-12.13c-6.02-2.29-6.16-2.24-10.16,2.67
		c-0.97,1.18-2.04,2.28-3,3.47C353.35,623.42,351.03,623.87,350.31,626.24z M345.33,617.6c-15.14-0.06-28.81-4.77-43.06-7.45
		c1.04,4.76,0.88,9.25,1.31,14.02c10.71,1.71,21.42,3.31,32.34,2.57c0.8-0.05,1.45-0.37,1.99-0.98
		C340.2,623.23,342.51,620.71,345.33,617.6z M467.84,472.74c-0.18-0.08-0.37-0.16-0.55-0.25c-0.6,1.15-1.21,2.29-1.8,3.44
		c-0.3,0.6-0.6,1.56-1.21,1.46c-2.73-0.43-2.62,1.83-3.35,3.29c-0.9,1.79-1.62,3.69-2.69,5.37c-10.84,16.82-24.58,30.38-43.35,38.22
		c-0.78,0.33-1.7,0.6-1.7,1.69c-0.02,2.91-0.01,5.81-0.01,9.09c4.23-1.43,7.14-4.12,10.48-6.07c11.45-6.7,20.13-16.45,28.18-26.6
		c5.13-6.48,9.35-13.72,14.89-19.95c0.74-0.83,1.14-1.72,1.13-2.83C467.82,477.31,467.84,475.02,467.84,472.74z M353.37,658.49
		c3.68-3.85,6.92-7.34,10.29-10.7c1.36-1.35,1.59-2.53,0.79-4.29c-3.22-7.11-9.31-10.84-15.98-13.94c-0.84-0.39-1.49-0.09-2.02,0.54
		c-3.41,4.06-6.22,8.59-10.51,12.54C344.42,645.3,350.05,650.38,353.37,658.49z M220.1,593.05c2.75-3.82,5.41-7.01,9.67-8.42
		c4.14-1.37,8.3-1.87,12.57,0.08c0.58-7.91-4.73-14.06-5.4-21.69c-5.91,8.09-12.24,4.62-18.83,1.09
		C218.8,574.07,219.45,583.56,220.1,593.05z M543.2,450.74c-0.49-0.53-1.3-0.41-2.04-0.48c-16.25-1.54-32.5-3.14-48.79-4.14
		c-0.74-0.05-1.69-0.47-2.2,0.18c-2.06,2.64-4.69,4.94-5.68,8.51C504.49,456.68,524.23,458.89,543.2,450.74z M241.25,487.36
		c12.58-1.2,24.97-0.96,37.45-1.12c0.35-3.38,0.91-6.44,0.52-9.77c-13.8,0.31-27.29,0.62-41.14,0.93
		C239.22,480.97,240.2,484.04,241.25,487.36z M457.71,514.13c7.46,3.4,11.96,8.83,13.57,17c3.7-5.33,8.47-8.81,11.9-13.43
		c-0.5-1.16-0.94-2.21-1.41-3.24c-2.23-4.83-4.88-9.32-9.74-12.01c-0.81-0.45-1.64-1.34-2.56-0.41
		C465.6,505.95,461.79,509.92,457.71,514.13z M473.44,412.22c-2.37,3.58-5.59,6.52-7.14,10.89c10.52,1.53,15.97,8.12,18.04,18.41
		c2.87-4.31,5.4-8.12,7.96-11.9c0.4-0.6,0.43-1.19,0.47-1.88c0.24-3.66-1.66-6.14-4.39-8.18
		C483.9,416.22,478.66,414.42,473.44,412.22z M551.83,483.03c5.56-0.31,10.66-1.37,15.72-2.67c0.69-0.18,1.35-0.45,1.41-1.51
		c0.3-6.16-0.21-12.17-2.77-17.89c-0.61-1.35-1.26-1.84-2.81-1.51c-2.97,0.63-5.95,1.18-9.06,0.64c-2.43-0.41-3.36,0.78-2.77,3.22
		C553.08,469.72,553.16,476.14,551.83,483.03z M429.38,545.3c5.91,3.06,11.81,5.34,14.65,11.81c3.41-4.03,6.7-7.47,8.84-11.79
		c0.89-1.81,1.39-3.83,0.15-5.45c-2.89-3.76-6.08-7.27-10.25-9.83C437.66,534.5,434.6,540.51,429.38,545.3z M406.41,577.88
		c2.09,0.95,4.04,1.88,5.79,3.25c1.73,1.36,2.79,3.24,4.13,5.18c3.23-3.06,5.18-6.79,8.41-9.33c0.14-0.11,0.21-0.31,0.29-0.48
		c2.29-5.05-0.62-14.22-5.42-17.05c-0.72-0.42-1.57-1.17-2.35-0.46c-2.31,2.1-5.27,3.58-6.73,6.5
		C408.62,569.32,407.04,573.3,406.41,577.88z M512.58,468.25c7.95,5.22,10.37,12.49,9.48,21.11c1.94,0.05,3.32-1.12,4.91-1.22
		c5.05-0.33,7.15-3.12,7.48-7.99c0.35-5.1,0.53-10.15-0.44-15.48c-0.89,1.4-2.1,1.02-3.15,1c-0.19,0.95,1.39,1.33,0.51,2.36
		c-1.25-0.44-1.86-1.59-2.74-2.42c-0.79-0.75-1.55-1.37-2.77-1.02C521.67,465.77,517.47,466.91,512.58,468.25z M503.11,411.64
		c2.7-3.74,5.4-7.03,8.47-9.99c0.49-0.47,0.88-0.9,0.59-1.72c-1.1-3.13-2-6.25-4.51-8.75c-3.22-3.2-7.46-4.01-11.43-5.78
		c-3.28,3.48-6.51,6.92-10.07,10.7C495.35,397.7,499.61,404.13,503.11,411.64z M493.33,92.28c-1.17-1.19-2.4-0.86-3.74-0.11
		c-4.55,2.54-8.55,5.71-11.96,9.69c-8.68,10.16-14.52,21.66-17.25,34.8c-1.81,8.68-3.8,17.32-5.46,26.24
		c1.83,0.25,3.39,0.46,5.03,0.68c1.13-3.17,0.88-6.39,1.52-9.45c0.23-1.1,0.85-2.23,0.18-3.34c-1.19-1.95-0.73-3.89-0.01-5.79
		c1.71-4.54,3.05-9.2,4.52-13.81c4.8-15.08,13.17-27.92,26-37.55C492.59,93.32,493.21,93.12,493.33,92.28z M509.33,374.12
		c8.31,3.9,11.54,11,13.31,19.31c2.27-1.13,4.38-2.19,6.48-3.24c0.56-0.28,0.78-0.75,0.9-1.35c1.49-7.13,1.09-13.95-2.7-20.45
		c-1.24-2.12-2.65-2.23-4.44-1.47C518.27,368.9,513.87,371.3,509.33,374.12z M433.82,645.38c0.91,2.59,2.64,4.58,3.66,6.9
		c0.87,1.96,2.25,2.19,4.14,2.11c6.94-0.31,13.46-2.45,20.02-4.44c0.64-0.19,1.41-0.24,1.47-1.09c0.25-4.18,0.46-8.36,0.7-12.92
		C454.02,641.21,444.28,644.18,433.82,645.38z M278.08,490.64c-12.05-0.17-23.86,0.41-36.03-0.43c1.19,3.81,2.3,7.38,3.34,10.71
		c10.91-2.16,21.65-1.59,32.26-2.6C277.98,495.69,278.37,493.35,278.08,490.64z M258.34,447.39c0.26-0.37,0.51-0.75,0.77-1.12
		c-3.44-3.15-6.87-6.3-10.3-9.46c-0.51-0.47-1.07-0.79-1.79-0.79c-6.67,0-13.34,0-20.02,0c-0.19,4.07,1.1,7.9,2.7,11.83
		C239.29,446.73,248.82,447.5,258.34,447.39z M627.2,330.71c-0.81,6.23-2.5,12.04-3.76,18.66c6.41-1.57,12.32-1.08,18.57,0.44
		c-0.03-6.81-1.68-12.93-2.85-19.11C635.07,330.71,631.27,330.71,627.2,330.71z M460.1,83.45c-2.44-1.11-5.05-1.2-7.51-1.82
		c-0.82-0.2-1.28,0.22-1.51,0.94c-2.38,7.38-6.59,13.95-9.21,21.26c-4.89,13.64-8.46,27.38-6.07,41.76
		C438.86,123.18,444.09,101.27,460.1,83.45z M268.41,457.27c-2.1-2.24-3.9-4.16-5.69-6.07c-0.52-0.55-1.19-0.49-1.86-0.49
		c-7.53-0.01-15.06-0.09-22.59,0c-2.51,0.03-5.04,0.33-7.68,1.07c0.94,3.08,1.82,5.94,2.72,8.89
		C244.78,457.42,256.43,459.19,268.41,457.27z M587.59,469.4c4.98-4.72,9.5-9.1,11.38-15.22c-3.94-4.11-7.53-8.3-13.56-8.97
		c-2.01,3.59-5.21,6.14-8.47,8.62C581.79,458,587.33,461.58,587.59,469.4z M569.57,395.75c1.79-6.59,3.47-12.72,9.56-16.51
		c-4.08-2.54-7.48-5.64-11.58-7.2c-6.17,4.66-9.22,10.55-8.52,18.27C562.61,391.48,566.18,392.79,569.57,395.75z M582.02,381.42
		c-4.33,4.94-7,10.61-9.93,16.07c2.37,2.75,4.7,5.47,7.19,8.36c2.98-6.02,8.48-8.45,14.3-10.8
		C590.63,389.5,586.61,385.2,582.02,381.42z M249.99,516.79c0.86,4.05,1.69,7.63,3.01,11.15c4.81-1.79,9.66-1.57,14.49-1.34
		c2.49,0.11,4.96-0.03,7.43-0.2c1.12-0.07,2.15-0.65,1.67-1.72c-1.33-2.95-0.29-5.95-0.34-9.34
		C267.55,516.63,259.01,516.91,249.99,516.79z M463.62,666.59c-3.58-4.92,0.38-9.72-1.01-14.56c-6.83,3.25-13.9,5.28-21.65,5.88
		c2.07,4.12,3.96,7.86,5.81,11.61c0.48,0.97,1.27,1.14,2.15,0.92C453.69,669.22,458.43,667.95,463.62,666.59z M476.23,177.76
		c0.36-0.86,0.14-1.37-0.25-1.58c-5.23-2.85-8.86-8.67-15.96-8.11c-3.21,0.25-6.32-2.18-9.76-0.89c-0.31,0.12-1.09-0.21-1.23-0.52
		c-1.13-2.57-3.67-2.5-5.78-3.03c-5.61-1.41-6.69-0.77-8.78,4.78C448.3,171.83,462.02,175.76,476.23,177.76z M277.12,502.78
		c-10.49,0.65-20.66,0.96-31.09,0.41c0.98,3.32,1.89,6.37,2.77,9.38c9.29-2.71,18.54-0.98,27.66-1.84
		C277.19,508.26,277.06,505.78,277.12,502.78z M472.16,476.78c2.44-1.95,4.25-3.31,5.96-4.78c1.59-1.37,4.28-1.81,3.89-4.92
		c-0.12-0.93,1.28-0.81,2.11-0.97c2.33-0.45,4.74,0.56,7.05-0.61c2.82-1.44,5.89-2.16,8.99-2.81c1.42-0.3,3.1-0.37,4.35-1.81
		c-7.81-0.91-15.27-2.1-22.78-2.53c-3.85-0.22-6.3,3.53-9.49,5.3c-0.18,0.1-0.09,0.72-0.09,1.1
		C472.16,468.46,472.16,472.18,472.16,476.78z M542.71,386.82c0.36-1.4,0.82-2.76,1.04-4.15c0.8-5.01,1.51-10.03-0.62-14.92
		c-0.34-0.78-0.57-1.71-1.56-1.89c-4.04-0.75-8-0.06-12.69,0.19c3.42,3.39,4.36,7.08,5.35,10.77c1,3.69,0.28,7.5,0.57,11.32
		C537.65,387.86,540.19,387.55,542.71,386.82z M323.48,701.93c0.38,0.27,0.52,0.45,0.68,0.47c16.4,2.93,32.68,6.83,49.48,6.89
		c9.01,0.03,18.18,1.35,26.74-2.97c-25.64,0.72-51.07-0.62-76.07-7.09C324.05,700.03,323.78,700.92,323.48,701.93z M537.51,484.15
		c3.04-0.73,5.7-0.73,8.35-0.77c1.2-0.02,1.66-0.62,1.94-1.65c1.68-6.28,1.63-12.59,0.51-19.07c-3.82,0.72-7.69-2.02-11.17,0.95
		C538.41,470.25,538.91,476.93,537.51,484.15z M463.91,621.02c-0.32-0.09-0.63-0.18-0.95-0.26c0.53,3.35-1.86,4.62-3.84,6.09
		c-1.21,0.9-2.59,1.64-3.99,2.22c-8.45,3.48-16.87,7.19-26.79,5.52c0.77,1.61,1.41,2.76,1.89,3.97c0.52,1.3,1.42,1.6,2.71,1.48
		c9.91-0.91,19.66-2.63,29.07-5.97c0.77-0.27,1.86-0.34,1.87-1.47C463.94,628.75,463.91,624.89,463.91,621.02z M388.42,419.08
		c-3.96-2.52-7.64-4.89-11.6-6.76c-5.32-2.51-10.73-3.02-16.16-0.23c-0.98,0.5-1.8,0.98-1.64,2.33c0.16,1.4,1.14,1.65,2.2,1.77
		c1.71,0.2,3.36,0.59,4.98,1.18c6.04,2.2,12.06,4.41,17.4,8.34C384.77,423.12,386.66,421.34,388.42,419.08z M388.44,441.33
		c-9.93-4.47-17.96-11.59-28.12-15.31c-0.61,3.02,0.12,5.64,0.28,8.28c0.05,0.83,0.72,1.03,1.34,1.29
		c7.64,3.21,15.34,6.33,21.93,11.62C385.3,445.39,386.63,443.67,388.44,441.33z M360.57,459.74c0,2.69,0.02,5.35-0.01,8
		c-0.01,1.03,0.47,1.42,1.42,1.77c3.49,1.27,6.92,2.69,10.04,4.73c3.88,2.53,7.74,5.09,11.58,7.61c2.42-1.78,2.07-3.43,0.16-5.39
		c-1.99-2.03-3.61-4.43-5.57-6.51c-4.32-4.58-9.68-7.66-15.38-10.18C362.34,459.56,361.7,459.74,360.57,459.74z M404.58,505.63
		c-4.91,2.95-8.98,6.37-12.99,9.89c-4.04,3.53-6.64,8.3-10.71,12.02c1.66,1.57,3.24,3.06,4.74,4.49c1.86-1.15,1.67-3.47,3.07-4.54
		c3.04-2.32,5.23-5.98,8.78-7.25c6.73-2.4,7.74-7.35,7.28-13.37C404.72,506.6,404.67,506.32,404.58,505.63z M385.42,493.43
		c0.21,0.23,0.42,0.45,0.64,0.68c1.08-1.34,1.98-2.87,3.26-3.98c5.01-4.36,9.66-9.29,16.4-11.08c0.77-0.2,1.15-0.58,1.22-1.33
		c0.34-3.35,1.1-6.68,0.86-10.21c-11.01,6.58-22.22,17.09-25.14,23.61C383.54,491.86,384.48,492.64,385.42,493.43z M253.71,530.54
		c1.22,4.08,2.37,7.94,3.57,11.92c5.69-1.67,11.32-2.17,17.19-1.5c0.51-3.26,1.27-6.44,1.16-9.83
		C268.28,531.57,261.18,530.8,253.71,530.54z M553.32,388.48c0.54-7.47,4.08-13.25,9.57-18.3c-5.33-1.77-10.35-3.06-15.8-3.65
		c1.7,7.22,1.4,13.98-2.3,20.55C547.79,387.57,550.4,387.99,553.32,388.48z M182.51,498.17c-0.89,19.51,0.99,37.91,6.97,55.78
		c-1.42-15.44-1.98-30.91-2.53-46.37C186.83,503.99,185.17,501.3,182.51,498.17z M409.96,440.31c-0.51,0.14-0.98,0.2-1.39,0.39
		c-7.77,3.5-14.16,9.03-20.45,14.56c-3.93,3.45-3.59,4.67,0.25,7.88c0.22-0.14,0.48-0.27,0.69-0.45
		c5.91-5.16,11.94-10.16,19.32-13.18c0.64-0.26,1.19-0.58,1.22-1.4C409.7,445.56,410.5,443.05,409.96,440.31z M459.89,541.27
		c1.11-1.22,2.21-2.52,3.38-3.73c2.12-2.18,2.4-4.82,0.73-7.06c-3.06-4.08-6.08-8.3-10.71-11.07c-1.94,1.83-3.9,3.48-5.5,5.62
		c3.84,5.33,7.63,10.59,11.43,15.84C459.32,541,459.53,541.06,459.89,541.27z M581.2,408.49c1.7,2.9,2.83,5.97,3.78,9.42
		c4.24-3.64,8.84-5.94,14.53-5.83c-0.53-4.18-2.13-7.74-3.48-11.37c-0.34-0.92-1.04-1.03-1.86-0.71
		C589.31,401.96,584.38,403.82,581.2,408.49z M221.48,604.06c10.68-11.4,16.14-12.55,24.05-4.83c-0.59-2.62-1.1-5.02-1.68-7.4
		c-0.85-3.53-3.59-5.54-7.23-5.35C226.29,586.99,220.57,593.63,221.48,604.06z M600.23,416.01c-5.27,0.16-9.5,2.33-13.66,4.71
		c-0.57,0.33-1.41,0.46-1.34,1.29c0.24,2.99,0.55,5.98,0.87,9.3c5.35-2.26,10.6-3.09,16.11-1.7
		C601.82,424.81,601.4,420.37,600.23,416.01z M388.42,475.88c6.01-5.83,11.38-12.2,19.83-14.39c0.22-2.97,1.28-5.85,0.6-9.17
		c-9.4,5.04-16.98,11.93-25.06,18.35C385.49,472.58,386.87,474.13,388.42,475.88z M364.58,519.02c-0.65,3.69-0.16,6.75-0.3,9.79
		c-0.08,1.87,0.69,2.8,2.33,3.39c3.61,1.29,6.95,3.16,10.3,4.99c4.21,2.29,4.2,2.3,6.78-1.69c0.14-0.22,0.16-0.53,0.27-0.91
		C378.22,528.74,371.95,523.56,364.58,519.02z M362.14,495.21c0.31,2.51-1.02,5.61,1.21,7.19c5.1,3.62,10.08,7.41,15.35,11.31
		c1.46-2.26,3.48-3.79,5.21-5.59C377.78,502.02,369.19,496.26,362.14,495.21z M389.41,440.05c3.14-2.83,6.16-5.47,9.07-8.2
		c3.37-3.15,6.82-6.15,11.33-7.59c1.4-0.45,2.28-1.48,2.52-2.87c0.34-1.96,0.49-3.95,0.77-6.36c-11.16,4.91-18.97,13.14-26.4,22.03
		C387.57,438.03,388.39,438.93,389.41,440.05z M472.77,498.12c3.36,2,6.45,3.69,8.59,6.65c1.57,2.17,2.95,4.43,4,6.89
		c0.9,2.12,1.95,2.14,3.66,0.75c1.71-1.39,2.35-2.68,1.81-5.05c-0.81-3.61-2.02-6.88-4.3-9.81c-2.33-3-5.79-3.87-9.1-4.08
		C475.3,493.33,474.5,496.37,472.77,498.12z M403.51,520.26c-8.94,5.33-14.74,12.77-20.42,20.57c1.41,1.28,2.58,2.33,3.82,3.45
		c4.41-5.32,8.79-10.24,15.21-12.66c0.85-0.32,0.72-1.06,0.77-1.67C403.11,526.91,403.28,523.87,403.51,520.26z M615.44,641.63
		c-13.09,11.37-28.39,20.07-40.1,33.31C592.28,667.99,604.9,656.07,615.44,641.63z M586.76,442.08c5.98-0.42,10.09,2.65,13.96,6.79
		c1.29-4.4,2.09-8.36,1.94-12.49c-0.05-1.24-0.54-1.92-1.68-2.31c-4.68-1.59-9.28-1.38-14.04,0.3
		C587.69,436.98,587.07,439.32,586.76,442.08z M573.13,476.48c2.75-0.92,4.88-2.34,7.11-3.54c2.43-1.31,2.96-3.25,2.25-5.78
		c-0.96-3.47-3.53-5.84-5.75-8.4c-3.22-3.71-4.5-3.67-8.43-0.4C571.69,463.81,573.82,469.62,573.13,476.48z M362.02,449.72
		c-0.57,6.64-1.39,5.34,3.85,7.84c3.87,1.85,7.62,3.91,10.9,6.73c1.78,1.53,3.49,3.14,5.32,4.8c1.11-1.04,2.05-1.91,3.09-2.89
		c-4.05-3.18-4.88-8.6-9.52-11.08C371.35,452.83,366.96,450.94,362.02,449.72z M405.34,494.69c-10.56,4.45-16.06,14.4-24.61,21.02
		c0.92,1.26,1.8,2.31,3.13,2.93c5.6-5.89,11.66-10.93,18.9-14.41c1.3-0.62,2.01-1.84,2.15-3.07
		C405.16,499.08,405.71,497,405.34,494.69z M426.09,513.99c14.52-9.84,26.05-22.07,31.2-39.46c-4.66,2.16-8.05,5.2-9.55,10.26
		c-1.73,5.86-5.14,10.84-9.2,15.37C434.39,504.78,430.24,509.38,426.09,513.99z M387.38,431.93c-7.85-7.64-17.4-11.4-27.56-14.18
		c-0.92,3.54,0.27,5.21,3.26,5.87c3.03,0.66,5.6,2.41,8.22,3.95c4.44,2.6,8.83,5.26,13.41,8
		C385.63,434.32,386.46,433.19,387.38,431.93z M565.4,448.44c2.35,0,4.13-0.02,5.92,0c5.79,0.06,6.93-0.68,8.75-6.23
		c0.79-2.39,1.55-4.83,1.67-7.55c-2.55-0.21-4.91-0.41-7.28-0.6c-0.87-0.07-1.6-0.09-2.12,0.94
		C570.21,439.26,567.98,443.46,565.4,448.44z M314.77,547.44c-0.29,5.77,3.71,7.35,8.36,8.37c3.82,0.84,7.63,1.77,11.39,2.83
		c1.72,0.48,3.56,0.96,5.23,2.56c-5.72,1.03-10.83-0.53-16.02-0.58c7.5,1.8,15.08,2.75,23.38,2.77c-1.79-2.85-3.29-5.24-4.66-7.43
		C332.13,555.8,323.13,552.17,314.77,547.44z M383.18,496.54c-0.38-1.17-1.13-1.75-1.92-2.29c-4.58-3.12-9.06-6.41-14.05-8.86
		c-1.57-0.77-3.32-2.54-4.91-1.51c-1.65,1.07-0.5,3.37-0.5,5.12c0,1.42-0.05,3.02,1.79,3.48c5.89,1.48,11.3,4,16.26,7.7
		C381.08,498.84,382.16,497.66,383.18,496.54z M249.56,595.38c4.34-6.02,9.93-8.65,17.43-6.94c-0.81-2.8-1.63-5.15-2.15-7.55
		c-0.42-1.91-1.48-2.34-3.25-2.3c-4.29,0.08-6.79,3.14-9.66,5.59C248.44,587.15,247.07,590.66,249.56,595.38z M411.25,426.27
		c-10.05,6.35-16.97,14.76-24.87,22.08c0.84,1.1,1.13,2.07,2.12,2.38c0.21-0.13,0.39-0.2,0.52-0.33c6-5.64,12.05-11.22,20.35-13.34
		c0.83-0.21,1.04-0.73,1.1-1.43C410.71,432.79,410.94,429.96,411.25,426.27z M406.28,482.42c-9.03,4.83-15.57,11.97-21.8,19.47
		c-0.69,0.83-1.11,1.61-0.12,2.44c0.81,0.68,1.7,1.41,2.76,0.45c0.92-0.82,1.89-1.63,2.61-2.61c2.62-3.54,5.95-6.57,9.93-7.93
		c5.64-1.92,7.1-5.58,6.67-10.82C406.31,483.14,406.3,482.86,406.28,482.42z M274.08,545.49c-5.24,0.74-10.17,1.44-15.4,2.18
		c1.22,4.13,2.37,7.99,3.56,12.01c2.92-1.91,5.91-2.83,9.02-3.37c0.89-0.16,1.68-0.22,1.8-1.38
		C273.36,551.92,273.71,548.92,274.08,545.49z M515.28,492.46c1.22-0.11,2.04-0.76,2.83-1.27c0-1.13-0.02-2.17,0-3.21
		c0.16-6.78-2.57-12.22-7.63-16.59c-0.76-0.66-1.55-1.78-2.67-1.2c-2.22,1.16-4.32,2.56-6.83,4.08
		C508.65,478.39,514.21,483.73,515.28,492.46z M386.48,453.7c-2.16-3.43-19.9-13.57-25.62-14.64c0.19,2.03,0.38,4,0.55,5.97
		c0.07,0.81,0.52,1.12,1.27,1.27c7.82,1.58,14.46,5.65,21.06,10.27C384.69,455.56,385.6,454.62,386.48,453.7z M397.98,647.23
		c-1.98-3.35-3.57-6.03-5.14-8.71c-0.47-0.8-1.22-0.8-2-0.78c-3.16,0.11-6.28-0.17-9.34-1.03c-0.95-0.27-1.85-0.26-2.54,0.7
		c-1.37,1.91-2.8,3.78-4.34,5.83C382.36,644.58,389.8,645.84,397.98,647.23z M382.82,625.51c1.51-0.84,1.82-1.66,1.09-2.97
		c-3.82-6.94-7.81-13.77-12.58-20.59c-2.81,3.21-6.05,5.77-8.78,9.52C372.17,612.51,378.85,616.97,382.82,625.51z M447.31,571.39
		c-3.16-0.28-5.48,1.11-6.35,3.37c-0.81,2.08-2.29,3.12-3.65,4.5c-0.61,0.61-1.67,0.87-1.75,2.12c7.81-1.77,15.36-3.95,22.5-7.4
		c2.24-1.08,4.35-2.39,5.83-4.48c0.59-0.83,1.38-1.64,0.59-2.85c-6.23,2.88-12.73,4.85-19.47,6.22
		C445.7,572.44,446.37,572,447.31,571.39z M363.8,506c-0.91,2.05-0.67,3.7-0.44,5.25c0.32,2.19,0.68,4.74,2.61,5.92
		c4.05,2.49,8.07,4.99,12.06,8.09c0.66-0.77,1.2-1.58,1.91-2.17c1.29-1.07,1.13-1.98,0.05-3.08
		C375.05,514.97,369.37,510.81,363.8,506z M244.91,603.35c-0.87-3.29-2.53-5.07-5.5-5.63c-6.26-1.18-10.53,2.18-14.59,6.17
		c-2.79,2.75-3.66,5.84-1.9,9.66C227.72,604.94,235.56,602.79,244.91,603.35z M380.22,489.39c0.57-1.56,1.11-3.04,1.72-4.74
		c-6.92-4.18-13.04-9.52-21.16-11.93c0,1.74,0.08,2.97-0.02,4.19c-0.14,1.85,0.5,3.21,2.29,3.77
		C369.21,482.6,374.66,485.89,380.22,489.39z M645.04,386.05c0.22-1.07,0.12-1.8-0.3-1.79c-16.53,0.49-33.06,1.03-49.77,1.57
		c1.65,4.28,4.24,7.75,6.03,11.61c1.23,2.65,2.79,2.53,5.05,1.7c-0.52-4.37-2.56-8.17-3.79-12.32
		C616.86,385.31,631.05,386.62,645.04,386.05z M350.61,416.73c-0.36-3.97-0.62-7.95-1.12-11.91c-0.19-1.49-1.04-3.48-2.42-3.62
		c-3.88-0.42-7.89-0.79-12.07,1.2C339.5,408.13,344.95,412.29,350.61,416.73z M305.48,639.3c0.83,1.28-1.19,3.06,0.72,4.58
		c3.14,2.49,6.21,5.03,9.89,6.7c0.68,0.31,1.46,0.91,2.06,0.11c1.96-2.59,3.83-5.26,5.92-8.15c-4.02-0.29-7.31-1.63-10.73-2.39
		c-10.03-2.21-10.03-2.19-9.87-0.88C304.06,639.45,304.76,638.46,305.48,639.3z M500.85,380.16c8.15,2.96,12.01,8.81,14.04,16.47
		c1.57-1.02,4.64-0.97,4.01-3.75c-1.52-6.73-4.89-12.41-11.04-16.06c-0.76-0.45-1.45-0.85-2.33-0.15
		C504.05,377.83,502.51,378.92,500.85,380.16z M245.07,511.55c-1.04-3.54-1.96-6.67-2.93-9.94c-4.26,1.29-8.65,0.71-12.44,3.14
		c0.74,4.2,1.48,8.33,2.29,12.88C236.52,509.13,239.18,507.85,245.07,511.55z M366.43,166.97c3.68,0.81,7.29,0.3,10.89,0.07
		c1.03-0.07,2.7-0.42,2.88,0.49c0.45,2.25,2.04,1.65,3.27,1.69c12.8,0.32,25.61,0.58,38.41,0.84c1.21,0.02,2.5,0.26,3.43-0.88
		C420.16,167.14,370.79,165.26,366.43,166.97z M388.34,430.49c6.29-7.92,13.56-14.11,23.05-17.77c-2.57-2.15-4.59-2.52-7.35-1.02
		c-7.23,3.93-13,9.52-18.75,15.37C386.28,428.18,387.22,429.24,388.34,430.49z M466.02,549.27c-7.76,5-12.42,12.14-18.16,18.24
		c6.04-1.7,11.42-4.66,16.67-7.9c0.61-0.38,0.9-0.95,0.94-1.67C465.63,555.29,465.8,552.65,466.02,549.27z M401.02,409.36
		c-8.1-1.61-15.39-1.47-23.49-0.37c5.09,2.45,8.87,5.48,12.84,8.38C393.48,414.44,396.69,411.91,401.02,409.36z M393.15,549.92
		c2.02-3.17,4.76-5.45,8.18-6.87c0.69-0.29,1.16-0.61,1.16-1.41c0-2.05,0-4.1,0-6.44c-6.43,3.27-10.42,8.95-15.74,13.37
		C388.87,549.02,390.86,549.44,393.15,549.92z M366.39,534.46c-2.42,2.74-2.27,3.51,0.53,5.13c4.45,2.58,9.14,4.73,13.18,8.02
		c1.13,0.92,3.43,1.29,4.47,0.02c1.18-1.44-0.88-2.2-1.76-2.96C377.92,540.47,372.13,537.7,366.39,534.46z M266.51,574.86
		c0.88-2.16,2.37-2.41,3.9-2.65c0.83-0.13,1.75-0.26,1.78-1.45c0.07-3,0.49-6-0.16-9.31c-2.88,1.34-5.83,0.73-8.94,1.18
		C264.22,566.69,265.26,570.42,266.51,574.86z M329.1,39.73c5.93,1.21,11.34,1.79,16.04-2.57c-2.72-2.45-7.65-3.93-10.79-3.71
		C330.52,33.73,330.26,36.75,329.1,39.73z M596.23,282.34c2.65,0.25,5.3,0.45,7.94,0.75c6.24,0.72,12.48,1.93,18.72-0.09
		c0.43-0.14,0.96-0.09,1.41,0.01c1.4,0.32,2.52,1.15,2.76,2.58c0.26,1.6-1.26,1.66-2.26,2.07c-3.29,1.35-6.82,1.55-10.29,2.24
		c4.33,0.16,8.65,0.57,12.94-0.43c1.81-0.43,2.61-1.84,2.19-3.44c-0.38-1.43,0.38-3.85-2.27-3.96
		C616.99,281.63,606.61,281.67,596.23,282.34z M515.84,365.27c-1.39,1.4-2.49,1.12-3.49,1.13c-4.01,0.05-8.03,0.1-12.04,0.04
		c-1.43-0.02-2.44,0.25-2.61,1.87c-0.13,1.21-1.14,2.21-0.8,3.79c4.28,1.07,7.36-2.89,11.23-2.91c4.22-0.02,7.32-2.15,11.1-4.44
		c-6.29-0.91-11.95,0.16-17.63,0.52C506.16,365.27,510.73,365.27,515.84,365.27z M572.96,404.45c2.57,5.15,3.2,10.42,2.94,16.03
		c2.26,0.26,4.28,0.63,6.53,0.11c-0.79-4.97-2.67-9.46-4.82-13.79C576.93,405.45,575.71,403.52,572.96,404.45z M459.21,387.87
		c5.58-2.55,21.63-27.95,22.97-36.03c-2.31,3.24-4.84,5.39-5.97,8.67c-1.84,5.37-4.6,10.27-7.96,14.84
		C465.36,379.28,462.54,383.24,459.21,387.87z M282.63,433.5c3.96,3.74,7.93,7.48,12.14,11.45c0.71-4.24,0.72-8.1,0.3-11.98
		c-1.27,2.87-0.25,6.07-1.23,8.96c-0.24-0.01-0.49-0.03-0.73-0.04c0-2.98,0-5.96,0-9.03C289.38,433.11,286.07,433.65,282.63,433.5z
		 M273.27,137.66c-4.93-9.5-16.95-21.77-23.21-21.75C258.21,122.95,265.49,130.59,273.27,137.66z M529.27,118.68
		c-3.58,1.39-6.76,3.42-9.4,6.23c-13.96,14.87-24.26,32.1-32.63,50.57c-0.16,0.35-0.42,0.83,0.31,1.19c0.58-1.12,1.18-2.2,1.7-3.32
		c6.82-14.7,15.09-28.48,25.35-41.1C518.89,127,523.73,122.55,529.27,118.68z M360.08,45.62c5.2,8.92,10.8,17.62,14.84,27.18
		C372.33,62.46,368.95,52.54,360.08,45.62z M371.68,125.52c-1.21-9.15-1.56-18.05-0.68-27.07
		C366.54,102.98,366.89,119.42,371.68,125.52z M148.76,507.3c0.86-11.56,5.23-22.09,9.49-32.61c-2.52-1.36-3.16-1.05-3.97,2.18
		c-1.57,6.27-2.99,12.59-4.6,18.85C148.7,499.54,148.35,503.38,148.76,507.3z M266.68,575.31c2.14,7.14,4.05,13.49,5.96,19.84
		c-0.65-6.57-0.55-13.12-0.31-19.77C270.31,575.51,268.85,576.87,266.68,575.31z M632.49,610.9c-6.56,10.98-15.17,20.43-23.29,30.95
		C615.67,638.01,631.48,616.98,632.49,610.9z M364.14,543.63c0.64,4.15-1.92,7.34-0.86,11.49c2.9-3.34,6.32-4.78,10.4-5.9
		C370.43,547.31,367.67,545.7,364.14,543.63z M571.65,453.01c-7.75-1.67-14.17,0.11-16.73,4.52
		C560.92,457.78,566.34,456.28,571.65,453.01z M405.3,580.43c1.4,5,2.57,9.2,3.75,13.4c1.56-2,4.78-2.79,3.68-5.78
		C411.54,584.82,409.18,582.52,405.3,580.43z M467.44,390.36c4.36-4.73,10.47-8.39,9.68-16.45c-1.09,1.5-2.19,2.73-2.96,4.13
		C471.9,382.1,466.64,384.43,467.44,390.36z M551.72,286.34c5.75,1.76,31.58,1.3,35.62,0C575.87,286.34,563.79,286.34,551.72,286.34
		z M401.45,262.17c-1.38,10.79,0.44,16.48,5.54,19.1C405.17,274.99,403.31,268.58,401.45,262.17z M286.28,359.46
		c-0.03-0.56,0.02-1.13-0.1-1.67c-2.18-9.97-1.98-20.52-7.5-29.69C280.98,338.57,282.94,349.11,286.28,359.46z M402.75,546.18
		c-2.9,1.81-5.36,2.94-7.36,5.07c2.85,1.85,4.86,4.41,7.98,5.99C403.3,553.54,402.34,550.22,402.75,546.18z M582.68,425.57
		c-8.41-1.12-7.35-1.35-8.25,4.25c2.72,0.23,5.41,0.47,8.14,0.7C583.02,428.76,582.93,427.26,582.68,425.57z M546.06,283.47
		c9.28-0.37,18.01-0.72,26.75-1.07C566.98,280.71,547.84,281.45,546.06,283.47z M532.57,425.06c10.96,1.44,21.98,2.03,33.05,1.53
		C554.68,424.69,543.58,426.13,532.57,425.06z M386.54,627.42c-1.83,2.68-3.35,4.9-5.04,7.38c3.32,0.43,6.3,0.81,9.87,1.28
		C389.66,633,388.21,630.4,386.54,627.42z M416.34,681.53c-0.14-2.36-1.64-1.87-2.76-1.78c-12.11,1.02-24.25,1.2-36.39,1.03
		c-2.97-0.04-5.92-0.84-8.92-0.24C384.26,682.06,400.27,681.46,416.34,681.53z M419.51,604.34c4.87,1.55,24.86-3.54,29.54-7.41
		C439.47,600.47,429.58,602.76,419.51,604.34z M457.44,140.36c-3.33,4.59-6.23,20.24-4.37,24.32
		C454.56,156.39,455.95,148.63,457.44,140.36z M619.32,421.5c1.58,2.11,15.86,3.43,21.1,2.16
		C633.64,422.25,626.78,421.49,619.32,421.5z M235.45,184.52c-9.4-2.9-19-4.12-28.84-3.22
		C216.18,182.69,225.88,182.93,235.45,184.52z M600.66,178.52c4.91,9.83,9.59,19.72,14,29.74
		C611.67,197.55,607.06,187.59,600.66,178.52z M506.07,213.99c5.04-2.12,8.28-6.3,12.03-9.9c0.89-0.85,0.3-1.48-0.63-2.15
		C513.35,205.65,509.03,209.15,506.07,213.99z M491.27,192.75c-4.03-7.65-10.58-9.55-17.47-10.89
		C479.61,185.02,485.08,188.72,491.27,192.75z M264.86,224.63c1.28-4.56-8.01-14.96-14.83-16.57
		C256.32,212.72,260.81,218.26,264.86,224.63z M342.44,503.52c3.99,5.59,7.98,11.18,11.98,16.78
		C352.29,513.39,349.02,507.28,342.44,503.52z M488.94,90.25c-4.97-0.91-11.41,4.23-14,10.96
		C478.87,96.63,483.75,93.28,488.94,90.25z M570.7,181.66c-6.8-2.23-13.16-0.63-19.38,2.04C557.75,182.79,564.17,181.8,570.7,181.66
		z M200.5,664.49c-0.52-1.82,0.26-3.3-1.08-4.03c-4.76-2.58-9.6-4.99-14.03-8.17C189.94,656.6,194.85,660.4,200.5,664.49z
		 M627.19,279.09c-10.61-2.35-21.24-0.04-31.86-0.22C605.95,279.15,616.57,278.79,627.19,279.09z M301.18,621.27
		c0-3.23-0.09-6.47,0.03-9.69c0.08-2.1-1-2.59-2.96-2.59C297.9,613.41,299.28,617.39,301.18,621.27z M487.22,225.07
		c-4.79-6.21-10.31-11.64-16.42-16.47C476.03,214.35,481.32,220.04,487.22,225.07z M548.71,262.54c-2.35,4.73-3.83,9.68-4.45,14.89
		C547.13,272.88,548.4,267.85,548.71,262.54z M478.39,696.01c-6.07-1.08-14.94,0.27-16.34,2.62
		C467.55,698.39,472.55,696.95,478.39,696.01z M497.08,338.01c1.06-6.03,4.54-12,0.23-18.16
		C498.8,325.94,497.39,331.96,497.08,338.01z M430.51,550.56c3.82,3.69,5.42,8.48,6.67,13.46
		C438.2,558.53,435.04,552.1,430.51,550.56z M429.64,563.34c-0.31-3.17-0.95-5.76-2.82-7.94c-0.67-0.77-1.46-1.38-2.47-0.71
		c-1.26,0.84-0.34,1.71,0.2,2.4C426.11,559.1,427.76,561.04,429.64,563.34z M318,80.39c-1.56,0.71-3.42,1.07-2.17,3.16
		c1.52,2.53,3.33,4.89,5.02,7.32c0.11-0.06,0.23-0.12,0.34-0.18C320.16,87.37,319.13,84.05,318,80.39z M149.34,371.22
		c-6.23-0.36-12.52-0.21-18.78-0.94c-1.19-0.14-2.6-0.34-2.07,1.96C135.43,371.64,142.35,371.27,149.34,371.22z M414.49,303.06
		c2.16-3.81,0.02-9.01-5.61-12.85C412.17,294.24,413.27,298.57,414.49,303.06z M411.62,500.72c-0.29-0.02-0.57-0.04-0.86-0.06
		c-0.39,7.02-0.77,14.04-1.16,21.06C410.45,514.72,411.99,507.78,411.62,500.72z M433.33,35.03c3.24,4.56,5.75,9.53,8.82,14.15
		C440.89,43.44,437.57,38.93,433.33,35.03z M490.57,302.02c1.24-3.26,1.19-6.11,1.28-8.95c0.02-0.77-0.4-2.13,0.75-2.14
		c1.8-0.01,1.04-1.35,0.86-1.7c-1.33-2.65-1.27-5.52-1.54-8.35C491.85,287.77,490.88,294.59,490.57,302.02z M541.89,214.36
		c0.91,1.36,1.26,2.77,2.56,2.19c2.92-1.29,5.86-2.56,8.71-4.15C549.53,213.03,545.91,213.66,541.89,214.36z M228.98,421.18
		c-2.84-1.74-4.81-3.64-7.44-4.78C222.23,421.67,222.61,421.94,228.98,421.18z M435.02,427.13c1.39,2.25,2.63,4.22,4.43,5.99
		c1.33-1.1,1.67-2.23,0.47-3.41C438.65,428.45,438.32,425.43,435.02,427.13z M487.36,445.34c-2.22-0.03-7.32,6.42-8.24,10.05
		C482.72,452.57,484.48,448.84,487.36,445.34z M437.5,45.75c-2.32-5.66-5.48-10.67-10.05-14.69
		C430.62,36.1,434.42,40.71,437.5,45.75z M304.2,667.34c2.16-1.69,4.02-3.54,5.55-5.73c-0.77-0.73-1.45-1.39-2.69-1.52
		C306.07,662.46,304.59,664.65,304.2,667.34z M455.64,383.52c-0.2-0.18-0.4-0.36-0.61-0.55c-2.83,3.3-5.66,6.6-8.49,9.9
		C451.35,391.33,452.66,386.69,455.64,383.52z M431.43,394.54c3.01,0.49,7.73-3.67,8.79-7.51
		C437.29,389.54,434.44,391.97,431.43,394.54z M511.75,325.43c-2.86-2.67-5.86-5.2-8.13-8.46
		C504.63,321.48,507.5,324.13,511.75,325.43z M259.37,644.21c1.63-4.78-0.81-10.17,4.43-13.38c-1.31,0.09-2.4,0.16-3.57,0.24
		C259.22,635.3,259.01,639.51,259.37,644.21z M463.46,153.92c1.78-4.8,3.55-9.6,5.33-14.4
		C465.63,143.81,464.12,148.71,463.46,153.92z M568.46,254.02c-4.5,0.4-9.15-0.03-13.3,2.34
		C559.7,256.15,564.1,255.18,568.46,254.02z M607.75,253.07c4.3-0.03,8.54,1.11,12.87,0.69c0.17-1.09-0.01-1.85-0.53-2.32
		C616.07,253.63,611.76,252.16,607.75,253.07z M486.02,275.36c-0.28,5.66,0.46,10.7,0.88,15.75
		C486.7,286.05,488,280.91,486.02,275.36z M433.48,566.37c-0.05-4.68-0.13-9.41-4.28-12.75
		C431.67,557.51,432.57,561.92,433.48,566.37z M582.03,207.77c0.01-0.27,0.02-0.53,0.03-0.8c-3.95-0.35-7.89-0.75-11.88,0.18
		C574.13,207.36,578.08,207.56,582.03,207.77z M489.63,261.24c0.28-4.8,0.6-9.61-0.61-14.29c-0.24,0.02-0.49,0.04-0.73,0.06
		C488.74,251.75,489.19,256.49,489.63,261.24z M399.04,244.78c-1.72,1.35-1.97,7.91-0.69,10.39
		C398.78,251.78,398.2,248.26,399.04,244.78z M482.66,175.92c0.58-1.84,1.16-3.35,1.52-4.9c0.34-1.44,2.01-2.91,0.19-4.58
		C482.65,169.73,481.89,173.65,482.66,175.92z M413.23,543.32c2.86-2.82,3.15-3.24,3.71-5.31
		C412.55,538.79,412.53,538.82,413.23,543.32z M426.8,398.09c2.39,1.05,4.54,2.04,5.69-1.41
		C430.32,395.72,428.47,395.75,426.8,398.09z M439.85,561.23c2.83-2.26,2.35-3.95-1.66-6.41
		C438.75,556.98,439.26,558.94,439.85,561.23z M432.72,408.32c-2.29,0.12-3.72-3.49-5.88-0.35
		C428.38,410.37,430.12,410.45,432.72,408.32z M453.2,456.96c-1.81-2-3.61-3.99-5.88-6.5C447.6,454.71,450.48,455.79,453.2,456.96z
		 M439.23,394.24c2.35-0.07,6.15-4.34,6.81-7.52C443.69,389.31,441.55,391.68,439.23,394.24z M434.71,402.45
		c-2.46-1.24-3.44,0.3-4.46,1.81C432.4,406.03,432.4,406.03,434.71,402.45z M550.69,454.95c-2.71,0.68-5.56,0.79-8.5,2.45
		C545.77,457.85,548.43,457.05,550.69,454.95z M376,85.78c0.6,3.35,1.12,6.23,1.64,9.12C378.33,91.79,378.78,88.72,376,85.78z
		 M462.98,391.27c-1.89,2.63-3.78,5.26-5.66,7.9C460.42,397.37,461.79,394.35,462.98,391.27z M374.47,123.77
		c0.65-2.96,0.17-5.81-0.98-8.59C373.27,118.1,373.28,121,374.47,123.77z M295.22,422.56c0.97-2.27,0.62-4.31-0.95-6.83
		C294.47,418.48,293.73,420.67,295.22,422.56z M312.27,658.59c0.95-0.28,1.48-0.79,1.72-2.02c-1.68,0.13-2.58-1.78-4.81-1.19
		C310.03,656.91,311.22,657.7,312.27,658.59z M434.58,406.55c2.81-0.32,4.16-1.45,5.48-4.13
		C437.42,402.58,436.64,404.85,434.58,406.55z M413.44,520.36c2.84,0.25,6.45-1.57,8.54-3.75
		C418.91,517.96,416.18,519.16,413.44,520.36z M494.16,295.13c-0.12,2.94-0.33,5.9,0.68,9.27
		C495.32,300.92,494.79,298.03,494.16,295.13z M403.03,583.78c-2.72,1.8-2.7,2.58,0,4.49C403.03,586.8,403.03,585.33,403.03,583.78z
		 M438.9,397.11c-2.55-0.79-3.12,1.07-4.39,2.39C437.34,400.57,437.91,398.71,438.9,397.11z M461.3,166.67
		c-2.24-1.68-4.08-2.6-6.31-1.72C456.76,166.21,458.71,166.6,461.3,166.67z M549.85,147.79c3.02-0.86,6.05-1.71,9.07-2.57
		C555.63,145.14,552.55,145.8,549.85,147.79z M154.32,402.96c-3.43-0.53-6.85-0.75-10.81,0.58
		C147.54,403.32,150.93,403.14,154.32,402.96z M296.58,646.84c1.29-3.46,1.28-7.04,1-10.65
		C297.25,639.74,296.91,643.29,296.58,646.84z M405.89,590.56c0.05,2.15-0.17,4.35,1.39,6.72
		C408.45,594.39,406.83,592.53,405.89,590.56z"/>
	<path class="st0" d="M348.84,356.22c-0.12,0.6-0.25,1.2-0.46,2.23c-0.4-3.55,0.09-6.58,0.37-9.62c0.26-2.83,1.55-3.59,4.32-2.86
		c1.59,0.42,2.94,0.36,4.06-1.13c0.92-1.23,2.28-1.98,3.86-2.8c0.55,2.41,1.88,2.57,3.63,1.22c1.32-1.02,2.83-0.51,4.14-0.21
		c3.89,0.9,7.71,0.61,11.57-0.09c1.03-0.19,2.08-0.31,3.13-0.4c4.9-0.41,9.79-0.7,14.69-1.35c8.25-1.11,15.96,2.14,23.62,4.57
		c4.42,1.4,6.25,6.08,9.23,9.32c-2.65-0.1-3.91-2.42-6.2-3.68c0.34,2.91-0.02,5.55-0.7,8.54c-1.89-1.79-2.14-3.87-2.47-5.84
		c-0.87-5.19-1.42-5.79-6.54-6.58c-5.19-0.8-10.37-1.61-15.56-2.43c-0.75-0.12-1.39-0.3-2.15,0.24c-2.58,1.86-5.66,2.66-8.61,3.62
		c-3.06,0.99-6.14-0.54-9.28-0.42c-7.72,0.31-15.45,0.32-23.18,0.49c-2.74,0.06-4.39,0.99-4.21,4.29c0.19,3.42-0.23,6.87-0.4,10.31
		c-0.04,0.84,0.04,1.94-1.16,1.91c-1.17-0.04-1.1-1.14-1.11-1.98c-0.03-2.45-0.01-4.91-0.01-7.36
		C349.22,356.23,349.03,356.22,348.84,356.22z M388.7,343.4c-2.14,0-4.28,0-6.42,0c0,0.27,0,0.53,0,0.8
		C384.45,344.63,386.63,344.89,388.7,343.4z"/>
	<path class="st0" d="M374.85,249.16c1.32,2.19,1.16,4.45,1.27,6.54c0.37,6.96,0.46,13.93,0.7,20.89c0.08,2.45-0.7,4.44-2.55,6.09
		c-3.5,3.11-6.93,6.28-10.38,9.44c-3.75,3.44-5.16,7.9-5.51,12.8c-0.11,1.6,0.15,3.52,1.81,3.75c1.57,0.22,3.63,0.29,4.7-1.78
		c1.91-3.69,4.98-6.25,8.59-8.15c1.51-0.8,3.43-1.66,4.72-0.13c1.43,1.69-0.06,3.54-1.06,4.86c-0.83,1.09-1.69,1.86-1.51,3.39
		c0.09,0.77-0.67,1.38-1.36,1.71c-4.15,2-8.36,3.8-13.14,3.27c-4.74-0.53-7.38-6.65-5.26-10.96c3.42-6.98,8.57-12.06,14.99-16.3
		c3.15-2.08,5.48-5.02,5.05-9.72C375.15,266.43,375.17,257.92,374.85,249.16z"/>
	<path class="st0" d="M355.75,353.45c17.57,10.06,35.33,15.04,53.92,2.35c0.25,5.62-3.14,8.1-9.48,10.15
		c-12.21,3.96-23.96,2.06-34.69-5.09C362.11,358.6,358.99,355.93,355.75,353.45z"/>
	<path class="st0" d="M359.05,232.39c-3.92,0.7-6.75-0.59-9.58-1.49c-6.19-1.98-12.39-3.83-18.84-4.81
		c-4.94-0.75-9.39-0.07-13.66,2.74c-5.36,3.54-10.44,7.39-15.25,11.63c-0.75,0.66-1.32,1.63-2.73,1.77c0.24-0.46,0.34-0.8,0.56-1.04
		c5.9-6.56,12.34-12.56,20-16.98c4.16-2.4,8.98-1.45,13.5-0.71c8.43,1.39,16.35,4.53,24.24,7.66
		C357.71,231.33,358.05,231.68,359.05,232.39z"/>
	<path class="st0" d="M355.81,275.87c1.31,0.44,0.35,1.52,0.64,2.35c3.36-2.19,6.21-4.94,10.4-5.3c-0.02,1.49-0.83,2.1-1.58,2.57
		c-9.07,5.7-13.09,14.81-16.5,24.34c-0.13,0.36-0.23,0.73-0.35,1.09c-0.43,1.34-1.01,2.71-2.74,2.17c-1.53-0.48-1.32-1.85-1.04-3.12
		c1.86-8.47,5.44-16.21,10.12-23.46C355.01,276.13,355.35,275.73,355.81,275.87z"/>
	<path class="st0" d="M383.56,319.61c-1.16-3,2.3-5.11,0.52-7.97c4.32,1.53,8.43,0.83,12.91,0.03c-1.2,1.94-3.11,1.84-4.54,2.69
		c1.03,2.98,3.7,5.16,3.82,8.48c0.01,0.29,0.4,0.65,0.7,0.82c8.11,4.61,14.75,11.18,22.21,16.64c1.69,1.23,3.38,2.46,4.92,3.94
		c-3.25-1.37-6.26-3.17-9.03-5.32c-5.21-4.03-10.34-8.17-15.45-12.32c-2-1.62-3.96-3.03-6.98-1.51c3.3-2.69,1.08-4.94,0.05-7.4
		c-1.33-3.17-4.07-3.13-6.86-3.5C384.77,315.71,384.28,317.55,383.56,319.61z"/>
	<path class="st0" d="M480.64,298.96c-1.9,27.23-13.59,50.27-31.09,70.75c7.79-10.44,14.81-21.28,20.28-33.22
		C475.35,324.44,478.51,311.93,480.64,298.96z"/>
	<path class="st0" d="M387.26,325.93c-1.89,0.83-3.77,1.13-5.47,0.58c-2.75-0.89-4.98-0.19-7.28,1.27
		c-4.95,3.16-9.19,7.13-13.32,11.24c-1.83,1.82-3.59,3.7-5.96,4.95c2.38-2.47,4.64-5.06,7.16-7.38c3.36-3.1,7.04-5.88,10.36-9.02
		c3.18-3,6.66-3.85,10.77-2.57C384.74,325.38,386.01,325.63,387.26,325.93z"/>
	<path class="st0" d="M384.06,297.58c-2.16,1.6,0.21,1.67,0.8,2.48c-1.1,0.56-2.01,1.24-3.06,0.45c-0.49-0.37-1.24-0.88-0.82-1.6
		C381.55,297.94,382.44,297.27,384.06,297.58z"/>
	<path class="st0" d="M523.15,308.96c0,0.97,0.06,1.92-0.02,2.86c-0.06,0.65-0.2,1.34-0.49,1.92c-0.69,1.38-5.92,2.76-7.25,1.97
		c-2.04-1.23-3.48-3.03-4.14-5.26c-0.83-2.77-0.74-5.67,1.61-7.65c2.07-1.75,4.85-1.87,7.3-0.85
		C523.22,303.23,523.44,306.07,523.15,308.96z"/>
	<path class="st0" d="M497.86,244.79c2.21,4.68,4.47,9.3,9.04,12.43c4.29,2.95,9.17,4.62,13.92,6.95
		c-4.92,1.3-13.89-3.37-20.72-10.66c1.76,15.13,3.92,29.41,6.79,43.6C501.08,280.11,499.45,262.38,497.86,244.79z"/>
	<path class="st0" d="M527.12,255.17c-11,0.09-25.97-12.3-22.84-19.91c2.27,5.07,5.43,8.89,9.58,11.68
		C518.01,249.74,522.36,252.23,527.12,255.17z"/>
	<path class="st0" d="M403.61,129.39c0.09,1.49,0.18,2.99,0.27,4.48c0.27,0,0.54-0.01,0.82-0.01c-0.46-23.58,2.42-47.13,0.18-70.42
		c2.99,5.53,1.25,76.01-2.5,85.71C402.89,142.61,403.86,136.1,403.61,129.39z"/>
	<path class="st0" d="M408.48,155.23c0.66-7.47,1.31-14.95,1.97-22.42C410.56,140.35,409.77,147.81,408.48,155.23z"/>
	<path class="st0" d="M407.27,27.24c1.27,0.97,2.51,1.96,3.8,2.89c1.28,0.93,2.6,1.81,3.76,2.91
		C411.71,31.9,409.09,30.05,407.27,27.24z"/>
	<path class="st0" d="M254.6,314.79c-4.12-0.12-7.08-4.55-5.56-8.36c0.45-1.14,0.75-2.5,1.56-3.31c1.37-1.38,2.88-3,5.21-2.2
		c2.1,0.71,3.13,2.34,3.56,4.46c0.66,3.29-0.75,5.95-2.48,8.51C256.37,314.66,255.51,314.88,254.6,314.79z"/>
	<path class="st0" d="M263.48,265.01c-0.43,0.11-0.69,0.25-0.78,0.18c-3.82-3.06-6.55-0.45-9.48,1.69
		c-1.28,0.94-2.24,2.65-4.23,2.43c-0.75-1.24-0.04-2.16,0.57-2.92c1.86-2.31,4.03-4.32,6.63-5.78c1.59-0.9,3.34-1.09,4.84,0.08
		C262.4,261.76,263.84,262.95,263.48,265.01z"/>
	<path class="st0" d="M248.21,245.67c-0.39-3.28,1.08-5.87,3.68-7.13c3.47-1.69,8.18-0.87,11.27,2.15c-3.1-0.37-5.64-2.44-8.69-1.64
		C251.23,239.91,250.69,243.39,248.21,245.67z"/>
</g>
</svg>
