<?xml version="1.0" encoding="utf-8"?>
<!-- Generator: Adobe Illustrator 25.0.1, SVG Export Plug-In . SVG Version: 6.00 Build 0)  -->
<svg version="1.1" id="Layer_1" xmlns="http://www.w3.org/2000/svg" xmlns:xlink="http://www.w3.org/1999/xlink" x="0px" y="0px"
	 viewBox="0 0 500 500" style="enable-background:new 0 0 500 500;" xml:space="preserve">
<style type="text/css">
	.st0{stroke:#FFFFFF;stroke-width:4;stroke-miterlimit:10;}
	.st1{fill:#FFFFFF;}
</style>
<circle class="st0" cx="249.33" cy="244.22" r="218.59"/>
<path class="st1" d="M390.6,235.6c0-0.01,0-0.01,0-0.02c-0.69-13.4-16.43-71.66-34.88-105.17c-6.92-12.58-18.95-22.34-35.77-29
	c-13.2-5.23-25.98-7.18-32.79-7.89c1.25-4.2,3.09-11.7,2.8-18.6c-0.43-9.96-16.04-22.02-25.53-22.07h-0.16
	c-5.45,0-15.04,2.77-19,21.01c-6.12-12.65-14.99-15.36-21.46-15.36c-14.41,0.07-14.93,11.94-15.12,16.42
	c-0.29,6.9,1.55,14.4,2.8,18.6c-6.81,0.71-19.6,2.66-32.79,7.89c-16.81,6.66-28.85,16.42-35.77,29
	c-18.45,33.54-34.2,91.84-34.88,105.19c-0.46,9.05,1.14,53.16,5.66,66.48l1.19,3.5c0.05,0.14,0.16,0.26,0.3,0.31
	c0.14,0.05,0.3,0.04,0.43-0.04l3.14-1.93c3-1.85,11.98-6.28,17.49-4.63c1.64,0.48,2.82,1.52,3.61,3.19
	c3.21,6.7,5.6,30.74,7.52,50.05l0.02,0.17c1.48,14.98,2.77,27.91,4.34,33.86c4.04,15.27,26.08,26.01,53.6,26.11l2.96,0.01
	c0.14,0.02,0.26-0.05,0.35-0.15c0.09-0.09,0.15-0.22,0.15-0.35v-154c5.58,4.11,12.7,6.84,21.74,8.32l2.85,77.13l0.23,0.98
	c0.18,0.45,4.53,10.97,15.68,10.18c0.01,0,0.03,0,0.04,0c11.31,0.75,15.65-10.18,15.72-10.38l0.19-0.98l2.83-76.95
	c9.03-1.48,16.16-4.2,21.74-8.31v154c0,0.13,0.05,0.26,0.15,0.35c0.09,0.09,0.22,0.15,0.35,0.15c0,0,0,0,0,0l2.96-0.01
	c27.52-0.1,49.56-10.83,53.6-26.11c1.57-5.95,2.86-18.91,4.35-33.97l0.01-0.14c1.92-19.28,4.31-43.28,7.52-49.98
	c0.8-1.66,1.98-2.7,3.62-3.18c5.47-1.64,14.48,2.79,17.49,4.63l3.15,1.93c0.13,0.08,0.29,0.1,0.43,0.04
	c0.14-0.05,0.25-0.17,0.3-0.31l1.18-3.5C389.46,288.75,391.06,244.65,390.6,235.6z M249.33,261c-1.44-0.01-2.86-0.04-4.26-0.08
	c-41.22-1.17-44.01-19.46-49.09-52.66l-0.81-5.24c-0.68-2.37-1.55-8.78-1.98-12.77c0.09-0.09,0.14-0.22,0.14-0.35
	c0-0.3,0.02-0.59,0.03-0.89c0.01-0.2,0.02-0.39,0.03-0.59c0-0.13-0.04-0.26-0.13-0.35c-0.4-4.19-0.59-7.78-0.6-10.96
	c0-6.47,0.83-11.41,2.64-15.55l0.19-0.44c1.63-3.55,4.05-6.71,8.1-10.56c9.1-8.66,36.42-9.33,44.58-9.33c0.84,0,1.4,0,2.29,0
	c8.16,0,35.48,0.67,44.58,9.33c7.26,6.9,10.94,12.9,10.93,26.54c0,3.41-0.24,7.35-0.71,12.03c-0.01,0.09,0,0.17,0.04,0.25
	c-0.11,0.08-0.19,0.09-0.26,0.1c-0.27,0-0.49,0.22-0.49,0.49c-0.04,2.25-0.1,4.54-0.19,6.77c-0.33,2.52-0.7,5.03-1.1,7.66
	c0,0,0,0,0,0l-0.59,3.86c-5.08,33.2-7.87,51.49-49.09,52.66C252.18,260.96,250.75,260.98,249.33,261z M312.82,180.32
	c2.35-1.85,6.86-4.34,11.85-1.56c8.07,4.49,2.14,18.35,0.13,22.5c-3.24,6.66-4.39,13.79-5.09,18.05l-0.1,0.64
	c-0.16,0.98-0.3,1.83-0.44,2.23c-0.15,0.46-1.05,1.93-2.52,2.36c-1.45,0.43-3.33-0.21-5.37-1.81l-3.33-3.75
	c0.52-3.09,1.02-6.34,1.54-9.68l0.59-3.85v0C311.72,194.83,312.6,186.83,312.82,180.32z M190.53,217.96l-4.13,4.67
	c-2.18,1.71-4.02,2.35-5.47,1.91c-1.46-0.43-2.37-1.9-2.52-2.36c-0.13-0.38-0.25-1.14-0.41-2.1l-0.13-0.79
	c-0.69-4.25-1.85-11.36-5.08-18.02c-2.01-4.14-7.95-18.01,0.13-22.5c1.49-0.83,3.04-1.25,4.62-1.25c4.19,0,7.46,2.88,8.35,3.76
	c0.28,6.41,1.13,14.1,2.69,24.17l0.59,3.85C189.62,212.28,190.07,215.15,190.53,217.96z M296.73,251.36
	c4.41-5.77,7.32-12.96,9.64-23.87l0.21,0.23c4.18,3.34,8.35,4.52,12.05,3.42c3.68-1.1,6.26-4.3,7.1-6.8
	c0.27-0.81,0.51-2.21,0.8-3.94c0.63-3.88,1.69-10.37,4.49-16.13c7.16-14.73,6.04-26.53-2.98-31.54c-5.95-3.31-11.52-2.1-15.34-0.32
	c-0.86-13.02-5.39-19.74-12.87-26.85c-2.87-2.73-14.99-11.61-50.46-11.23c-6.39-0.08-38.81,0.12-50.49,11.23
	c-7.56,7.19-12.12,14.02-12.9,27.33c-3.49-1.84-9.7-3.86-16.38-0.16c-9.03,5.02-10.14,16.81-2.98,31.54
	c2.78,5.71,3.84,12.21,4.49,16.13c0.3,1.86,0.54,3.17,0.8,3.95c0.83,2.5,3.4,5.69,7.1,6.8c3.78,1.11,7.85-0.07,12.17-3.55l0.96-1.06
	c2.36,11.46,5.33,18.94,9.83,24.83v154.32c-22.61-0.86-40.46-9.42-43.5-20.9c-1.43-5.41-2.75-18.72-4.15-32.83
	c-2.18-21.95-4.44-44.66-8.18-52.47c-1.66-3.48-4.31-5.77-7.88-6.83c-1.39-0.41-2.93-0.62-4.56-0.62c-5.2,0-10.64,2.03-14.46,3.85
	c-3.4-15.88-4.6-53.02-4.25-59.95c0.65-12.89,16-69.45,34.03-102.22c17.07-31.05,66.83-33.67,67.33-33.7l4.06-0.19
	c0.16-0.01,0.31-0.09,0.39-0.23s0.11-0.3,0.05-0.45l-1.45-3.82c-0.04-0.11-4.16-11.07-3.78-20.14c0.32-7.31,2.42-9.79,8.34-9.82
	c13.68,0,19.76,20.28,19.89,20.76c0.04,0.21,0.22,0.38,0.44,0.4l5.89,0.62c0.14,0.02,0.28-0.03,0.38-0.12
	c0.1-0.09,0.17-0.22,0.17-0.36c0.01-0.27,0.73-26.94,13.71-26.94c3.41,0.02,7.96,2.26,12.15,6c3.74,3.33,6.42,7.23,6.52,9.47
	c0.39,9.15-3.74,20.05-3.78,20.16l-1.44,3.8c-0.06,0.15-0.04,0.32,0.05,0.45s0.23,0.22,0.39,0.23l4.06,0.19
	c0.5,0.02,50.25,2.64,67.33,33.7c18.02,32.77,33.38,89.33,34.03,102.22c0.35,6.92-0.85,44.06-4.25,59.94
	c-5.38-2.56-12.85-5.06-19.03-3.24c-3.57,1.05-6.22,3.35-7.88,6.83c-3.74,7.81-6,30.54-8.18,52.52c-1.4,14.07-2.72,27.36-4.15,32.78
	c-3.04,11.49-20.89,20.05-43.5,20.9V251.36z M240.25,342.46l-2.76-75.08c2.43,0.21,4.84,0.36,7.38,0.43
	c1.28,0.04,2.47,0.05,3.66,0.06l0.81,0.01l0.79-0.01c1.19-0.01,2.38-0.02,3.66-0.06c2.53-0.07,4.95-0.21,7.38-0.43l-2.76,75.08
	c-0.62,1.18-3.38,5.84-8.53,5.44c-0.04,0-0.08-0.01-0.11-0.02c-0.11-0.02-0.22-0.04-0.53-0.05c-0.11,0.01-0.22,0.03-0.32,0.05
	c-0.04,0.01-0.08,0.01-0.12,0.02C243.72,348.3,241.02,343.96,240.25,342.46z"/>
</svg>
