<svg xmlns="http://www.w3.org/2000/svg" viewBox="0 0 923.53 896.69"><defs><style>.a{fill:#fff;}</style></defs><path class="a" d="M489.41,234.71c1.09,2.91,1.87,6,3.36,8.67a35.14,35.14,0,0,1,2.81,6.67c1.35,4.34,3.89,8,5.81,12,1.4,2.91,2.25,6.23,3.8,9.19,2.34,4.48,3,9.58,4.93,14.14,1.86,4.39,1.35,9.21,3.45,13.47.93,1.87-.32,4.4,1.44,6.25.17.18-.4,1.18-.75,1.72a2.87,2.87,0,0,0-.32,2.8c.66,2.14-.21,4.3-.89,6.39-.44,1.33-1.48,1.14-2.55,1-2.21-.29-3.74.34-3.54,2.93-2.87.38-3.22,1-2.17,3.65-1.6,2.18-4.7-1.33-6,1.88-.63-.7-1.12-1.14-1.5-1.66-2.24-3.16-2.24-3.18-5.14-.49-2.1,1.95-4.26,3.48-7.17,1.47-.29-.2-.84-.43-1-.3-3.06,2.12-4.85-.93-6.4-2.18a11.26,11.26,0,0,1-3.64-6c-.78-3.16-2.86-6-3.69-9.24-1.06-4.15-3.71-7.42-6-10.89a6.85,6.85,0,0,1-1.11-2.53c-.77-4.27-3.1-7.84-5-11.64-.75-1.51-2.27-3-.86-5a1.14,1.14,0,0,0-.14-1.32c-2.59-4.27-2.66-9.4-4.68-13.87a3.68,3.68,0,0,1-.21-1.37c-.1-5.69-1.61-11-3.14-16.51-1.82-6.51-3.9-13-4.34-19.87a17.35,17.35,0,0,0-1.73-7c-.76-1.47-.64-3-.63-4.62,0-2.31-1.2-4.4-2-6.58-1.81-4.94-1.46-10.38-2.85-15.45-1.59-5.81-1.79-11.88-3.59-17.64-.95-3-.17-6.27-1.14-9.34-2.13-6.74-2.21-13.86-3.62-20.75-1.22-6-1.7-12.18-2.94-18.21-1-4.88-1.77-9.85-2.28-14.76-.65-6.3-3.83-12.12-3.12-18.6a3.72,3.72,0,0,0-.33-1.65c-1.94-4.87-.73-9.28,2.05-13.39a6.75,6.75,0,0,1,4.11-2.76c3.7-.88,5.71-3.3,6.94-6.85.77-2.24,1.78-4.81,5.12-4.47.43,0,.94-.52,1.39-.83a3.5,3.5,0,0,1,5.2.81c2.79,3.58,4,7.82,5.25,12.12.89,3.12.21,6.52,2.35,9.5.74,1,.45,3.32.94,5a3.59,3.59,0,0,0,2,2.54c4.31-3.77,9.33-6.74,14.17-9.95,2.35-1.56,4.37-4.14,7.58-4.19,1.92,0,2.26-2,3.76-2.69,5.88-2.56,11.82-5.06,17.47-8.07,3.8-2,7.95-3,11.75-5,1.74-.91,4-.48,5.94-1.39a75.85,75.85,0,0,1,16.69-6,74.24,74.24,0,0,0,7.48-2.14c2.57-.85,5.5.84,7.93-.74,4.58-3,10-2.86,15-4,4.15-.92,8.45-1.1,12.64-2,3.26-.67,6.6-1.5,9.88-1.42,4.64.11,9.14.26,13.78,2.46,6.53,3.11,7.45,9.06,8.51,14.38a29.93,29.93,0,0,1,.2,11.09c-.63,3.44-2.14,6-3.62,9-2,3.93-3.29,8.36-6.21,11.62-3.27,3.66-5.46,8-8.5,11.73-6.3,7.74-12.88,15.26-19.1,23.06-2.38,3-5.7,5.36-7.56,8.38-2.17,3.54-5.52,5.57-7.85,8.7a10.19,10.19,0,0,1-2.08,2.22,22.05,22.05,0,0,0-4.43,4.89c-2.76,3.83-6.35,7-9.52,10.59-4.25,4.75-9.13,8.88-13.27,13.79-3.26,3.86-6.44,7.88-10.62,10.9-2.69,1.94-4.57,4.68-6.68,7.16a44.48,44.48,0,0,1-5.72,5.68c-.71.58-1.57,1.14-1.49,2.24.09,1.4,1.34,1,2.14,1.29,4.06,1.49,8.38,2.62,12.14,4.5,4.67,2.35,9.53,4.25,14.23,6.51,6.59,3.17,13.54,5.61,20,8.95,3.67,1.89,7.35,3.94,11,5.87a45.1,45.1,0,0,0,8.78,3.1c3.09.85,5.78,2.47,8.63,3.8,4.8,2.25,9.29,5.46,14.73,6.16a11.93,11.93,0,0,1,4.41,1.58c3.14,1.85,7,1.91,9.85,4.44,1.33,1.19,3.36.84,5,1.42,8.45,2.87,16.58,6.57,25.3,8.79,5.62,1.44,11.21,3.35,16.74,5.27a131.84,131.84,0,0,0,13.76,3.61c5.33,1.23,10.63,2.66,15.83,4.38,8,2.64,15.88,5.42,23.27,9.48,1.79,1,2.29,2.87,3.29,4.49,1.48,2.39,1.58,4.49,1.44,7a4.75,4.75,0,0,1-1.46,3.69c-3,2.43-5.14,6.34-9.92,5.56a1,1,0,0,0-.79.19c-2.3,2.55-5.28,1.05-7.94,1.37-.46.05-1-.18-1.37,0-3.89,1.91-8.1,1.57-12,1-4.16-.63-8.39-.66-12.5-.91-3.91-.24-7.48-2.83-11.49-1.49a.39.39,0,0,1-.28,0c-6.47-2.82-13.78-1.62-20.35-4.54a51.77,51.77,0,0,0-11.18-3.1c-4.35-.84-8.36-3.35-12.57-5a51.8,51.8,0,0,0-6.83-2,7.78,7.78,0,0,1-4.2-1.92c-1.74-1.73-4.48-1.55-6.71-2.23a118.6,118.6,0,0,1-17.72-7.13c-5.41-2.66-10.9-5.22-16.33-7.78-5.1-2.42-10-5.47-15.52-7.2-2.68-.84-5.39-2.71-7.89-4.38a5.43,5.43,0,0,0-3.44-1.31,4.44,4.44,0,0,1-2.87-1c-3.14-2.8-7.21-3.3-10.91-4.74-2.83-1.09-5.1-3.19-7.91-4.42-4-1.74-8.18-3.23-11.72-5.83-2.68-2-5.83-2.92-8.56-4.73ZM474.16,173c5.59-3.26,9-8.15,13.48-11.8a168,168,0,0,0,13.51-12.9c3.61-3.64,8.73-5.77,10.9-10.85.12-.28.57-.47.91-.61a11.62,11.62,0,0,0,4.79-4.13c3.45-4.72,8.29-8,12.15-12.34,3.1-3.46,6.53-6.7,9.77-10.07,3.41-3.55,6.62-7.3,9.88-11a98.68,98.68,0,0,0,6.86-8.06c2.2-3.1,4.21-6.33,7-9A4.2,4.2,0,0,0,565,79c-1.18-1-2.28-1.69-3.91-.5a7.15,7.15,0,0,1-3.76.93c-1.95.14-4.19-.35-5.77.79-3.49,2.51-7.89-.61-11.22,2.11-2-1.71-2.88.65-4.31,1.21-1.51-2.39-2.75-.76-3.85.35-.88.89-1.79,2.08-3,1.77-1.67-.42-2.61.25-3.54,1.52-1.51-1-2.69-1.15-4.28.1-.85.67-2.12,1.86-3.74,1.47-2.5-.6-4.71.63-6.48,1.95a10,10,0,0,1-5.68,1.77,6.06,6.06,0,0,0-2.87.76c-4.81,2.9-10.42,4.16-15.07,7.44-3.05,2.14-7.2,1.94-10.22,4.05a134.76,134.76,0,0,1-12.4,7.22c-3.23,1.79-4.53,4.14-3.4,8,.43,1.47,1.18,2.83,1.55,4.35,1.1,4.38,1.31,9,3.21,13.17a3.81,3.81,0,0,1,.12,1.63,28.08,28.08,0,0,0,1.54,9.18c1.61,5.31,4.34,10.27,4.6,16C472.63,167.25,473.58,170.12,474.16,173Z"/><path class="a" d="M723.64,343.66c-1.92-.57-2.32,1.66-3.76,2.13a27.64,27.64,0,0,1-13.9,1c-5.51-1-10.49-3.38-15.91-4.44-2.72-.53-5.29-1.77-8-2.43-4.56-1.11-9.26-1.7-13.73-3.09-4.26-1.32-8.7-1.5-12.93-2.75-3.73-1.1-5.12-.5-4.75,3.37a24.76,24.76,0,0,1-.91,9.11c-1.19,4.23-.55,8.68-1.81,12.83a16.92,16.92,0,0,0-1.09,6.67c.09.91-1.19.79-1.64,1.71a3.76,3.76,0,0,1,1.15,3.83c-.61,3.92-1.09,7.87-1.6,11.82s-.77,7.85-1.45,11.76c-.46,2.67-.15,5.49-.36,8.26-.19,2.42-.56,4.81-1,7.18a7.06,7.06,0,0,0,.19,3.82,5.29,5.29,0,0,1,.18,3.33c-1.63,5.8-.13,11.67-.35,17.51-.17,4.75-.3,9.62,1,14.32.92,3.35,1.52,6.76,2.16,10.16.59,3.14,2.58,6.14,3.15,9.52a38,38,0,0,0,7.88,17,10.81,10.81,0,0,0,8.38,4.3c3,.16,6.31,1.32,8.56-1.1a32.81,32.81,0,0,1,7.6-5.56c2.88-1.72,4.34-4.71,6.86-6.71,6.64-5.27,11.36-12.55,18-17.72a46.48,46.48,0,0,0,8.9-9.1c1.4-1.87,4-2.79,5.7-4.61s4-3.4,5.45-5.65c1.82-2.81,4.44-5,6.05-8s3.67-5.8,5.25-8.88a41.39,41.39,0,0,1,3.44-5.13c2.32-3.23,4.57-6.48,6.57-9.93,1.16-2,3.11-3.56,4.79-5.41-1-1.25-2-1.83-3.29-.67a2.44,2.44,0,0,1-2,.75c-4.19-.37-8.25,1.95-12.53.45-1.08-.37-1.8,1.27-3.23,1.22a47.36,47.36,0,0,0-12,1.26c-1,.22-.71-1.07-1.73-.87a2.17,2.17,0,0,1-2.66,1.4c-4.12-.64-7.78,1.47-11.7,2.1-2.14.34-4.34-.74-6.47.73s-4.66,1.09-7.15.75c-1.31-.17-2.13,1.6-3.57,1.24-.55,5,.55,9.61,1.08,14.31a36.92,36.92,0,0,1-.5,10.5c-.59,3.16-5.36,6.27-8.49,6.92-6,1.27-9.56-1.66-12.8-6.22a17.16,17.16,0,0,1-3.16-5.91c-1.16-5.22-2.88-10.38-2.52-15.85a4.64,4.64,0,0,0-.69-2.36,7,7,0,0,1-.58-5.75c.77-1.86.52-3.18-.48-3.9.69-5.06,4.89-8,6.27-12.7a2.16,2.16,0,0,0,2.85-.11,15.76,15.76,0,0,1,6.74-2.83,53,53,0,0,0,7.31-2c2.7-1,5.83-.77,8.22-2,3.19-1.66,6.72-1.56,10-2.93,2.26-.95,4.93-2.41,7.76-1.32a.59.59,0,0,0,.52-.14c2.18-2.29,5.64-.71,8-2.63a1.52,1.52,0,0,1,1.86-.08c1.88,2.1,3.72.6,5.5,0,1.52-.5,2.91-1.31,4.51-.23,1.17.78,2.34.06,3.42-.34,1.39-.5,2.65-1.31,4.11-.13.65.52,1.11-.18,1.67-.5,1.16-.65,2.29-1.75,3.82-.77a.82.82,0,0,0,1.2-.3c1.26-2.12,2.33-1.45,3.29.42,2.75-2.34,5.89-2.28,9.15-2.64,2.21-.25,4.6-.08,6.72-.77,2.77-.89,5.6-1,8.4-1.36,8-1.13,16.11-.72,24.18-.72,1.93,0,3.49,1.38,5.31,1.93,2.48.76,4.84,2,7.51,2.25a1,1,0,0,1,.63.53c2.31,4.37,5.47,8.5,4.06,13.95,0,.18-.1.45,0,.54,3.37,3.5.52,6.7-.62,9.85-1.57,4.34-3.35,8.63-5.35,12.8-1,2.2-2.78,4.06-4.14,6.12a48.13,48.13,0,0,0-4.42,7.47c-.8,1.9-1.9,3.73-4.34,4.32.59,1.17.73,2.29-1.12,2.52-.23,0-.64.35-.62.5.31,3.08-2.63,4.39-4,6.31-2.17,3-3.6,6.87-6.95,9-1.78,1.12-2.16,3.14-3.44,4.61-2.56,2.94-4.48,6.45-7.06,9.39-1.72,2-3.17,4.16-5.12,6a56.47,56.47,0,0,0-3.91,4.49,105.52,105.52,0,0,1-7.5,8.5c-2.34,2.27-4,5.24-6.67,7.38-2.28,1.86-3.72,4.73-5.83,6.54s-3.54,4.41-5.78,5.92c-3.67,2.46-5.78,6.25-8.49,9.44a95.39,95.39,0,0,1-8.93,9.61c-3.22,2.87-5.74,6.61-10,8.68-2.53,1.23-4.9,3.81-7.21,5.93a190.78,190.78,0,0,1-24.75,19c-4.22,2.77-8.53,5-13.32,5.89-2.93.54-6.17,0-9.25-.22-2.72-.15-5.53-.28-8.3-.25a17.18,17.18,0,0,1-7.48-2.08c-4.76-2.28-9.56-4.36-13.68-8-3.38-3-6.55-6.4-10.74-8.37-1.72-.81-2.37-2.61-3.4-3.91-2.71-3.43-6.75-5.63-8.81-9.59-1.33-2.56-3.57-5.17-3.57-7.76,0-4.75-4-8.29-3.11-13.21.29-1.6-1.64-3.5-1.64-5.27,0-5-1.34-9.89-1.53-14.94-.15-4.36.87-8.83-.65-13.29-1.07-3.15.53-6.63,1.1-9.89.73-4.09.23-8.16.5-12.23a59.72,59.72,0,0,1,1.36-9.08,19.61,19.61,0,0,0,.58-6.39c-.29-2.63,1-5.07,1.16-7.65.34-5,1.9-9.8,2.75-14.7s.22-10.42,2.8-15.05c.82-1.46.15-2.71.3-4a148.22,148.22,0,0,1,2.74-15.74c1-4.58.49-9.61,2.95-13.76,1.32-2.23.41-4.54,1.32-6.78,1.58-3.87,2.35-8.05,3.45-12.1a18.53,18.53,0,0,1,2-4.16c2-3.4,2.71-7.2,4.11-10.77,2.19-5.58,3.89-11.36,7.71-16.16a7.35,7.35,0,0,1,4-2.51c2.86-.76,5.25-2.67,8-3.47a64.35,64.35,0,0,1,23.56-2.71c7.74.67,14.94,3.3,22,6.46a185.26,185.26,0,0,0,18,6.62c4.51,1.48,9.24,2.16,13.64,4.05a12.78,12.78,0,0,1,5.4,4.53,43.84,43.84,0,0,0,5.23,6.22c.9.89,1.81,1.85,1.16,3.83C723.59,338.16,724.7,340.83,723.64,343.66Z"/><path class="a" d="M200.74,88.64a48.88,48.88,0,0,1,1-14.55c1.33-6.51,1.55-13.47,5.91-19.09.52-.66.92-1.39,1.77-1.72,2.06-.82,4.17-1.47,6.2-2.4s5.25,1.15,6.66,3.6c2.86,4.93,3.48,10.48,4.49,15.91a32.65,32.65,0,0,0,1.21,4.89c.15.44.48.93.4,1.33-1.16,5.64,1.13,11,1.18,16.57,0,2.24,1,4.52-.11,6.76a1.33,1.33,0,0,0,.14,1.09c2,3.24.7,6.94,1.26,10.39.5,3-.67,6.57-2.16,9.61-.21.4-.75.82-.69,1.16.81,4.94-3.58,6.78-5.85,9.85-.84,1.13-1.93,1.78-3.29.49a3.11,3.11,0,0,0-3.17-.55c-2.52,1.05-3.81-.75-5.58-1.8-4.13-2.45-5.51-7.78-10-9.63-2.93-1.22-5-3.77-8-4.65a2.23,2.23,0,0,1-1-.5c-3.78-4-4.6-4.31-9.19-6.58a32.18,32.18,0,0,1-6.08-3.83c-3.26-2.71-7.45-3.44-10.81-6.18-2.52-2.06-5.61-5.08-9.8-4.55-.45.06-1-.5-1.46-.73-4.78-2.23-9-5.47-13.79-7.7-1.89-.88-3.42-2.63-5.45-3.63a41.14,41.14,0,0,0-7.9-3.17c-2.17-.56-4.13-.36-5.74,1.23-2.72,2.68-5.32,5.46-7.84,8.36A63.92,63.92,0,0,0,105.32,100c-.44.8-1.63,1.19-1.94,1.4-1.77,5-4,9.22-4.71,14.16,4.71,1.92,9.37,4.72,14.27,6.12,6.57,1.89,12.91,4.28,19.26,6.68,4.6,1.73,8.84,4.38,13.4,6.22s9,4.48,13.55,6.54c5.4,2.43,10.88,4.88,15.82,8.37,4.33,3.06,8.34,6.61,13.14,9a19.52,19.52,0,0,1,4.67,3.54c3.2,3.11,7.32,4.77,10.87,7.23,3.28,2.28,7.08,3.89,9.84,6.91.88,1,2.33.68,3.24,1.54,4.7,4.4,10.76,7.24,14.59,12.64a2.75,2.75,0,0,0,1.86,1.13c.43.08,1.17.43,1.16.59-.45,4,3.74,4.77,5.2,7.39.76,1.35,2,2.57,1.67,4.36a1.5,1.5,0,0,0,.35,1c4.27,5.48,4.52,11.69,4.6,18.43.11,9.22-1.81,18.05-3.61,26.85a79.94,79.94,0,0,1-5.82,16.62c-2.06,4.55-4.17,9.06-6.43,13.51-1,2-1.39,4.22-3.74,5.35-1,.49-.58,2.25-1.49,3.17-4.3,4.37-5.2,10.73-9.07,15.44a12.46,12.46,0,0,0-2.57,5.78c-.21,1.46-1.84,2-2.25,3.08-1.44,4-5.32,6.49-6,10.9-.28,1.77-2.13,3.08-3.33,4.29-2.83,2.87-4.53,6.53-7.43,9.38a34.67,34.67,0,0,0-5.49,7.49,13.14,13.14,0,0,1-3.07,3.07c-3.06,2.79-5.75,6.11-9.74,7.73a6.24,6.24,0,0,0-2.44,2.28c-1.65,2.1-4.05,2.52-6.37,3.15a18.56,18.56,0,0,1-11.28-.53c-2.48-.9-5-.12-7.2-.65-3.33-.8-6.89-1.19-9.76-4.29-1.81-2-4.86-3.48-7.48-5a121.21,121.21,0,0,1-13.21-9.41c-4.07-3.16-8.3-6.14-11.76-10-1.11-1.24-3-1.15-4.45-2.09-1.77-1.14-3.55-2.15-4.38-4.14-1.23-2.9-4.24-4-6.09-6.31A199.9,199.9,0,0,0,78.75,303.5c-.7-.73-.82-1.83-1.4-2.71-4.29-6.46-8.6-12.92-12.6-19.56a145.54,145.54,0,0,1-7.41-13.05,151,151,0,0,1-8-19.74c-1.05-3.44-1.54-7.09-2.79-10.28-2.15-5.5-3.17-11.21-4.87-16.76-1.61-5.26-2-10.76-4.19-16a25.68,25.68,0,0,1-1.3-14.14,4,4,0,0,1,4.14-3.11,4.82,4.82,0,0,0,3.23-1.29c2.32-1.69,4.81-.89,6.91,2.07,2.71,3.83,5.56,7.57,8.26,11.4s4.78,7.74,7.58,11.33a119.81,119.81,0,0,1,7.41,10c2.31,3.7,5.33,7.12,7.78,10.84,2.58,3.91,5.31,7.68,8.25,11.34,3.36,4.18,6.07,8.89,9,13.42.52.81.93,1.58,1.93,1.88.42.13,1.11.58,1.07.78-.74,4.19,4.85,4.64,5,8.54,0,1.31,2.55,1.71,3.67,3.13,2.76,3.5,3.68,7.92,6.24,11.48.94,1.3,1.72,2.53,3.42,3.11,2.23.76,3.59,2.83,5.22,4.41a214.71,214.71,0,0,0,17.27,14.73c3.52,2.77,7.6,4.76,10.77,8.06,2.73,2.85,6.1,5.11,9.22,7.58,2.47,1.95,4.13-.32,5.62-1.5a90.39,90.39,0,0,0,8.81-8c3.78-3.87,6.65-8.48,9.77-12.86,4.35-6.1,8.6-12.26,12.83-18.44.94-1.36,1.61-2.91,2.43-4.36,3.66-6.48,7.33-13,10-19.94,1.25-3.28,3.13-6.32,3.81-9.86a10.55,10.55,0,0,0-1.58-8.24c-3.2-5-7.73-8.85-11.25-13.5-2.82-3.7-6.59-6-9.91-8.9-4.27-3.76-9.18-6.48-14.1-9.29s-8.77-6.86-13.47-9.89c-5.93-3.83-11.67-7.91-17.68-11.62-3.3-2-6.27-4.52-9.9-6.14a156.62,156.62,0,0,0-16.09-6.67c-3.06-1-6.14-1.92-7.35-5.42-.32-.91-1.18-.75-1.91-.85a23.87,23.87,0,0,1-11.66-5,23.14,23.14,0,0,0-5.09-2.88c-1.34-.58-2.56-1.12-3.06-2.61-.06-.16-.21-.38-.36-.41-5.57-1.17-8.6-7.06-14.39-7.78a5.94,5.94,0,0,1-3.14-1.71,6.82,6.82,0,0,0-3.83-2c-2-.24-3.73-3.55-3.47-5.67a12,12,0,0,0-.52-6.46,8.89,8.89,0,0,1,.11-7c.7-1.72.68-3.69,1.26-5.56a108.31,108.31,0,0,1,4.77-13.57c2.1-4.51,4.63-8.83,6.93-13.15a75.07,75.07,0,0,1,9.34-14.37c2.43-2.78,5.12-5.23,7.65-7.86,1.47-1.54,2.45-3.63,3.92-5.31,2.15-2.46,5-4.08,7.28-6.28,3.27-3.21,7.65-3.83,11.33-6,4.68-2.83,10-3.24,15.78-1.66a48.34,48.34,0,0,1,12.95,5.32c4.83,3,9.49,6.22,14.3,9.24,6.51,4.1,13.18,8,19.63,12.16,5.83,3.78,11.47,7.85,17.19,11.8C199.84,88.94,200.15,89,200.74,88.64Z"/><path class="a" d="M417.8,746.73c-2-5.12.8-9.65,2-14.38a8.9,8.9,0,0,0-.34-6.16c-.73-1.68-1.32-3.22,1-5.09a13,13,0,0,0,4.45-7.51c2.34,1,4.48-1.66,7-.41l-1.06,1.48,10.37,1c1.71,2.58,2,6.6,5,9.15.81.69-.32,1.89-.13,3,.39,2.27.64,4.55,1.17,6.83.67,2.83,1.32,5.67,2.06,8.48.34,1.3-.92,2.33-.44,3.83,2,6.33,3.81,12.8,6.78,18.71,1.71,3.4,2.15,7.14,4.07,10.45,3,5.11,4.39,11,7.95,15.87,1.61,2.17,1.48,5.16,3.63,7.17.82.77.93,2.32,2.25,3a1.8,1.8,0,0,1,1.12,1.53,9,9,0,0,0,2.58,6.43c3.34,2.83,4.39,7.08,7.4,10.11,1.5,1.5,3.6,3.47,4.13,5.08,1.26,3.82,5.39,3.65,7,7.07,2.55-3.16,5.07-5.63,6.78-8.92,2.59-5,7.23-8.36,10.77-12.63,1.59-1.92,1.43-4.24,2.92-6.19a105.28,105.28,0,0,0,11.47-18.88c2-4.12,3.13-9,6.66-12.44,1.1-1.08,1.2-3.11,1.57-4.62.82-3.27,2.69-6,4-8.94,2.19-5,2.74-10.38,4.73-15.37a4.45,4.45,0,0,0-1.49-5.54c-3.13-2.25-5.85-5-8.75-7.46s-5.74-4.78-8.63-7.14c-2-1.64-4.75-2.13-6.46-4.34-2.79-3.6-7.17-5.2-10.57-8-3.65-3-8.22-4.64-11.75-7.82-4.38-3.94-10.19-5.75-14.54-9.68a73.82,73.82,0,0,0-11.69-8.49,79.59,79.59,0,0,1-7.47-5.37c-2.58-2-5.83-3.44-7.77-5.78-2.9-3.52-7.59-5.1-9.54-9.44-3.73-.64-4.68-4.41-6.47-6.71-2.44-3.14-6.59-5.78-5.52-11.37.45-2.3-.36-5.59-1-8.41a14,14,0,0,1,.29-8.76,31.86,31.86,0,0,0,1.7-8.34c.55-4.92,1.59-10,4.07-13.94,3.17-5,4.63-11.11,8.83-15.21,1.72-1.68,2-5,5.2-5.19,0-2.68,3.15-3.15,3.84-5.51.38-1.31,1.72-2.41,2.81-3.4,3.56-3.26,7.13-6.5,10.82-9.6,1.42-1.18,2-3.21,4-3.77,2,1.57,3.7,2.62,6.71,2.4,2.8-.2,6.16.45,8.87.21,4-.35,7.34,2.29,11.18,1.2,1.34-.38,1.32,1.86,2.32,1.58,2-.57,3,1.09,4.41,1.69a61.49,61.49,0,0,1,12.58,6.73c2.85-2.74,1.28-6.14,2-9.07,1.23-4.82,4.26-9.3,8.95-9.92a3.43,3.43,0,0,0,.56-.06c6.54-1.89,6.58-1.91,9.34,4.13,2.5,5.47,3,11.23,3.35,17.23.4,6.31-.83,12.61.45,18.92,1.19,5.89-3.55,14.13-9,16.83a1.83,1.83,0,0,1-2-.17c-2-1.27-2-1.27-3.86-.31-.32-.28-.61-.76-1-.86-6.61-1.77-9-8.31-13.69-12.15a17.21,17.21,0,0,1-4.24-5.71c-.76-1.43-2.56-.89-3.61-1.89-2.52-2.38-6.47-2.51-8.66-5.43-2.62,1.46-4.08-2.1-6.88-1.53-1.36.28-3.33-.71-5,.13a11.45,11.45,0,0,0-4.76,3.76c-2.22,3.1-3.45,7-6.72,9.35a2.61,2.61,0,0,0-.59,1.24,55.69,55.69,0,0,1-3.43,8.42c-1.91,3.6.49,6.74,2.12,9.79.67,1.27,2,2.23,1,3.9a1.08,1.08,0,0,0,.15,1c2.65,2,2.21,6,4.44,7.92,2.71,2.33,4,5.7,7.23,7.77,2.27,1.47,3.92,4.4,5.77,6.73,2.66,3.37,6.28,5.36,9.82,7.47,5.81,3.46,11.61,7,17.33,10.54a107.44,107.44,0,0,1,10.94,7.37c2,1.64,4.82,2.87,6.66,4.71,3.84,3.84,9,5.72,12.85,9.52,2.29,2.27,5.26,3.89,8,5.67a88.29,88.29,0,0,1,7.84,6c3.15,2.58,6.49,5,9.57,7.57,3.77,3.18,8.51,5.58,11,9.88,1.56,2.66,4.22,4,5.66,6.59,1,1.71,1.13,3.66,2,5.43a29,29,0,0,1,2.6,7.46,44.87,44.87,0,0,1,.21,8c0,2.42.39,4.89-.61,7.22-.59,1.4,1.11,2.41.59,3.71a22.84,22.84,0,0,0-1.16,7.56,23.78,23.78,0,0,1-2.66,9.21c-1.45,2.86-1.32,6.31-3.53,8.7-1.8,1.94-1.3,4.64-2.66,6.75s-1.77,5-4.15,6.81c-1.92,1.47-1.69,4.43-3.25,6.39-2.75,3.49-5.26,7.19-7.83,10.81-2.3,3.21-4.54,6.48-6.88,9.68-.6.84-1.28,1.57-1.92,2.36a131.59,131.59,0,0,0-8.31,11,24.36,24.36,0,0,1-3.75,4.25c-3.32,3.1-5.57,7.11-9,10.1-1.94,1.7-3.65,3.65-5.63,5.28a66,66,0,0,0-5.49,5.61c-1.88,2-4.43,3.12-6.15,5.27a39.2,39.2,0,0,1-11.4,9.51c-5.57,3.17-11.55,3.17-17.57,1.34-1.88-.58-4,.23-5.76-1.27-2.63-2.21-6.39-2.09-9.07-4.56-3.88-3.57-8.22-6.65-12.34-10a95.71,95.71,0,0,1-9.64-8.84c-2.35-2.49-6-4.48-6.63-8.45-2.37-.14-1.44-3.72-4.05-3.86-.48,0,.48-2.57-1.43-2.93.75-2-.7-2.37-2-2.88-.25-.09-.62-.33-.63-.52-.18-3.1-2.57-5.1-4.1-7.34s-1.89-5.22-4.19-7.22c-2.5-2.16-3.6-5.41-4.5-8.58-.46-1.63-1.53-2.94-2.23-4.45a37.12,37.12,0,0,1-3.22-10.28,41.41,41.41,0,0,0-2.73-10,39.13,39.13,0,0,1-1.63-6.8,35.92,35.92,0,0,0-1.25-5.63c-.64-1.63-2-3.11-1.09-5.37.29-.71-1.66-2.44-1.35-4.27.72-4.27-1.76-8.51-.16-12.81a.94.94,0,0,0-.33-1.25C414.38,747.87,417,747.53,417.8,746.73Z"/><path class="a" d="M276.63,730.86c-3.83-.56-4.75-3.85-5.43-6.34-1.76-6.45-5.58-11.91-8-18-1.62-4.06-3.69-8.06-5.21-12.23-1.85-5.08-4.11-10.22-4.45-15.55-.27-4.25-2-8.12-2-12.32,0-.54.06-1.15-.52-1.51a4,4,0,0,1-1.44-4.18c.55-2.87-.13-5.48-.5-8.23-.79-5.69-1.77-11.37-1.59-17.18.06-2-1.52-4.08.63-5.84a.35.35,0,0,0,0-.27c-2.55-6.42-.82-13.1-.62-19.57a65.33,65.33,0,0,1,1.74-12.28c1-4.22,2-8.47,2.68-12.77a15.28,15.28,0,0,1,2.57-6.67c.91-1.28.72-1.95-.65-2.87-2.92-2-6.53-2.48-9.32-4.78-1.66-1.36-2.57-3.33-4.35-4.56a1.85,1.85,0,0,1-.42-2.43c1.12-1.87,1.1-4,1.06-6.17,0-1-.17-1.89.6-2.64,1-1,1-2.18.17-3.78,2.91.81,3.1-1.79,4.17-3,1.92-2.1,4.34-1.2,5.61-.62,3.61,1.67,7.57,2.19,11.12,4,4.23,2.14,9,3.27,12.91,5.92,1.21.81,2.13-.12,3.1.41,5.58,3,12.11,2.46,17.89,4.77,3.1,1.24,6.56,1,9.69,2.18a16.13,16.13,0,0,1,5.3,2.92c-.33,2.71-2.63,5-1.34,7.94a3,3,0,0,1-.77,2.88,7.78,7.78,0,0,0-1.15,3.41c-.76,4.19-.71,4.25-4.8,4.22-3.74,0-7.64-.54-11.19,0-3,.49-5.56-2.11-8.35-.35-.06,0-.18,0-.27,0-1-.21-1.8-2.42-2.88-.56-.39.68.51,2.07.72,3.15,1.21,6.23,2.08,12.5,2.79,18.8.64,5.64.22,11.3.6,17a25.63,25.63,0,0,0,.54,3.86c1.52,7,.39,14.25,2.48,21.08,1,3.26,1.55,6.6,2.43,9.88,1,3.74,1.12,7.7,2.46,11.37,1.26,3.45.49,7.49,3.07,10.56a2.15,2.15,0,0,1,.3,1.06c1.28,9.49,5.2,18.07,8.83,26.8,3.1,7.45,8.12,13.54,13.39,19.28a47.19,47.19,0,0,0,10.05,8.73c2.22,1.34,3.67,4.13,6.61,4.5,3.95.5,7.79,2.43,11.89.94.23-.09.73.06.75,0,.76-2.24,3.34-3.34,3.95-5.38.88-3,2.74-5.39,3.84-8.06,2-4.91,3.15-10.31.42-15.72-1.89-3.76-4.48-7.29-4.32-11.93.06-1.84-.95-3.73-1.56-5.57a11.2,11.2,0,0,1-.92-3.8,5.44,5.44,0,0,0-.83-3.52,8.19,8.19,0,0,1-1.17-5.52c.24-1.6.45-3.49-1.61-4.64-1.6-.89-1.22-2.91-1.21-4.32a11.53,11.53,0,0,0-1.75-5.69c-1.29-2.41-2.92-4.84-2-7.88a2.53,2.53,0,0,0-.64-2.35c-2.56-3.16-3.14-6.94-3.78-10.85-.83-5-2.46-9.8-3.69-14.7-1-3.93-1.64-8-2.88-11.8a64.92,64.92,0,0,1-2.87-12.67c-.16-1.41-1.49-2.16-3-1.06-2.59,1.94-5.93,2.27-8.56,4.43s-10,.4-11.16-2.18c-2-4.41-.26-8.43,3.14-12,5.67-5.94,13.61-9.25,18.31-16.22a17.54,17.54,0,0,1,9.11-6.73c5.44-2,10.41-5.28,15.55-8.07,4.73-2.56,9.26-5.46,14.1-7.88s9.19-5.94,14-8.42c3.92-2,7.85-4.33,12.65-4,3.73.24,6.44,3,6.07,6.83-.15,1.48-.79,2.9-.41,4.44a1.15,1.15,0,0,1-.36,1c-3.6,2.49-5.16,7.23-9.06,9.08-5.69,2.7-10.18,7.35-16.47,9.22a82.74,82.74,0,0,1,11.83,20.61c.76,1.83,1.19,4.35,3.38,5.86,1.06.73,1.21,3,1.58,4.57,2.5,10.36,5.95,20.49,8.23,30.87,1.24,5.61,3.85,11.21,2.69,17.26,2.19,1.66,1.67,4.11,1.8,6.34.18,3.2.84,6.28.26,9.63-.74,4.25,1.43,8.45,1.48,12.81s.12,8.49.56,12.7c.61,5.9,0,11.8.36,17.69.08,1.29-1.44,1.93-1.33,3,.33,3.3-2.27,5.59-2.71,8.52-.49,3.19-2.09,5.92-3.05,8.89-1,3.2-3,5.64-4.85,8.27a8.46,8.46,0,0,0-1.92,5.51c.05,1.05-.92,3-1.53,4.46a51.44,51.44,0,0,1-4.58,9.41c-1.61,2.37-2.82,4.62-5.65,6.2a24.64,24.64,0,0,0-5.31,3.76c-3,3-6.84,3.15-10.54,4.29-3.88,1.19-7.72-1.47-11.32.74-1.63-1.94-4-.44-6.07-1.32a14.37,14.37,0,0,0-7.63-1.23c-2,.28-4.34.52-5.92-1.5-.89-1.12-1.5.71-2.69.16-3-1.38-6.19-2.47-9.18-3.79-3.24-1.44-6.34-3.37-9.53-5.05-2.27-1.18-4.78-2.27-6.43-4.34-2.75-3.45-7.41-4.5-10-8.15a.65.65,0,0,0-.19-.21,13.45,13.45,0,0,1-5.64-5.08,71.84,71.84,0,0,0-6-7.84,67.78,67.78,0,0,1-4.26-5.88C275.78,732.19,276.31,731.73,276.63,730.86Z"/><path class="a" d="M656.39,118.85c1.92,1.22,1.87,2.51,1.25,3.91-2,4.54-2.14,9.32-1.95,14.18.12,3.27-1.7,6.21-1.81,9.49-.17,5.15-2.26,10-2.06,15.27.11,2.92-1,5.72-1.53,8.51-1.52,7.34-.35,14.52,1.05,21.54.57,2.86,1.42,6.79,4.67,8.53,2.86,1.52,5.72,3.27,9.4,2,1.31-.46,2.77,1.25,4.63,1.09a160.28,160.28,0,0,0,24.62-3.61c5.52-1.36,11.11-2.61,16.32-4.74,4.89-2,10.1-2.88,14.94-5.32,3.13-1.58,6.18-4.18,9.33-4.72,4-.68,6.83-3.76,10.81-3.73a3.45,3.45,0,0,0,2.08-.74,30.61,30.61,0,0,1,6.62-3.56c4.68-1.91,8.77-5,13.26-7.23,3-1.52,5.85-3.46,8.73-5,3.43-1.83,6.71-4.14,10.49-5.6,3.13-1.21,7.17-2.48,8.7-6.44a.89.89,0,0,1,.66-.42c3.48-.17,5.39-3.95,9.08-3.89,1.14,0,1.74-1.73,2.81-2.53,3.55-2.64,8.15-3.54,11.21-6.84a22.47,22.47,0,0,1,6.68-5.32c.51-.24.92-.75,1.43-.88,5.49-1.33,9.21-5.45,13.6-8.53,1.9-1.34,4-2.31,6.05-3.46,7.19-4.07,14.54-7.87,21.82-11.8,1.25-.67,2.68-.53,4-1.09,5.45-2.25,11-4.27,16.53-6.32,2.71-1,5.68-.62,8.47-.9,1.74-.17,4.71,1.27,6,3.85a25.92,25.92,0,0,1,1.22,19.81,6.83,6.83,0,0,1-2.9,3.27c-2.49,1.56-2.83,4.73-5.56,6.38-1.41.85-2.52,3.44-4.18,5.05-4.17,4.06-9.36,6.74-13.71,10.57-1.48,1.29-3.25,3.07-5.77,3.41-1.4.19-2.8,1.51-3.88,2.62a29.79,29.79,0,0,1-8,6.22,67.82,67.82,0,0,0-14,9.06,12.79,12.79,0,0,1-4.11,2.33c-2.58.93-5.41,1.48-7,4.14-.09.15-.26.34-.41.36-5.06.59-7.85,5.14-12.29,7.06-3.35,1.45-6.14,4.75-10,5.19s-5.32,3.57-8,5.26c-4.54,2.9-9.33,5.46-13.56,8.88-1,.83-2.56,1-3.86,1.57-5.24,2.08-10.37,4.26-15,7.77-4.81,3.69-10.88,4.91-16.41,7.17-3.41,1.4-7.28,2.42-10.24,4.65s-6.67,2.72-10,4.08a15.53,15.53,0,0,1-7,1.59c-.34,0-.9.14-1,.39-1.37,2.83-5.21,1.54-6.77,4.07a1.76,1.76,0,0,1-1.53.55c-3.3-1-5.62.54-7.86,2.71-1.14,1.11-2.63-.16-4,0-2.93.39-5.41,2.41-8.46,2.16-.56,0-1.2.21-1.66,0a4.71,4.71,0,0,0-6.07,1.45,1.69,1.69,0,0,1-1.77.63c-3.4-1.09-6.32.17-9.2,1.76a1.07,1.07,0,0,1-.79.06c-4.12-1.38-8.16,1.88-12.35.22-.87-.35-2.15.33-3.27.54-.71-.64-.42-2.15-1.82-2.2s-1.87,1.24-2.5,2.44c-5.37-1.85-11.09-2-16.18-4.45-2.65-1.25-5.48-.81-8.18-1.63-2.5-.76-4.68-1.6-6.17-3.85a4.21,4.21,0,0,0-2.65-2c-3.35-1-5.51-3.29-7.34-6.6-2.37-4.28-3.11-9.13-5.67-13.26-1.29-2.06-.29-4.55-.95-6.82-1.19-4.16-1.42-8.55-3-12.64a2.21,2.21,0,0,1-.2-1.36c1.69-4.67-.63-9.22-.47-13.9.18-5.35-.41-10.82.9-16a131,131,0,0,0,3-16c.64-5.27,1.92-10.34,3-15.49.75-3.59.91-7.42,2.3-10.73,1.68-4,1.64-8.25,2.83-12.21,1-3.18,3.23-6,3.63-9.48.36-3.17,2.81-5.4,3.28-8.67.37-2.55,2.62-4.84,4.09-7.21,3.13-5.06,6.2-10.21,10.24-14.58a29.71,29.71,0,0,1,9.77-7.28c6.6-2.9,13.12-6.52,20.49-5.78,7.14.72,14.28,1.58,21.27,4,10.47,3.56,20.3,8.82,31,11.7,8.66,2.34,16.14,6.91,23.36,11.89a18,18,0,0,1,6.66,7.34c1.11,2.52-.08,5.33-2.16,7-5.25,4.16-10.18,1.74-15.26-.13a24.71,24.71,0,0,0-5.82-1.66c-4.18-.45-8-2.27-12.18-2.78-2.67-.32-5.32.67-8-.36-1-.39-2.06-.23-2.75-1.38s-1.9-.74-2.86-.79c-4.77-.28-9.22-1.93-13.81-2.93-4-.87-8.12-2.11-12.4-1.66a9.39,9.39,0,0,1-5-.51,2.52,2.52,0,0,0-3,.77,39.34,39.34,0,0,0-10.58,20.44c-.2,1-.15,2.05-1.15,2.73-1.22.84-1.1,2.31-.92,3.36C660.3,115.53,659.63,117.51,656.39,118.85Z"/><path class="a" d="M342.12,385.86c3.89-1.69,7.17-4.13,10.7-6.11,5.12-2.85,10.39-5.46,15.36-8.62,2.6-1.65,5.1-3.9,8.62-3.39a.88.88,0,0,0,.75-.26c1.37-3,4.14-2.67,6.69-2.85,2.79-.19,5.23-2,7.91-2.07a33.59,33.59,0,0,1,6.65.22,9.9,9.9,0,0,0,4.33.05,3.55,3.55,0,0,1,3.09,1c3.26,2.3,6.89,2.43,10.59,1.93.73-.1,1.36-.31,1.68.32,1.19,2.35,3.42,2.45,5.59,2.78a1,1,0,0,1,.69.35c3.14,5.91,6.92,11.36,8.12,18.36.68,4,.9,8.46,3.24,12.21a5.45,5.45,0,0,1,.31,3.26,14.29,14.29,0,0,0,1.27,7,4.11,4.11,0,0,1,.44,1.29c.36,10.45,1.64,20.84,1.66,31.33,0,4.71.65,9.56.82,14.32.08,2.41.85,4.76.16,7.42-.61,2.4.63,5.28.5,8-.2,4.54.24,9.1.38,13.63.23,7.51.63,15.07,1.51,22.51.55,4.68,1.36,9.48,1.19,14.05-.18,5.12.4,10.21.11,15.35-.21,3.75-.13,7.61-.09,11.43.07,6.87-.88,13.63-1.65,20.49a51.88,51.88,0,0,0-5.56.41c-3.43.63-3.88,4.09-5.39,6.4a8.54,8.54,0,0,0-1,4.2c.05,3.49-1.92,4-4.48,3.58-3.72-.67-7.5.48-11.18-.68-4.56-1.44-5.31-.27-4.91-5.46.13-1.75-2.29-2.7-1.13-4.58-2.13-1.06-1-3.33-1-4.57,0-4.3-1.91-8.56-.56-12.82.45-1.43-1.37-.93-.91-2.18,1.1-.68,1.7-1.69,0-2.92-.27-.2-.58-.73-.49-1,1-2.45-.43-4.92,0-7.25.58-3,.78-5.85-.39-8.85a5.55,5.55,0,0,1,.5-5.41c.79-1.08-.12-2.27-.52-3.09-2.06-4.15-.36-8.38-.84-12.53.1-.66-.94-.11-1-1,.7-.78,2.08-1.43.49-2.73a2.72,2.72,0,0,1-.58-2.62c.79-4.12-.41-8.22,0-12.31.3-3.05,0-6.11.22-9.19.19-2.34-1.12-5.17-1.23-7.88-.09-2.18-.76-4.45,1-6.41,1-1,.08-2.93-.28-3.29-1.63-1.65-1.34-3.8-1.42-5.54-.11-2.77-.43-5.48-.65-8.22-.25-3.1-1.14-6.72-.42-9.25,1.21-4.27-1.91-7.93-.37-12.06.37-1,.84-3.82-1-5.29a.84.84,0,0,1-.22-.77c2.25-3-2-6.6.75-9.76a3.76,3.76,0,0,0-.91-3.84c-1.44-1.27.08-1.43,1.18-1.8-1.15-.87-1.92-1.62-1.86-3.31.17-3.94-1.25-7.83-1.33-11.71-.06-2.59-1.44-4.47-1.54-6.82-4.67.74-8.78,2.51-13,3.9s-6.94,4.79-10.94,6.06a68.22,68.22,0,0,0-9.07,3.5q-4.29,2.06-8.6,4.07c-1.65.76-2.94,2-5,2.34-2.2.34-3.39,2-1.71,4.32.45.62-.25,1-.29,1.53-.36,4.37,1.12,8.53,1.44,12.82a42.24,42.24,0,0,0,1.17,5.32c.94,4.54.2,9.24,1.64,13.74a44.52,44.52,0,0,1,1.47,4.4,93.54,93.54,0,0,1,1.93,13.8c.16,3-.3,6.12,1.42,8.95,1.23,2,.54,4.39.69,6.58.37,5.21,2.29,10.33,2.16,15.37-.13,5.23,1.13,10.84-1.93,15.93-1,1.61-2.66,1-3.57,2.32a38.47,38.47,0,0,1-4.1,4.58c-1.39,1.44-1.43,1.41-3,0-.37,1,.24,2.56-1.39,2.66s-1-1.37-1.44-2.2c-.63-1.28-.8-2.91-2.46-3.9-1.09,2.83-5.19,2-6,5.63-.73-2.91-4.49-2.09-5.06-5-.08-.46-2.13-.75-3.26-.73a2.51,2.51,0,0,1-2.77-1.87c-.79-2.77-2.84-5.18-2.31-8.37.24-1.49-1.66-2.14-1.74-3.85-.27-6.15-2.61-12-3-18.14-.31-5.15-2.32-10-2.47-15.12-.21-7.61-2.45-14.9-3.29-22.43-.65-5.77-.91-11.86-3.11-17.46-.44-1.11.09-2.24-.06-3.34-.6-4.5-1.56-8.93-2.1-13.45-.39-3.33-.8-6.66-1.13-10-.19-2-1.6-3.85-.62-6.07.53-1.23-1.74-1.29-1.57-2.29a14.37,14.37,0,0,0-.51-7c-.24-.71-1.2-5.68-1.57-6.47a4.74,4.74,0,0,1-.31-1.88c-.05-6.79-1.72-13.39-2.42-20.11-.31-3-.54-6.38-1.48-9-1.91-5.23-.27-11-3.13-15.85-.68-1.17.29-2.06.1-3.2-.73-4.23-1.94-8.46-.93-12.83a3.88,3.88,0,0,0-.19-1.93,30.61,30.61,0,0,1-1.64-8.65c-.33-7.24-2.5-14.26-3.3-21.44-1-9.11-3.33-18.2-1.07-27.46a27,27,0,0,1,6.68-12.64,5.23,5.23,0,0,1,2.52-1.06c1.73-.53,3.59-.61,5.09-2s5.44-.13,7.47,1.64c4,3.48,6.41,8.06,8.68,12.66.6,1.2,1.56,2.87.71,4.57s1.55,1.61,1.62,3.17a29.25,29.25,0,0,0,2.65,11.15,39.57,39.57,0,0,1,3.24,12.35c.51,4.71,2.83,8.67,3.67,13.19.57,3.06,1.6,6.44,1.94,9.55.3,2.76,3.08,5.28,1.11,8.29,2.68,2.54.24,6,1.51,8.76.84,1.86.28,4,.33,5.85.1,3.51,1.28,6.81,1.57,10.26.24,3-.23,6.52,1.74,9.34a1.51,1.51,0,0,1-.09,1.84,2,2,0,0,0-.13,2.15c1.66,2.44,1.2,5.4,1.92,8.06A64.16,64.16,0,0,1,340,374.5c.14,1.4-.23,2.77,1.24,3.66a.52.52,0,0,1,.2.49C340.29,381.13,342.93,383.24,342.12,385.86Z"/><path class="a" d="M588,674.43c-4.32-2.11-6,2.46-9,2.9-2.49-1.41-4.09-3.85-7-4.81-1.83-.6-4.08-2.16-3.45-4.8.42-1.76-1-2.48-1.42-3.75-.9-2.86-1.86-5.81-2.62-8.64-1-3.74-1.42-7.57-3.44-11.05-.95-1.64-.24-3.8-.44-5.73A59.66,59.66,0,0,0,557.19,625c-1.1-3.14-.69-6.33-1.41-9.48-1.34-5.84-2.8-11.71-3.58-17.68-.59-4.5-1.19-9-2.09-13.42-.74-3.72-.13-7.82-.69-11.68-.82-5.69-1.79-11.34-2.41-17.05-.81-7.48-1.52-15-2.52-22.41-.78-5.71-1-11.49-2.29-17.15-1.79-7.77-1.77-15.78-2.53-23.69s-2.75-15.49-2.88-23.36c-.07-3.9-1.38-6-5.17-7.78-2.77-1.31-6-2.9-8.14-5.68-.9-1.16-3.05-1.25-4.42-2.15-3.51-2.3-6.87-4.83-10.34-7.18-2.78-1.88-6-3.27-8.34-5.58a24,24,0,0,0-5.33-3.85c-.69-.39-1.45-.92-2.2-.62-2.35,4.23-1.56,9-2.9,13.29-1.08,3.45-1.18,7.21-2.53,10.43-2.81,6.67-2.1,13.9-4.07,20.69-1.38,4.78-4.21,9.13-4.34,14.27,0,1.57.26,3.16.13,4.71-.15,1.82-2.08,3.24-1.19,5.4.2.5-.7,1.06-1.36,1.21a2.38,2.38,0,0,0-2,1.76,3.51,3.51,0,0,1-3.49,3.07c-1.83.14-2-1.78-2.69-3a4.32,4.32,0,0,0-1,.07c-1.32.39-1.4,2.59-3.24,2.25-2-.38-3.07-2.37-5-3a1.12,1.12,0,0,1-.53-.93c.66-3.51-1.7-6.82-.42-10.47s-.62-7.91,1.06-11.55,1.44-7.75,2.29-11.6c1-4.42,1.36-9,2.07-13.46.65-4,1-8.11,1.72-12.16s2.2-8.1,1.84-12.3c-.18-2.09.76-3.87,1.28-5.62,1.17-3.94,1.62-8.06,2.77-12a45.92,45.92,0,0,0,2.07-10.53c.11-2.51,1.43-4.88,1.84-7.42.1-.66.53-1.23.38-2.05a6.2,6.2,0,0,1,1-4.76c1.34-2.07.71-4.75,1.88-7.1a73.76,73.76,0,0,0,4.93-12.77,110.21,110.21,0,0,1,4.82-12.95c1.2-2.8,1.94-6.11,4.76-8.3,1.37-1.06,1.68-3.35,2.7-5,2.2-3.6,5-6.78,7.14-10.36a72.55,72.55,0,0,1,10.81-13.09c2.41-2.43,5.18-5.28,9.28-4.85,1.5.16,2.38-.69,3.48-1.7A4.26,4.26,0,0,0,531,318.5c1.42-.24,1.5,1,1.89,1.66.92,1.54,2.08,1.71,3.74,1.56,6.72-.6,10.77,2.55,10.88,9.65a93.21,93.21,0,0,0,1.66,14A112,112,0,0,1,551.07,361c.13,5.16,2.06,10.25,3,15.41.79,4.58,2.27,9.1,2.8,13.6.39,3.3,1.73,6.42,1.68,9.77,0,1.28,2.55,2.38-.35,3.9,3.16.79,2.18,3.4,2.56,4.88.66,2.64,3.2,5.11,1.53,8.4-.31.61.72,2.48,1,3.86.8,3.82,2.48,7.37,2.2,11.5-.1,1.47,1.94,3,1.81,4.81-.22,3,1.24,5.77,1.42,8.79.12,1.89-1.05,4.81,1.4,6.51,1.11.77.28,2.47.23,3-.23,2.59,1.82,4.66,1.21,7.16a5.43,5.43,0,0,0,.67,3.42c1.8,3.81,1.67,8.06,3.08,11.91a59.37,59.37,0,0,0,2.71,7.36c1,2,.39,4.68,1.24,7.07a90.2,90.2,0,0,1,3.39,12.33c.63,3.19,2.08,6.1,2.49,9.37.5,4,.9,8.26,2.26,12,1.24,3.46,1.83,7,2.77,10.51s.37,7.57,1.11,11.26c.88,4.31,1,8.77,2.8,13,.72,1.74-.28,3.82.22,5.89a157.58,157.58,0,0,1,2.9,16c.66,5.2,1.59,10.37,1.6,15.66,0,2.29-.1,4.87,1.19,7,.89,1.45-.46,2.52-.27,4,.39,2.93,2.19,5.39,2.34,8.35.21,4.13,1.44,8.12.92,12.42-.28,2.28.12,4.75-.23,7.16a6.44,6.44,0,0,1-1,2.83,3.58,3.58,0,0,0-.63,3.47c1,2.35.95,4.93,1.77,7.31.93,2.67,1.52,5.35.61,8.2a9.34,9.34,0,0,0-.16,4.73c.38,1.88-.2,3.22-1.88,4.51a44.61,44.61,0,0,0-6.29,6.23,11.43,11.43,0,0,1-4.32,2.91C588.89,678.25,588.09,676.28,588,674.43ZM516.13,364.9c-1.37,2.43-3.36,4.35-4,7.48-.37,1.81-.61,4.15-1.86,5.86-2.6,3.55-2.29,8.34-5.11,11.79a1.22,1.22,0,0,0,0,.81c.5,2.36-2.93,3.44-2,6a1.26,1.26,0,0,1-.66.39c-1.37,0-1.17,1.67-1.1,1.82,1.1,2.05-.41,3.91-.59,5.78-.15,1.61-.2,3.57-1.17,5.16s-.4,3.62,1.51,4c3.51.78,6.53,2.63,9.55,4.34,2.84,1.61,6.34,2.13,8.67,4.21,3,2.63,6.57,3.85,9.63,6.43,1.24-3.76-1-6.72-1.37-9.9a58.44,58.44,0,0,0-2.37-10c-1.1-3.71-3.43-7.25-2-11.43a.6.6,0,0,0-.1-.53c-2.42-1.76-1.37-4.52-2-6.78-.35-1.2.95-2.07.47-2.9-2-3.56-1.95-7.66-2.65-11.47-.35-1.87-.89-4-1.2-5.9C517.55,368.53,518.82,365.87,516.13,364.9Z"/><path class="a" d="M426.38,350.39l-3-2.86c-4.2,1.56-6.27-1.76-8.74-3.82-1.41-1.17-2.72-2.39-4.24-3.47-3.3-2.33-6-5.27-6.9-9.48-3-2.13-4.27-5.71-6.48-8.58-1.89-2.45-2.09-5.67-3.82-8.16-2.87-4.12-4.14-9-6.44-13.39-1.4-2.68-1.81-5.75-3.24-8.48-2.35-4.49-4.46-9.12-6.45-13.78s-3.52-9.3-5.78-13.59c-2.88-5.44-4.67-11.3-7.56-16.7a32.47,32.47,0,0,1-2.88-6.64c-1.2-4.37-3.3-8.34-4.93-12.51A140.21,140.21,0,0,1,350,211.37a14.37,14.37,0,0,0-2.15-4.83c-2.38-3.42-2.34-7.63-3.7-11.39-1.47-4.08-2.93-8.18-4.41-12.26-.16-.44-.5-.81-.63-1.25-1.22-4.17-1.24-4.46-5.52-4a177.33,177.33,0,0,1-22.56.91c-4.62-.09-9.52.12-13.64-2.74a7.06,7.06,0,0,0-3.49,5.33,211.86,211.86,0,0,0-2,22.06,23.39,23.39,0,0,1-.62,4.14c-.76,4-.37,8.07-1,12-.65,4.09-.68,8.24-1.54,12.26-.68,3.17-1.86,6.21-5.09,7.9a5.71,5.71,0,0,0-2.12,2.55c-1.46,2.72-2.9,2.75-4.57.29a12.74,12.74,0,0,0-1.45-1.55c-1.86.3-2.06,3.13-4.47,2.41-1.76-.51-2.94-2.12-4.92-2.23-.69,0-.84-1.13-.69-1.93.62-3.22-.31-6.25-1.15-9.29a2.11,2.11,0,0,1-.17-.82c1.19-5.64-.28-11.51,1.09-17,1.05-4.22.76-8.46,1.42-12.65s1.53-8.21,1.79-12.4c.21-3.33,0-6.89,1.2-9.91,1.34-3.52.89-7.24,2.21-10.69.47-1.23.07-2.77.21-4.15a49.64,49.64,0,0,1,4.09-15.68,3.38,3.38,0,0,0,.37-2.16c-1.63-5.17.86-9.81,1.77-14.64.51-2.71,1.44-5.31,1.72-8.08.43-4.33,2.37-8.35,3-12.58.58-3.66,1.54-7.22,2.39-10.77,1.23-5.12,1.69-10.41,3.46-15.4,1.58-4.47,2.74-9.07,4.18-13.58a247.89,247.89,0,0,1,19.69-46.11c1.55-2.76,2.34-6.38,6.32-7.28,2.89-.65,5,.24,4.77,3.13-.21,2.44.92,3.88,2.05,5.51,3,4.32,3.64,9.56,5.72,14.21,3.64,8.11,6,16.69,9.29,24.9,3.65,9.1,6.37,18.52,9.68,27.72,2.16,6,3.12,12.37,5.82,18,2.8,5.9,3.74,12.49,7.35,18,1.15,1.76.92,4.11,1.4,6.17,1.08,4.61,3.51,8.63,5.1,13,1.12,3.09,1.6,6.31,2.75,9.36,3.31,8.79,6.5,17.63,9.8,26.43,1.66,4.44,3.82,8.73,5.09,13.27,1.52,5.42,4.3,10.29,6,15.63,1.58,4.89,4.3,9.41,6.39,14.15,1.95,4.43,3.56,9,5.6,13.39,3.63,7.78,6.45,15.91,10.47,23.51,1.4,2.65,1.85,5.63,2.84,8.42,1.44,4,3.7,7.65,5.5,11.49,1.26,2.68,3,5.2,3,8.44,0,2.16,2.08,3.39,3,5.23a39,39,0,0,1,2.42,5.35c2,6.54,4.44,12.92,6.21,19.56,1.16,4.32,2.18,8.68,2.94,13,1,5.94.31,11.6-5.52,15.38-1.29.83-2.07.21-3.08,0C431.07,348.51,428.42,347.57,426.38,350.39ZM299.23,150.25a102.56,102.56,0,0,0,11.87-.53,72.31,72.31,0,0,1,13.87-.25c4.63.4,5.75-1.19,3.85-5.36a5.23,5.23,0,0,1-.55-1c-1.07-5-2.52-10-3.51-15-1.41-7-4-13.78-4.61-20.9-.47-5.64-3.52-10.88-2.4-16.74a4.43,4.43,0,0,0-.59-2.66A22.23,22.23,0,0,1,315,76.6a8.07,8.07,0,0,0-1.39-5.07C306.15,97.21,303.63,123.7,299.23,150.25Z"/><path class="a" d="M199.56,662.92l.46-2c-9.43-2.79-13.65-13.82-11.36-18.8-.92-3.19-2.27-6-2.74-9.35-.66-4.72.12-9.54-1.92-14.23-1.78-4.09.09-8.92-1-13.29-1.56-6.1,0-12.28-.7-18.4-.48-4.42-.21-8.9-1.29-13.29-.81-3.31.78-6.6.58-10-.6-10.57-1.58-21.16-1.41-31.72.11-6.92-.85-13.74-.61-20.65.18-5.07-.67-10.17-.52-15.24.17-6,0-11.89.09-17.83.06-4.43-.39-8.91-.54-13.37a98.83,98.83,0,0,1-.1-11.16,39.75,39.75,0,0,0-.43-9.36,61.85,61.85,0,0,1-.38-11.92c.07-3.15-.42-6.21-.44-9.28,0-2.63-.37-5.34,0-7.9a14.42,14.42,0,0,0-.39-5.08c-1.13-5,.34-10.19-.8-15-1.59-6.7,1.34-12.63,2-18.92.14-1.28,1.11-1.69,1.84-2.31,4.79-4.09,8.13-4.43,12.61-.65a10.51,10.51,0,0,1,3.57,9.77c-.19,1.33-.11,2.3.95,2.87,1.31.7,1.26-.79,1.85-1.36,4-3.79,6.43-8.74,10.47-12.61,3.06-2.95,5.57-7,8.24-10.55s6.12-6.52,8.79-10.08c3.62-4.82,8.47-8.11,13-11.85,4.19-3.44,8.69-6.33,13.16-9.32,3.42-2.28,7.2-3.1,11.12-4.14,4.48-1.2,7.62,1.19,11,2.38,5.13,1.79,6.35,7.09,6.92,11.8.23,1.84,1.66,2.68,1.77,4.62.26,4.25,1.85,8.42,2.7,12.65.53,2.66.91,5.34,1.41,8,.68,3.63,1.55,7.33.42,11.06-.08.25-.2.65-.08.78,2.72,2.83,1.84,6.71,1.83,9.78,0,6.31,1.25,12.47,1.4,18.75a64.59,64.59,0,0,0,.5,9.36,16,16,0,0,1-.53,4.45c-1,5.85-.52,11.88-2.38,17.65-1.45,4.52-1.89,9.41-3.73,13.73a45,45,0,0,1-7.41,11.54c-1,1.16-1.78,2.74-3.23,3.77-1.14.81-1.87,2.14-3.55,2.06a1,1,0,0,0-.76.32c-3.08,5.69-9.54,4.36-14.27,6.55-3.12,1.45-6.18,3.32-9.73,4.18a69.6,69.6,0,0,1-10.43,1.73c-5.66.5-11.34,1.07-17,1.59-1.28.12-3.08-1.38-4,.57-.69,1.42.33,2.84.32,4.31a139.43,139.43,0,0,0,1.58,17.65c.76,6.1.71,12.31,1.41,18.48.63,5.49.6,11,1.47,16.56.42,2.69,1.05,5.38,1.34,8.08s-.19,5.68.76,8.24c.78,2.11.5,4.21,1,6.23a43.28,43.28,0,0,1,1,9.34c.07,2.57.92,5,1.45,7.46,1,4.84,1.43,9.8,2.34,14.66a181.37,181.37,0,0,1,2.71,22,46.5,46.5,0,0,1-.27,6.12q-.41,5.75-1.3,11.45c-.93,6-2.41,11.86-3.17,17.88a7.35,7.35,0,0,1-4.48,6,5,5,0,0,0-3,3.42c-.5,1.78-1.78,2.4-3.65,2.32s-3.34-.88-3.8-2.67c-.24-.95-.86-1.63-1.07-2.51-.13-.55,0-1.18-.82-1.22-1,0-.67,1.12-.81,1.21-2.17,1.24-3.64,3.21-5.41,4.86A1.93,1.93,0,0,1,199.56,662.92ZM228.37,456.2c.35-1.53,1.48-1.86,2.78-1.65s2.76-.39,4.1-.48c3.44-.21,6.09-2.46,9.42-3.11,4.69-.91,7.44-5.75,8.13-10.25.4-2.63,0-5.29.74-7.86,1-3.6.07-7.26-.08-10.84s-.34-7.49-.14-11.16a58.17,58.17,0,0,0-1-14c-.94-4.89-.18-9.75-1.17-14.68S249,371.85,250,366.53c.08-.38-.28-.85-.48-1.39a5.27,5.27,0,0,0-2.44,1.41,67.13,67.13,0,0,1-7.55,5.82c-4.19,3.1-8.75,5.78-12.21,9.69-3,3.4-6.58,6.21-9.08,10.21-1.78,2.83-4.6,5.22-7,7.78a8,8,0,0,0-2.52,6.65c.45,7.91.31,15.85.32,23.78,0,3.4.71,6.76.8,10.08a94,94,0,0,0,1.53,14.34c.48,2.58,2.74,3.51,4.94,2.09a3.81,3.81,0,0,1,3.94-.53,2.25,2.25,0,0,0,2.57-.31C224.63,454.9,226.33,455.08,228.37,456.2Z"/><path class="a" d="M160.56,412.81c-.43,2.93,4.63,3.91,1.68,6.73,2.78.81,2.81,3.41,2.86,4.73a21.36,21.36,0,0,0,1.1,6.15c.93,2.75.6,5.62,1.7,8.42a13,13,0,0,1,.42,8.73c-.42,1.28-1,2.68.48,3.78.07.06.23.14.22.15-1.5,2.85.55,6.5-.88,8.66-1.71,2.58-.86,4,.26,5.58-.11,1.42-4.61,1.15-.81,3.55a4.07,4.07,0,0,0-2.27,4c.06,4.7-1.85,9.18-1.52,14,.07,1-1.25,2.08-1.83,3,.22,1,1.42.48,1.41,1.52-.33,1.12-1.42,1.13-2.41,1.33,2.47,2.24-1.52,2.32-1.32,3.29.14,1.38,2,1.5,1,2.71-1.47,1.8-1.64,4.34-3.2,5.95-1.21,1.23.71,3.67-1.87,4.07,0,3.61-5,4.2-4.76,8,.08,1.6-1.8,2.16-2.65,3.11-1.85,2.08-2.5,5.12-4.65,6.56-1.38.93-1.53,3.53-3.92,3-.13,0-.45.15-.45.22.33,3.06-3.65,3.41-3.92,6.27-.1,1-1.31,2.64-2.52,2.69-3.07.13-3.89,3.17-6.14,4.2-1.86.84-3,3.06-5.44,2.78-.36,0-1,0-1.06.17-1.51,2.88-4.39,2-6.73,2.6-1.06.29-2.84-.07-2.9,2a1.12,1.12,0,0,1-1.26.86c-3.61-.85-7,.42-10.33,1.38-1.65.48-2.17-1-3.66-.71s-3,.4-4.48.58c-2.5.29-3.55-2.31-5.92-2.28-1,.33-1,2.24-2.55,1.95-1.14-.35.26-1.41-.54-1.86-1.2.07-.49,1.28-1.3,2-2.43-1.91-5.53-2-8.54-2.2a4.84,4.84,0,0,1-3.78-1.78c-1.17-1.32-3.49-.46-5.11-1.54a49.33,49.33,0,0,0-4.88-2.59c-.45-.24-.92-.76-.55-1.08,1.32-1.12-.6-.75-.51-1.26-1,0,.2,1.12-.71,1.17-3.68-2.33-6.72-5.6-10.65-7.75-3.33-1.83-3.29-6.19-5.81-8.81-1.58-1.63-1.5-4.46-4.13-5.56-1.43-.59-1.59-2.56-1.67-3.91-.2-3.43-2.25-6.23-2.83-9.51-.8-4.59-3.66-8.67-3.76-13.39a4.78,4.78,0,0,0-3.1-4.76c0-1.33,1.33-.68,1.67-1.61-1.62-1.12-3.37-2.28-1.16-4.42a1.66,1.66,0,0,0-.19-1.58c-2.32-1.39-.11-4.36-2.11-5.81a.29.29,0,0,1,0-.27c3.76-3.82-1-7.68,0-11.63.34-1.36.48-2.59,1.59-3.51-2.48-2.32-1.44-5.1-1.14-7.62s1.1-5.09.53-7.69a2.65,2.65,0,0,1,.6-2.07c2.23-3.59,2.67-7.55,2.7-11.64a11.68,11.68,0,0,1,.75-3.82,6.59,6.59,0,0,0,.2-4.61c-.31-.93-1.08-3.06,1.8-2.1-.53-1.16-2.76-2.11,0-3,1.48-.5-.44-1.1-.17-1.69,1.73-3.8.78-8.57,4.26-11.74.12-.11.31-.31.28-.42-.94-3.48,2-5.49,2.92-8.18,2.05-5.86,6.74-9.86,9.28-15.23,1.46-3.08,3.72-5.49,5.79-8.1S57,368.94,59.55,367c.35-.28,1.18-.41,1.17-.59,0-2.77,1.35-2.33,3.28-1.84,1.45.36,1.23-1.59,1.91-2.29,1.06-.42.94.74,1.7,1.07a4.76,4.76,0,0,1,2.9-1.14c3.7-.5,7.64.53,10.94-.65,2.44-.88,3.85-.88,5.6.58,3.2-2.55,5.74,2.32,8.85.8a.28.28,0,0,1,.26,0c1.5,3.07,5.35.8,7.16,3.15a1,1,0,0,0,1,.41c4.75-.14,8.65,2.48,12.92,4,3.54,1.23,5.71,5,9.84,5.06.43,0,1.48.5,1.3,1.23-1,3.81,1.75,1.69,2.76,1.86,1.84,2.61,3.17,5.51,6.73,5.82,1.18.11,1.25,1.12,1.5,1.77a6,6,0,0,0,4.09,3.71,4,4,0,0,1,2.39,2.21c2.11,3.86,5.8,6.61,7.87,10.28,1.6,2.82,5.14,4.47,5.14,8.33C158.82,411.49,159.39,413.07,160.56,412.81Zm-43.65,87.82c0-.8-.14-1.42.25-2.05,1.77-2.89,4.65-4.95,6.15-8,1.43-2.87,3.65-5.22,4.36-8.63.59-2.92,1.15-5.91,2-8.75.94-3.29.61-6.65,1.53-10,.78-2.81,1.58-6.13.59-9.32-.1-.31.39-.8.57-1.22.8-1.88,1.92-3.75-.33-5.52a1.87,1.87,0,0,1-.28-1.82c2-3-.43-5.9-.59-8.71-.22-3.77-2.6-7.74-5.22-11-1.88-2.32-3-5.09-5-7.41-1.48-1.65-2.48-3.5-4.78-4.12-.49-.13-.42-.47-.5-.82-.44-2.05-1.84-3.05-3.78-3.6a8.1,8.1,0,0,1-3.26-1.52c-2.72-2.53-6.35-2.95-9.52-4.41-2.1-1-4.63-.67-6.47-2.31a17,17,0,0,0-9.16-3.93c-2.82-.38-5.56-1.91-8.55-1s-5.31,3-7.94,4.5a5.91,5.91,0,0,0-2.57,3.82c-1.44,5.4-3.2,10.72-4.82,16.07a1.16,1.16,0,0,0,0,.82c1.6,2.74.32,5.86-.29,8.12-1.36,5.12-.17,10.14-.86,15.15a38.51,38.51,0,0,0,.32,10.32c.48,3.48-.21,7.1,0,10.71.27,3.9.82,7.72,1.35,11.58.4,2.9,1.6,5.57,1.73,8.63.08,1.86,1.61,4.42,2.52,6.59,1.4,3.31,2.91,6.57,4.37,9.86s4.55,5.51,6.79,8.28a1.37,1.37,0,0,0,1,.41c1.27,0,2.17.39,2.25,1.89,0,.37.61,1,.82,1,3.11-.61,5.68,2.25,8.88,1.31.92-.27,1.73-1.12,2.9-.72,4,1.4,7.87,1.56,11.3-1.59,2.16-2,5.15-2.67,7.46-4.58,1.35-1.11.4-3,2.08-3.67s2.42-2.09,2.28-4Z"/><path class="a" d="M108.76,464.72c-3.85.64-5.94,4.38-9.25,6.28-1.62.92-3.91,2.57-6.1.29-.88-.93-2.14-.06-3.17-.19-.75.49.24,1.59-.94,2a7.06,7.06,0,0,0-5.23-3.38c-3-.5-4.67-3.48-7.26-4.95-1-.58.53-1.52.77-2.38-4.83-4-3.38-9.59-3.2-14.58.06-1.64,3.23-3.17,5.1-4.87-.25-.56-1.17-1-2-1.75,1.57-1.28,3.82-1.32,5-3.41.52-.94,2.52-.46,3.61.52,1-.25-.15-1.3.93-1.63a2.17,2.17,0,0,0,2.61.76,4,4,0,0,1,4.71,1.38c1.49,2,3.32.53,4.9-.75,1.55,1,2.48,3.69,5.19,2,.48-.31,1.64.9.87,2-.64.91-1.35,1.89-2.79,1.74,5,.32,6.62,2,7.2,6.67.19,1.5-.4,3.35,1.43,4.61.49.34-.51,2.74-.74,2.89C107.65,459.63,109.51,462.26,108.76,464.72Z"/></svg>