<svg xmlns="http://www.w3.org/2000/svg" viewBox="0 0 1100 1100"><path d="M447.8,51.43c2.9-4.81,6.8-3.42,10.11-3.32a432.64,432.64,0,0,1,47.95,4.45c11.33,1.59,22.64,3.47,33.84,6,12.33,2.82,24.91,4.52,37.39,6.64,8.06,1.36,16.12,2.62,24.1,4.48a285.87,285.87,0,0,0,34.35,5.34c8.37.91,16.52,3,24.76,4.59,11.48,2.22,23,4.28,34.42,6.71,8.19,1.74,16.29,3.93,24.41,6A238.2,238.2,0,0,0,743,96.91c11.35,1.67,22.57,4,33.69,6.82a404.5,404.5,0,0,1,58.75,19.2c10.67,4.48,21.45,8.87,31.58,14.57a37.45,37.45,0,0,1,8.25,5.94,14.09,14.09,0,0,0,6,3.55c15.6,4.51,26.75,15.1,37.27,26.71,6.41,7.07,10.58,15.31,14.4,23.94,9.05,20.42,11.26,42,11.5,63.92a140.1,140.1,0,0,0,1.48,15.54c1.32,10.83.65,21.7.79,32.55.23,16.61-1.42,33.16-1.65,49.74-.22,15.22-.54,30.44-1.16,45.64-.39,9.67-1.54,19.31-2.27,29-.9,12-.69,24.06-.7,36.1,0,11.08-.69,22.13-1.17,33.19-.64,15-2.44,29.87-3,44.86-.49,13.93-.61,27.87-1.68,41.81s-2.14,28-3.41,41.95c-1,11.13-2.89,22.18-4.18,33.29-2,16.7-4.75,33.28-7.24,49.91-1.62,10.84-3,21.7-4.45,32.56-.7,5.48-.69,11-1.2,16.55-1.18,12.83-3.79,25.49-4.78,38.35-.72,9.33-2,18.61-2.42,28-.24,5.31-1.08,10.59-1.29,15.9a155.55,155.55,0,0,1-4.66,33.06c-2.13,8.24-3.15,16.74-5.72,24.89-2.94,9.3-5.12,18.94-9.06,27.8-4.77,10.77-8.66,22-15.31,31.92-4.28,6.35-9.94,11.25-16.08,15.8-6.69,5-14.06,7.1-22.17,8a58.31,58.31,0,0,0-16.48,4.84A92.72,92.72,0,0,1,795,999.23q-18.09,3-36.14,6.14a63.58,63.58,0,0,0-8.64,2.29,43.91,43.91,0,0,1-17,2.24c-10-.74-19.39,2.28-28.91,4.38-10.14,2.24-20.42,3-30.7,3.9-19.94,1.75-40,.93-59.94,1.56-11.49.36-23,.53-34.48.64-16.38.16-32.77-.18-49.15.22-18.54.45-37.08,0-55.63.18-10,.11-19.86-2.27-29.82-2.56-14-.42-28-1.57-42-2.42-12.21-.75-24.38-2.27-36.62-2.72-10.88-.41-21.75-1.21-32.26-3.94-7.37-1.92-14.8-.28-22.09-1.77a42.31,42.31,0,0,1-9.7-3c-7-3.31-14.13-6.42-21.18-9.65-6.44-2.94-11.6-7.66-16.95-12.14-8.92-7.48-15.75-17-24.55-24.61-7-6-12.9-12.9-18.87-19.82-6.09-7.07-9.71-15.48-13.11-24-1.64-4.07-3.8-7.84-5.61-11.8-1.95-4.25-4-8.48-5.78-12.79-9.87-23.32-18.71-47-27.62-70.74A441.08,441.08,0,0,1,153,770.53c-3.13-12.55-7.25-24.88-8.68-37.84s-2.18-25.65-2.35-38.55c-.13-10.72-1-21.43-1.23-32.15-.32-13.61-.23-27.23-.59-40.84-.19-7.23-.35-14.46-.58-21.69-.38-11.78-.6-23.56-.51-35.34.15-21.41.38-42.83.57-64.24.15-18.21,0-36.43.5-54.63.5-18.48,1.59-36.93,2.51-55.39.9-18.08,1-36.21,1.52-54.31.29-9.47.88-18.94,1.36-28.4.81-15.73,1.49-31.46,2.52-47.17,1.11-17,.23-34,1.93-50.93,1.65-16.41,1.61-32.93,3.62-49.29,1-8.11,2.85-16.13,4.06-24.22,1.44-9.67,2.47-19.39,3.75-29.08,2.09-15.88,10.8-26.14,24.95-32.88,11.9-5.67,24.65-8,37.24-11,4.72-1.13,8.87-3.58,13.46-5,6.37-2,13-2.26,19.47-3.53,16.45-3.23,33.17-4,49.81-5.22,10.6-.77,21.3-.45,31.95-.19,16.94.43,33.86-.51,50.78-.62,18.4-.12,36.8-.07,55.2-.16C446.21,47.83,447.4,48.53,447.8,51.43ZM325.49,64.5c-12.37-.86-23.69.8-35.07,1.46-11.16.65-22.23,2.22-33.31,3.65-6.64.86-13.57,1.24-19.63,4-8.15,3.71-16.78,5.33-25.26,7.69a69.39,69.39,0,0,0-13.69,5.07c-4.81,2.5-9.14,6.47-15.18,6-.78-.06-1.35.62-1.71,1.3a22.13,22.13,0,0,0-2.84,8c-1.28,12.4-2.7,24.79-4.36,37.14-1.07,7.91-3,15.7-3.92,23.63-1.67,15-2.8,30.05-4.24,45.07-1.13,11.76-1.92,23.54-2.61,35.33-1,16.68-2.24,33.35-3.41,50-1,13.69-2.07,27.38-2.94,41.08-.72,11.38-1.17,22.77-1.77,34.16-.93,17.77-2.2,35.53-2.74,53.32s-1,35.71-.79,53.59c.26,18.53.09,37.06.62,55.6.51,17.65.42,35.31.65,53,.26,19.28.45,38.57.9,57.85.36,15.54,1,31.08,1.63,46.62.39,9.79.54,19.62,1.58,29.35,1,9.17,1.67,18.4,3.91,27.44,1.59,6.42,3.92,12.6,5.55,19,2.61,10.2,4.82,20.54,8.09,30.52,5,15.37,10.76,30.51,16.26,45.72,3,8.41,6.06,16.84,9.41,25.12,6,14.79,12.84,29.26,18.22,44.26,5.47,15.23,14.79,27.44,26.11,38.48,4.88,4.77,9.72,9.55,14.28,14.65,6.91,7.7,14.2,15.08,23.39,20.14,7.37,4.07,15.34,6.88,22.95,10.47a35.76,35.76,0,0,0,16.73,3.15,39.26,39.26,0,0,1,10.79,1.07,130.53,130.53,0,0,0,21.32,4c16.88,1.3,33.8,2,50.68,3.44,17.18,1.5,34.5,1.27,51.7,2.91,5.4.52,10.8,1.18,16.25,1.2,18.11.06,36.23.11,54.35-.33,19.91-.48,39.83-.23,59.74-.56,21.3-.35,42.6-1.1,63.91-1a230.27,230.27,0,0,0,53.94-5.71c9.81-2.28,19.63-3.77,29.74-3.29a28.37,28.37,0,0,0,10.67-1.7c11.6-4.09,23.74-5.9,35.7-8.43,11.34-2.39,22.81-4.16,33.56-8.91a58,58,0,0,1,17.54-4.59c12.17-1.21,21.35-7.4,28.59-16.78,6.37-8.24,9.67-18.22,15-27.09,3.58-6,4.22-13.17,6.74-19.6,6.11-15.58,8.82-32,11.87-48.3,2.11-11.26,1-22.89,2.13-34.34,1.16-11.65,1.55-23.38,2.94-35,1.2-9.94,3.13-19.84,3.6-29.81.83-17.7,2.89-35.24,5.31-52.76,1.88-13.5,4.15-27,5.59-40.51,1.81-17.16,4.15-34.25,5.59-51.46,1.4-16.56,2.66-33.15,2.77-49.73.14-19.71,1-39.37,2.25-59,1.14-18.28,1.75-36.55,1.61-54.86a248.47,248.47,0,0,1,1-26.17c1.5-15.06,2.65-30.15,2.79-45.27.2-22.48,1.15-44.93,1.62-67.4.24-11.14.49-22.31-.37-33.43-.65-8.49-2.16-16.92-2.3-25.45a182.45,182.45,0,0,0-2.62-27.31,93,93,0,0,0-5.33-20c-4.83-11.69-10.88-22.61-20.32-31.35-6.74-6.23-13.47-12.43-22.52-15.23a32.57,32.57,0,0,1-13-7.26,39.92,39.92,0,0,0-12-7.77c-7.47-3.09-14.75-6.6-22.07-10-9.66-4.51-20-7.33-30-10.81a344.28,344.28,0,0,0-44.92-12c-13.78-2.76-27.8-4.14-41.46-7.59-10.3-2.61-20.53-5.75-31-7.4-21.32-3.38-42.26-8.81-63.79-11.11-16-1.71-31.51-6.14-47.37-8.78-16.33-2.72-32.57-6.14-48.84-9.25a445.18,445.18,0,0,0-46.85-6.08c-12.59-1-25.18-1.46-37.81-1.59-20.44-.2-40.88-.67-61.29,0C360,64.48,342.29,63.68,325.49,64.5Z"/><path d="M689.11,610.09c-3,.58-3,3.14-3.68,5.15-.44,1.4-.9,2.77-2.19,3.37-5.69,2.62-11.55,5.2-18,4-8.12-1.51-14.58-5.29-17-14-1.82-6.5-2.06-6.51-8.49-4.28-11.76,4.07-23.53,8.14-35.23,12.41a94.89,94.89,0,0,1-29.13,5.75,14.49,14.49,0,0,1-14.52-10.23,121.54,121.54,0,0,1-4.77-45.79c.68-7.21,1.07-14.45,3.2-21.44,2.92-9.62,7.7-18,16.05-24,5.27-3.73,11.37-5.51,17.72-6.56,5.62-.93,11.33-.72,17-.85a71,71,0,0,1,17.72,2.25c1.3-1,.87-2.38.93-3.56.65-12.08-2.37-23.68-4.77-35.35-.66-3.22-2.58-5.8-4.53-8.34-1-1.31-2.06-1.44-3.57-.55-7.77,4.56-15.81,8.71-23.37,13.58a219.75,219.75,0,0,0-21.79,15.6,7.43,7.43,0,0,0-3,7.32c.25,1.44.81,2.63-1.67,3.1-2,.39-1.85,3.11-2.35,4.88-.77,2.73-3.3,5.2-5.85,5.37a2.72,2.72,0,0,1-2.37-1.4,16.05,16.05,0,0,1-2.44-4.47c-4.21-12.88-1.83-24.27,7.5-34.21,5.63-6,12.55-10.41,18.75-15.68a69.5,69.5,0,0,1,11.15-7.72c10.67-5.94,20.13-14.07,31.83-18.11a113.09,113.09,0,0,1,21.3-5,5.66,5.66,0,0,1,4.85,2,86.54,86.54,0,0,1,14.42,19.68A91.82,91.82,0,0,1,669,466.75c1.33,4.19,2.65,8.5,2.78,13,.19,6.58,2.33,13,2,19.59-.25,5.4.52,10.76.11,16.2-.49,6.34-.06,12.74-.18,19.11-.15,7.42-.25,14.86-.78,22.26-.41,5.89.4,11.78-.56,17.69-.88,5.45.84,10.95.31,16.46-.23,2.37.9,3.82,2.93,5.13,3.62,2.34,6.33,5.84,10.47,7.65C688.09,604.72,688.09,607.63,689.11,610.09Zm-91.47-17.47c11.17-2.22,21.26-7.5,32.17-10.2,1.36-.34,1.82-1.14,1.66-2.59a296.79,296.79,0,0,1-2-30.84c0-4.24-1.33-5.27-5.46-5.43-8.11-.33-16.17-1.46-24.34-.53-3.75.43-5.36,1.5-5.56,5.33-.13,2.33.11,4.75-.44,7-2,8.13-1.11,16.18-.09,24.31.38,3,1.92,6.07.5,9.29C597.24,588.48,595.84,591.83,597.64,592.62Z"/><path d="M544.8,860.76c-.38-6.65,3.71-14.35,9.58-21.47,4.14-5,9.46-7.33,15.7-8.54,3.51-.68,7-1.43,10.54-2.31,5.18-1.3,10.62-1.15,15.67-.79,6.43.47,13,1.32,19.42,2.38a156.53,156.53,0,0,1,19.49,4.3c5.11,1.55,10.34,1.8,15.43,3.09,4.34,1.11,8.58,2.44,12.79,3.94,4,1.44,7.75,3.57,12,4.52,3.44.77,5.64,3.77,8,6.08a34.64,34.64,0,0,1,8.89,14.52c.31,1,.65,2.25-.46,2.45-3.91.71-3.73,3.85-4.11,6.57-.31,2.23-1.46,3-3.5,3.82-7.14,3-12.92-1-19.06-3.18a163.08,163.08,0,0,0-26.54-6.93c-6.71-1.17-13.59-1.55-20.16-3.79-4.58-1.57-9.59-1.13-14.4-1.52-5.38-.44-10.66-1.75-16-2a51.06,51.06,0,0,0-12.95.6,31.63,31.63,0,0,1-5,.78,3.23,3.23,0,0,0-3.21,2.12c-2.07,5-.79,7.56,4.81,8.15,5.43.57,10.92.61,16.38.92,6.1.35,12.18.88,18.28,1.07,5.57.18,11.15,0,16.73,0,7.09,0,14.11,1,21.18,1.32,7.6.35,14.89,2.47,22,4.82a63,63,0,0,1,19.95,10.37c3.09,2.49,7.11,3.87,10.11,6.44,5.49,4.72,9.3,10.87,12.8,17.15,2,3.61,4.26,7.12,5.48,11.14a18.36,18.36,0,0,1,.76,4,11.66,11.66,0,0,1-5.2,10.95,12.28,12.28,0,0,0-4.63,7.24c-1.77,6.34-5.44,11.11-12.53,12.62-6.91,1.48-13.89,2.33-20.84,3.43-10.94,1.72-21.93,2.23-32.92,2.79a237.53,237.53,0,0,1-24.74.32c-7.59-.4-15.22-.31-22.76-1.16-9.86-1.11-19.71-2.46-29-6.3-5-2.05-8.62-5.82-12-9.8-5.51-6.57-9.28-14.26-13.18-21.82A8.59,8.59,0,0,1,537,922a2.7,2.7,0,0,0,.22-1.82c-1.77-3.88,1-6.66,2.32-9.76.37-.89,1.94-2.23,2.15-2.09,2,1.27,3.45-1.55,4.7-.76,1.7,1.08,3,2.93,4.24,4.59,4.17,5.4,7,11.67,11.24,17a24.29,24.29,0,0,0,14.78,8.91,86.64,86.64,0,0,0,20.21,1.88c5.89-.14,11.76-1.25,17.65-1.4,9.53-.25,18.79-2.56,28.27-3.26,5.52-.42,11-1.93,16.52-2.76,2.93-.44,3.8-3.16,2.07-5.65a31.58,31.58,0,0,0-9.93-9.66,32.8,32.8,0,0,1-8.08-6.17c-4.43-5.07-10.25-5.62-15.93-5.93-10.89-.59-21.84-1.09-32.64-2.23-12.94-1.38-26.1-2.89-38.17-8.57-3.74-1.76-6-5-7.85-8.55C545.12,878.82,544.83,871.26,544.8,860.76Z"/><path d="M811.38,502.26c-4.24-.14-4.48,3.05-4.94,5.78a7.07,7.07,0,0,1-10.32,4.73c-6-3.64-10.76-8.94-16.32-13.1-8.42-6.31-17-12.63-27.32-15.77-2.66-.81-4.12-.1-4.59,2.51-1.43,7.95-3.9,15.69-4.43,23.82-.19,2.92.11,5.81.09,9.6-.33-1.3-.44-1.7-.71-2.76a298,298,0,0,0-.44,33.17c.49,10.9,3,21.43,4.64,32.08s4.84,21.27,10.58,31c1.24-1.32,3.25-.52,4.72-1.58a.6.6,0,0,1,.83,0c4.86,3.64,9.31.45,13.27-1.52,5.9-2.93,10.27-8.11,14.9-12.74,5.86-5.87,12-11.47,17.66-17.51,5.37-5.7,7.78-12.78,11.4-20-5.48.56-10,2.28-14.51,4-8.13,3.16-15.91,7.2-24.45,9.28a4.81,4.81,0,0,0-4,4c-.6,2.77-1.29,5.86-3,8-2.39,3-3.27,6.65-5.28,9.76-.8,1.25-2,2.28-3.37,2s-2.34-1.73-2.78-3.24c-2.77-9.4-2.28-19-1.56-28.56a40.13,40.13,0,0,1,4-15.63,31.39,31.39,0,0,1,12.3-12.59,210.4,210.4,0,0,1,19.33-10.68c3.55-1.67,7.52-2.76,11.17-4.24,5.55-2.25,11.44-3.4,16.87-6A67.39,67.39,0,0,1,846,509.86c6.25-.8,12.56-1.18,18.7-2.72,7-1.75,12.2,1.21,15.79,6.77,1.94,3,2.93,6.42.89,10.48-10.18,20.3-20.68,40.38-34.67,58.4a171,171,0,0,1-20,21.9c-5.59,5.07-11,10.39-16.92,15.07-6.3,5-12.36,10.3-19.9,13.74-4.83,2.21-8.75,6.36-13.3,9.31-5.14,3.32-10.1,7-16.41,8.24-7.08,1.37-12.83-.37-17.85-5.6-8.83-9.18-12.8-20.66-15.89-32.57-4.57-17.7-4.77-35.8-5.11-53.94-.37-20.41.39-40.72,4.15-60.77,2.3-12.24,5.7-24.27,12.1-35.17,6.2-10.54,18-12.4,28.3-7,3.28,1.72,6.65,3.42,9.95,5.11a61.07,61.07,0,0,1,16.37,12.12,133.53,133.53,0,0,1,11.48,13.41C807.08,491.33,810.47,496,811.38,502.26Z"/><path d="M452.24,268.65c.44-4.36-.27-8.24-.35-12.13-.09-4.16-.39-8.31-.49-12.46a2.89,2.89,0,0,0-1.81-3c-5.78-2.89-12.13-3.26-18.29-4.56-6.68-1.41-13.11,0-19.6.81-2.75.33-4.91,1.4-4.68,5.1.32,5.21-1.22,10.28-2.13,15.37-.41,2.28-.91,5.3-4.72,4.56-.56,2.61-1.05,5.11-1.65,7.58-.39,1.58-1.26,2.67-3.14,2.57a4.15,4.15,0,0,0-1.82.39c-3.48,1.57-4.81,1-5.65-2.88-2.07-9.54-2-19.21-2.05-28.92,0-10.84,4.47-19.81,10.26-28.34,4.62-6.82,11.57-10.41,19.37-12.4,11.61-3,23.41-2.83,35.2-1.74a47.09,47.09,0,0,1,19.93,7.07,16.77,16.77,0,0,1,6.51,8.13c1.86,4.58,3.65,9.22,3.59,14.4-.09,7.31,1.31,14.54,1.76,21.83.61,9.83,1.65,19.62,1.63,29.53a325.58,325.58,0,0,0,1.41,34.6c1.22,11.59,1.26,23.29,2.23,34.91.77,9.26,1.43,18.58,3.64,27.66a88.52,88.52,0,0,1,2.06,14.29,7.35,7.35,0,0,0,1.91,4.22c1.21,1.47,2.31,3.21,1.68,4.94-1.2,3.31,1.19,4.85,2.78,6.77,1.05,1.28,2.54.74,3.84.27a51.78,51.78,0,0,1,8.78-2.78,6.74,6.74,0,0,1,7.7,7c0,.21,0,.53-.14.6-4.26,2.3-3.35,8.21-7.63,10.65-5.41,3.08-10.89,5.9-17,7-3.17.56-6.32,1.78-9.68.38-5-2.1-7.26-6.61-9.86-10.83a9.26,9.26,0,0,1-1.24-2.94c-1.24-6.06-6.11-10.11-8.52-15.51-3.47-7.77-4.75-16.07-5.7-24.45-.2-1.78-.45-3.56-.66-5.23-1.13-.58-1.57.24-2.07.68a101.58,101.58,0,0,1-18.4,12.66,50.92,50.92,0,0,1-15.71,5,58.67,58.67,0,0,1-9.15.79c-4.51.08-7.32-2.64-9.78-6.09-9.8-13.69-10.67-29.49-10.77-45.43a209.33,209.33,0,0,1,2.39-32.8c1.86-12.18,5.24-23.88,12.65-34.08,3.6-5,8.78-7.14,14.32-8.76a42,42,0,0,1,17-1.77,13.1,13.1,0,0,1,7.43,3.85C448.86,266.44,450,267.83,452.24,268.65Zm4.79,54c-.29-5.1-.44-10.23-.77-15.32-.21-3.15.51-6.68-3.05-9.22-4.52-3.24-9.61-5.45-14.12-8.65a20.18,20.18,0,0,0-8.56-3.36c-3.82-.61-6.67.39-7,3.47a160.11,160.11,0,0,0-.8,18.32,313.39,313.39,0,0,0,1.63,31.69,123.08,123.08,0,0,0,2.77,15.27c.62,2.54,3,3.56,5.21,4.22s3.18-1.14,4.2-2.69a23,23,0,0,1,2.39-3c4.8-5.2,9.5-10.54,16.84-12.33,1.81-.45,2.33-1.81,2.16-3.71C457.53,332.44,457.32,327.53,457,322.63Z"/><path d="M597.93,309.44c5.17,4.61,10.58,8.9,15.33,13.83,5.54,5.74,12.57,9.55,18.24,15.05,6.09,5.9,13.2,10.54,19.86,15.7s13.51,10.41,19.87,16.06,13.11,11.24,18.41,18.13c2,2.55,1.83,6,4,8.57.65.77-.1,2.05-1.33,2.46a6.9,6.9,0,0,0-4.7,6.89c.16,3.56-1.23,3.79-4.2,5.2-8.35,3.94-12.72-2.38-17.94-6.21-8-5.86-14.57-13.32-22.31-19.52-10.75-8.6-21.35-17.47-31.27-27-4.46-4.28-9.3-8.37-13-13.47a5,5,0,0,0-3.79-2.07,2.67,2.67,0,0,0-.46,2.64c2.91,10.34,2.62,21.18,5.06,31.58a12.6,12.6,0,0,0,.52,2.5c2.74,5.91,1.21,11.69-1.56,16.8-1.95,3.6-4.09,7.12-6,10.79-1.27,2.48-4.48,2-6.74,3-.24.11-1-.69-1.38-1.16-6.65-7.85-9.09-17.48-12-27.06C567,363.59,562.43,344.75,557.4,326c-3.67-13.67-7.12-27.42-9.13-41.49A69,69,0,0,1,548,270c.41-5.8,3.88-10.69,8.31-13.86,4.63-3.31,7.28-7.89,10.73-12,5.69-6.74,11.77-12.93,19.49-17.61,5.9-3.58,11.77-7.17,18.32-9.22,7.47-2.34,14.92-4.77,22.85-5.63,5.11-.56,10.29-1,15.37-1.36a31.7,31.7,0,0,1,16.14,3.6,24.81,24.81,0,0,1,10.51,10c1.8,3,3,6.58,4.7,9.49,2.38,4.15,1.54,7.39.67,11.31-.48,2.19.07,4.65.32,7,.59,5.55-2.32,9.81-5.38,13.83-3.77,4.93-6.1,10.72-10.07,15.52a34.51,34.51,0,0,1-11.55,9.25c-5.15,2.56-10.23,5.23-15.43,7.68a136,136,0,0,1-32.87,10.25C599.4,308.36,598.6,308.28,597.93,309.44ZM565.08,278.6a50.86,50.86,0,0,1,11.16-2.84,222.77,222.77,0,0,0,28.22-5.45c9.35-2.61,18.88-4.65,27.84-8.59,3.42-1.5,7.27-2.21,9.8-5.23,1.91-2.28,3.54-4.79,5.27-7.22,3.23-4.55,2.61-6.09-3-7.48a6.38,6.38,0,0,1-.63-.12c-7.37-2.45-14.57-.53-21.63,1.24-18.07,4.56-33.3,14.9-48.76,24.69C569.54,270,566.12,273.13,565.08,278.6Z"/><path d="M785.42,290.82c.12,8.24-1,16.57-2.06,24.85-.54,4.38-.79,8.83-1.56,13.2a40,40,0,0,0-.48,7.55c.24,10.46-.43,20.92,1,31.39.6,4.5,3.09,8.36,3.19,13,0,1.4,1.53,3.59,2.6,5.29a4.28,4.28,0,0,0,2.9,2.32c3.57.53,7,1.66,10.66,1.87,3.89.21,7.45-1.3,11.11-2.14a65.76,65.76,0,0,0,14.5-5.07,59.88,59.88,0,0,1,10.62-3.67c6-1.62,11.92-4,18-5.21,5.4-1.08,10.86-2,15.8-4.32s10.28-3.82,15.41-5.66c2.27-.81,5.75-3.1,8,.92.39.69,1.71.56,2.42.21,2.16-1.07,4.37-.39,6.37-.54,2.43,3.29,4.55,6.61,7.15,9.52,1.52,1.71,2,3.68,2.77,5.63.49,1.24-.32,2-1.2,2.68a7.5,7.5,0,0,0-2.86,4.1c-1.31,4.45-4.42,7.54-8.25,9.78-7.55,4.39-15.27,8.47-22.84,12.81-9.28,5.3-19.24,9.13-29,13.42-7.3,3.22-14.78,6-22.15,9.07a169.64,169.64,0,0,1-45.92,11.8A70.59,70.59,0,0,1,761,443c-8.52-1.52-14.61-7-16.47-15.71a198.27,198.27,0,0,1-4.73-48.72c.27-7.25.89-14.47,1.64-21.67.68-6.42,2.14-12.77,3.18-19.16a216.33,216.33,0,0,1,8.81-36,175.71,175.71,0,0,1,15.15-33c2.78-4.63,7.34-7.87,11-11.81,1.48-1.58,4.15-1.62,5.91-1.66,3.53-.09,7.34,0,10.6,2.23,4,2.82,8.73,4.89,12.34,8.16,10.27,9.26,19.94,19.11,24,33,1.47,5,3.43,9.86,4.26,15,.24,1.51.47,2.8-1.31,3.79-1.51.83-1.55,2.85-1.77,4.3-.45,2.85-2.55,3.56-4.62,4s-3.44-1-4.42-2.58c-5.21-8.49-12.09-15.62-18.69-23-3.94-4.39-9.05-6.84-14.51-8.74C789.51,290.79,787.8,288.88,785.42,290.82Z"/><path d="M414.2,598.45c1.8,7.27,2.49,14.14,4,20.87,2,9.39,4.59,18.47,9,27.08,2.39,4.65,4.56,9.64,4,15.24a9.39,9.39,0,0,1-.87,3.68c-6,10.64-12.62,20.76-24.31,26a39.35,39.35,0,0,1-8.13,2.62c-2.51.53-3.59-1.43-4.1-3.5-1.27-5.05-2.5-10.12-3.61-15.21-2.72-12.49-6-24.88-7.76-37.55-3.28-23.83-6.07-47.74-9.27-71.59-2.79-20.8-4.38-41.73-6.35-62.61a48.26,48.26,0,0,1,.26-12.13c.47-2.91.3-5.9,4-7.91,2.2-1.18,3.75-4.55,6.09-6.62a52,52,0,0,1,8-6,139.55,139.55,0,0,1,20.64-10.42c5.29-2,10.71-3.68,16.43-3.42,4.69.21,8.23,2.8,11.23,6.36,4.8,5.7,7.3,12.41,9,19.5A196.29,196.29,0,0,1,446.91,506c.66,5.35.49,10.79,1.39,16.15,1.3,7.74,3.29,15.33,4.86,23,.83,4,1.53,8.13,2.17,12.22a6.27,6.27,0,0,1-1.24,4.55c-3.27,4.36-4.59,9.49-6.18,14.54a2.8,2.8,0,0,1-1.25,1.78c-2.07,1.13-2.86,3.1-3.32,5.21-.85,3.86-3.46,5.92-6.95,7.24C429.07,593.55,422.25,597.71,414.2,598.45Z"/><path d="M465.31,674.86c1.25.48,2.33.88,3.49,1.31.55-.62,1-1.18,1.53-1.71,1.27-1.35,2.07-1.18,3.17.46,2.5,3.73,4.56,8,7.19,11.3,5.79,7.34,6.84,16.13,8.88,24.37,2.27,9.17,4.23,18.52,6.06,27.84.83,4.23,2.87,8.33,3.87,12.67a121,121,0,0,1,2.75,15.54c.34,3.56,1.6,7.06,1.57,10.55-.05,5.15,1.36,10.3.13,15.41-1.1,4.57-1,9.27-1.73,13.88-.66,4.28-.63,8.73-3,12.59-1.4,2.33-2.55,4.82-4.44,6.87a22.49,22.49,0,0,0-3.87,6.2A27.15,27.15,0,0,1,479,844.9c-4.83,2.76-9.5,5.88-14.44,8.57-7.42,4-15.43,5.47-23.62,5.4-10.93-.1-20.45-4.19-28.53-11.68-4.53-4.2-9.5-7.86-13.5-12.73a117.51,117.51,0,0,1-11.66-17.41A104.35,104.35,0,0,1,374.4,778c-1.61-13.62-4.76-27.06-5.62-40.8a70.26,70.26,0,0,1,1.28-20.35,26.07,26.07,0,0,1,5.36-11.43c1.35-1.58,2.3-1.67,3.49-.06,2.31-3.15,6.3-4.22,8.3-7.73,2.11,1.25,3.85.89,5.3-1.52,2.1,2.68,4.47,4.83,5.75,7.5a69.5,69.5,0,0,1,5.19,15.13,163,163,0,0,0,8.76,28.53c3.32,7.87,5.93,16.07,9.76,23.66,2.4,4.77,4.28,9.83,7.23,14.39,2,3.06,3.23,6.6,5.62,9.5a21.14,21.14,0,0,0,5.45,4.79,74.58,74.58,0,0,0,13,6.65c7,2.57,15.2-2.07,15.41-9.47a200,200,0,0,0-1.77-36c-2.38-15.47-5.49-30.82-8.36-46.21-.74-4-2.38-7.81-2.39-11.88,0-6.83-.08-13.57,3.62-20C461.36,679.89,463.36,677.58,465.31,674.86Z"/><path d="M309.74,454.49c-2.3-5.11-4.33-10.25-6.88-15.12-2-3.9-3.38-8.24-7-11.26-5.78-4.79-12.31-8.31-19-11.45-7.65-3.58-15.48-6.76-23.22-10.14-9.54-4.16-19.09-8.29-28.58-12.58a40,40,0,0,1-8.18-4.72c-3.57-2.78-4.39-7.22-5.28-11.31a108.23,108.23,0,0,1,0-47.85c2.14-9.29,6.23-17.85,13.23-24.69.15-.14.28-.43.43-.44,4.75-.33,9-2.94,14.16-2.13a52.29,52.29,0,0,1,16.37,5.49,175.49,175.49,0,0,1,20.36,13c9,6.43,15.39,15.09,22.55,23.13,3.76,4.23,8.62,7.27,12.27,11.5,2.75,3.18,6.75,5.72,7,10.75-2.85,1.26-2.38,4.5-3.49,6.89-1.59,3.42-4.27,4.15-6.94,1.56a6.36,6.36,0,0,0-2.15-1.33,12.74,12.74,0,0,1-6.05-5c-2.87-4.07-7.46-5.59-11.74-7.35-7.64-3.14-15.19-6.1-21.9-11.33-8.28-6.45-18.38-9.41-28.56-11.74-2.06-.47-3.23-.12-4,2.54a79.12,79.12,0,0,0-2.53,17.62c-.18,3.25.5,5.64,3.9,6.59,6.49,1.81,12.23,5.18,18,8.55a38.25,38.25,0,0,0,12.7,4.78c3.14.56,6.14,1.93,9.17,3.06,8.94,3.32,18.36,4.43,27.63,6.26,3.39.67,7.3.9,9.73,3.84A160.53,160.53,0,0,1,324,408.52,131.42,131.42,0,0,1,334,428.33a76.9,76.9,0,0,1,3.23,11.58c1,4.43,1.87,9.31.67,13.39-1,3.42-1.13,7.49-3.74,10.41a30.07,30.07,0,0,0-6.14,11,6.77,6.77,0,0,1-4.09,4.19,36.26,36.26,0,0,1-19,2.94c-6.17-.63-12.3-1.39-18.22-3.31-10.72-3.47-22-4.63-32.78-7.75a102.85,102.85,0,0,1-18.08-7.33c-5-2.57-10-5.21-14.88-8.1s-9.65-6.32-12-11.94c-.87-2.08-1.64-4.23.09-6.31a1.28,1.28,0,0,0,.3-1.46c-2.2-4.14-.12-7.59,2.64-10,3.07-2.66,7.19-2.66,11.36-2.35,5.66.43,10.27,3.67,15.58,4.9a14.85,14.85,0,0,1,7,3.43c1.63,1.53,3.94.92,6,1.92,8.16,4,16.27,8.1,24.58,11.76,3.3,1.45,7.18,2.25,10.19,3.95,6,3.41,12.9,3,19,5.57A4.11,4.11,0,0,0,309.74,454.49Z"/><path d="M262.79,163.21A129.05,129.05,0,0,1,280.56,150c3.87-2.41,7.67-5.06,11.38-7.77,1.35-1,2.6-1.37,4.12-.59a2.24,2.24,0,0,0,1.21.35c6.66-1.22,8.53,3.64,11.25,8.17,2.36,3.93,1.85,7.28.29,11a10.3,10.3,0,0,0,.8,10.11c1.09,1.71-.32,6.6-2.74,8.68-2.83,2.44-6.48,3.57-9.57,5.6-6.07,4-13.34,4.07-20,6a67.08,67.08,0,0,1-14.71,2.86c-3.27.16-6.07,2.43-9.53,1.68-1.3,4.08.06,7.83.52,11.5,1,8.29,2.8,16.49,4.27,24.71,1,5.7,3.85,10.71,4.61,16.39,1.06,8,4.07,15.82,3.54,24-.28,4.26-.52,9-2.53,12.52a17.24,17.24,0,0,1-8.58,7.49c-3.38,1.23-6.5-.8-9.45-2.4-.72-.4-1.18-1.15-2.18-1.09-3.82.23-5.28-.75-6-4.29-1.25-6.48-2-13.08-3.6-19.46-3-11.79-3-23.91-4.48-35.86-.5-3.86.15-7.86-.33-11.72a191.51,191.51,0,0,1-1.19-20.07c-3.2,1.41-6.28,1.37-9.26,2.35-9.14,3-18.42,4.87-28.23,3.39-3-.45-5.74-.39-8.5-2.13A7.66,7.66,0,0,1,178,195a114.33,114.33,0,0,0-1.61-12c-.57-3.29,2.85-7.67,5.78-9.13,6.1-3.06,11.89-.08,17.76.31,8.4.55,16.69,2.23,25.26,3.74-.42-4-2.88-6.78-4.52-9.94-3.28-6.37-7.15-12.42-10-19-2.42-5.57-5.52-10.9-6.9-16.84-1.49-6.42-2.32-13.11-1.29-19.55.94-5.9,4.12-10.59,9.87-14.11,8.86-5.42,18.48-8.29,28.15-11.37a89.15,89.15,0,0,1,17.33-3.88c6.31-.7,12.56-.48,18.3,2.67,3.29,1.8,5.94,8.65,4.73,13-1.51,5.46-3.2,10.87-4.28,16.44a1.88,1.88,0,0,1-1,1.15c-4.42,2.18-4.46,6.5-4.82,10.43a81.64,81.64,0,0,1-2.6,14.57c-1,3.44-.89,7-2.14,10.52a36.84,36.84,0,0,1-2.71,6.64A5.25,5.25,0,0,0,262.79,163.21Zm-6-47.25c-3.32,1.73-6.24.61-9.18,1.24-5.06,1.08-10.25,1.21-15.18,3.41-3.23,1.45-4.09,2.41-4,6,.1,6.58,3.58,12.13,5.19,18.23.8,3,.33,6.35,2.52,9.11.88,1.1-.58,3.1.29,4.62,2.07,3.62,1.82,7.9,3.87,11.81C246.72,152.81,256.31,136.15,256.75,116Z"/><path d="M876.72,655.1c-.39,8.2-1,16.2-1.07,24.19-.06,4.08,1,8.18,1,12.26,0,3.18.31,6.89-2,9.32C872,703.73,868.73,706,864,705c-2.34-.5-4.95.38-7.54.05a6.75,6.75,0,0,1-6.23-5.87c-1-4.72-1-9.65-2.21-14.3-2-8.12-1.65-16.46-2.8-24.65-.65-4.65-2-9.39-1.12-14.27.35-1.88-.37-3-2.89-2.84-3,.19-4.33,1.51-5.53,4.06s-3.32,4.69-4.73,7.18c-2.14,3.78-2.86,8-3.78,12.24-1.35,6.27.61,12.31.18,18.52-.27,3.83-.17,7.93-.25,11.86-.15,7.35.81,14.67-.08,22.07-.63,5.3.64,10.81.34,16.18-.37,6.43.74,12.83.26,19.17-.41,5.49.63,10.81.54,16.22-.12,6.94.82,13.91-.68,20.79a24.27,24.27,0,0,1-1.69,5.06,2.56,2.56,0,0,1-2.53,1.59c-2.29-.1-4.55-.12-6.59-1.39-1-.61-1.73-.49-2.83.25a39.36,39.36,0,0,0-7.31,6.09,13.26,13.26,0,0,1-4.73,3.07c-1.74.8-3.44.65-4.63-.86s-1.81-3.86-.56-5c3-2.74,1.41-5.41.7-8.19-1.41-5.54-2.83-11.06-3.92-16.7A132.33,132.33,0,0,1,791.06,759c-.33-5.21-1.45-10.34-1.23-15.65.16-3.61-.91-7.33-1.42-11a44.74,44.74,0,0,1-.41-8.77c.32-5.57-.53-11.15.17-16.7.39-3.14-1.18-6.42.69-9.45a.89.89,0,0,0,.09-.62c-1.2-5.35.36-10.49,1-15.73A123.36,123.36,0,0,1,793.09,665c1.9-7.33,3.82-14.61,8.3-20.91a5,5,0,0,0,.8-2.07c.95-6.67,6.49-8.65,11.41-11.24,5.85-3.07,11.63-6.28,17.84-8.56,3.71-1.35,7.16-4,11.51-2.8.75.2,1.45-.29,2.13-.37,6.21-.72,12.68-1.8,17.8,3,4.23,4,8.57,8.13,9.33,14.45.17,1.46,1.45,2.19,2,3.45C876.46,644.93,876,650.19,876.72,655.1Z"/><path d="M243.32,780.75c.1-8.84-1.07-17.83-1.43-26.86a168.64,168.64,0,0,1,1-25.52,51.39,51.39,0,0,1,1.15-6.06c.7-3.09,5.87-6.65,9.15-6.14a6.57,6.57,0,0,0,3-.55c3.93-1.26,8-1.37,12.12-1.5.74,0,1.42,0,1.53.65.67,3.69,3.53,7.15,2.76,10.75-.92,4.32-.12,8.48,0,12.62.15,5.37-.13,10.77,1.14,16.22,1.31,5.67,1.05,11.73,1.16,17.63,0,2.15.89,2.11,2.32,1.66,6.46-2,13.14-2,19.81-2.49,5.91-.43,11.9-.35,17.72-1.75,3.4-.81,10,1.55,10.14,4.53.19,4.54,3.83,6.55,5.45,9.93a1.81,1.81,0,0,1,.11,1.52c-.74,1.91-.14,3.49,1.55,5-3.63,1.66-4.34,5.82-7.88,7.46-2.78,1.28-5.54,2.53-8.53,2.48-1.74,0-2.82,1.13-4.29,1.5-4.05,1-8.16,1.91-12.24,2.76a45.18,45.18,0,0,1-12.76,1.14c-2.53-.22-3.95,1.83-6.21,1.51a11.43,11.43,0,0,0-3,.42c-.46,3.88.12,7.89.14,11.9s.75,8.25.7,12.28a91.11,91.11,0,0,0,1.25,18.06c.55,3,1.44,5.79,2.08,8.69.44,2-.9,4.12-.31,6.29a16.23,16.23,0,0,1,.25,2.81c-3.6,1.69-5.5,6.73-11.13,6.26-.44,1.73-2.94,1.9-4.28,3.38-1-.58-2-1.24-3-1.72-3.22-1.49-4.74-4.19-4.46-8a2.52,2.52,0,0,0-.13-1.23c-4.51-9.72-6.76-20.09-8.82-30.51-1.47-7.36-1.16-14.89-2.12-22.29,0-.4-.15-.79-.27-1.39-6.06,1-12-1-17.92,0-4.67.81-9.52,1-13.65,3.9-.78.54-2,1.39-3.17.24-.63-.59-1.41-.29-2,.24-2.94,2.52-6.49,2.23-10,2.33-2.15.06-3.92.38-5.7-1.75-4.18-5-4.14-9.33.78-13.66,5.74-5.05,12.58-8.4,19.17-12.07,4.68-2.61,9.79-4.16,15-5.66C234,784.42,238.93,783.86,243.32,780.75Z"/><path d="M227.81,475c7.91-.49,15.82,2,23.91,2.94a89.15,89.15,0,0,1,19.6,4.95c16.58,6,27.65,17.54,34.63,33.48,3.59,8.2,7.52,16.26,9.16,25.13,1.61,8.64,2,17.25-.19,25.94-2.94,11.86-9.52,21.61-17.05,30.88a52.43,52.43,0,0,1-21.45,16.19c-8.72,3.47-17.68,6.61-27.11,6.94a82.18,82.18,0,0,1-20.8-2.3c-4.29-1-8.67-1.41-13-2.49-5.09-1.29-10.08-2.66-14.53-5.36-8.41-5.11-17.12-9.79-22.4-18.84-4.38-7.51-6.76-15.56-8.43-24-2.13-10.66-1.85-21.37-.62-32.09.93-8,1.82-16.1,4.65-23.76a57.8,57.8,0,0,1,15.4-22.44c3.34-3.11,6.42-6.64,10.62-8.54C208.86,477.79,217.58,474,227.81,475Zm-8.71,17.63c-1.39.07-2.77.19-4.15.18-4.55,0-8.31,1.29-10.64,5.63a26,26,0,0,1-3.66,4.81,41.55,41.55,0,0,0-9.75,20.68c-.42,2.22-.19,4.44-.8,6.7-1.25,4.67-.95,9.58-.84,14.4.14,5.89-.39,11.7.89,17.71,1.87,8.78,5.81,15.66,13.14,20.65,3.61,2.46,7.22,4.89,11.09,7,7.06,3.89,14.62,6.05,22.32,8,6.69,1.67,13.44,2.82,20.38,2.11,6.13-.63,12.39-1.08,18.05-3.57A57,57,0,0,0,293,584.87c9.28-9.42,15.69-19.53,11.85-33.89-3.59-13.42-8.89-25.48-19-35.39-9-8.84-19.69-14.19-31.61-17.45A152.39,152.39,0,0,0,219.1,492.64Z"/><path d="M459.85,423.94c1.5.09,1.23,1.51,2.14,2.2l1-2.83c3.19,4.69,3.88,9.83,4.59,14.75,1.35,9.49,3.27,18.87,4.54,28.35,1.08,8.1,1.75,16.25,2.39,24.4,1,13,2,26,2.32,39.09a20.11,20.11,0,0,0,.38,2.37c2.38-.3,4-1.72,5.47-3.12,6.71-6.21,14.92-9.11,23.65-10.91.42-.09.85-.09,1.27-.16,7.55-1.17,9.52-.07,13.19,6.72,4,7.32,5.64,15.19,6.23,23.4a135.68,135.68,0,0,0,1.78,16.63c1.4,7.12,1.53,14.26,1.91,21.44.41,7.7-.17,15.43,1,23.1a35.41,35.41,0,0,1,0,5.73c-.15,9.21-.26,18.42-.47,27.62-.06,2.39-5,5.85-7.78,5.53-1.79,4.53-1,9.86-4.23,14.24-2.15-1.28-4.07-.91-6.41.42-3.44,2-6.11.23-7.14-3.65-1.26-4.79-1.32-9.69-1.32-14.56,0-16.83-.11-33.67.29-50.49.24-9.79,1.41-19.56,2.06-29.34.42-6.26.8-12.54,1-18.81.1-4.13-2.2-5.55-7.32-4.89-7.4,1-13.87,4.71-20.8,7.07-1.55.53-1.55,1.77-1.44,3.14.77,9.52,1.6,19,2.21,28.59.48,7.51.06,15.09,1.14,22.57.64,4.5,2,8.89,2.42,13.45.25,2.54.3,4.58-3.14,5-2.26.3-1.74,2.85-2.23,4.46-.36,1.2-.24,2.53-.51,3.76a2,2,0,0,1-2.26,1.78,4.55,4.55,0,0,0-2.72.56c-3,1.67-4.59.85-5.48-2.58a46.72,46.72,0,0,1-1.32-10.12c-.6-17.8-2.35-35.52-3.68-53.27-.74-9.88-.77-19.82-1-29.73-.32-16.42-2.19-32.75-2.66-49.14-.45-15.56-2.1-31.07-1.87-46.65a68,68,0,0,1,1.35-13C458.57,425.83,458.8,424.58,459.85,423.94Z"/><path d="M652.2,741.42c0,5.69-2.3,10.66-3.5,15.87-2.07,8.94-8,15.41-13.59,21.94a51.26,51.26,0,0,1-12.43,10.36c-5.59,3.36-11.72,5.18-17.83,6.85-4.47,1.22-9.3.06-13.8-1.19a49.93,49.93,0,0,1-12.57-5.35c-4.14-2.49-7.67-5.34-10-9.18-4.61-7.52-6.69-15.42-5.31-24.79,1.27-8.59,5.4-15.21,10-21.7,4-5.58,8.17-11.36,14.28-15,6.61-3.94,13.45-7.31,21.39-7.87,6.41-.45,12.76-1.34,19.25-.82a15.56,15.56,0,0,1,7.67,2.33c5.32,3.53,10.3,7.63,13.14,13.4A31.49,31.49,0,0,1,652.2,741.42Z"/><path d="M455.33,159.76c3.8.32,7.37.07,10.91.19a108.29,108.29,0,0,0,13.36.12l.64,0c8.19-.72,8.5-1.5,10.14-9.65,1.75-8.66,1.05-17.54,3-26.14.66-2.88,1.58-5.39,4.07-7.5,5-4.23,10.17-6.48,17-5.65,3.37.41,6.43.33,8.75,3.23,1.5,1.89,2.47,8.09,1.41,10.33-1.17,2.46-5.23,4.29-8.4,4.43-2.79.13-5.48.92-8.39.68-1.41-.12-2,2-2.09,3.53a53.46,53.46,0,0,0-.18,8.19A44.38,44.38,0,0,1,503,160.9c-.31.9-.57,1.91-1.73,2.08a1.48,1.48,0,0,0-1.39,1.11c-1.08,4.21-4.07,5.54-8,7.25-7.66,3.36-15.4,2.28-23,1.95-6.14-.26-12.26.49-18.34-.15-3.72-.39-7.49-.55-11.23-1a75.28,75.28,0,0,0-11.37-.22c-6.09.16-12.15-.79-18.22-.77-4.07,0-8-1.52-11.75-1.38-7.84.28-15-2.66-22.61-3.28a18.64,18.64,0,0,1-10.19-3.88c-.92-.74-2.08-1.26-1.64-2.74s1.92-1.46,2.93-1.28c4,.7,8,.43,12,.72,5.73.42,11.43-.22,17.14-.42,1.93-.07,3-1.29,3.69-3.34,1.86-5.28,1.19-10.33-.41-15.42-.87-2.75-.85-5.66-1.08-8.44-.76-9-2.92-17.75-4.49-26.61a20.88,20.88,0,0,1,.24-10c.72-2.27,5.42-6.47,10.72-6.68,10.45-.42,20.78.13,31,3,3.18.87,6.33,1.44,9.19,3.24,5,3.19,8.28,8.75,6.51,14.17-.84,2.58-1.05,6.29-3.92,7.86-2.49,1.35-5,2.87-8.28,2.31-4.44-.76-8.86-1-13.23-2.7-3.7-1.42-8.07-1.22-12.17-1.5-2-.13-4-1.08-6.37.09a167.82,167.82,0,0,0,3,16.81,102.59,102.59,0,0,0,6.77,21.19c1.16,2.54,3.76,3.32,6.11,4.18,6.78,2.49,14,2.28,21,3,1.05.11,1.47-.61,1.81-1.73.63-2.16,0-4.27-.07-6.32-.67-12.6,2.2-24.61,5.81-36.48,2.64-8.7,11.06-13.52,20.47-11.31a48.78,48.78,0,0,1,15.4,6.19c3.36,2.14,5.29,5.48,4.71,8.36-1,5-3.45,7.38-8,8.19-2.42.42-4.17,2.31-6.7,3-3.29.86-6.24,0-9.33-.07-1.52-.05-3-.52-4.55-.58a2.45,2.45,0,0,0-2.75,2.46c-.7,7.62-3.29,14.9-3.94,22.54C456.7,155.86,455.82,157.7,455.33,159.76ZM440.67,105.9c-.4-.85-.35-2-1.63-2.42-4.46-1.39-8.38-4-13.59-3.61-5.94.47-11.94-1.09-18-1-1.4,0-2.72.15-3.05,1.62s.74,2.62,2.1,3.06a19.63,19.63,0,0,0,5.25,1.17c8.44.34,16.8,1,24.91,3.63C438.53,109,440.19,108.21,440.67,105.9Zm24.94,13c2-.63,4.57,1.17,6.3-1.37C467.85,115.68,467.85,115.68,465.61,118.86Z"/><path d="M595.66,178.7c-1.39,2.12-.07,3.93-.07,5.74a110.73,110.73,0,0,0,.8,14.22,7.33,7.33,0,0,1-.57,4.65c-.64,1.18-.12,3.21-2.43,3.06-2-.14-3.61-.06-5-2.65-3.73-7-4.14-14.83-6.22-22.22-1.45-5.18-1.29-10.54-2.48-15.77a20.61,20.61,0,0,1,.73-10.81c1.13-3.16,4.59-3.58,7.17-3.81,3.94-.35,7.19-2.38,10.81-3.4a83.89,83.89,0,0,1,15.46-2.8c5.26-.48,10.45-1.79,15.7-2.49,8.24-1.1,16.5-2.14,24.78-2.94,7.24-.71,14.52-.91,21.77-1.84,2.85-.37,6.1-.08,9.07-.32s6.17-1.47,9.33-1.46c4.31,0,8.69-2,13,.47a3.06,3.06,0,0,0,2.48-.16,6.77,6.77,0,0,1,7.3.78c2.32,1.82,2.5,8.28,1,11-.14.25-.26.52-.38.76.56.54,1.37-.3,1.79.49a35.12,35.12,0,0,1-12.34,10.86c-2.59,1.28-5.34,2.23-8,3.5-5.78,2.8-9.65,7.71-14.16,11.92-2.75,2.58-5.69,5-8.2,7.82-3.4,3.8-7,7.35-10.74,10.82-3.33,3.13-7,5.88-11.48,7.19a5.13,5.13,0,0,1-4.52-1.25c-3.27-2.68-7.4-2.83-11-4.49-6.47-3-13.72-3-20.42-5.21a79.34,79.34,0,0,1-16.15-7.72C600.4,181.28,598,180,595.66,178.7Zm94-26.47c-24.89,4.57-49.8,6.73-74.73,9.45a23.5,23.5,0,0,0,9.84,5.73c4.25,1.37,8.59,2.57,12.68,4.33a146.5,146.5,0,0,1,21,11.57c5.56-4.88,10.4-10.45,15.59-15.69S684.39,157.35,689.61,152.23Z"/><path d="M920.39,242.09c0,7.66-3.19,12.46-8.82,13.88-.31.08-.76.41-.87.31-3.89-3.32-8.74.73-12.56-1.49-7.27-4.24-15.7-3.7-23.46-6-8.42-2.55-17.6-2.48-26.35-4.1-5.09-.94-10.07-2.26-15.28-2.55-7.77-.45-15.52-1.29-23.29-1.81A92.58,92.58,0,0,1,797,238.44c-3.7-.79-7.62-.62-11.44-1.17-5-.73-9.46-3-14.13-4.57-2.64-.9-5-2-7.81-1.07a2.14,2.14,0,0,1-1.25-.06c-5.47-1.68-11.21-1-16.77-1.94-3.23-.52-5.15-3.15-7.86-4.47-.09,0-.21-.17-.2-.24.64-4-3.26-7.14-2.05-11.26.53-1.81,2.23-2.68,3.06-4.34,1-2.12,3.09-3.73,4.51-5.69.79-1.09,1.54-.57,2.48-.57,6.14.05,11.41,2.41,16.28,5.91,2.52,1.81,5.46,1.63,8.35,2.09a127.9,127.9,0,0,1,15.56,3c4.53,1.29,9.25,1.48,14,1.75,4,.22,8.12.07,12,1.26,3.55,1.11,7.28.75,10.66.62a82.4,82.4,0,0,1,12.75.91c5.16.58,10.38.24,15.52,1.26,4.2.82,8.55.65,12.82,1.33a28.57,28.57,0,0,0,5.78-.22c3.79-.26,7.08,1.27,10.59,2,4.38.85,8.72,2.2,13.35,2.1,3-.07,6.24.9,9.12.88,4.75,0,8.06,2.84,12.09,4.11,2,.65,2.8,3.63,3.28,5.4C918.37,238,920.9,239.74,920.39,242.09Z"/><path d="M194.8,695c-.13-5.53,2.28-9.86,5.82-13.68,7.24-7.83,14.07-16.11,22.46-22.79,6.84-5.45,12.73-12,20.1-16.85,6-3.92,12.78-5.8,19.66-7.37,4.05-.92,7.86-2.81,11.89-3.52,5.35-.95,10.79-3.24,16.23-1.69a27.72,27.72,0,0,1,9.82,5.32,86,86,0,0,1,8.48,7.44c3.45,3.73,6,7.79,5.28,12.82-.42,2.94,1.11,4.21,2.6,5.79,3.13,3.29,2.9,7.56-1.29,9.6a11,11,0,0,0-5.07,4.57c-1.42,2.4-3.95,2.84-6.56,2.77-.64,0-1.4-.31-1.89,0-7.15,3.79-15.41,2.08-22.83,4.59-2.39.81-4.82,1.6-7.25,2.34-6.86,2.07-13.89,3.56-20.68,5.64s-13.68,3.46-20.57,4.9c-9.33,2-18.65,4.15-28.22,4.6a23.83,23.83,0,0,1-6.57-.87C194.2,698.11,194.61,696.39,194.8,695Zm100.78-31.11c-3.2-3.08-7.16-4.12-9.92-6.58-4.2-3.73-9.53-4.74-14.32-6.76a23.09,23.09,0,0,0-16.07-.57,34.05,34.05,0,0,0-10,5.35c-2.46,1.78-4.51,4-7.16,5.65a64.8,64.8,0,0,0-11.92,8.92c-4.17,4.1-8.73,7.83-12.36,12.52-1.22,1.58-3.26,2.57-4.09,4.65a2.73,2.73,0,0,0,3,.57,57.82,57.82,0,0,1,6.33-1.94c10-2.47,20.21-3.55,30-6.81,8.32-2.77,16.77-5.06,24.95-8.3a41.19,41.19,0,0,1,11.83-3.25A18.68,18.68,0,0,0,295.58,663.91Z"/><path d="M438.94,892c-3.74-2.1-6.67-4.28-10-5.46-5.18-1.87-8.79-5.87-13.27-8.66-2.07-1.29-3.7-3.28-6.29-3.78-4-.78-6.63,1.51-6.66,5.62,0,2.25.3,5.9-2.48,5.91s-1.72-3.68-1.74-5.6a18.18,18.18,0,0,1,.68-6.28c1.95-5.51,10.68-6.72,15.09-4.38a63.1,63.1,0,0,1,8.11,5c5.72,4.22,12.61,6.42,18.46,10.38,6,4.08,12.84,6.64,18.94,10.56,5.72,3.66,12.08,5.92,18.44,8.23,5.25,1.9,11.09,2.87,15.49,6.27,4.58,3.55,9.92,5.51,14.77,8.4,2.79,1.67,3.8,3.24,3.46,6.06-.25,2.08-1.49,2.57-3.63,3.32-5.16,1.8-7.44-2.54-11-4-2.14-.85-4.11-2.09-6.18-3.11-1.09-.53-2,.05-3,.47-3.89,1.61-8,1.93-12.13,2.63-5.08.85-10.25.45-15.22,1.66-2.26.56-4.39-.28-6.74.17a38.14,38.14,0,0,1-11.83.12c-3-.38-5.78.53-8.71.46-6.35-.14-12.68.4-19.08.12-5.4-.23-10.94.23-16.39.07-5.92-.18-12-.15-17.6-2.34-7.47-2.91-7.84-12.6-2.93-17a38.87,38.87,0,0,1,26.32-10.27c11,0,21.68-2.39,32.51-3.63A15,15,0,0,0,438.94,892Zm-49.78,19.7c5.67-.43,11.36.58,17-.32,4.37-.7,8.69-1.7,13.06-2.36,10.86-1.64,21.81-2.31,32.76-3,2.52-.16,5.38.2,7.93-1.52-2.13-1.37-3.93-2.43-5.64-3.64-2.67-1.89-5.33-2.63-8.53-1.12a32.91,32.91,0,0,1-5.46,1.55,110.68,110.68,0,0,1-19.7,4c-5.82.5-11.16,3-16.89,3.88C398.87,910,393.91,909.9,389.16,911.7Z"/><path d="M331.7,976.05c1.17,3.49-.26,6-2.58,7.78-2.61,2-6.27,1.22-8.95-.24-6.17-3.36-6.65-9.51-7.6-15.19-1.14-6.8-1.39-13.75-2.15-20.62-.41-3.72-.86-3.9-4.3-2.94-3.72,1-7.77.53-11.3,2.7-1.11.68-6.39-2.94-7.13-4.37-2.48-4.73-2.82-9.74-2.59-15,.33-7.7,2-15.07,4-22.47,1.29-4.92,1.14-10.35,3.75-14.77,3.72-6.32,5.75-13.12,7.6-20.08.59-2.23.49-4.56,1.66-6.75,1.25-2.36,2.85-3.67,5.42-3.82,3.23-.19,4.29,2,5.07,4.61,1.09,3.62,3.37,7.28,3.17,10.82-.37,6.76,2.61,12.61,3.74,18.92,1.23,6.84,2.7,13.68,4.06,20.51,1.27,6.32,3.89,12.31,4.15,19,.08,2.23,2.2,5.06,2.65,7.77,1,6.07,3.06,11.88,3.95,18,.69,4.79.42,9.4.46,14.08C334.78,975.47,333.2,976,331.7,976.05Zm-25.43-63.42c.2,1.49-1.61,2-1.63,3.32-.1,4.48-1.5,8.83-.89,13.42.57,4.35.29,4.38,4.75,2.9C307.27,925.87,308.56,919.15,306.27,912.63Z"/><path d="M727.58,127.15a146.66,146.66,0,0,1-1.5,25.73c-1.7,12.72-1.84,25.5-2,38.31-.37,24.52.68,49.09-1.65,73.55-1.83,19.11-3.56,38.22-4.64,57.38-.67,11.92-1,23.87-1.44,35.8-.56,14-2.37,27.86-2.78,41.81-.7,23.88-2.06,47.73-3.27,71.59-1.1,21.83-3.07,43.63-2.39,65.52.47,15.24,1.27,30.46,2.21,45.67.85,13.62,1.12,27.28,1.14,40.94,0,27.42.08,54.87,2.44,82.19,3,34.32,1.49,68.66,1.83,103,.19,19.41.64,38.83,2,58.18,1,15.41,3.13,30.77,3.67,46.2.65,18.11.67,36.26.18,54.39,0,1.2.85,3.28-1.35,3.24s-1.88-2.08-1.89-3.68c-.12-18.55.14-37.12-.53-55.65-.55-15.21-2.28-30.38-3.84-45.54-.83-8-.54-16.18-.93-24.28-1.68-34.76-.3-69.54-1-104.31-.19-10.43-1.23-20.85-2-31.28-1.14-16.16-1.6-32.36-2.09-48.56-.65-21.43.12-42.88-1.1-64.3-.89-15.54-1.87-31.08-2.37-46.63-.65-19.94-.14-39.86,1.1-59.78,1.55-24.8,3-49.61,3.72-74.44.68-23.35,3.6-46.56,4-69.91.19-11,.29-22,1.34-32.92,1.49-15.49,2.26-31.05,4.11-46.51a115,115,0,0,0,1-12.43c.29-24.42,1.36-48.81,1.41-73.24,0-12.72,2.54-25.21,4.16-37.79.53-4.1,1.11-8.19,1.67-12.28Z"/><path d="M531.1,887.57c-2.09-1.36-2.68-3.53-2.91-5.89a311.13,311.13,0,0,1-.2-57.82c1.91-21.13.61-42.16,1-63.23.3-16.42,1.44-32.81,2.14-49.21.56-13,1.41-26,2.95-38.89,3.29-27.66,2.21-55.38,2.08-83.09q-.12-23.51-1.7-47c-.71-10.58-.19-21.08-.13-31.63.07-11.92.72-23.85.45-35.74-.39-16.84-.29-33.67-.35-50.5,0-11.83-.18-23.67.67-35.49,1.39-19.5,1-39,.64-58.54-.5-24.32-.25-48.64-.64-73-.35-21.85-.89-43.72-2-65.54-.7-13.52-.25-27.07-1.64-40.57-1.57-15.21-.78-30.46-.18-45.68A38.54,38.54,0,0,1,534,93.88c1.44,2.4,1.12,4.35.91,6.12-1.33,11.71-.76,23.47-.4,35.17.62,20.35,1.95,40.67,2.94,61,1.92,39.44,1.67,78.91,2.14,118.38.25,21.55,1.13,43.12.09,64.64-1.38,28.79-.81,57.58-1.54,86.37-.35,13.75-.88,27.5-.74,41.26.25,25.18,1.87,50.31,2.52,75.47.57,21.76.62,43.54-.11,65.28-.51,15.33-2.58,30.59-3.71,45.9-.8,11-1,21.95-1.81,32.9-2.11,27.81-.83,55.67-1.52,83.49-.25,9.76-1.59,19.51-1.7,29.33-.14,11.84-.5,23.67.31,35.49.26,3.82-.26,7.69.62,11.48C532.08,886.76,531.83,887.2,531.1,887.57Z"/><path d="M840,801.08c5-.73,7-.44,6.87,5.14-.11,7.07.65,14.16.39,21.22-.3,8.47.11,16.93-.21,25.39-.2,5.44,2.15,10.44,2.84,15.73a124.49,124.49,0,0,1,1.32,13.52c.09,4.31-.51,8.61,1.08,13a17.72,17.72,0,0,1-.87,14.09c-.65,1.28-1.4,2.57-3.42,1.87-1.62-.57-3.28.33-5.19-.1-2.79-.63-3.12-2-2.95-4.22-1.94-1-3.5.62-5,1.09-2.2.72-4.44,1.26-6.67,1.85-3.81,1-5.55.11-6.62-3.84a45.19,45.19,0,0,1-1.49-13.76c.24-5.13-1.08-9.88-2.19-14.72-1.7-7.35-1.47-14.76-.43-22.12,1.22-8.61,2.82-17.17,4.32-25.74.63-3.6-.29-7.29.4-10.81.62-3.12-1.29-6.81,1.76-9.37,2.5-2.1,4.93-4.67,8.75-3.55,1.52.45,1.91-.32,2-1.57.15-1.58.23-3.17.53-4.72.21-1.07.29-2.44,2-2.37,1.47.06,2.06.88,2.22,2.22A12.21,12.21,0,0,0,840,801.08Z"/><path d="M360.69,106.66c-.05,15.15.84,29.61.3,44.14-.86,23-.27,46.1-1.61,69.09-1.14,19.63-1.06,39.23-.82,58.85.34,28.69.84,57.39,1.79,86.06.55,16.65,1,33.31.49,49.91-.63,19.05-2.11,38.1-6.1,56.85-2,9.52-1.5,19.32-2.23,29-4.35,57.71-4,115.54-4.9,173.35-.56,34.45-1.61,68.93-.68,103.36.81,30.16,1.26,60.35,2.62,90.51.54,12,3.15,23.88,4.4,35.85,1.77,17,5.59,33.66,6.93,50.68.11,1.47,1.12,2.77.69,4.55-2.65-.39-3.34-2.3-3.74-4.4-2.6-13.71-5.07-27.45-6.81-41.32-1.58-12.59-3.31-25.16-4.88-37.75-1.16-9.23-.93-18.53-1.19-27.8-.56-20.36-1-40.73-1.77-61.09-1.23-34-1-68,.19-102.05.76-22.4-.16-44.82.65-67.2.86-23.88,1.07-47.76,1.9-71.63.69-20,2.45-40,3.8-60,.21-3.17,1.06-6.28,1.57-9.42,2.9-17.7,3.95-35.57,5.32-53.41,1.4-18.2.69-36.43.17-54.66-.17-5.86,0-11.74-.2-17.6-1-24.08-.76-48.18-1-72.27-.16-15.88-.41-31.81.6-47.65,1.84-29,1.76-58,3.06-86.92.5-11.29.43-22.6.64-33.91A4,4,0,0,1,360.69,106.66Z"/><path d="M763.4,839.63c.53,7-.51,15.17,1.85,23.27,2.31,7.91,2.2,16.22,2.21,24.46a95.54,95.54,0,0,0,.94,11.07c.79,6.61-.08,13-1,19.51-.15,1.07-1,1.37-1.66,1.77-4.18,2.48-8.74,1.84-13.12,1-1.46-.27-2.78-1.65-3.43-3.73-2.14-6.83-5-13.4-5.58-20.68-.17-2.08-1.62-3.92-2-6.23A140.7,140.7,0,0,1,740,870.43c0-4.3.93-8.33,1.81-12.35a83,83,0,0,0,1.79-9.79c.51-5.75.65-11.6,1-17.4.34-5.07.9-10.13,1.47-15.18.21-1.83.43-3.59-.53-5.28-.65-1.17-.6-2.45.56-3.09a2.92,2.92,0,0,1,3.81.38,19.51,19.51,0,0,1,2.82,4.29,27,27,0,0,0,5.4,8.38C763.11,825.39,763.45,831.92,763.4,839.63Z"/><path d="M802.79,852.56c1.45,6-.53,14.66-1.24,23.27a54.78,54.78,0,0,1-1.78,10.86c-1,3.34.71,7.37.2,11-.56,3.94,1.34,7.26,1.49,10.9.16,4.08-3,6.28-7.09,6-6.61-.39-9.2-7.24-9.16-13.23a14.7,14.7,0,0,0-1.07-5.15,49.11,49.11,0,0,1-2.27-23.52c.79-5.27-.07-10.49-.13-15.73,0-4.27-.19-8.46.73-12.78a128.84,128.84,0,0,0,2-13.24c.49-4.69,1.4-9.27,6.14-11.66,4.26-2.15,6.88-.88,8,3.8A165,165,0,0,1,802.79,852.56Z"/><path d="M550,196.37a12.24,12.24,0,0,0-.09-4.87,33.12,33.12,0,0,1,2.05-16.66,20,20,0,0,0,1.31-9.87,10.84,10.84,0,0,1,.65-5.95c1.12-2.59,2.93-2.66,5-2.36,4.77.71,7.5,3.71,8.09,8.37.55,4.4,2.26,8.36,4,12.34a88.59,88.59,0,0,1,6.2,20.65c.7,4.28,1,9.55-4.3,12.26-.26.14-.62.34-.7.58-1.29,4.09-3.14,4.28-5.81,1a2.83,2.83,0,0,0-3.53-.52c-4.16,1.92-6.48-1.29-9.22-3.38C549.38,204.78,551.31,199.91,550,196.37Z"/><path d="M764.61,171.23c2.77-.79,4.83,1.09,7.16,2a2.8,2.8,0,0,1,1.5,1.56c1.63,5.8,3.15,11.59,2.37,17.76-.29,2.32-2.31,2.11-3.46,3.08-1,.81-2.24,1.17-2.41,2.67,0,.21,0,.56-.15.6-3.45,1-6.16,4-10.17,3.68-2.54-.22-5-.49-6.85-2.39-2.77-2.78-5.94-5.34-4.68-10.06a7,7,0,0,0-.12-3.49c-1-3.87,1.49-6.68,2.75-9.85.31-.79,1.22-1,2.05-1.3a41,41,0,0,0,6.94-3.14C761.18,171.34,762.71,170.71,764.61,171.23Z"/><path d="M655.57,686.74c3.5.43,7.06,0,10.32,2.28,2.82,2,4.55,4.18,4.34,7.57-.34,5.74-2,10.66-6.68,14.65s-11.95,5-16.75,1.2c-4.58-3.59-7.61-7.91-8.08-13.94-.34-4.5,2.54-9.37,7.06-10.61A31,31,0,0,1,655.57,686.74Z"/><path d="M818.69,184c-.94,2.21-.58,3.51,1.26,4.82,2.32,1.66,2.39,7,.62,9.24-2.37,3-5.61,6.34-8.58,7.11-5,1.29-10.6,2.15-15.93.58a8.22,8.22,0,0,0-3.49-.71c-1.34.14-3.82-1.08-4.05-2.1-.55-2.44-2.67-4.68-1.39-7.52a7.48,7.48,0,0,0,.21-2.82c0-2.78,1-4.45,3.89-5.74,3.74-1.71,7.64-3.23,11.42-4.55A18.84,18.84,0,0,1,818.69,184Z"/><path d="M666.27,807.85c-7,.22-12.17-4.07-13.32-8.39a15.44,15.44,0,0,1,1.07-11c2.5-5.36,7.27-7.38,12-9.19,6.19-2.35,11.25,1.14,13.38,7.83,1.57,5,.21,9.62-1,14.19C677.25,805.58,671.87,808.13,666.27,807.85Z"/><path d="M564.51,699.34c-.41-1.89.24-4,.83-6a8.76,8.76,0,0,1,5.14-5.92c3.67-1.61,7.45-3,11.08-4.77,1.94-.93,4-.15,5.77,1.78,2.52,2.69,5,5.18,6,8.88,1.17,4.49-1.24,7.94-3,11.67-2,4.32-5.48,5.27-9.69,4.71-3.61-.48-7.41.37-10.83-1.39C565.2,705.94,564.54,704.79,564.51,699.34Zm13.25-5.54c-2.3,1.68-2.3,3.16-1.33,4.58a1.81,1.81,0,0,0,2.59.38C580.82,696.65,577.69,696,577.76,693.8Z"/><path d="M663,744.61a20.58,20.58,0,0,1,10.81-16.77,4.58,4.58,0,0,1,2.7-.68c3.48.54,6.82-1.95,10.41-.09,4.25,2.19,5.41,6.38,2.87,10.39A53.14,53.14,0,0,1,679,749.28a13.22,13.22,0,0,1-12.18,2.83C664.14,751.35,662.52,749,663,744.61Z"/><path d="M857.41,210.35c-1.39,2-3.81,2.83-4.86,5.29-2.41-.85-4.61-2.61-7.48-1.36-.74.31-1.69-1.17-2.08-2.16a2,2,0,0,0-2.73-1.28c-.71-3.38-.3-6.59-1.18-9.82-1.34-4.89,2.09-8.48,7.31-8.76a4.52,4.52,0,0,0,2.76-1.44c3.7-3.24,9.58-2.95,11.84,1.28,2.17,4.05,4,8.57,2.93,13.46a3.8,3.8,0,0,1-1.49,2.3c-1.19.87-2.48,1.5-3,3.43C859,212.87,858,211.28,857.41,210.35Z"/><path d="M570.07,799.69c0,4.58-3.79,10.33-7.54,10.3-2.73,0-5.08-2.37-6.84-4.62a6.81,6.81,0,0,1-1.7-5.52c.55-3.36-1-6.43-1.77-9.6-.7-2.77.67-4.72,3.43-5.19,3.43-.57,6,.68,8.4,3.24C567.16,791.67,569.61,795.25,570.07,799.69Z"/><path d="M626.88,809.37a8.41,8.41,0,0,1-10,8c-2.45-.39-4.81-.43-7.1-2.15-2.73-2-3.63-4.39-3.15-7.36a6.4,6.4,0,0,1,5.25-5.38c3.48-.56,7.13-1.48,10.66.27A7.37,7.37,0,0,1,626.88,809.37Z"/><path d="M537.14,768.12c0-6.42,3.43-10.73,8.59-10.75s8.5,3.53,8.53,9.24c0,5.53-4.26,9.6-10.14,9.65C541.19,776.29,537.15,771.57,537.14,768.12Z"/><path d="M618.4,686.68c-.55,1.75-.3,3.35-1.42,4.76-2.16,2.75-5.2,3.87-7.72,2.47-2.73-1.52-4.56-5.8-3.62-8.49.29-.8.76-1.54,1-2.36.62-2.28,1-4.69,4.19-4.72a7.68,7.68,0,0,1,6.87,4.83A24.93,24.93,0,0,1,618.4,686.68Z"/><path d="M542.71,721.89c.12-5.27,2.36-7.6,7.09-7.64,3.89,0,7.47,3.63,7.76,8.41.15,2.48-3.47,5.91-5.87,5.46C545.29,726.92,542.63,726.48,542.71,721.89Z"/><path d="M202.56,553.8c-.39-11.85,3.32-22.49,10.18-31.94,3.36-4.61,7.44-8.78,13.76-9.39,1.14-.11,1.69-1.19,2.48-1.87A43.77,43.77,0,0,1,253,500c4.77-.54,8.45,2.84,11.62,5.82,9.13,8.59,14.24,19.09,14.27,31.93,0,6.73.4,13.45-2.11,19.83-4,10.24-8.39,20.56-16.62,28-8,7.28-17.75,10.17-28.66,6.45-6.95-2.37-13.43-5.59-18.31-11.11C205.8,572.65,202.34,565.79,202.56,553.8Zm13.74-7.55c-.42,5.92,1.57,10.17,4.86,14.1,4.74,5.66,11.18,8.57,17.72,11.2,6,2.4,11.93,2.45,17.46-1.8,7.94-6.09,10.45-14.35,11.14-24,.93-13.11-14.68-22.75-25.38-19.72-7.57,2.15-14,6-20.43,10.2C217.75,538.87,215.73,542.22,216.3,546.25Z"/></svg>