<svg xmlns="http://www.w3.org/2000/svg" viewBox="0 0 1100 1100"><defs><style>.a{fill:#fff;}</style></defs><path class="a" d="M463.07,52.33c2.9-4.82,6.8-3.43,10.11-3.33a435.06,435.06,0,0,1,47.95,4.45c11.33,1.59,22.64,3.47,33.85,6,12.32,2.82,24.9,4.52,37.39,6.64,8,1.36,16.11,2.62,24.09,4.48a285.72,285.72,0,0,0,34.36,5.34c8.36.91,16.51,3,24.76,4.59,11.47,2.22,23,4.28,34.41,6.71,8.19,1.74,16.29,3.93,24.42,6a238,238,0,0,0,23.81,4.57c11.35,1.68,22.57,4,33.69,6.82a404.5,404.5,0,0,1,58.75,19.2c10.68,4.48,21.45,8.87,31.58,14.57a37.22,37.22,0,0,1,8.25,5.94,14.09,14.09,0,0,0,6,3.55c15.6,4.51,26.75,15.1,37.27,26.71,6.41,7.07,10.58,15.31,14.4,23.94,9.05,20.42,11.26,41.95,11.5,63.93A140.15,140.15,0,0,0,961.16,278c1.33,10.83.65,21.7.79,32.56.23,16.61-1.41,33.15-1.65,49.73-.22,15.22-.53,30.44-1.15,45.64-.4,9.67-1.55,19.31-2.27,29-.9,12-.7,24.06-.71,36.09,0,11.08-.69,22.13-1.17,33.19-.64,15-2.44,29.87-3,44.86-.5,13.93-.62,27.87-1.69,41.81s-2.14,28-3.41,42c-1,11.12-2.88,22.17-4.18,33.28-2,16.7-4.75,33.28-7.24,49.91-1.61,10.84-3,21.7-4.45,32.56-.7,5.48-.69,11-1.2,16.55-1.18,12.83-3.79,25.49-4.78,38.35-.72,9.33-2,18.61-2.42,28-.24,5.31-1.08,10.59-1.29,15.9a156.18,156.18,0,0,1-4.65,33.06c-2.14,8.24-3.16,16.75-5.73,24.89-2.94,9.3-5.12,18.94-9,27.8-4.78,10.77-8.67,22-15.32,31.92-4.27,6.35-9.94,11.25-16.08,15.8-6.68,5-14,7.1-22.17,8a58.4,58.4,0,0,0-16.48,4.84,92.72,92.72,0,0,1-21.61,6.51q-18.09,3-36.14,6.14a63.06,63.06,0,0,0-8.63,2.29,44,44,0,0,1-17,2.24c-10-.74-19.39,2.28-28.91,4.38-10.14,2.24-20.42,3-30.7,3.91-19.94,1.75-40,.92-59.93,1.55-11.5.36-23,.53-34.49.64-16.38.16-32.77-.17-49.15.22-18.54.45-37.08,0-55.62.18-10,.11-19.87-2.27-29.83-2.56-14-.42-28-1.57-42-2.42-12.21-.75-24.38-2.27-36.62-2.72-10.88-.41-21.75-1.21-32.25-3.94-7.38-1.92-14.81-.27-22.1-1.77a42.62,42.62,0,0,1-9.7-3c-7-3.31-14.13-6.42-21.18-9.65-6.44-2.94-11.6-7.66-16.95-12.14-8.92-7.48-15.74-17-24.55-24.61-7-6-12.9-12.9-18.86-19.82s-9.72-15.48-13.12-24c-1.63-4.07-3.8-7.84-5.61-11.8-2-4.25-4-8.47-5.78-12.79-9.87-23.32-18.71-47-27.62-70.74a443.25,443.25,0,0,1-15.3-48.31c-3.13-12.55-7.25-24.88-8.68-37.84s-2.18-25.65-2.34-38.55c-.14-10.72-1-21.43-1.24-32.15-.32-13.61-.23-27.23-.58-40.84-.19-7.23-.36-14.46-.59-21.68-.38-11.79-.59-23.56-.51-35.35.15-21.41.39-42.82.57-64.24.15-18.21,0-36.43.5-54.63.5-18.47,1.59-36.93,2.51-55.39.91-18.08.95-36.21,1.52-54.31.29-9.47.88-18.94,1.37-28.4.81-15.73,1.48-31.46,2.51-47.17,1.12-17,.24-34,1.93-50.93,1.65-16.41,1.61-32.93,3.63-49.28,1-8.12,2.84-16.13,4-24.23,1.44-9.67,2.47-19.39,3.75-29.08,2.09-15.88,10.8-26.14,25-32.88,11.89-5.67,24.64-8,37.24-11,4.71-1.13,8.86-3.59,13.45-5,6.37-2,13-2.26,19.47-3.53,16.45-3.23,33.17-4,49.81-5.22,10.6-.76,21.31-.45,31.95-.19,16.94.43,33.86-.51,50.79-.62,18.39-.12,36.79-.07,55.19-.15C461.48,48.73,462.67,49.43,463.07,52.33ZM340.76,65.39c-12.37-.86-23.69.8-35.07,1.46-11.15.65-22.23,2.22-33.31,3.66-6.64.86-13.57,1.23-19.63,4-8.15,3.71-16.78,5.33-25.26,7.69a69.62,69.62,0,0,0-13.69,5.07c-4.81,2.51-9.14,6.47-15.18,6-.78-.06-1.35.62-1.71,1.3a22.49,22.49,0,0,0-2.84,8c-1.28,12.39-2.7,24.78-4.36,37.13-1.06,7.91-3,15.7-3.92,23.63-1.67,15-2.8,30-4.24,45.07-1.13,11.76-1.92,23.54-2.61,35.33-1,16.68-2.24,33.35-3.41,50-1,13.69-2.07,27.38-2.93,41.08-.73,11.38-1.18,22.77-1.78,34.16-.93,17.77-2.2,35.53-2.74,53.32s-1,35.71-.79,53.59c.26,18.53.09,37.06.63,55.6.5,17.65.41,35.31.65,53,.25,19.28.45,38.57.89,57.85.37,15.54,1,31.08,1.63,46.62.39,9.8.54,19.62,1.58,29.35,1,9.17,1.67,18.4,3.91,27.44,1.6,6.42,3.92,12.6,5.55,19,2.61,10.19,4.83,20.53,8.09,30.51,5,15.37,10.76,30.51,16.26,45.72,3.05,8.41,6.06,16.84,9.41,25.12,6,14.79,12.84,29.26,18.22,44.27,5.47,15.22,14.79,27.43,26.11,38.47,4.88,4.77,9.72,9.55,14.29,14.65,6.9,7.7,14.19,15.08,23.38,20.14,7.38,4.07,15.35,6.88,22.95,10.47a35.78,35.78,0,0,0,16.74,3.15,39.23,39.23,0,0,1,10.78,1.07,130.65,130.65,0,0,0,21.33,4c16.88,1.3,33.79,2,50.68,3.44,17.17,1.5,34.49,1.27,51.69,2.91,5.41.52,10.8,1.18,16.25,1.2,18.12.06,36.23.12,54.35-.33,19.91-.48,39.83-.22,59.74-.56,21.3-.35,42.6-1.1,63.91-1a230.8,230.8,0,0,0,53.94-5.7c9.81-2.29,19.64-3.78,29.74-3.3a28.37,28.37,0,0,0,10.67-1.7c11.6-4.09,23.74-5.9,35.7-8.42,11.35-2.4,22.81-4.17,33.56-8.91a57.75,57.75,0,0,1,17.55-4.6c12.16-1.21,21.34-7.39,28.58-16.78,6.37-8.23,9.67-18.21,15-27.09,3.58-6,4.22-13.17,6.74-19.6,6.11-15.58,8.82-32,11.87-48.3,2.11-11.26,1-22.89,2.13-34.33,1.16-11.66,1.55-23.39,3-35,1.19-9.94,3.12-19.84,3.59-29.81.83-17.7,2.89-35.24,5.32-52.76,1.87-13.5,4.14-27,5.58-40.51,1.81-17.15,4.15-34.25,5.6-51.46,1.39-16.56,2.65-33.15,2.76-49.73.14-19.71,1-39.37,2.25-59,1.14-18.28,1.75-36.55,1.61-54.86a248.47,248.47,0,0,1,1-26.17c1.5-15.06,2.65-30.15,2.79-45.27.2-22.47,1.15-44.93,1.62-67.39.24-11.15.49-22.32-.37-33.44-.65-8.49-2.16-16.92-2.3-25.45A182.45,182.45,0,0,0,941.56,231a93.12,93.12,0,0,0-5.33-20c-4.83-11.68-10.88-22.61-20.32-31.35-6.74-6.23-13.46-12.43-22.52-15.23a32.67,32.67,0,0,1-13-7.25,39.64,39.64,0,0,0-12-7.78c-7.47-3.09-14.75-6.6-22.07-10-9.66-4.51-20-7.33-30-10.8a342.33,342.33,0,0,0-44.92-12c-13.77-2.76-27.8-4.14-41.46-7.59-10.3-2.61-20.53-5.75-31-7.4-21.32-3.37-42.26-8.81-63.79-11.11-16-1.71-31.51-6.14-47.36-8.78C571.49,79,555.26,75.54,539,72.43a445.18,445.18,0,0,0-46.85-6.08c-12.59-1-25.18-1.46-37.81-1.58-20.43-.21-40.87-.68-61.29,0C375.29,65.37,357.56,64.57,340.76,65.39Z"/><path class="a" d="M704.38,611c-3,.59-3,3.14-3.68,5.16-.44,1.39-.89,2.76-2.18,3.36-5.7,2.62-11.55,5.2-18,4-8.12-1.51-14.58-5.29-17-14-1.82-6.5-2.06-6.51-8.49-4.28-11.76,4.07-23.53,8.14-35.23,12.41a94.89,94.89,0,0,1-29.13,5.75,14.49,14.49,0,0,1-14.52-10.23,121.54,121.54,0,0,1-4.77-45.79c.68-7.21,1.08-14.45,3.2-21.44,2.92-9.62,7.7-18,16-24,5.27-3.73,11.38-5.51,17.72-6.56,5.62-.93,11.33-.71,17-.85A71,71,0,0,1,643,516.77c1.3-1,.87-2.38.93-3.56.66-12.08-2.37-23.68-4.76-35.35-.67-3.22-2.59-5.8-4.54-8.34-1-1.31-2-1.44-3.57-.55-7.77,4.56-15.8,8.71-23.37,13.58a219.75,219.75,0,0,0-21.79,15.6,7.44,7.44,0,0,0-3,7.32c.25,1.44.82,2.63-1.67,3.1-2,.39-1.85,3.11-2.35,4.89-.77,2.72-3.3,5.19-5.85,5.36a2.72,2.72,0,0,1-2.37-1.4,16.17,16.17,0,0,1-2.44-4.47c-4.21-12.88-1.83-24.27,7.5-34.21,5.63-6,12.55-10.4,18.75-15.68a69.5,69.5,0,0,1,11.15-7.72c10.67-5.94,20.13-14.07,31.83-18.11a113.87,113.87,0,0,1,21.3-5,5.68,5.68,0,0,1,4.85,2A86.54,86.54,0,0,1,678.08,454a91.82,91.82,0,0,1,6.15,13.67c1.33,4.19,2.65,8.5,2.78,13,.19,6.58,2.33,13,2,19.59-.25,5.4.52,10.76.11,16.2-.49,6.34,0,12.74-.18,19.11-.14,7.42-.25,14.86-.77,22.26-.42,5.89.39,11.79-.57,17.69-.88,5.45.84,11,.31,16.46-.23,2.37.9,3.82,2.93,5.13,3.62,2.34,6.33,5.85,10.47,7.65C703.36,605.61,703.36,608.52,704.38,611Zm-91.47-17.46c11.17-2.23,21.26-7.51,32.18-10.21,1.35-.34,1.81-1.14,1.65-2.59a296.79,296.79,0,0,1-2-30.84c-.05-4.24-1.33-5.27-5.46-5.43-8.1-.32-16.17-1.46-24.34-.53-3.75.43-5.36,1.5-5.56,5.33-.13,2.33.11,4.75-.44,7-2,8.12-1.11,16.17-.09,24.3.38,3,1.92,6.07.5,9.29C612.51,589.37,611.11,592.72,612.91,593.52Z"/><path class="a" d="M560.07,861.65c-.38-6.65,3.71-14.35,9.58-21.47,4.15-5,9.46-7.33,15.7-8.54,3.51-.68,7-1.43,10.54-2.31,5.18-1.3,10.62-1.15,15.67-.78,6.43.46,13,1.31,19.42,2.37a154.39,154.39,0,0,1,19.49,4.31c5.11,1.54,10.34,1.79,15.43,3.08,4.34,1.11,8.58,2.44,12.79,3.94,4,1.44,7.75,3.57,12,4.52,3.44.77,5.64,3.77,8,6.08a34.7,34.7,0,0,1,8.89,14.52c.31,1,.65,2.25-.46,2.45-3.91.71-3.73,3.85-4.11,6.57-.31,2.23-1.46,3-3.5,3.82-7.14,3-12.91-1-19.06-3.18a163.08,163.08,0,0,0-26.54-6.93c-6.71-1.17-13.59-1.55-20.16-3.79-4.58-1.56-9.58-1.13-14.39-1.52-5.39-.44-10.67-1.75-16.05-2a51.06,51.06,0,0,0-12.95.6,31.45,31.45,0,0,1-5,.78,3.24,3.24,0,0,0-3.21,2.12c-2.06,5-.79,7.56,4.81,8.15,5.43.57,10.92.61,16.39.92,6.09.35,12.17.88,18.27,1.07,5.57.18,11.16,0,16.73,0,7.09-.05,14.12,1,21.18,1.32,7.6.35,14.89,2.47,22,4.82A63,63,0,0,1,701.42,893c3.09,2.49,7.11,3.87,10.11,6.44,5.49,4.72,9.3,10.87,12.81,17.15,2,3.61,4.25,7.13,5.47,11.14a17.78,17.78,0,0,1,.76,4.05,11.64,11.64,0,0,1-5.2,10.94c-2.51,1.81-3.77,4.17-4.63,7.25-1.77,6.33-5.43,11.1-12.53,12.62-6.91,1.47-13.88,2.32-20.84,3.42-10.94,1.72-21.93,2.23-32.92,2.8a240.31,240.31,0,0,1-24.74.31c-7.59-.4-15.21-.31-22.76-1.16-9.86-1.11-19.71-2.46-29-6.3-4.94-2.05-8.62-5.81-12-9.8-5.51-6.57-9.28-14.26-13.17-21.82a8.55,8.55,0,0,1-.59-7.15,2.7,2.7,0,0,0,.22-1.82c-1.77-3.88,1-6.66,2.32-9.76.37-.89,1.94-2.23,2.15-2.09,2,1.27,3.45-1.55,4.7-.76,1.7,1.09,3,2.94,4.24,4.59,4.17,5.4,7,11.67,11.24,17A24.29,24.29,0,0,0,591.9,939a87.19,87.19,0,0,0,20.21,1.89c5.89-.15,11.76-1.26,17.66-1.41,9.52-.25,18.78-2.56,28.26-3.26,5.53-.42,11-1.93,16.52-2.76,2.93-.44,3.8-3.16,2.08-5.65a31.72,31.72,0,0,0-9.94-9.66,32.8,32.8,0,0,1-8.08-6.17c-4.43-5.07-10.25-5.62-15.93-5.93-10.89-.59-21.84-1.09-32.64-2.23-12.94-1.38-26.09-2.89-38.16-8.57-3.74-1.76-6-5-7.86-8.55C560.39,879.72,560.1,872.15,560.07,861.65Z"/><path class="a" d="M826.65,503.15c-4.24-.14-4.48,3.05-4.93,5.78a7.08,7.08,0,0,1-10.33,4.73c-6-3.64-10.76-8.94-16.31-13.1-8.43-6.31-17-12.63-27.33-15.77-2.66-.81-4.12-.1-4.59,2.52-1.43,7.94-3.9,15.68-4.43,23.82-.19,2.91.11,5.8.09,9.59-.33-1.3-.44-1.7-.71-2.76a300.54,300.54,0,0,0-.44,33.18c.49,10.89,3,21.42,4.64,32.07s4.84,21.27,10.58,31c1.24-1.32,3.25-.52,4.72-1.58a.6.6,0,0,1,.83,0c4.86,3.64,9.31.45,13.27-1.52,5.9-2.93,10.27-8.11,14.91-12.74,5.85-5.86,12-11.46,17.66-17.51,5.36-5.7,7.78-12.78,11.39-19.94-5.48.55-10,2.27-14.51,4-8.13,3.16-15.91,7.2-24.45,9.28a4.82,4.82,0,0,0-4,4c-.6,2.77-1.29,5.86-3,8-2.39,3-3.27,6.66-5.28,9.76-.8,1.25-2,2.28-3.37,2s-2.33-1.73-2.78-3.24c-2.76-9.4-2.28-19-1.56-28.56a40.13,40.13,0,0,1,4-15.63A31.45,31.45,0,0,1,793.09,538a210.4,210.4,0,0,1,19.33-10.68c3.55-1.67,7.52-2.76,11.17-4.24,5.55-2.24,11.45-3.4,16.87-6a67.39,67.39,0,0,1,20.82-6.26c6.25-.8,12.56-1.17,18.7-2.72,7-1.75,12.2,1.21,15.8,6.77,1.93,3,2.92,6.42.89,10.48-10.19,20.3-20.69,40.38-34.68,58.4a171,171,0,0,1-20,21.9c-5.59,5.07-11,10.39-16.92,15.08-6.3,5-12.36,10.29-19.89,13.73-4.84,2.21-8.76,6.36-13.31,9.31-5.14,3.32-10.1,7-16.41,8.24-7.08,1.37-12.83-.37-17.85-5.6-8.83-9.18-12.8-20.66-15.88-32.57-4.58-17.7-4.78-35.79-5.12-53.94-.37-20.41.39-40.72,4.15-60.77,2.3-12.23,5.7-24.27,12.1-35.17,6.2-10.54,18-12.4,28.3-7,3.28,1.72,6.65,3.42,10,5.12a60.83,60.83,0,0,1,16.37,12.11,134.65,134.65,0,0,1,11.48,13.41C822.35,492.22,825.74,496.93,826.65,503.15Z"/><path class="a" d="M467.51,269.54c.44-4.36-.27-8.24-.35-12.13-.09-4.16-.38-8.31-.49-12.46a2.89,2.89,0,0,0-1.81-3c-5.78-2.89-12.13-3.26-18.29-4.56-6.68-1.41-13.11,0-19.6.82-2.75.32-4.91,1.39-4.68,5.09.32,5.21-1.22,10.28-2.13,15.38-.4,2.27-.91,5.29-4.72,4.55-.56,2.61-1.05,5.11-1.65,7.58-.39,1.58-1.26,2.68-3.14,2.57a4,4,0,0,0-1.82.4c-3.48,1.56-4.81,1-5.65-2.89-2.07-9.54-2-19.2-2.05-28.92,0-10.84,4.47-19.81,10.26-28.34,4.63-6.82,11.57-10.41,19.37-12.4,11.61-3,23.42-2.83,35.21-1.73a46.94,46.94,0,0,1,19.92,7.06,16.77,16.77,0,0,1,6.51,8.13c1.87,4.58,3.65,9.23,3.59,14.4-.09,7.32,1.31,14.54,1.76,21.83.62,9.83,1.65,19.62,1.63,29.53a325.58,325.58,0,0,0,1.41,34.6C502,326.68,502.05,338.38,503,350c.78,9.27,1.43,18.58,3.64,27.67A89.37,89.37,0,0,1,508.73,392a7.39,7.39,0,0,0,1.9,4.23c1.21,1.47,2.31,3.2,1.68,4.93-1.2,3.31,1.19,4.85,2.78,6.77,1,1.28,2.55.74,3.85.27a51.68,51.68,0,0,1,8.77-2.78,6.74,6.74,0,0,1,7.7,7c0,.21,0,.53-.14.6-4.26,2.3-3.35,8.21-7.63,10.65-5.41,3.08-10.88,5.9-17,7-3.17.56-6.32,1.78-9.68.38-5-2.1-7.26-6.61-9.86-10.83a9.5,9.5,0,0,1-1.24-2.94c-1.24-6.06-6.11-10.11-8.52-15.5-3.47-7.78-4.75-16.08-5.7-24.46-.2-1.78-.45-3.56-.66-5.23-1.13-.57-1.57.25-2.07.68a101.58,101.58,0,0,1-18.4,12.66,50.92,50.92,0,0,1-15.71,5,57.48,57.48,0,0,1-9.15.79c-4.51.08-7.32-2.64-9.78-6.09-9.8-13.69-10.67-29.49-10.77-45.43a209.34,209.34,0,0,1,2.4-32.8c1.85-12.18,5.23-23.88,12.64-34.08,3.6-5,8.78-7.14,14.32-8.76a42.23,42.23,0,0,1,17-1.77,13.16,13.16,0,0,1,7.43,3.85C464.13,267.33,465.23,268.72,467.51,269.54Zm4.79,54c-.29-5.11-.44-10.23-.77-15.33-.21-3.15.51-6.68-3-9.22-4.52-3.24-9.61-5.45-14.11-8.65a20.28,20.28,0,0,0-8.56-3.36c-3.83-.61-6.68.39-7,3.47a160.11,160.11,0,0,0-.8,18.32,316.34,316.34,0,0,0,1.63,31.69,123.08,123.08,0,0,0,2.77,15.27c.62,2.54,3,3.57,5.21,4.22s3.18-1.14,4.2-2.69a24.57,24.57,0,0,1,2.39-3c4.81-5.2,9.5-10.54,16.84-12.33,1.81-.45,2.33-1.8,2.17-3.71C472.8,333.33,472.59,328.42,472.3,323.53Z"/><path class="a" d="M613.2,310.33c5.17,4.61,10.58,8.91,15.33,13.83,5.54,5.74,12.57,9.55,18.24,15,6.09,5.9,13.2,10.54,19.86,15.7S680.14,365.32,686.5,371s13.11,11.23,18.41,18.12c2,2.55,1.83,6,4,8.58.64.76-.11,2-1.34,2.45a6.9,6.9,0,0,0-4.7,6.89c.16,3.57-1.23,3.79-4.2,5.2-8.35,3.94-12.72-2.38-17.94-6.21-8-5.86-14.57-13.32-22.31-19.52-10.75-8.6-21.35-17.47-31.27-27-4.45-4.27-9.3-8.37-13-13.47a5,5,0,0,0-3.8-2.07,2.67,2.67,0,0,0-.46,2.64c2.91,10.34,2.62,21.18,5.06,31.58a12.6,12.6,0,0,0,.52,2.5c2.74,5.91,1.21,11.7-1.56,16.8-1.95,3.6-4.09,7.12-6,10.79-1.27,2.48-4.48,2-6.74,3-.24.11-1-.69-1.38-1.16-6.65-7.85-9.09-17.47-12-27.05-5.61-18.58-10.16-37.42-15.19-56.14-3.67-13.67-7.12-27.42-9.13-41.49a69,69,0,0,1-.26-14.57c.41-5.8,3.88-10.69,8.31-13.86,4.63-3.31,7.28-7.89,10.73-12,5.69-6.74,11.77-12.93,19.49-17.61,5.91-3.58,11.77-7.17,18.32-9.22,7.47-2.34,14.92-4.77,22.85-5.63,5.11-.56,10.29-1,15.37-1.36a31.81,31.81,0,0,1,16.14,3.6,24.81,24.81,0,0,1,10.51,10c1.8,3,3,6.58,4.7,9.49,2.38,4.15,1.54,7.39.67,11.31-.48,2.19.07,4.65.32,7,.59,5.55-2.31,9.81-5.38,13.83-3.76,4.93-6.09,10.72-10.07,15.53a34.61,34.61,0,0,1-11.55,9.24c-5.14,2.56-10.23,5.23-15.43,7.68a136,136,0,0,1-32.87,10.25C614.67,309.25,613.87,309.17,613.2,310.33Zm-32.85-30.84a50.86,50.86,0,0,1,11.16-2.84,222.43,222.43,0,0,0,28.22-5.45c9.35-2.61,18.88-4.65,27.85-8.59,3.41-1.5,7.26-2.21,9.79-5.23,1.91-2.28,3.54-4.79,5.27-7.22,3.23-4.55,2.61-6.09-3-7.47-.21-.06-.43-.06-.63-.13-7.37-2.44-14.57-.53-21.63,1.25-18.07,4.55-33.3,14.89-48.75,24.68C584.81,270.93,581.39,274,580.35,279.49Z"/><path class="a" d="M800.69,291.71c.12,8.24-1,16.57-2.06,24.85-.54,4.38-.79,8.83-1.55,13.2a38.42,38.42,0,0,0-.48,7.55c.23,10.46-.44,20.92,1,31.39.6,4.51,3.09,8.36,3.19,13,0,1.41,1.53,3.59,2.6,5.3a4.31,4.31,0,0,0,2.9,2.31c3.57.53,7,1.66,10.66,1.87,3.9.21,7.45-1.3,11.11-2.14a65.76,65.76,0,0,0,14.5-5.07,59.88,59.88,0,0,1,10.62-3.67c6-1.62,11.92-4,18-5.21,5.4-1.08,10.86-2,15.8-4.32s10.28-3.82,15.42-5.66c2.27-.81,5.74-3.1,8,.92.39.69,1.71.56,2.42.21,2.16-1.07,4.37-.39,6.37-.54,2.43,3.29,4.55,6.61,7.15,9.52,1.52,1.71,2,3.68,2.77,5.63.49,1.24-.32,2-1.2,2.68a7.53,7.53,0,0,0-2.86,4.1c-1.31,4.45-4.42,7.54-8.25,9.78-7.54,4.39-15.27,8.47-22.84,12.81-9.28,5.3-19.23,9.13-29,13.42-7.3,3.22-14.78,6-22.15,9.07a169.55,169.55,0,0,1-45.92,11.8,70.59,70.59,0,0,1-20.61-.63c-8.52-1.52-14.6-7-16.47-15.71a198.75,198.75,0,0,1-4.73-48.72c.27-7.25.89-14.47,1.65-21.66.67-6.43,2.13-12.77,3.17-19.17a216.33,216.33,0,0,1,8.81-35.95,175.12,175.12,0,0,1,15.16-33.05c2.77-4.63,7.33-7.87,11-11.81,1.48-1.58,4.15-1.62,5.91-1.66,3.53-.08,7.34,0,10.61,2.23,4,2.82,8.72,4.89,12.33,8.16,10.27,9.26,19.94,19.11,24,33,1.47,5,3.43,9.85,4.26,15,.24,1.51.47,2.8-1.31,3.79-1.5.83-1.54,2.85-1.77,4.3-.45,2.85-2.55,3.56-4.62,4s-3.44-1-4.42-2.58c-5.21-8.49-12.09-15.62-18.69-23-3.94-4.39-9.05-6.83-14.51-8.74C804.78,291.68,803.07,289.77,800.69,291.71Z"/><path class="a" d="M429.47,599.34c1.8,7.27,2.49,14.14,4,20.87,2,9.39,4.59,18.47,9,27.08,2.4,4.66,4.56,9.64,4,15.24a9.49,9.49,0,0,1-.87,3.69c-6,10.63-12.62,20.75-24.31,26a39.93,39.93,0,0,1-8.13,2.61c-2.51.53-3.58-1.43-4.1-3.5-1.27-5-2.49-10.12-3.6-15.21-2.73-12.49-6-24.88-7.77-37.54-3.28-23.84-6.07-47.75-9.27-71.6-2.79-20.8-4.38-41.73-6.35-62.61a48.26,48.26,0,0,1,.26-12.13c.47-2.91.3-5.89,4.05-7.91,2.21-1.18,3.75-4.54,6.09-6.62a52,52,0,0,1,8-6,139.55,139.55,0,0,1,20.64-10.42c5.29-2,10.71-3.68,16.43-3.42,4.7.21,8.23,2.8,11.23,6.36,4.8,5.7,7.31,12.41,9.05,19.5a196.29,196.29,0,0,1,4.38,23.15c.66,5.35.49,10.79,1.39,16.15,1.3,7.74,3.29,15.33,4.86,23,.83,4,1.53,8.13,2.17,12.22a6.27,6.27,0,0,1-1.24,4.55c-3.27,4.36-4.59,9.49-6.17,14.54a2.83,2.83,0,0,1-1.26,1.78c-2.07,1.13-2.86,3.1-3.32,5.21-.85,3.86-3.46,5.92-6.95,7.25C444.34,594.44,437.52,598.6,429.47,599.34Z"/><path class="a" d="M480.58,675.76l3.49,1.31c.55-.63,1-1.19,1.53-1.72,1.27-1.35,2.07-1.18,3.17.46,2.5,3.73,4.56,8,7.19,11.3,5.79,7.34,6.84,16.13,8.88,24.37,2.28,9.17,4.23,18.52,6.06,27.84.83,4.23,2.87,8.33,3.87,12.68a120.51,120.51,0,0,1,2.75,15.53c.34,3.56,1.6,7.06,1.57,10.55-.05,5.15,1.36,10.3.13,15.41-1.1,4.58-1,9.27-1.72,13.88-.67,4.28-.64,8.73-3,12.59-1.4,2.33-2.55,4.82-4.44,6.87a22.49,22.49,0,0,0-3.87,6.2,27.05,27.05,0,0,1-11.92,12.76c-4.83,2.76-9.5,5.88-14.44,8.57-7.42,4-15.43,5.47-23.62,5.4-10.93-.1-20.45-4.19-28.52-11.68-4.54-4.2-9.51-7.86-13.51-12.73a117.51,117.51,0,0,1-11.66-17.41,104.35,104.35,0,0,1-12.88-39.1c-1.61-13.62-4.76-27.06-5.61-40.8a69.91,69.91,0,0,1,1.27-20.35,26.07,26.07,0,0,1,5.36-11.43c1.35-1.58,2.3-1.67,3.49-.06,2.31-3.15,6.3-4.21,8.3-7.73,2.11,1.26,3.85.89,5.3-1.52,2.11,2.68,4.47,4.83,5.75,7.5a69.5,69.5,0,0,1,5.19,15.13,163.9,163.9,0,0,0,8.76,28.53c3.32,7.88,5.93,16.07,9.76,23.66,2.4,4.77,4.28,9.83,7.23,14.39,2,3.06,3.23,6.6,5.62,9.5a21.31,21.31,0,0,0,5.45,4.79,74.93,74.93,0,0,0,13,6.65c7,2.57,15.2-2.07,15.41-9.47a200.93,200.93,0,0,0-1.76-36c-2.39-15.47-5.5-30.82-8.37-46.21-.74-4-2.38-7.81-2.39-11.88,0-6.83-.08-13.57,3.62-20C476.64,680.78,478.63,678.47,480.58,675.76Z"/><path class="a" d="M325,455.38c-2.3-5.11-4.33-10.25-6.88-15.12-2-3.9-3.38-8.24-7-11.26-5.78-4.79-12.31-8.3-19-11.45-7.65-3.58-15.48-6.76-23.22-10.14-9.54-4.16-19.09-8.29-28.57-12.58a40.09,40.09,0,0,1-8.19-4.72c-3.57-2.78-4.38-7.22-5.28-11.31a108.38,108.38,0,0,1,0-47.85c2.14-9.29,6.23-17.85,13.23-24.68.15-.15.28-.44.43-.45,4.75-.33,9-2.94,14.16-2.13A52.2,52.2,0,0,1,271,309.18a175.49,175.49,0,0,1,20.36,13c9,6.43,15.4,15.09,22.55,23.13,3.76,4.23,8.63,7.27,12.27,11.5,2.75,3.18,6.75,5.72,7,10.75-2.85,1.26-2.38,4.5-3.49,6.89-1.59,3.42-4.27,4.15-6.94,1.56a6.36,6.36,0,0,0-2.15-1.33,12.68,12.68,0,0,1-6.05-5c-2.87-4.07-7.46-5.59-11.73-7.35-7.65-3.14-15.2-6.1-21.91-11.33-8.28-6.44-18.38-9.41-28.56-11.74-2.06-.47-3.23-.12-4,2.54a79.2,79.2,0,0,0-2.53,17.62c-.18,3.25.5,5.64,3.9,6.59,6.49,1.81,12.23,5.18,18,8.55a38.11,38.11,0,0,0,12.7,4.78c3.14.56,6.15,1.93,9.17,3.06,8.94,3.32,18.36,4.43,27.63,6.26,3.39.67,7.3.9,9.73,3.85a159.59,159.59,0,0,1,12.38,16.9,131.73,131.73,0,0,1,9.92,19.8,75.74,75.74,0,0,1,3.23,11.58c1,4.43,1.88,9.31.67,13.39-1,3.42-1.13,7.49-3.74,10.42a29.79,29.79,0,0,0-6.13,11,6.81,6.81,0,0,1-4.1,4.19,36.26,36.26,0,0,1-19,2.94c-6.17-.63-12.3-1.39-18.22-3.31-10.72-3.47-22-4.62-32.78-7.75a102.85,102.85,0,0,1-18.08-7.33c-5-2.57-10.05-5.21-14.88-8.1s-9.64-6.32-12-11.94c-.87-2.08-1.64-4.23.09-6.31a1.25,1.25,0,0,0,.3-1.46c-2.2-4.14-.12-7.58,2.64-10,3.07-2.66,7.19-2.66,11.36-2.35,5.66.43,10.27,3.67,15.59,4.9a14.82,14.82,0,0,1,7,3.43c1.63,1.54,3.94.92,6,1.92,8.15,4,16.26,8.11,24.57,11.76,3.31,1.45,7.18,2.25,10.19,4,6,3.41,12.9,3,19,5.57A4.06,4.06,0,0,0,325,455.38Z"/><path class="a" d="M278.06,164.1a129.05,129.05,0,0,1,17.77-13.18c3.87-2.41,7.67-5.06,11.38-7.77,1.36-1,2.6-1.36,4.12-.59a2.27,2.27,0,0,0,1.21.35c6.67-1.22,8.53,3.64,11.25,8.17,2.37,3.93,1.85,7.28.29,11a10.32,10.32,0,0,0,.8,10.11c1.1,1.71-.32,6.6-2.74,8.68-2.83,2.44-6.48,3.57-9.57,5.6-6.07,4-13.34,4.08-20,6a66.5,66.5,0,0,1-14.71,2.86c-3.26.16-6.07,2.43-9.53,1.68-1.3,4.08.06,7.83.52,11.5,1,8.29,2.8,16.49,4.27,24.71,1,5.7,3.85,10.72,4.61,16.39,1.06,8,4.07,15.82,3.54,24-.27,4.26-.52,9-2.53,12.52a17.31,17.31,0,0,1-8.58,7.5c-3.38,1.22-6.5-.81-9.45-2.41-.71-.39-1.18-1.15-2.18-1.09-3.82.23-5.28-.75-6-4.29-1.25-6.48-2-13.08-3.6-19.46-3-11.79-2.95-23.91-4.48-35.86-.5-3.85.15-7.86-.33-11.72A191.51,191.51,0,0,1,243,198.69c-3.2,1.41-6.28,1.37-9.26,2.35-9.14,3-18.42,4.87-28.23,3.39-3-.44-5.74-.38-8.5-2.13a7.65,7.65,0,0,1-3.69-6.46,114.33,114.33,0,0,0-1.61-12c-.57-3.29,2.85-7.67,5.78-9.13,6.1-3.06,11.89-.08,17.76.31,8.41.55,16.7,2.23,25.26,3.74-.42-4-2.88-6.78-4.51-9.94-3.29-6.37-7.16-12.42-10-19-2.42-5.57-5.51-10.9-6.9-16.84-1.49-6.41-2.32-13.11-1.29-19.55.94-5.9,4.13-10.59,9.87-14.11C236.46,93.9,246.08,91,255.75,88a89.15,89.15,0,0,1,17.33-3.88c6.32-.7,12.56-.48,18.3,2.67,3.29,1.81,5.94,8.65,4.73,13-1.51,5.46-3.2,10.87-4.27,16.45a1.94,1.94,0,0,1-1,1.14c-4.42,2.18-4.46,6.5-4.82,10.43a81.64,81.64,0,0,1-2.6,14.57c-1,3.44-.89,7.05-2.14,10.52a37.55,37.55,0,0,1-2.7,6.64A5.22,5.22,0,0,0,278.06,164.1Zm-6-47.25c-3.31,1.73-6.24.61-9.18,1.24-5.06,1.08-10.25,1.21-15.18,3.42-3.23,1.44-4.09,2.4-4,6,.1,6.58,3.58,12.13,5.19,18.23.8,3,.33,6.35,2.52,9.11.88,1.1-.57,3.1.29,4.62,2.07,3.62,1.82,7.9,3.87,11.81C262,153.7,271.58,137,272,116.85Z"/><path class="a" d="M892,656c-.39,8.2-1,16.2-1.07,24.19-.06,4.09,1,8.18,1,12.26,0,3.18.31,6.89-2,9.32-2.71,2.86-5.93,5.16-10.62,4.16-2.34-.49-4.95.38-7.54.05-3.72-.46-5.58-2.69-6.22-5.87-1-4.72-1-9.64-2.22-14.3-2-8.12-1.65-16.45-2.8-24.65-.65-4.65-2-9.39-1.12-14.27.35-1.88-.37-3-2.89-2.84-3,.19-4.33,1.51-5.53,4.06s-3.31,4.69-4.73,7.18c-2.14,3.78-2.86,8-3.78,12.24-1.35,6.27.61,12.31.18,18.52-.27,3.83-.17,7.93-.25,11.86-.14,7.35.82,14.67-.08,22.07-.63,5.3.65,10.81.34,16.18-.37,6.43.74,12.83.26,19.17-.41,5.49.63,10.81.54,16.22-.12,6.94.82,13.91-.68,20.79a24.27,24.27,0,0,1-1.69,5.06,2.56,2.56,0,0,1-2.53,1.59c-2.29-.09-4.55-.12-6.59-1.39-1-.6-1.73-.49-2.83.25a39.36,39.36,0,0,0-7.31,6.09,13.25,13.25,0,0,1-4.73,3.08c-1.74.79-3.43.64-4.63-.87s-1.81-3.86-.56-5c3-2.74,1.41-5.41.7-8.19-1.41-5.54-2.83-11.06-3.92-16.7a130.42,130.42,0,0,1-2.36-16.32c-.34-5.21-1.46-10.34-1.24-15.65.16-3.61-.91-7.33-1.42-11a44.74,44.74,0,0,1-.41-8.77c.32-5.57-.53-11.14.17-16.7.39-3.14-1.17-6.42.7-9.45a.94.94,0,0,0,.08-.62c-1.2-5.35.36-10.48,1-15.73a123.36,123.36,0,0,1,3.16-16.07c1.9-7.33,3.82-14.61,8.3-20.91a4.82,4.82,0,0,0,.8-2.07c.95-6.66,6.49-8.65,11.42-11.24,5.84-3.07,11.62-6.28,17.83-8.55,3.72-1.36,7.16-4,11.51-2.81.75.21,1.45-.29,2.13-.37,6.22-.71,12.68-1.8,17.8,3,4.24,4,8.57,8.12,9.33,14.44.17,1.46,1.46,2.19,2,3.45C891.73,645.82,891.31,651.08,892,656Z"/><path class="a" d="M258.59,781.64c.1-8.83-1.07-17.83-1.43-26.86a168.64,168.64,0,0,1,1-25.52,53.52,53.52,0,0,1,1.15-6.06c.7-3.09,5.87-6.65,9.15-6.13a6.69,6.69,0,0,0,3.05-.56c3.93-1.26,8-1.37,12.12-1.5.74,0,1.42,0,1.53.65.68,3.69,3.53,7.15,2.76,10.75-.92,4.33-.12,8.48,0,12.62.15,5.37-.13,10.77,1.14,16.22,1.31,5.67,1.05,11.74,1.16,17.63,0,2.15.89,2.12,2.32,1.66,6.46-2,13.14-2,19.81-2.49,5.91-.42,11.91-.35,17.72-1.75,3.4-.81,10,1.55,10.14,4.53.19,4.54,3.83,6.55,5.45,9.93a1.81,1.81,0,0,1,.11,1.52c-.74,1.91-.14,3.5,1.55,5-3.63,1.66-4.34,5.83-7.88,7.46-2.77,1.28-5.54,2.53-8.53,2.48-1.74,0-2.82,1.13-4.29,1.51-4.05,1-8.16,1.9-12.24,2.75a45.18,45.18,0,0,1-12.76,1.14c-2.53-.22-3.95,1.83-6.2,1.52a11,11,0,0,0-3,.41c-.46,3.88.13,7.89.14,11.9s.75,8.25.7,12.28a91.06,91.06,0,0,0,1.25,18.06c.55,3,1.44,5.79,2.08,8.69.44,2-.9,4.12-.31,6.29a16.23,16.23,0,0,1,.25,2.81c-3.6,1.69-5.5,6.73-11.13,6.27-.44,1.72-2.94,1.89-4.28,3.37-1-.58-2-1.24-3-1.72-3.22-1.49-4.74-4.19-4.46-8a2.52,2.52,0,0,0-.13-1.23c-4.5-9.72-6.75-20.09-8.82-30.51-1.46-7.36-1.16-14.89-2.12-22.29-.05-.4-.15-.79-.27-1.39-6.06,1-12-1-17.92,0-4.67.81-9.52,1-13.64,3.9-.79.54-2,1.39-3.18.24-.62-.59-1.41-.29-2,.24-2.93,2.52-6.49,2.23-10,2.33-2.15.06-3.92.38-5.7-1.75-4.17-5-4.14-9.32.78-13.66,5.75-5.05,12.58-8.39,19.18-12.07,4.67-2.6,9.78-4.16,15-5.66C249.27,785.31,254.2,784.75,258.59,781.64Z"/><path class="a" d="M243.08,475.9c7.91-.49,15.82,2,23.91,2.94a89.15,89.15,0,0,1,19.6,5c16.58,6,27.65,17.54,34.63,33.48,3.59,8.2,7.52,16.26,9.16,25.13,1.61,8.64,2,17.25-.19,25.94-2.94,11.86-9.52,21.61-17.05,30.88a52.45,52.45,0,0,1-21.45,16.2c-8.72,3.46-17.68,6.6-27.11,6.93a82.23,82.23,0,0,1-20.8-2.3c-4.29-1-8.66-1.41-13-2.49-5.09-1.28-10.07-2.66-14.53-5.36-8.41-5.11-17.12-9.79-22.4-18.84-4.38-7.51-6.75-15.56-8.43-24-2.13-10.66-1.85-21.37-.61-32.09.92-8,1.81-16.09,4.64-23.76a57.8,57.8,0,0,1,15.4-22.44c3.34-3.11,6.43-6.64,10.62-8.54C224.13,478.68,232.85,474.89,243.08,475.9Zm-8.71,17.63c-1.38.07-2.77.19-4.15.18-4.55,0-8.31,1.29-10.63,5.63a25.74,25.74,0,0,1-3.67,4.81,41.59,41.59,0,0,0-9.75,20.68c-.41,2.22-.19,4.44-.8,6.7-1.25,4.67-1,9.58-.84,14.4.14,5.9-.39,11.7.89,17.71,1.87,8.78,5.81,15.66,13.14,20.65,3.61,2.46,7.22,4.89,11.09,7,7.07,3.89,14.62,6.05,22.32,8,6.69,1.67,13.44,2.82,20.38,2.11,6.13-.63,12.39-1.08,18-3.57a57,57,0,0,0,17.86-12.07c9.28-9.42,15.7-19.53,11.85-33.89-3.59-13.42-8.89-25.48-19-35.39-9-8.84-19.69-14.19-31.61-17.45A152.31,152.31,0,0,0,234.37,493.53Z"/><path class="a" d="M475.12,424.83c1.5.09,1.23,1.51,2.14,2.2.33-.9.59-1.65,1-2.83,3.19,4.69,3.89,9.83,4.59,14.76,1.35,9.48,3.27,18.86,4.54,28.34,1.08,8.1,1.75,16.25,2.39,24.4,1,13,1.95,26,2.32,39.09a20.11,20.11,0,0,0,.38,2.37c2.38-.3,4-1.72,5.47-3.12,6.71-6.21,14.92-9.11,23.65-10.91.42-.08.85-.09,1.27-.16,7.55-1.17,9.52-.07,13.2,6.72,4,7.32,5.63,15.19,6.22,23.4a137.67,137.67,0,0,0,1.78,16.63c1.4,7.12,1.53,14.26,1.91,21.45.41,7.69-.17,15.42,1,23.09a35.4,35.4,0,0,1-.05,5.73c-.15,9.21-.26,18.42-.47,27.62,0,2.39-5,5.85-7.78,5.53-1.79,4.53-1,9.86-4.23,14.24-2.15-1.27-4.07-.91-6.41.42-3.44,2-6.11.24-7.14-3.65-1.26-4.79-1.32-9.69-1.32-14.56,0-16.83-.11-33.67.3-50.49.23-9.79,1.4-19.56,2-29.34.42-6.26.8-12.54,1-18.81.11-4.13-2.2-5.55-7.31-4.89-7.41,1-13.88,4.71-20.81,7.07-1.55.53-1.55,1.77-1.44,3.14.77,9.52,1.6,19.05,2.21,28.59.49,7.52.06,15.09,1.14,22.57.64,4.5,2,8.89,2.42,13.45.25,2.54.3,4.58-3.14,5-2.26.3-1.74,2.85-2.23,4.46-.36,1.2-.24,2.53-.51,3.76a2,2,0,0,1-2.26,1.78,4.55,4.55,0,0,0-2.72.56c-3,1.67-4.59.85-5.48-2.58a46.64,46.64,0,0,1-1.32-10.12c-.6-17.8-2.35-35.52-3.68-53.27-.74-9.88-.77-19.82-1-29.73-.32-16.42-2.19-32.75-2.66-49.14-.45-15.56-2.1-31.07-1.87-46.65a68.76,68.76,0,0,1,1.35-13C473.84,426.72,474.07,425.48,475.12,424.83Z"/><path class="a" d="M667.47,742.31c0,5.69-2.3,10.66-3.5,15.87-2.06,8.94-8,15.41-13.59,21.94A50.89,50.89,0,0,1,638,790.49c-5.59,3.35-11.72,5.17-17.83,6.84-4.47,1.22-9.3.07-13.8-1.19a49.93,49.93,0,0,1-12.57-5.35c-4.14-2.49-7.67-5.34-10-9.18-4.61-7.52-6.69-15.42-5.31-24.79,1.27-8.59,5.4-15.21,10-21.69,4-5.59,8.17-11.37,14.28-15,6.61-3.94,13.45-7.31,21.39-7.87,6.42-.45,12.76-1.33,19.25-.82a15.56,15.56,0,0,1,7.67,2.33c5.32,3.53,10.3,7.63,13.14,13.4A31.49,31.49,0,0,1,667.47,742.31Z"/><path class="a" d="M470.6,160.65c3.8.32,7.37.07,10.91.19a108.29,108.29,0,0,0,13.36.12l.64-.05c8.19-.72,8.5-1.5,10.14-9.64,1.75-8.67,1.05-17.55,3-26.15.66-2.88,1.59-5.39,4.07-7.5,5-4.23,10.17-6.48,17-5.65,3.37.41,6.43.33,8.75,3.23,1.51,1.89,2.48,8.09,1.41,10.33-1.17,2.46-5.23,4.29-8.4,4.43-2.79.13-5.48.92-8.38.68-1.42-.12-2,2-2.1,3.54a53.4,53.4,0,0,0-.17,8.19,44.49,44.49,0,0,1-2.51,19.42c-.31.9-.57,1.91-1.73,2.08a1.48,1.48,0,0,0-1.39,1.11c-1.08,4.21-4.07,5.54-8,7.25-7.65,3.37-15.39,2.28-23,2-6.14-.26-12.26.49-18.33-.15-3.73-.39-7.5-.55-11.24-1.05a75.28,75.28,0,0,0-11.37-.22c-6.09.16-12.15-.79-18.22-.77-4.07,0-8-1.51-11.75-1.38-7.84.28-15-2.66-22.61-3.28a18.64,18.64,0,0,1-10.19-3.88c-.92-.74-2.08-1.26-1.64-2.74s1.92-1.46,2.94-1.28c4,.7,8,.43,12,.72,5.73.42,11.43-.21,17.14-.42,1.93-.07,3-1.29,3.69-3.34,1.86-5.28,1.19-10.33-.41-15.42-.86-2.75-.85-5.66-1.08-8.44-.76-9-2.92-17.75-4.49-26.61a21,21,0,0,1,.24-10c.73-2.27,5.43-6.46,10.72-6.68,10.45-.42,20.78.14,31,3,3.18.88,6.34,1.44,9.19,3.24,5,3.19,8.28,8.75,6.52,14.17-.85,2.58-1,6.3-3.93,7.86-2.49,1.35-5,2.87-8.28,2.31-4.44-.76-8.85-1-13.23-2.69-3.7-1.43-8.07-1.23-12.16-1.51-2-.13-4-1.08-6.38.09a170.72,170.72,0,0,0,3,16.81,102.59,102.59,0,0,0,6.77,21.19c1.16,2.54,3.76,3.32,6.11,4.19,6.78,2.48,14,2.27,21,3,1.06.11,1.48-.61,1.81-1.73.64-2.16,0-4.27-.07-6.32-.67-12.6,2.21-24.61,5.81-36.48,2.64-8.7,11.06-13.52,20.47-11.31a48.93,48.93,0,0,1,15.41,6.19c3.35,2.14,5.28,5.48,4.7,8.36-1,5-3.44,7.38-8,8.19-2.42.42-4.17,2.31-6.7,3-3.29.87-6.24,0-9.33-.07-1.52,0-3-.52-4.55-.58a2.45,2.45,0,0,0-2.75,2.46c-.7,7.62-3.29,14.9-3.93,22.54C472,156.75,471.09,158.59,470.6,160.65ZM455.94,106.8c-.4-.86-.35-2-1.63-2.43-4.46-1.39-8.37-4-13.59-3.61-5.93.47-11.94-1.09-18-1-1.41,0-2.72.15-3.06,1.62s.74,2.62,2.1,3.06a19.72,19.72,0,0,0,5.25,1.17c8.44.34,16.8,1,24.91,3.63C453.8,109.88,455.46,109.1,455.94,106.8Zm24.94,13c2-.62,4.57,1.17,6.3-1.37C483.12,116.57,483.12,116.57,480.88,119.75Z"/><path class="a" d="M610.93,179.59c-1.39,2.12-.07,3.93-.07,5.74a112.46,112.46,0,0,0,.8,14.22,7.33,7.33,0,0,1-.57,4.65c-.64,1.18-.12,3.21-2.43,3.06-2-.14-3.6-.06-5-2.65-3.73-7-4.14-14.83-6.21-22.22-1.46-5.18-1.29-10.54-2.49-15.77a20.61,20.61,0,0,1,.73-10.81c1.13-3.16,4.59-3.58,7.17-3.81,3.94-.35,7.19-2.38,10.81-3.4a84,84,0,0,1,15.46-2.8c5.27-.48,10.45-1.79,15.7-2.49,8.25-1.1,16.5-2.13,24.78-2.94,7.25-.71,14.52-.91,21.77-1.84,2.86-.36,6.1-.07,9.07-.32s6.17-1.47,9.33-1.46c4.31,0,8.69-2,13,.47a3.06,3.06,0,0,0,2.48-.16,6.77,6.77,0,0,1,7.3.78c2.32,1.82,2.5,8.28,1,11-.14.25-.26.52-.38.76.57.54,1.37-.29,1.79.49A35.17,35.17,0,0,1,722.6,161c-2.6,1.29-5.34,2.23-8,3.5-5.78,2.8-9.65,7.71-14.15,11.92-2.76,2.59-5.7,5-8.21,7.82-3.4,3.8-7,7.35-10.74,10.83-3.33,3.12-7,5.87-11.48,7.18a5.13,5.13,0,0,1-4.52-1.25c-3.26-2.68-7.4-2.83-11-4.48-6.48-3-13.72-3-20.43-5.22A79,79,0,0,1,618,183.56C615.67,182.17,613.29,180.91,610.93,179.59Zm94-26.47c-24.89,4.57-49.8,6.73-74.73,9.46A23.59,23.59,0,0,0,640,168.3c4.25,1.37,8.59,2.57,12.68,4.33a146.5,146.5,0,0,1,21,11.57c5.56-4.88,10.4-10.45,15.59-15.69S699.66,158.24,704.88,153.12Z"/><path class="a" d="M935.66,243c0,7.66-3.19,12.46-8.82,13.88-.31.08-.76.41-.87.31-3.89-3.32-8.74.73-12.56-1.49-7.27-4.24-15.7-3.7-23.46-6-8.42-2.55-17.6-2.48-26.35-4.1-5.08-.93-10.07-2.26-15.28-2.55-7.77-.45-15.52-1.29-23.29-1.81a90.72,90.72,0,0,1-12.72-1.85c-3.7-.79-7.63-.62-11.45-1.17-5-.73-9.46-3-14.13-4.57-2.64-.9-5-2-7.81-1.07a2.14,2.14,0,0,1-1.25-.06c-5.47-1.68-11.2-1-16.77-1.94-3.23-.51-5.15-3.14-7.86-4.47-.09,0-.21-.17-.2-.24.64-4-3.26-7.14-2.05-11.26.53-1.81,2.23-2.67,3.06-4.34,1-2.12,3.09-3.73,4.51-5.69.79-1.08,1.54-.57,2.48-.57,6.14.05,11.41,2.41,16.28,5.91,2.53,1.81,5.46,1.64,8.35,2.09A127.9,127.9,0,0,1,801,215c4.53,1.29,9.25,1.48,14,1.75,4,.22,8.12.07,12,1.26,3.55,1.11,7.28.75,10.66.62a83.66,83.66,0,0,1,12.75.91c5.16.58,10.38.24,15.52,1.26,4.2.83,8.55.65,12.83,1.33a28.47,28.47,0,0,0,5.77-.22c3.79-.26,7.08,1.27,10.59,1.95,4.38.85,8.72,2.2,13.36,2.1,3-.07,6.23.91,9.11.88,4.75,0,8.06,2.84,12.09,4.11,2,.65,2.8,3.63,3.28,5.4C933.64,238.84,936.17,240.63,935.66,243Z"/><path class="a" d="M210.08,695.91c-.13-5.53,2.27-9.85,5.81-13.68,7.24-7.83,14.07-16.11,22.46-22.79,6.84-5.45,12.73-12,20.1-16.85,6-3.92,12.78-5.8,19.66-7.37,4.05-.92,7.87-2.81,11.89-3.52,5.35-1,10.79-3.24,16.23-1.69a27.79,27.79,0,0,1,9.82,5.32,86,86,0,0,1,8.48,7.44c3.45,3.73,6,7.79,5.28,12.82-.42,2.94,1.11,4.21,2.6,5.79,3.13,3.29,2.9,7.57-1.29,9.61a11,11,0,0,0-5.07,4.56c-1.42,2.4-3.95,2.84-6.56,2.77-.63,0-1.4-.31-1.88-.05-7.16,3.79-15.42,2.08-22.84,4.59-2.39.82-4.82,1.6-7.24,2.34-6.86,2.07-13.9,3.56-20.69,5.64s-13.68,3.46-20.57,4.9c-9.33,2-18.65,4.15-28.22,4.6a23.83,23.83,0,0,1-6.57-.87C209.47,699,209.88,697.28,210.08,695.91ZM310.86,664.8c-3.21-3.08-7.17-4.12-9.93-6.58-4.2-3.73-9.53-4.73-14.32-6.76a23.07,23.07,0,0,0-16.06-.57,34.22,34.22,0,0,0-10,5.35c-2.46,1.78-4.51,4-7.16,5.65a65.25,65.25,0,0,0-11.92,8.92c-4.17,4.1-8.73,7.83-12.36,12.52-1.22,1.58-3.26,2.57-4.09,4.65a2.73,2.73,0,0,0,3,.57,58.5,58.5,0,0,1,6.33-1.94c10-2.47,20.21-3.55,30-6.81,8.32-2.77,16.78-5.06,25-8.3a41.19,41.19,0,0,1,11.83-3.25A18.74,18.74,0,0,0,310.86,664.8Z"/><path class="a" d="M454.22,892.89c-3.75-2.1-6.68-4.28-10-5.46-5.18-1.87-8.79-5.87-13.27-8.66-2.07-1.29-3.7-3.28-6.29-3.78-4-.78-6.63,1.51-6.66,5.62,0,2.25.3,5.9-2.48,5.91s-1.72-3.68-1.73-5.6a18.17,18.17,0,0,1,.67-6.28c2-5.51,10.68-6.72,15.09-4.38a63.1,63.1,0,0,1,8.11,5c5.72,4.22,12.61,6.42,18.46,10.38,6,4.09,12.84,6.64,18.94,10.56,5.72,3.66,12.08,5.92,18.44,8.23,5.25,1.9,11.09,2.87,15.49,6.27,4.58,3.55,9.92,5.51,14.77,8.4,2.8,1.67,3.8,3.24,3.46,6.06-.25,2.08-1.49,2.57-3.63,3.32-5.15,1.8-7.43-2.54-11-4-2.14-.84-4.11-2.09-6.18-3.1-1.08-.54-2,0-3,.46-3.88,1.62-8,1.93-12.13,2.63-5.08.86-10.25.45-15.22,1.66-2.26.56-4.39-.28-6.73.17a38.14,38.14,0,0,1-11.83.12c-3-.38-5.78.53-8.72.46-6.35-.14-12.68.4-19.08.12-5.39-.23-10.94.23-16.39.07-5.91-.18-12-.15-17.6-2.34-7.46-2.91-7.84-12.6-2.93-17a38.89,38.89,0,0,1,26.32-10.27c11,0,21.68-2.39,32.51-3.63A15.31,15.31,0,0,0,454.22,892.89Zm-49.78,19.7c5.66-.43,11.35.58,17-.32,4.36-.7,8.68-1.7,13.05-2.36,10.86-1.64,21.81-2.31,32.76-3,2.52-.16,5.38.2,7.93-1.52-2.12-1.37-3.93-2.43-5.64-3.64-2.67-1.89-5.33-2.63-8.53-1.12a32.64,32.64,0,0,1-5.46,1.55,110.68,110.68,0,0,1-19.7,4c-5.82.5-11.15,3-16.89,3.88C414.14,910.86,409.19,910.79,404.44,912.59Z"/><path class="a" d="M347,976.94c1.17,3.5-.26,6-2.58,7.78-2.61,2-6.27,1.22-8.95-.24-6.17-3.36-6.65-9.5-7.6-15.19-1.14-6.8-1.39-13.75-2.15-20.62-.41-3.72-.86-3.9-4.3-2.94-3.72,1-7.77.53-11.3,2.7-1.11.68-6.39-2.94-7.13-4.37-2.48-4.73-2.82-9.74-2.59-15,.34-7.7,2.05-15.07,4-22.47,1.29-4.92,1.14-10.35,3.75-14.77,3.72-6.31,5.75-13.12,7.6-20.08.59-2.23.49-4.56,1.66-6.75,1.25-2.36,2.85-3.67,5.42-3.82,3.23-.19,4.29,2,5.07,4.61,1.09,3.63,3.37,7.28,3.18,10.82-.37,6.76,2.6,12.61,3.73,18.92,1.23,6.84,2.7,13.68,4.06,20.51,1.27,6.32,3.89,12.31,4.15,19,.08,2.23,2.21,5.06,2.65,7.77,1,6.08,3.06,11.88,3.95,18,.69,4.79.42,9.4.46,14.08C350.05,976.36,348.47,976.91,347,976.94Zm-25.43-63.42c.21,1.49-1.6,2-1.63,3.33-.1,4.48-1.5,8.82-.89,13.41.57,4.35.29,4.39,4.75,2.9C322.54,926.76,323.83,920,321.54,913.52Z"/><path class="a" d="M742.85,128a146.66,146.66,0,0,1-1.5,25.73c-1.69,12.73-1.84,25.51-2,38.31-.37,24.52.69,49.09-1.65,73.55-1.83,19.11-3.56,38.22-4.64,57.38-.67,11.92-.95,23.87-1.43,35.8-.57,14-2.38,27.86-2.79,41.81-.69,23.89-2.06,47.73-3.27,71.59-1.1,21.83-3.07,43.63-2.39,65.52.47,15.24,1.27,30.46,2.22,45.68.84,13.61,1.11,27.27,1.13,40.93,0,27.42.09,54.87,2.44,82.19,3,34.32,1.49,68.66,1.83,103,.19,19.41.64,38.83,2,58.18,1,15.41,3.12,30.77,3.66,46.2.65,18.11.67,36.26.19,54.39,0,1.2.84,3.28-1.35,3.25s-1.89-2.09-1.9-3.69c-.12-18.55.14-37.11-.53-55.64-.55-15.22-2.27-30.38-3.84-45.55-.83-8-.54-16.18-.93-24.27-1.68-34.77-.3-69.55-.95-104.32-.19-10.43-1.23-20.85-2-31.28-1.14-16.16-1.6-32.36-2.09-48.55-.65-21.44.12-42.89-1.1-64.31-.89-15.54-1.87-31.08-2.37-46.63-.65-19.94-.14-39.86,1.1-59.78,1.55-24.8,3-49.61,3.72-74.43.68-23.36,3.6-46.56,4-69.92.2-11,.29-22,1.34-32.92,1.49-15.49,2.26-31.05,4.11-46.51a117.58,117.58,0,0,0,1-12.43c.28-24.41,1.35-48.81,1.4-73.24,0-12.72,2.54-25.21,4.16-37.79.53-4.1,1.11-8.19,1.67-12.28Z"/><path class="a" d="M546.37,888.46c-2.09-1.36-2.68-3.53-2.91-5.89a310.26,310.26,0,0,1-.19-57.82c1.9-21.13.6-42.16,1-63.23.29-16.42,1.43-32.81,2.13-49.21.56-13,1.41-26,3-38.89,3.29-27.66,2.21-55.38,2.08-83.09q-.12-23.51-1.69-47c-.72-10.58-.2-21.08-.14-31.63.08-11.91.72-23.85.45-35.74-.39-16.83-.29-33.67-.34-50.5-.05-11.83-.19-23.67.66-35.49,1.39-19.5,1-39,.64-58.54-.5-24.32-.25-48.64-.64-73-.35-21.85-.89-43.72-2-65.54-.7-13.52-.24-27.07-1.64-40.57-1.56-15.21-.78-30.45-.18-45.68a38.54,38.54,0,0,1,2.71-11.93c1.44,2.4,1.12,4.35.92,6.12-1.34,11.72-.77,23.47-.41,35.17.62,20.35,1.95,40.67,2.94,61,1.92,39.44,1.68,78.91,2.14,118.38.25,21.55,1.13,43.12.09,64.64-1.38,28.79-.81,57.58-1.54,86.37-.35,13.75-.88,27.5-.74,41.27.25,25.17,1.87,50.3,2.53,75.46.56,21.76.61,43.54-.12,65.29-.51,15.32-2.58,30.58-3.71,45.9-.8,11-1,22-1.81,32.89-2.11,27.81-.83,55.67-1.52,83.49-.25,9.76-1.59,19.52-1.7,29.34-.14,11.83-.49,23.66.31,35.48.26,3.83-.25,7.69.62,11.48C547.35,887.65,547.11,888.09,546.37,888.46Z"/><path class="a" d="M855.26,802c5-.73,7-.44,6.87,5.14-.1,7.07.65,14.16.39,21.22-.3,8.47.11,16.93-.21,25.39-.2,5.44,2.15,10.44,2.84,15.73A124.49,124.49,0,0,1,866.47,883c.09,4.32-.51,8.61,1.08,13a17.7,17.7,0,0,1-.87,14.08c-.65,1.28-1.4,2.57-3.42,1.87-1.62-.56-3.28.33-5.19-.1-2.79-.63-3.11-2-3-4.22-1.94-1-3.5.63-5,1.1-2.21.71-4.44,1.25-6.68,1.85-3.81,1-5.55.1-6.62-3.85A44.87,44.87,0,0,1,835.39,893c.23-5.12-1.09-9.88-2.2-14.72-1.7-7.35-1.47-14.76-.43-22.12,1.22-8.61,2.82-17.17,4.32-25.74.63-3.6-.28-7.29.4-10.81.62-3.12-1.29-6.81,1.76-9.37,2.5-2.09,4.93-4.67,8.75-3.55,1.52.45,1.91-.32,2-1.57.15-1.58.23-3.17.53-4.72.21-1.07.29-2.44,2-2.37,1.47.06,2.06.88,2.22,2.22A12.21,12.21,0,0,0,855.26,802Z"/><path class="a" d="M376,107.55c0,15.16.84,29.62.3,44.14-.86,23-.27,46.1-1.61,69.09-1.14,19.64-1.06,39.23-.82,58.85.34,28.69.84,57.39,1.79,86.06.55,16.65,1,33.31.49,49.91-.63,19-2.11,38.1-6.1,56.85-2,9.52-1.5,19.32-2.23,29-4.35,57.71-4,115.54-4.9,173.35-.55,34.46-1.61,68.93-.68,103.36.81,30.17,1.27,60.36,2.62,90.51.54,12,3.15,23.88,4.4,35.85,1.77,17,5.6,33.66,6.93,50.68.12,1.47,1.13,2.77.69,4.56-2.64-.4-3.34-2.31-3.74-4.41-2.6-13.71-5.07-27.45-6.81-41.31-1.58-12.6-3.31-25.17-4.88-37.76-1.16-9.23-.93-18.53-1.19-27.8-.56-20.36-1-40.73-1.77-61.09-1.23-34-1-68,.19-102,.76-22.4-.16-44.82.65-67.2.86-23.88,1.07-47.76,1.9-71.63.69-20,2.45-40,3.8-60,.22-3.17,1.06-6.28,1.57-9.42,2.9-17.7,3.95-35.57,5.32-53.41,1.4-18.2.7-36.43.17-54.66-.17-5.86.05-11.74-.2-17.6-1-24.08-.76-48.18-1-72.26-.16-15.89-.4-31.82.6-47.66,1.85-28.95,1.76-58,3.06-86.92.5-11.29.43-22.6.64-33.9A4,4,0,0,1,376,107.55Z"/><path class="a" d="M778.67,840.52c.53,7-.51,15.17,1.85,23.28,2.31,7.91,2.2,16.21,2.21,24.45a95.54,95.54,0,0,0,.94,11.07c.8,6.61-.08,13-1,19.51-.15,1.07-1,1.37-1.66,1.77-4.18,2.49-8.73,1.84-13.12,1-1.46-.27-2.78-1.65-3.43-3.73-2.14-6.82-5-13.4-5.58-20.68-.16-2.08-1.62-3.92-2-6.23a140.57,140.57,0,0,1-1.67-19.66c0-4.3.93-8.32,1.81-12.35a81,81,0,0,0,1.79-9.79c.51-5.75.66-11.6,1-17.4.33-5.07.9-10.13,1.47-15.18.2-1.83.42-3.58-.54-5.28-.65-1.17-.6-2.45.56-3.09a2.91,2.91,0,0,1,3.81.39,18.72,18.72,0,0,1,2.82,4.29,27.12,27.12,0,0,0,5.4,8.37C778.38,826.28,778.72,832.81,778.67,840.52Z"/><path class="a" d="M818.06,853.45c1.45,6-.53,14.66-1.24,23.27A54.66,54.66,0,0,1,815,887.58c-1,3.34.71,7.37.2,11-.56,3.94,1.34,7.26,1.49,10.9.16,4.08-3,6.28-7.09,6-6.61-.39-9.2-7.24-9.15-13.22a15,15,0,0,0-1.08-5.16,49.09,49.09,0,0,1-2.27-23.51c.79-5.28-.07-10.5-.13-15.74,0-4.27-.18-8.46.73-12.78a128.84,128.84,0,0,0,2-13.24c.49-4.68,1.4-9.27,6.14-11.66,4.26-2.15,6.88-.88,8,3.8A165.09,165.09,0,0,1,818.06,853.45Z"/><path class="a" d="M565.26,197.27a12.27,12.27,0,0,0-.1-4.88,33.12,33.12,0,0,1,2.05-16.66,20,20,0,0,0,1.32-9.87,10.79,10.79,0,0,1,.64-5.94c1.12-2.6,2.93-2.67,5-2.37,4.77.71,7.5,3.71,8.09,8.37.55,4.4,2.26,8.36,4,12.34a88.59,88.59,0,0,1,6.2,20.65c.7,4.28,1,9.55-4.29,12.26-.27.14-.63.34-.71.58-1.29,4.09-3.14,4.28-5.81,1a2.83,2.83,0,0,0-3.53-.52c-4.16,1.92-6.48-1.28-9.22-3.38C564.65,205.67,566.58,200.8,565.26,197.27Z"/><path class="a" d="M779.88,172.12c2.77-.79,4.83,1.09,7.16,2a2.8,2.8,0,0,1,1.5,1.56c1.63,5.8,3.16,11.59,2.38,17.76-.3,2.32-2.31,2.11-3.47,3.08-1,.81-2.24,1.17-2.4,2.67,0,.21-.06.57-.16.6-3.45,1-6.15,4-10.17,3.68-2.54-.22-5-.48-6.85-2.39-2.77-2.78-5.94-5.34-4.68-10.06a7.12,7.12,0,0,0-.11-3.49c-1.05-3.87,1.48-6.68,2.74-9.85.31-.79,1.23-1,2-1.3a41,41,0,0,0,6.94-3.14C776.45,172.24,778,171.6,779.88,172.12Z"/><path class="a" d="M670.84,687.63c3.5.43,7.06,0,10.32,2.28,2.82,2,4.55,4.18,4.34,7.57-.34,5.74-2,10.67-6.68,14.65-4.87,4.1-12,5-16.75,1.21-4.58-3.6-7.61-7.92-8.07-14-.35-4.5,2.53-9.37,7-10.61A31,31,0,0,1,670.84,687.63Z"/><path class="a" d="M834,184.93c-.93,2.21-.58,3.51,1.26,4.82,2.32,1.66,2.39,7,.62,9.24-2.37,3-5.61,6.34-8.58,7.11-5,1.29-10.6,2.16-15.93.59a8.07,8.07,0,0,0-3.49-.71c-1.34.13-3.82-1.09-4.05-2.11-.55-2.44-2.67-4.68-1.39-7.52a7.48,7.48,0,0,0,.21-2.82c0-2.78,1-4.45,3.89-5.74,3.74-1.71,7.65-3.23,11.42-4.55A18.84,18.84,0,0,1,834,184.93Z"/><path class="a" d="M681.54,808.74c-7,.22-12.17-4.07-13.32-8.39a15.39,15.39,0,0,1,1.08-11c2.49-5.35,7.26-7.38,12-9.19,6.2-2.35,11.26,1.15,13.38,7.83,1.58,5,.21,9.62-1,14.19C692.52,806.47,687.14,809,681.54,808.74Z"/><path class="a" d="M579.78,700.23c-.41-1.89.25-4,.83-6a8.72,8.72,0,0,1,5.14-5.91c3.67-1.62,7.45-3,11.08-4.78,1.95-.93,4-.15,5.78,1.78,2.51,2.69,5,5.18,6,8.88,1.18,4.49-1.24,7.94-3,11.67-2,4.32-5.48,5.27-9.69,4.71-3.61-.48-7.41.38-10.83-1.39C580.47,706.83,579.81,705.68,579.78,700.23ZM593,694.69c-2.31,1.68-2.31,3.16-1.34,4.58a1.81,1.81,0,0,0,2.59.38C596.09,697.54,593,696.91,593,694.69Z"/><path class="a" d="M678.29,745.5a20.57,20.57,0,0,1,10.82-16.77,4.45,4.45,0,0,1,2.69-.67c3.48.53,6.82-1.95,10.41-.1,4.25,2.19,5.41,6.38,2.87,10.39a52.9,52.9,0,0,1-10.79,11.82A13.21,13.21,0,0,1,682.11,753C679.41,752.24,677.79,749.87,678.29,745.5Z"/><path class="a" d="M872.68,211.24c-1.38,2-3.81,2.83-4.86,5.29-2.41-.84-4.6-2.61-7.48-1.36-.74.32-1.69-1.17-2.08-2.16a2,2,0,0,0-2.73-1.28c-.71-3.38-.3-6.59-1.18-9.82-1.34-4.89,2.09-8.48,7.32-8.75a4.59,4.59,0,0,0,2.75-1.45c3.7-3.24,9.58-3,11.84,1.28,2.17,4,4,8.58,2.93,13.47a3.81,3.81,0,0,1-1.49,2.29c-1.19.87-2.48,1.51-3,3.43C874.32,213.76,873.3,212.17,872.68,211.24Z"/><path class="a" d="M585.34,800.58c0,4.58-3.79,10.33-7.54,10.3-2.73,0-5.08-2.37-6.84-4.62a6.81,6.81,0,0,1-1.7-5.52c.55-3.36-1-6.43-1.77-9.6-.7-2.77.67-4.72,3.44-5.18,3.43-.58,6,.67,8.39,3.23C582.43,792.56,584.88,796.14,585.34,800.58Z"/><path class="a" d="M642.15,810.26a8.39,8.39,0,0,1-9.95,8c-2.46-.39-4.82-.43-7.11-2.15-2.73-2-3.63-4.39-3.15-7.36a6.4,6.4,0,0,1,5.25-5.38c3.48-.56,7.13-1.48,10.66.27A7.37,7.37,0,0,1,642.15,810.26Z"/><path class="a" d="M552.41,769c0-6.42,3.43-10.73,8.59-10.75s8.51,3.53,8.53,9.24c0,5.53-4.25,9.6-10.14,9.65C556.46,777.18,552.42,772.46,552.41,769Z"/><path class="a" d="M633.67,687.57c-.55,1.75-.3,3.35-1.41,4.77-2.17,2.74-5.21,3.86-7.73,2.46-2.73-1.52-4.56-5.8-3.62-8.49.29-.8.76-1.54,1-2.35.62-2.29,1-4.7,4.19-4.73a7.72,7.72,0,0,1,6.88,4.83A26.32,26.32,0,0,1,633.67,687.57Z"/><path class="a" d="M558,722.78c.12-5.27,2.36-7.6,7.1-7.64,3.88,0,7.46,3.63,7.75,8.41.15,2.48-3.47,5.91-5.87,5.46C560.56,727.81,557.9,727.37,558,722.78Z"/><path class="a" d="M217.84,554.69c-.39-11.85,3.31-22.49,10.17-31.94,3.36-4.61,7.44-8.78,13.76-9.39,1.15-.11,1.7-1.19,2.49-1.87a43.71,43.71,0,0,1,24-10.61c4.77-.54,8.45,2.84,11.62,5.82,9.13,8.59,14.24,19.09,14.27,31.93,0,6.73.4,13.45-2.11,19.83-4,10.24-8.39,20.56-16.62,28-8,7.28-17.74,10.17-28.66,6.45-6.95-2.37-13.43-5.59-18.31-11.11C221.07,573.54,217.61,566.68,217.84,554.69Zm13.73-7.55c-.42,5.92,1.57,10.17,4.86,14.1,4.74,5.66,11.19,8.57,17.72,11.2,6,2.4,11.93,2.45,17.46-1.8,7.94-6.09,10.45-14.35,11.14-24,.93-13.11-14.68-22.75-25.38-19.71-7.57,2.14-14,5.94-20.43,10.19C233,539.76,231,543.11,231.57,547.14Z"/></svg>